<svg width="232" height="231" viewBox="0 0 232 231" fill="none" xmlns="http://www.w3.org/2000/svg">
<path d="M163.559 181.092C174.07 177.163 184.266 167.365 190.753 158.239C208.415 133.399 213.123 114.079 211.409 89.4733C210.397 74.8821 204.511 60.5669 193.783 50.5758C184.71 42.1255 170.984 39.4483 158.99 42.6683C146.997 45.8883 136.86 54.6284 130.739 65.3832C125.717 74.2151 122.566 85.0987 113.691 90.0851C106.299 94.2251 97.0592 92.9371 89.0666 90.2415C81.074 87.5459 73.3586 83.5577 64.964 82.5273C46.4008 80.2273 28.0595 94.3033 22.8989 112.202C17.7384 130.101 24.4374 150.129 37.3549 163.602C45.0241 171.602 54.5967 177.471 64.9871 181.464C74.8665 185.206 85.3261 187.202 95.8949 187.361C112.527 187.693 148.253 187.564 163.559 181.092Z" fill="#FFFAEE"/>
<path d="M220.198 211.871C220.198 211.94 173.361 211.995 115.592 211.995C57.8238 211.995 10.9771 211.954 10.9771 211.871C10.9771 211.788 57.8054 211.751 115.592 211.751C173.379 211.751 220.198 211.807 220.198 211.871Z" fill="#263238"/>
<path d="M105.049 110.915C104.346 109.402 103.793 107.825 103.4 106.204C103.007 104.571 103.108 102.858 103.691 101.282C103.991 100.502 104.476 99.805 105.107 99.2528C105.737 98.7006 106.493 98.3094 107.309 98.113C108.32 97.9152 109.406 98.0808 110.376 97.7266C111.499 97.3126 112.247 96.2868 113.121 95.4726C114.502 94.197 116.26 93.4 118.133 93.2002C119.111 93.0628 120.108 93.2064 121.007 93.6142C121.452 93.823 121.836 94.1405 122.124 94.537C122.413 94.9335 122.596 95.3961 122.656 95.882C123.785 95.4501 124.965 95.1671 126.167 95.0402C127.383 94.918 128.597 95.2765 129.549 96.0384C130.011 96.4274 130.336 96.9532 130.477 97.5391C130.617 98.1251 130.566 98.7404 130.33 99.2952C130.842 99.0439 131.43 98.9905 131.979 99.1451C132.528 99.2997 133.001 99.6514 133.305 100.132C133.589 100.63 133.722 101.199 133.688 101.77C133.655 102.342 133.456 102.891 133.116 103.352C132.271 104.359 131.093 105.032 129.794 105.252C128.667 105.409 127.355 105.514 126.278 105.156" fill="#263238"/>
<path d="M107.807 143.322L123.977 142.034C124.079 140.152 123.945 132.88 123.945 132.88C123.945 132.88 130.672 131.836 130.755 125.138C130.838 118.44 129.674 103.058 129.674 103.058C125.849 101.421 121.655 100.83 117.524 101.347C113.393 101.863 109.476 103.469 106.177 105.997L105.179 106.761L107.807 143.322Z" fill="#B78876"/>
<path d="M123.959 132.783C120.85 132.842 117.794 131.977 115.181 130.299C115.181 130.299 117.255 135.12 123.959 134.517V132.783Z" fill="#AA6550"/>
<path d="M106.01 113.702C105.9 113.652 101.39 112.322 101.538 116.922C101.686 121.522 106.269 120.414 106.274 120.28C106.278 120.147 106.01 113.702 106.01 113.702Z" fill="#B78876"/>
<path d="M104.814 118.574C104.814 118.574 104.735 118.629 104.601 118.698C104.414 118.784 104.2 118.794 104.005 118.726C103.511 118.565 103.081 117.806 103.03 116.987C103.005 116.595 103.069 116.202 103.215 115.837C103.254 115.692 103.328 115.559 103.43 115.449C103.532 115.339 103.66 115.256 103.802 115.207C103.891 115.184 103.984 115.192 104.068 115.229C104.151 115.266 104.22 115.329 104.264 115.409C104.329 115.533 104.301 115.625 104.324 115.634C104.347 115.644 104.421 115.552 104.379 115.368C104.35 115.254 104.283 115.154 104.19 115.082C104.055 114.99 103.889 114.954 103.728 114.981C103.541 115.025 103.368 115.116 103.226 115.244C103.083 115.373 102.976 115.536 102.915 115.717C102.73 116.12 102.649 116.563 102.679 117.005C102.735 117.925 103.238 118.776 103.908 118.946C104.033 118.979 104.164 118.982 104.29 118.957C104.417 118.931 104.536 118.877 104.638 118.799C104.809 118.698 104.832 118.574 104.814 118.574Z" fill="#AA6550"/>
<path d="M127.47 113.44C127.472 113.688 127.376 113.928 127.204 114.107C127.031 114.286 126.795 114.392 126.546 114.402C126.424 114.411 126.301 114.396 126.185 114.358C126.069 114.319 125.961 114.258 125.869 114.178C125.776 114.098 125.701 114.001 125.647 113.891C125.592 113.782 125.561 113.663 125.553 113.541C125.55 113.292 125.645 113.052 125.818 112.872C125.99 112.691 126.227 112.585 126.477 112.575C126.599 112.566 126.723 112.581 126.839 112.62C126.956 112.658 127.063 112.72 127.156 112.8C127.248 112.881 127.324 112.979 127.378 113.089C127.432 113.198 127.463 113.318 127.47 113.44Z" fill="#263238"/>
<path d="M128.404 112.479C128.283 112.608 127.558 112.069 126.523 112.074C125.488 112.079 124.731 112.589 124.62 112.465C124.509 112.341 124.684 112.184 125.017 111.941C125.466 111.635 125.998 111.474 126.542 111.481C127.077 111.475 127.6 111.636 128.039 111.941C128.353 112.198 128.464 112.424 128.404 112.479Z" fill="#263238"/>
<path d="M117.306 113.44C117.308 113.688 117.212 113.928 117.04 114.107C116.867 114.286 116.631 114.392 116.382 114.402C116.26 114.411 116.137 114.396 116.021 114.358C115.905 114.319 115.797 114.258 115.705 114.178C115.612 114.098 115.537 114.001 115.483 113.891C115.428 113.782 115.397 113.663 115.389 113.541C115.386 113.292 115.481 113.052 115.654 112.872C115.827 112.691 116.063 112.585 116.313 112.575C116.435 112.566 116.559 112.581 116.675 112.62C116.792 112.658 116.899 112.72 116.992 112.8C117.084 112.881 117.16 112.979 117.214 113.089C117.268 113.198 117.299 113.318 117.306 113.44Z" fill="#263238"/>
<path d="M118.239 112.672C118.119 112.796 117.394 112.263 116.359 112.263C115.324 112.263 114.566 112.782 114.456 112.654C114.4 112.598 114.52 112.373 114.853 112.134C115.301 111.826 115.834 111.665 116.378 111.674C116.913 111.666 117.437 111.827 117.874 112.134C118.189 112.391 118.299 112.617 118.239 112.672Z" fill="#263238"/>
<path d="M121.991 120.308C122.536 120.136 123.101 120.034 123.672 120.004C123.936 119.977 124.185 119.926 124.232 119.747C124.251 119.476 124.19 119.206 124.056 118.969L123.275 116.964C122.189 114.116 121.404 111.77 121.52 111.729C121.635 111.688 122.61 113.965 123.691 116.789C123.953 117.491 124.202 118.163 124.439 118.804C124.606 119.12 124.655 119.485 124.578 119.834C124.54 119.927 124.481 120.01 124.406 120.077C124.33 120.144 124.241 120.193 124.144 120.221C123.993 120.262 123.838 120.282 123.682 120.28C123.122 120.362 122.553 120.372 121.991 120.308Z" fill="#263238"/>
<path d="M118.951 121.021C119.117 121.021 119.122 122.125 120.083 122.921C121.044 123.717 122.236 123.592 122.245 123.749C122.245 123.818 121.977 123.965 121.474 123.979C120.816 123.986 120.176 123.763 119.667 123.349C119.178 122.951 118.864 122.381 118.789 121.757C118.748 121.288 118.872 121.012 118.951 121.021Z" fill="#263238"/>
<path d="M128.025 110.671C127.84 110.901 127.128 110.671 126.274 110.671C125.419 110.671 124.689 110.827 124.523 110.584C124.449 110.464 124.564 110.229 124.883 110.009C125.309 109.744 125.804 109.611 126.306 109.626C126.807 109.642 127.293 109.805 127.701 110.096C128.006 110.294 128.103 110.556 128.025 110.671Z" fill="#263238"/>
<path d="M116.895 108.951C116.78 109.079 116.516 109.024 116.17 108.951C115.331 108.752 114.46 108.723 113.61 108.868C113.259 108.909 112.991 108.946 112.885 108.813C112.779 108.679 112.885 108.394 113.245 108.1C113.735 107.745 114.329 107.564 114.934 107.584C115.539 107.604 116.12 107.824 116.586 108.21C116.923 108.537 117.006 108.836 116.895 108.951Z" fill="#263238"/>
<path d="M130.011 105.114C126.773 105.99 123.339 105.816 120.208 104.617C116.719 103.302 112.769 102.888 111.984 103.638C111.199 104.387 111.365 107.81 108.177 109.135C108.177 109.135 109.064 115.607 106.44 115.634C103.816 115.662 104.421 105.441 104.421 105.441L110.469 101.706L117.269 99.7137L123.774 99.0605L130.011 100.303V105.114Z" fill="#263238"/>
<path d="M147.387 158.718C147.387 158.718 159.103 170.729 163.234 168.944C174.465 164.114 183.594 153.883 186.736 150.217C186.87 149.527 187.004 148.718 187.119 147.752C187.216 146.917 187.169 146.072 186.98 145.254C186.79 144.223 186.457 143.223 185.992 142.282C185.479 141.459 186.218 140.47 187.027 140.806C187.835 141.141 189.799 143.317 190.21 146.381C190.26 146.556 190.347 146.718 190.466 146.856C190.585 146.994 190.732 147.105 190.898 147.18C191.064 147.256 191.245 147.295 191.428 147.294C191.61 147.294 191.791 147.253 191.956 147.177C193.989 146.51 200.896 143.842 202.12 143.556C203.215 143.303 204.523 143.368 203.793 144.164C203.063 144.959 197.971 147.926 197.971 147.926C197.971 147.926 204.569 143.906 205.114 144.89C205.488 145.571 204.098 147.135 199.468 149.362C199.468 149.362 204.929 146.091 205.862 146.197C207.96 146.441 201.427 150.443 201.427 150.443C206.047 147.683 205.812 147.494 206.311 148.032C206.685 148.432 205.876 149.348 203.608 151.188C201.76 152.683 200.161 154.596 197.482 157.021C197.482 157.021 169.762 195.408 152.321 183.627C142.92 177.274 140.337 174.073 135.001 169.261" fill="#B78876"/>
<path d="M198.692 152.154C198.761 152.269 200.207 151.482 201.926 150.392C203.645 149.302 204.975 148.327 204.897 148.216C204.818 148.106 203.372 148.897 201.663 149.983C199.953 151.068 198.627 152.053 198.692 152.154Z" fill="#AA6550"/>
<path d="M197.44 150.521C197.505 150.636 199.099 149.881 200.993 148.833C202.887 147.784 204.37 146.841 204.305 146.721C204.241 146.602 202.651 147.361 200.753 148.409C198.854 149.458 197.362 150.401 197.44 150.521Z" fill="#AA6550"/>
<path d="M196.151 148.8C196.216 148.92 197.731 148.23 199.538 147.264C201.344 146.298 202.772 145.424 202.693 145.295C202.614 145.166 201.113 145.866 199.307 146.832C197.5 147.798 196.086 148.681 196.151 148.8Z" fill="#AA6550"/>
<path d="M78.0224 168.254C78.0224 168.254 72.118 183.931 67.6181 183.944C55.3751 183.981 42.9058 178.263 38.5537 176.157C38.1564 175.577 37.7036 174.887 37.2093 174.05C36.7866 173.324 36.4898 172.532 36.3315 171.708C36.0952 170.686 35.9989 169.637 36.0451 168.59C36.1837 167.633 35.121 167.016 34.502 167.67C33.8829 168.323 32.9681 171.078 33.8274 174.05C33.8523 174.23 33.8375 174.413 33.7841 174.587C33.7307 174.761 33.6401 174.921 33.5184 175.057C33.3967 175.193 33.2469 175.3 33.0793 175.373C32.9117 175.445 32.7303 175.48 32.5477 175.476C30.4179 175.674 23.0166 175.982 21.7739 176.212C20.6697 176.419 19.4962 176.998 20.4849 177.435C21.2056 177.753 24.4951 178.204 26.2414 178.424C24.1208 178.185 19.644 177.776 19.5701 178.627C19.5239 179.128 20.3093 179.671 22.2451 180.044C20.9238 179.956 19.7318 179.938 19.4131 180.126C17.5651 181.184 25.1834 182.242 25.1834 182.242C19.8519 181.548 19.9767 181.295 19.7364 181.985C19.5563 182.5 20.6604 183.02 23.4833 183.825C25.7933 184.46 28.0109 185.568 31.4435 186.723C31.4435 186.723 72.2936 210.836 83.5248 193.089C89.5816 183.521 90.6627 179.556 93.6149 173.015L78.0224 168.254Z" fill="#B78876"/>
<path d="M28.3804 182.702C28.3804 182.836 26.7219 182.702 24.6844 182.376C22.647 182.049 21.0624 181.704 21.0901 181.571C21.1178 181.437 22.7625 181.571 24.7861 181.897C26.8096 182.224 28.3943 182.569 28.3804 182.702Z" fill="#AA6550"/>
<path d="M28.8656 180.674C28.8656 180.807 27.0915 180.752 24.934 180.55C22.7764 180.347 21.0347 180.09 21.0485 179.933C21.0624 179.777 22.818 179.86 24.9802 180.062C27.1423 180.264 28.8748 180.559 28.8656 180.674Z" fill="#AA6550"/>
<path d="M29.3553 178.604C29.3553 178.737 27.6782 178.714 25.6315 178.544C23.5849 178.374 21.9355 178.135 21.9355 178.001C21.9355 177.868 23.6126 177.895 25.6593 178.061C27.7059 178.227 29.3645 178.47 29.3553 178.604Z" fill="#AA6550"/>
<path d="M161.21 168.981L141.885 147.508C136.502 142.241 133.629 140.668 126.14 139.784C124.915 139.642 123.94 139.55 123.243 139.462C117.631 141.229 111.608 141.229 105.996 139.462C103.331 139.573 101.122 140.382 98.8585 140.842C91.716 142.222 86.5785 147.384 85.151 152.163L69.041 183.494L82.6469 194.879L95.0747 175.237L95.8324 196.144L95.0609 211.784L142.762 211.922L140.596 175.246L153.435 185.651L161.21 168.981Z" fill="#F6C85C"/>
<path d="M95.2919 162.076C95.3398 162.306 95.36 162.541 95.352 162.775C95.352 163.235 95.3843 163.87 95.3982 164.675C95.3982 166.276 95.4305 168.493 95.3982 170.94C95.3659 173.387 95.3566 175.605 95.3197 177.205C95.3197 178.01 95.2781 178.659 95.2596 179.105C95.2656 179.339 95.2423 179.572 95.1903 179.8C95.1393 179.572 95.1176 179.339 95.1256 179.105C95.1256 178.645 95.0933 178.006 95.0794 177.205C95.0563 175.6 95.0471 173.387 95.0794 170.936C95.1117 168.484 95.121 166.276 95.1579 164.67C95.1579 163.87 95.1995 163.221 95.2226 162.771C95.2142 162.537 95.2375 162.303 95.2919 162.076Z" fill="#263238"/>
<path d="M141.404 188.954C141.33 188.599 141.284 188.239 141.266 187.877C141.196 187.123 141.108 186.129 140.998 184.933C140.79 182.445 140.536 179.004 140.258 175.204C139.981 171.405 139.759 167.982 139.612 165.494C139.551 164.293 139.496 163.295 139.459 162.541C139.429 162.179 139.429 161.816 139.459 161.455C139.536 161.809 139.584 162.169 139.602 162.531C139.672 163.286 139.759 164.279 139.866 165.475C140.074 167.964 140.328 171.405 140.609 175.204C140.891 179.004 141.104 182.445 141.252 184.938C141.316 186.139 141.367 187.137 141.409 187.891C141.435 188.245 141.434 188.6 141.404 188.954Z" fill="#263238"/>
<g opacity="0.3">
<path opacity="0.3" d="M148.477 154.734C148.477 154.799 134.003 154.854 116.137 154.854C98.2718 154.854 83.7974 154.799 83.7974 154.734C83.7974 154.67 98.2718 154.615 116.137 154.615C134.003 154.615 148.477 154.665 148.477 154.734Z" fill="#EBEBEB"/>
</g>
<g opacity="0.3">
<path opacity="0.3" d="M153.471 173.815C153.471 173.884 135.832 173.935 114.081 173.935C92.3304 173.935 74.6866 173.884 74.6866 173.815C74.6866 173.746 92.3212 173.696 114.081 173.696C135.842 173.696 153.471 173.774 153.471 173.815Z" fill="#EBEBEB"/>
</g>
<g opacity="0.3">
<path opacity="0.3" d="M141.792 195.573C141.792 195.642 131.55 195.693 118.914 195.693C106.278 195.693 96.0358 195.642 96.0358 195.573C96.0358 195.504 106.278 195.454 118.914 195.454C131.55 195.454 141.792 195.509 141.792 195.573Z" fill="#EBEBEB"/>
</g>
<g opacity="0.3">
<path opacity="0.3" d="M101.155 211.871C101.09 211.871 101.035 195.845 101.035 176.083C101.035 156.321 101.09 140.286 101.155 140.286C101.219 140.286 101.266 156.294 101.266 176.074C101.266 195.854 101.224 211.871 101.155 211.871Z" fill="#EBEBEB"/>
</g>
<g opacity="0.3">
<path opacity="0.3" d="M128.801 211.876C128.801 211.876 128.801 211.811 128.801 211.692C128.801 211.572 128.801 211.374 128.801 211.144C128.801 210.657 128.801 209.953 128.778 209.056C128.778 207.216 128.741 204.598 128.718 201.365C128.658 194.856 128.574 185.89 128.487 175.986C128.399 166.083 128.334 157.099 128.329 150.604C128.329 147.384 128.329 144.743 128.329 142.912C128.329 141.992 128.329 141.312 128.353 140.824C128.353 140.594 128.353 140.41 128.353 140.277C128.347 140.215 128.347 140.154 128.353 140.093C128.353 140.093 128.353 140.157 128.353 140.277C128.353 140.396 128.353 140.594 128.353 140.824C128.353 141.312 128.353 142.015 128.376 142.912C128.376 144.752 128.413 147.365 128.436 150.604C128.496 157.108 128.579 166.078 128.667 175.986C128.755 185.895 128.819 194.846 128.824 201.36C128.824 204.58 128.824 207.225 128.824 209.056C128.824 209.953 128.824 210.657 128.824 211.144C128.824 211.374 128.824 211.554 128.824 211.692C128.822 211.753 128.814 211.815 128.801 211.876Z" fill="#EBEBEB"/>
</g>
<g opacity="0.3">
<path opacity="0.3" d="M148.357 181.281C148.293 181.281 148.237 175.485 148.237 168.337C148.237 161.188 148.293 155.392 148.357 155.392C148.422 155.392 148.477 161.184 148.477 168.337C148.477 175.49 148.427 181.281 148.357 181.281Z" fill="#EBEBEB"/>
</g>
<g opacity="0.3">
<path opacity="0.3" d="M79.5146 186.585C79.4453 186.585 79.3945 181.12 79.3945 174.376C79.3945 167.633 79.4453 162.163 79.5146 162.163C79.5839 162.163 79.6348 167.628 79.6348 174.376C79.6348 181.125 79.5793 186.585 79.5146 186.585Z" fill="#EBEBEB"/>
</g>
<path d="M104.213 140.093L106.847 134.582L115.472 140.635L123.982 134.941L126.976 139.78L118.447 145.3H112.746L104.213 140.732" fill="#F6C85C"/>
<path d="M115.472 140.654C115.42 140.676 115.366 140.692 115.31 140.7C115.151 140.719 114.996 140.761 114.848 140.824C114.316 141.04 113.866 141.418 113.564 141.905C113.096 142.633 112.699 143.403 112.377 144.205C112.173 144.665 111.97 145.125 111.711 145.617C111.457 146.127 111.122 146.594 110.718 146.997L110.635 147.075L110.552 146.988L110.062 146.482C108.353 144.697 106.897 143 105.904 141.739C105.396 141.109 104.98 140.594 104.731 140.231C104.579 140.051 104.446 139.857 104.333 139.651C104.504 139.809 104.659 139.983 104.795 140.171L106.024 141.634C107.068 142.862 108.542 144.541 110.242 146.316L110.732 146.822H110.566C110.954 146.438 111.276 145.992 111.517 145.502C111.771 145.042 111.979 144.559 112.187 144.122C112.526 143.316 112.946 142.545 113.439 141.822C113.769 141.322 114.257 140.945 114.825 140.75C114.974 140.7 115.13 140.672 115.287 140.668C115.412 140.626 115.472 140.626 115.472 140.654Z" fill="#263238"/>
<path d="M126.823 139.886C126.704 140.084 126.563 140.269 126.403 140.438C126.112 140.783 125.687 141.27 125.133 141.845C123.676 143.342 122.084 144.703 120.379 145.912C120.004 146.174 119.63 146.427 119.27 146.661L119.103 146.767V146.565C118.998 145.596 118.762 144.646 118.401 143.74C118.133 143.006 117.748 142.319 117.26 141.707C116.945 141.294 116.521 140.976 116.036 140.787C115.694 140.672 115.486 140.658 115.491 140.635C115.495 140.612 115.541 140.635 115.638 140.635C115.783 140.64 115.925 140.663 116.063 140.704C116.58 140.871 117.037 141.183 117.38 141.601C117.9 142.215 118.312 142.912 118.6 143.662C118.98 144.588 119.23 145.562 119.344 146.556L119.159 146.464C119.515 146.224 119.884 145.976 120.258 145.714C121.954 144.515 123.548 143.181 125.026 141.726C125.599 141.169 126.043 140.7 126.352 140.378C126.495 140.201 126.653 140.036 126.823 139.886Z" fill="#263238"/>
<path d="M118.752 211.876C118.752 211.876 118.752 211.811 118.752 211.692C118.752 211.572 118.752 211.383 118.752 211.153C118.752 210.67 118.752 209.976 118.725 209.088C118.725 207.28 118.674 204.686 118.632 201.484C118.54 195.067 118.332 186.203 117.884 176.419C117.436 166.635 116.816 157.789 116.322 151.39C116.063 148.198 115.86 145.613 115.712 143.809C115.643 142.926 115.588 142.236 115.546 141.753C115.546 141.523 115.518 141.348 115.514 141.215C115.507 141.154 115.507 141.092 115.514 141.031C115.514 141.031 115.514 141.091 115.541 141.21C115.569 141.33 115.574 141.523 115.601 141.749C115.652 142.232 115.722 142.922 115.809 143.805C115.989 145.59 116.225 148.175 116.498 151.376C117.038 157.77 117.676 166.621 118.129 176.41C118.581 186.198 118.757 195.063 118.808 201.484C118.835 204.704 118.835 207.294 118.808 209.088C118.808 209.976 118.808 210.67 118.808 211.153C118.808 211.383 118.808 211.558 118.808 211.692C118.795 211.755 118.777 211.816 118.752 211.876Z" fill="#263238"/>
<g opacity="0.2">
<path opacity="0.2" d="M115.269 140.654C116.318 141.247 116.706 142.567 116.71 143.763C116.715 144.959 116.428 146.155 116.53 147.351C116.529 147.665 116.602 147.975 116.741 148.257C116.88 148.539 117.083 148.784 117.334 148.975C118.064 149.435 118.993 149.003 119.741 148.593C121.349 147.715 122.975 146.818 124.292 145.539C124.922 144.893 125.411 144.124 125.729 143.281C126.047 142.438 126.187 141.539 126.14 140.64C123.922 143.009 121.686 144.44 119.26 146.307C119.087 145.046 118.673 143.83 118.041 142.724C117.412 141.638 116.521 140.516 115.269 140.654Z" fill="black"/>
</g>
<g opacity="0.2">
<path opacity="0.2" d="M107.345 143.377C108.163 144.973 109.023 146.597 110.432 147.733C111.055 148.225 111.97 148.598 112.621 148.138C113.144 147.765 113.231 147.043 113.273 146.404C113.384 144.785 113.864 142.922 113.975 141.298C112.686 142.747 111.979 145.3 110.621 147.052C109.235 146.183 108.436 144.697 107.438 143.405" fill="black"/>
</g>
<g opacity="0.2">
<path opacity="0.2" d="M149.314 182.054L155.749 170.135C153.846 170.324 152.566 172.113 151.591 173.751C150.616 175.388 149.42 177.205 147.53 177.532C146.218 177.757 144.906 177.173 143.76 176.492C142.615 175.812 141.506 175.007 140.203 174.721L149.314 182.054Z" fill="black"/>
</g>
<g opacity="0.2">
<path opacity="0.2" d="M92.7786 178.834C92.7786 178.834 88.2972 183.53 85.2757 184.22C83.7564 184.554 82.1834 184.562 80.6606 184.245C79.1378 183.928 77.7 183.292 76.4423 182.38C76.2496 182.212 76.0203 182.091 75.7724 182.026C75.6471 182.001 75.5168 182.024 75.4078 182.09C75.2989 182.157 75.2194 182.262 75.1857 182.385C75.1906 182.497 75.2216 182.606 75.2761 182.705C75.3306 182.803 75.4072 182.887 75.4998 182.951C78.5798 185.806 81.7892 188.523 85.1279 191.102L92.7786 178.834Z" fill="black"/>
</g>
<g opacity="0.2">
<path opacity="0.2" d="M113.883 146.818C112.183 160.339 111.072 173.915 110.552 187.546C110.473 189.676 110.418 191.87 111.18 193.862C112.067 196.162 113.952 197.956 115.8 199.64C116.581 200.357 117.648 201.13 118.6 200.684C118.963 200.48 119.272 200.193 119.501 199.847C120.656 198.365 121.737 196.765 122.166 194.934C123.506 189.202 118.073 183.53 119.297 177.771" fill="black"/>
</g>
<g opacity="0.3">
<path opacity="0.3" d="M75.3936 182.85C74.962 183.444 74.4679 183.992 73.9199 184.483C73.4263 185.029 72.8749 185.521 72.2751 185.95C73.1993 184.808 74.2449 183.768 75.3936 182.85Z" fill="#EBEBEB"/>
</g>
<g opacity="0.3">
<path opacity="0.3" d="M82.633 189.308C82.1614 189.925 81.6273 190.492 81.0391 191.001C80.5049 191.566 79.9152 192.076 79.2789 192.523C79.749 191.905 80.2833 191.338 80.8728 190.831C81.4059 190.265 81.9957 189.754 82.633 189.308Z" fill="#EBEBEB"/>
</g>
<g opacity="0.5">
<path opacity="0.5" d="M110.196 137.181C109.74 138.103 109.213 138.989 108.621 139.83C108.097 140.716 107.503 141.559 106.847 142.351C107.305 141.43 107.832 140.545 108.422 139.702C108.944 138.815 109.537 137.972 110.196 137.181Z" fill="#EBEBEB"/>
</g>
<g opacity="0.5">
<path opacity="0.5" d="M123.904 142.521C123.373 141.651 122.91 140.742 122.518 139.803C122.054 138.895 121.663 137.952 121.349 136.983C122.347 138.753 123.203 140.598 123.908 142.503L123.904 142.521Z" fill="#EBEBEB"/>
</g>
<path d="M154.049 184.538C153.923 184.829 153.705 185.071 153.428 185.227C153.151 185.384 152.831 185.447 152.515 185.407C151.841 185.334 151.226 184.947 150.547 184.897C150.164 184.855 149.725 184.897 149.438 184.634C149.314 184.478 149.229 184.293 149.193 184.097C149.157 183.9 149.17 183.698 149.23 183.507C149.66 180.964 151.046 178.687 152.534 176.575C154.021 174.464 155.652 172.435 156.692 170.057C157.274 168.723 157.828 167.131 159.21 166.653C159.789 166.48 160.413 166.536 160.951 166.811C161.489 167.085 161.9 167.556 162.097 168.125C162.444 169.266 161.848 170.453 161.27 171.492L154.049 184.538Z" fill="#F6C85C"/>
<path d="M158.669 169.027C158.615 169.249 158.543 169.466 158.452 169.675C158.299 170.085 158.064 170.673 157.768 171.396C157.172 172.84 156.308 174.823 155.287 176.98C154.266 179.137 153.268 181.06 152.515 182.436C152.146 183.121 151.836 183.673 151.614 184.05C151.51 184.252 151.388 184.445 151.249 184.625C151.326 184.412 151.42 184.206 151.531 184.009L152.367 182.353C153.074 180.973 154.04 179.032 155.061 176.879C156.082 174.726 156.973 172.739 157.606 171.327C157.911 170.646 158.165 170.08 158.359 169.638C158.444 169.426 158.548 169.221 158.669 169.027Z" fill="#263238"/>
<path d="M157.893 166.478C157.795 166.695 157.677 166.903 157.542 167.099L156.539 168.746C155.694 170.126 154.553 172.067 153.361 174.266C152.169 176.465 151.162 178.452 150.445 179.91L149.605 181.644C149.511 181.862 149.4 182.071 149.272 182.27C149.333 182.042 149.415 181.82 149.517 181.608C149.692 181.184 149.956 180.582 150.293 179.841C150.968 178.36 151.956 176.336 153.148 174.151C154.34 171.966 155.514 170.043 156.382 168.672C156.844 167.987 157.191 167.44 157.449 167.067C157.576 166.856 157.725 166.659 157.893 166.478Z" fill="#263238"/>
<g opacity="0.5">
<path opacity="0.5" d="M155.657 181.272C154.784 181.154 153.938 180.891 153.153 180.494C152.333 180.174 151.571 179.722 150.898 179.156C150.935 179.096 151.938 179.699 153.25 180.278C154.562 180.858 155.675 181.207 155.657 181.272Z" fill="#EBEBEB"/>
</g>
<g opacity="0.5">
<path opacity="0.5" d="M161.326 171.768C160.479 171.364 159.661 170.903 158.877 170.388C158.05 169.938 157.253 169.434 156.493 168.879C157.372 169.229 158.212 169.667 159.002 170.186C159.829 170.633 160.607 171.163 161.326 171.768Z" fill="#EBEBEB"/>
</g>
<path d="M168.579 25.663L167.655 27.342L165.973 28.2574L167.655 29.1774L168.579 30.8518L169.498 29.1774L171.185 28.2574L169.498 27.342L168.579 25.663Z" fill="#455A64"/>
<path d="M201.594 125.152L200.67 126.826L198.988 127.746L200.67 128.662L201.594 130.336L202.513 128.662L204.199 127.746L202.513 126.826L201.594 125.152Z" fill="#455A64"/>
<path d="M52.7788 30.8794L51.8548 32.5538L50.1731 33.4738L51.8548 34.3892L52.7788 36.0636L53.6982 34.3892L55.3845 33.4738L53.6982 32.5538L52.7788 30.8794Z" fill="#455A64"/>
<path d="M189.466 78.7884L188.898 79.8188L187.863 80.38L188.898 80.9458L189.466 81.9762L190.034 80.9458L191.065 80.38L190.034 79.8188L189.466 78.7884Z" fill="#455A64"/>
<path d="M114.349 49.537L113.781 50.572L112.746 51.1332L113.781 51.6944L114.349 52.7294L114.913 51.6944L115.948 51.1332L114.913 50.572L114.349 49.537Z" fill="#455A64"/>
<path d="M82.0881 76.0743L81.5799 76.9897L80.6652 77.4911L81.5799 77.9925L82.0881 78.908L82.5917 77.9925L83.5065 77.4911L82.5917 76.9897L82.0881 76.0743Z" fill="#455A64"/>
<path d="M143.026 120.202L142.522 121.122L141.603 121.624L142.522 122.125L143.026 123.04L143.534 122.125L144.449 121.624L143.534 121.122L143.026 120.202Z" fill="#455A64"/>
<path d="M54.405 128.846L53.9014 129.761L52.9821 130.262L53.9014 130.764L54.405 131.679L54.9086 130.764L55.828 130.262L54.9086 129.761L54.405 128.846Z" fill="#455A64"/>
<path d="M33.5503 51.0136C33.5503 51.0136 36.3223 49.5508 39.4269 51.7588C41.3396 53.1388 45.4006 55.2364 46.6526 53.953L48.1911 49.008C46.1702 48.5844 44.2668 47.7256 42.6147 46.4918C40.1615 44.5598 35.2736 44.6518 35.2736 44.6518L33.5503 51.0136Z" fill="#F6C85C"/>
<g opacity="0.4">
<path opacity="0.4" d="M42.2174 47.1174C42.5282 47.2934 42.7972 47.5341 43.006 47.8231C43.2148 48.1121 43.3585 48.4425 43.4274 48.7918C43.4962 49.1411 43.4886 49.5011 43.4049 49.8473C43.3213 50.1934 43.1637 50.5174 42.9428 50.7974C42.1066 51.7818 40.1708 51.5242 39.1867 50.687C38.9518 50.4889 38.7583 50.2467 38.6175 49.9742C38.4766 49.7017 38.391 49.4042 38.3657 49.0987C38.3404 48.7933 38.3758 48.4858 38.4699 48.194C38.564 47.9022 38.715 47.6317 38.9141 47.398C39.7504 46.4044 41.0994 46.4688 42.2174 47.1174Z" fill="white"/>
</g>
<path d="M42.1666 48.1018C42.1666 48.134 42.0465 48.1018 41.894 48.042C41.6929 47.9524 41.482 47.8861 41.2657 47.8442C41.1345 47.819 40.9996 47.819 40.8684 47.8442C40.7455 47.8701 40.6359 47.9386 40.5589 48.0374C40.5271 48.0884 40.5073 48.146 40.5009 48.2057C40.4945 48.2654 40.5017 48.3258 40.5219 48.3824C40.5589 48.4836 40.679 48.5756 40.873 48.6722C40.9654 48.7182 41.0717 48.7642 41.1826 48.824C41.3076 48.8862 41.4203 48.9703 41.5152 49.0724C41.5676 49.1294 41.6127 49.1928 41.6492 49.261C41.6869 49.3329 41.7119 49.4107 41.7231 49.491C41.7513 49.6473 41.7286 49.8084 41.6584 49.951C41.5998 50.0777 41.509 50.1871 41.3951 50.2684C41.2916 50.3409 41.1733 50.3896 41.0486 50.411C40.8518 50.4429 40.6502 50.4255 40.4618 50.3604C40.3201 50.3128 40.1862 50.2446 40.0645 50.158C39.9759 50.0992 39.8924 50.0331 39.815 49.9602C39.6903 49.836 39.6349 49.7532 39.658 49.721C39.6811 49.6888 39.7735 49.721 39.9305 49.7762C40.1311 49.8683 40.3421 49.9363 40.5589 49.9786C40.6868 50.0059 40.819 50.0059 40.9469 49.9786C41.001 49.9648 41.051 49.9385 41.0927 49.9017C41.1345 49.8649 41.1669 49.8187 41.1872 49.767C41.2031 49.7176 41.2031 49.6645 41.1872 49.6152C41.1898 49.5938 41.1898 49.5722 41.1872 49.5508C41.1716 49.5256 41.153 49.5025 41.1317 49.4818C40.9806 49.3675 40.8142 49.2746 40.6374 49.2058C40.5145 49.1488 40.3996 49.0761 40.2955 48.9896C40.2385 48.9389 40.186 48.8835 40.1384 48.824C40.0907 48.7596 40.0533 48.6882 40.0276 48.6124C39.9669 48.4689 39.9456 48.3119 39.9659 48.1575C39.9862 48.0031 40.0473 47.8569 40.1431 47.7338C40.2222 47.6357 40.3201 47.5542 40.4311 47.4942C40.5422 47.4342 40.6641 47.3968 40.7899 47.3842C40.9829 47.3625 41.1784 47.3829 41.3627 47.444C41.6073 47.5269 41.83 47.6637 42.0142 47.8442C42.1297 47.9868 42.1897 48.0742 42.1666 48.1018Z" fill="#F6C85C"/>
<path d="M41.2379 47.0346C41.1771 47.6675 41.0214 48.2877 40.7759 48.8746C40.6233 49.4894 40.3804 50.0784 40.0552 50.6226C40.1219 49.9908 40.2774 49.3714 40.5172 48.7826C40.6723 48.1687 40.9151 47.58 41.2379 47.0346Z" fill="#F6C85C"/>
<path d="M41.6121 47.2737C41.5693 47.8483 41.4336 48.4121 41.2102 48.9435C40.9145 49.8635 40.6142 50.5489 40.5403 50.5213C40.5891 49.9488 40.7262 49.3871 40.9468 48.8561C41.083 48.2969 41.3076 47.7628 41.6121 47.2737Z" fill="#F6C85C"/>
<g opacity="0.5">
<path opacity="0.5" d="M47.5674 49.3254L46.1491 53.815H46.1029C43.8806 54.275 41.0624 52.343 39.2006 51.055C38.8772 50.8342 38.5723 50.6272 38.3089 50.457C37.7088 50.0984 37.0274 49.8965 36.328 49.87C35.6286 49.8435 34.9338 49.9931 34.308 50.3052L34.1602 50.2454L35.6108 45.374H35.6617C36.9949 45.1957 38.3508 45.2954 39.6432 45.6668C40.9356 46.0383 42.1364 46.6732 43.1692 47.5314C44.5552 48.7412 47.4473 49.284 47.475 49.2886L47.5674 49.3254ZM46.0197 53.6724L47.3549 49.4496C46.8374 49.3484 44.3611 48.8056 43.0629 47.674C42.0554 46.8363 40.8848 46.2151 39.6246 45.8494C38.3645 45.4837 37.042 45.3813 35.7402 45.5488L34.3819 50.0982C34.5223 50.0322 34.6675 49.9768 34.8162 49.9326C35.4092 49.7504 36.0338 49.6932 36.6502 49.7645C37.2666 49.8358 37.8614 50.034 38.3967 50.3466L39.293 50.9446C41.1179 52.1912 43.876 54.068 46.0197 53.6724Z" fill="white"/>
</g>
<path d="M207.276 90.8127C207.276 90.8127 207.244 96.1763 201.427 99.0375C197.824 100.809 191.356 105.234 192.312 108.118L198.558 114.397C198.558 114.397 201.871 110.22 206.846 108.049C211.739 105.919 215.5 98.4947 215.5 98.4947L207.276 90.8127Z" fill="#F6C85C"/>
<g opacity="0.4">
<path opacity="0.4" d="M206.214 106.95C205.7 107.273 205.123 107.482 204.521 107.564C203.919 107.646 203.306 107.598 202.724 107.423C202.142 107.249 201.605 106.952 201.149 106.553C200.692 106.154 200.327 105.661 200.078 105.11C199.261 103.063 201.201 100.376 203.252 99.5619C204.236 99.1714 205.336 99.185 206.31 99.5997C207.284 100.014 208.053 100.796 208.45 101.775C209.272 103.817 208.094 105.79 206.214 106.95Z" fill="white"/>
</g>
<path d="M204.754 106.085C204.726 106.02 204.846 105.901 205.063 105.721C205.361 105.492 205.633 105.229 205.872 104.939C206.009 104.756 206.111 104.548 206.172 104.328C206.232 104.123 206.214 103.903 206.121 103.711C206.071 103.621 206 103.544 205.914 103.486C205.828 103.429 205.73 103.392 205.627 103.38C205.362 103.389 205.11 103.491 204.915 103.67C204.767 103.776 204.615 103.9 204.453 104.015C204.257 104.149 204.04 104.252 203.811 104.318C203.681 104.352 203.548 104.368 203.414 104.364C203.275 104.365 203.137 104.34 203.007 104.291C202.76 104.202 202.544 104.042 202.388 103.831C202.254 103.648 202.165 103.437 202.13 103.214C202.095 102.99 202.113 102.762 202.185 102.547C202.295 102.227 202.482 101.937 202.73 101.706C202.918 101.532 203.13 101.385 203.358 101.269C203.519 101.183 203.688 101.112 203.862 101.057C204.144 100.965 204.324 100.951 204.324 101.006C204.324 101.062 204.241 101.195 204.024 101.379C203.725 101.608 203.452 101.868 203.211 102.156C203.075 102.333 202.979 102.537 202.929 102.754C202.906 102.847 202.906 102.945 202.929 103.038C202.953 103.131 202.998 103.217 203.063 103.288C203.12 103.353 203.196 103.401 203.28 103.426C203.32 103.433 203.36 103.433 203.4 103.426C203.448 103.425 203.497 103.417 203.543 103.403C203.84 103.269 204.117 103.094 204.366 102.883C204.549 102.744 204.749 102.628 204.961 102.538C205.084 102.494 205.211 102.461 205.34 102.442C205.476 102.419 205.615 102.419 205.752 102.442C206.001 102.478 206.238 102.576 206.44 102.727C206.641 102.879 206.802 103.078 206.907 103.306C206.99 103.504 207.033 103.717 207.033 103.932C207.033 104.147 206.99 104.359 206.907 104.558C206.784 104.865 206.597 105.143 206.357 105.372C206.033 105.67 205.649 105.894 205.229 106.03C204.966 106.154 204.791 106.154 204.754 106.085Z" fill="#F6C85C"/>
<path d="M207.124 105.547C207.031 105.639 205.955 104.673 204.721 103.389C203.488 102.106 202.559 100.997 202.651 100.905C202.744 100.813 203.825 101.779 205.063 103.063C206.301 104.346 207.221 105.455 207.124 105.547Z" fill="#F6C85C"/>
<path d="M206.491 105.928C206.398 106.02 205.41 105.151 204.292 103.987C203.174 102.823 202.337 101.807 202.444 101.715C202.55 101.623 203.525 102.497 204.643 103.661C205.761 104.824 206.602 105.841 206.491 105.928Z" fill="#F6C85C"/>
<g opacity="0.5">
<path opacity="0.5" d="M198.581 113.206L192.922 107.474L192.95 107.396C194.049 103.716 199.219 101.016 202.652 99.2354C203.238 98.9318 203.797 98.642 204.269 98.3798C207.424 96.6318 207.844 92.8 207.706 92.501L207.923 92.3216L214.128 98.4074L214.1 98.4902C213.303 100.635 212.065 102.592 210.466 104.234C208.867 105.877 206.942 107.17 204.814 108.031C201.866 109.153 198.729 113.045 198.697 113.091L198.581 113.206ZM193.241 107.396L198.563 112.782C199.131 112.092 201.945 108.813 204.698 107.768C206.775 106.928 208.655 105.67 210.22 104.071C211.784 102.473 213 100.57 213.79 98.481L207.988 92.8138C207.973 93.075 207.939 93.3349 207.886 93.5912C207.72 94.4146 206.962 97.2022 204.384 98.6512C203.922 98.9134 203.354 99.2078 202.762 99.5114C199.413 101.232 194.363 103.854 193.241 107.396Z" fill="white"/>
</g>
<path d="M210.233 45.7144C210.233 45.7144 206.81 46.4688 204.144 43.2074C202.499 41.1834 198.762 37.738 197.043 38.7546L193.938 43.5938C195.981 44.6378 197.771 46.1135 199.182 47.9178C201.247 50.6778 206.518 52.0072 206.518 52.0072L210.233 45.7144Z" fill="#F6C85C"/>
<g opacity="0.4">
<path opacity="0.4" d="M199.792 47.3704C199.514 47.0907 199.3 46.7554 199.164 46.3867C199.027 46.018 198.971 45.6246 199 45.2326C199.028 44.8407 199.14 44.4593 199.329 44.114C199.517 43.7687 199.777 43.4675 200.092 43.2304C201.279 42.4162 203.271 43.258 204.088 44.4356C204.479 45.0037 204.628 45.703 204.501 46.38C204.375 47.0571 203.984 47.6565 203.414 48.0466C202.231 48.8516 200.803 48.3916 199.792 47.3704Z" fill="white"/>
</g>
<path d="M200.134 46.3538C200.171 46.3262 200.263 46.386 200.411 46.4964C200.599 46.6521 200.805 46.7849 201.025 46.892C201.161 46.9562 201.309 46.9907 201.459 46.9932C201.598 47.0039 201.735 46.961 201.843 46.8736C201.893 46.8291 201.933 46.7735 201.958 46.7112C201.982 46.6489 201.992 46.5816 201.986 46.5148C201.941 46.3481 201.838 46.2028 201.695 46.1054C201.607 46.0272 201.506 45.949 201.409 45.8524C201.293 45.7481 201.197 45.6253 201.122 45.489C201.082 45.4122 201.052 45.3302 201.034 45.2452C201.021 45.1568 201.021 45.0668 201.034 44.9784C201.054 44.8081 201.125 44.6477 201.238 44.5184C201.337 44.3997 201.466 44.3093 201.612 44.2562C201.743 44.2065 201.884 44.1892 202.023 44.2056C202.243 44.2294 202.453 44.3051 202.638 44.4264C202.776 44.519 202.9 44.6305 203.007 44.7576C203.085 44.8477 203.155 44.9447 203.215 45.0474C203.317 45.213 203.349 45.3188 203.317 45.3464C203.284 45.374 203.187 45.3188 203.035 45.2084C202.846 45.0522 202.64 44.9179 202.42 44.8082C202.29 44.7484 202.148 44.717 202.005 44.7162C201.942 44.7141 201.879 44.7277 201.822 44.7558C201.766 44.7839 201.717 44.8256 201.681 44.8772C201.648 44.923 201.629 44.9772 201.626 45.0336C201.619 45.0592 201.619 45.0862 201.626 45.1118C201.635 45.1421 201.647 45.1714 201.663 45.1992C201.792 45.3754 201.948 45.5306 202.125 45.6592C202.24 45.7563 202.343 45.8676 202.43 45.9904C202.478 46.0609 202.518 46.1365 202.55 46.2158C202.583 46.298 202.604 46.3849 202.61 46.4734C202.621 46.6368 202.592 46.8006 202.524 46.95C202.457 47.0993 202.353 47.2295 202.222 47.329C202.109 47.4115 201.98 47.4707 201.844 47.5031C201.707 47.5355 201.566 47.5404 201.427 47.5176C201.213 47.4882 201.009 47.4094 200.831 47.2876C200.591 47.1286 200.392 46.916 200.249 46.6666C200.134 46.4642 200.101 46.3538 200.134 46.3538Z" fill="#F6C85C"/>
<path d="M200.817 47.7337C200.748 47.6877 201.205 46.8689 201.843 45.8937C202.481 44.9185 203.058 44.1825 203.132 44.2285C203.206 44.2745 202.744 45.0979 202.102 46.0685C201.46 47.0391 200.887 47.7935 200.817 47.7337Z" fill="#F6C85C"/>
<path d="M200.48 47.398C200.411 47.352 200.822 46.6022 201.404 45.7282C201.986 44.8542 202.513 44.178 202.582 44.2286C202.651 44.2792 202.24 45.0244 201.658 45.8984C201.076 46.7724 200.554 47.444 200.48 47.398Z" fill="#F6C85C"/>
<g opacity="0.5">
<path opacity="0.5" d="M194.7 43.4512L197.542 39.0444H197.593C200.106 39.21 202.564 42.0896 204.195 43.994C204.472 44.3206 204.74 44.6288 204.971 44.914C205.509 45.4728 206.181 45.8872 206.923 46.1188C207.665 46.3504 208.454 46.3917 209.216 46.2388L209.36 46.3492L206.375 51.1516H206.32C204.837 50.9569 203.411 50.4563 202.133 49.6816C200.856 48.9069 199.754 47.8753 198.9 46.6528C197.759 44.9554 194.825 43.534 194.793 43.5202L194.7 43.4512ZM197.634 39.2376L194.968 43.3776C195.49 43.6352 197.985 44.9416 199.052 46.5286C199.885 47.7242 200.957 48.7348 202.201 49.4965C203.446 50.2582 204.836 50.7544 206.283 50.9538L209.055 46.4734C208.885 46.5015 208.714 46.5169 208.542 46.5194C207.853 46.544 207.166 46.4249 206.525 46.1698C205.885 45.9148 205.305 45.5293 204.823 45.0382C204.587 44.776 204.319 44.4632 204.037 44.1182C202.444 42.2506 200.05 39.4538 197.634 39.2376Z" fill="white"/>
</g>
<path d="M168.302 49.2472C168.302 49.2472 164.01 52.4672 158.189 49.6428C154.585 47.8764 147.142 45.4614 145.4 47.9776L144.208 56.7176C144.208 56.7176 149.554 56.7866 154.312 59.3948C158.993 61.957 167.193 60.4022 167.193 60.4022L168.302 49.2472Z" fill="#F6C85C"/>
<g opacity="0.4">
<path opacity="0.4" d="M154.807 58.2402C154.235 58.0312 153.715 57.702 153.283 57.2749C152.851 56.8479 152.516 56.333 152.301 55.7655C152.087 55.1979 151.998 54.591 152.04 53.9861C152.083 53.3812 152.256 52.7925 152.548 52.2602C153.675 50.3696 157.001 50.2638 158.9 51.3862C159.811 51.9284 160.469 52.8084 160.729 53.8331C160.989 54.8577 160.829 55.9431 160.286 56.851C159.163 58.7462 156.872 59.0222 154.807 58.2402Z" fill="white"/>
</g>
<path d="M154.613 56.5703C154.64 56.5105 154.811 56.5289 155.075 56.5933C155.438 56.6895 155.812 56.742 156.188 56.7497C156.418 56.7504 156.646 56.705 156.858 56.6163C157.059 56.5406 157.223 56.3929 157.32 56.2024C157.36 56.1073 157.377 56.0043 157.371 55.9014C157.365 55.7985 157.335 55.6984 157.283 55.6089C157.112 55.4072 156.875 55.272 156.613 55.2271C156.442 55.1765 156.253 55.1259 156.05 55.0569C155.823 54.9822 155.61 54.8736 155.417 54.7349C155.311 54.6516 155.217 54.5559 155.135 54.4497C155.051 54.3388 154.987 54.2143 154.945 54.0817C154.872 53.8325 154.872 53.5674 154.945 53.3181C155.011 53.0892 155.133 52.8804 155.301 52.7109C155.454 52.5621 155.639 52.4489 155.842 52.3797C156.163 52.2686 156.508 52.2401 156.844 52.2969C157.097 52.3368 157.343 52.4128 157.574 52.5224C157.735 52.5984 157.89 52.6877 158.036 52.7891C158.281 52.9593 158.396 53.0835 158.369 53.1433C158.341 53.2031 158.17 53.1893 157.907 53.1433C157.543 53.0469 157.17 52.9913 156.793 52.9777C156.57 52.9769 156.35 53.024 156.147 53.1157C156.059 53.155 155.982 53.2148 155.922 53.2901C155.863 53.3654 155.822 53.4539 155.805 53.5481C155.779 53.6305 155.779 53.7188 155.805 53.8011C155.818 53.8396 155.839 53.8754 155.865 53.9069C155.899 53.9425 155.936 53.9749 155.976 54.0035C156.266 54.1584 156.577 54.27 156.9 54.3347C157.121 54.3957 157.333 54.4838 157.533 54.5969C157.645 54.6659 157.75 54.746 157.847 54.8361C157.944 54.9318 158.028 55.0401 158.096 55.1581C158.215 55.3803 158.278 55.6284 158.278 55.8803C158.278 56.1323 158.215 56.3804 158.096 56.6025C157.991 56.7899 157.85 56.9543 157.68 57.0863C157.51 57.2182 157.315 57.3149 157.108 57.3707C156.789 57.4658 156.452 57.4878 156.123 57.4351C155.688 57.362 155.275 57.1939 154.913 56.9429C154.691 56.7589 154.58 56.6255 154.613 56.5703Z" fill="#F6C85C"/>
<path d="M156.475 58.1068C156.345 58.1068 156.475 56.6486 156.729 54.8868C156.983 53.125 157.315 51.722 157.445 51.745C157.574 51.768 157.445 53.2032 157.195 54.965C156.946 56.7268 156.609 58.1252 156.475 58.1068Z" fill="#F6C85C"/>
<path d="M155.782 57.8538C155.652 57.8538 155.745 56.5244 155.985 54.9328C156.225 53.3412 156.535 52.0624 156.664 52.0808C156.793 52.0992 156.701 53.4102 156.456 55.0018C156.211 56.5934 155.916 57.8538 155.782 57.8538Z" fill="#F6C85C"/>
<g opacity="0.5">
<path opacity="0.5" d="M145.156 56.0137L146.274 48.0557L146.352 48.0235C149.965 46.6435 155.25 49.0861 158.752 50.7007C159.358 50.9813 159.926 51.2435 160.42 51.4551C163.733 52.8811 167.045 50.8801 167.198 50.5903L167.47 50.6501L166.408 59.2751L166.324 59.3027C164.13 59.9802 161.818 60.1947 159.536 59.9326C157.254 59.6704 155.051 58.9373 153.07 57.7801C150.376 56.1379 145.368 56.0322 145.317 56.0322L145.156 56.0137ZM146.542 48.2581L145.488 55.7424C146.389 55.77 150.713 55.9908 153.222 57.5272C155.156 58.6557 157.304 59.3736 159.53 59.6356C161.756 59.8977 164.013 59.6982 166.158 59.0497L167.151 51.009C166.934 51.1579 166.705 51.2902 166.468 51.4046C165.715 51.7726 163.044 52.8904 160.318 51.7174C159.82 51.5012 159.247 51.2574 158.641 50.9584C155.218 49.3898 150.044 47.0023 146.542 48.2719V48.2581Z" fill="white"/>
</g>
<path d="M163.839 108.877C163.839 108.877 159.57 107.957 158.263 102.897C157.454 99.7552 155.029 93.9178 152.552 94.157L146.505 98.0394C148.269 100.281 149.521 102.879 150.173 105.652C151.055 109.871 156.341 114.084 156.341 114.084L163.839 108.877Z" fill="#F6C85C"/>
<g opacity="0.4">
<path opacity="0.4" d="M151.162 105.335C150.99 104.874 150.921 104.382 150.957 103.892C150.994 103.403 151.136 102.926 151.374 102.496C151.612 102.066 151.941 101.691 152.337 101.399C152.733 101.106 153.188 100.902 153.67 100.799C155.435 100.496 157.255 102.478 157.56 104.236C157.635 104.654 157.625 105.083 157.532 105.498C157.439 105.913 157.264 106.305 157.018 106.652C156.772 106.999 156.459 107.295 156.098 107.521C155.737 107.747 155.334 107.9 154.913 107.971C153.139 108.274 151.767 107.014 151.162 105.335Z" fill="white"/>
</g>
<path d="M152.086 104.337C152.136 104.337 152.215 104.438 152.321 104.64C152.455 104.914 152.62 105.171 152.811 105.409C152.932 105.549 153.08 105.664 153.245 105.749C153.4 105.831 153.579 105.852 153.749 105.809C153.829 105.785 153.902 105.742 153.962 105.684C154.022 105.627 154.068 105.556 154.095 105.478C154.129 105.266 154.089 105.05 153.98 104.866C153.92 104.732 153.85 104.59 153.786 104.429C153.713 104.251 153.667 104.063 153.652 103.872C153.647 103.764 153.656 103.656 153.68 103.55C153.717 103.393 153.789 103.246 153.891 103.121C153.994 102.996 154.124 102.896 154.271 102.828C154.449 102.747 154.644 102.713 154.839 102.727C155.012 102.744 155.179 102.797 155.329 102.883C155.566 103.023 155.764 103.219 155.906 103.454C156.013 103.63 156.095 103.821 156.151 104.019C156.192 104.161 156.22 104.305 156.234 104.452C156.262 104.696 156.234 104.829 156.193 104.843C156.151 104.857 156.059 104.746 155.948 104.544C155.816 104.269 155.654 104.009 155.463 103.771C155.347 103.633 155.202 103.523 155.038 103.449C154.967 103.411 154.887 103.391 154.807 103.391C154.726 103.391 154.647 103.411 154.576 103.449C154.514 103.486 154.464 103.539 154.428 103.601C154.413 103.63 154.404 103.661 154.4 103.693C154.393 103.732 154.393 103.773 154.4 103.812C154.457 104.068 154.55 104.315 154.677 104.544C154.758 104.713 154.815 104.893 154.848 105.077C154.86 105.181 154.86 105.286 154.848 105.39C154.842 105.502 154.818 105.612 154.779 105.717C154.706 105.908 154.587 106.078 154.433 106.212C154.278 106.346 154.092 106.44 153.892 106.485C153.721 106.519 153.545 106.519 153.375 106.484C153.204 106.45 153.042 106.381 152.899 106.283C152.672 106.136 152.481 105.941 152.34 105.712C152.155 105.408 152.042 105.067 152.007 104.714C152.016 104.484 152.039 104.346 152.086 104.337Z" fill="#F6C85C"/>
<path d="M152.123 106.292C152.063 106.2 153.014 105.51 154.243 104.751C155.472 103.992 156.512 103.444 156.553 103.532C156.595 103.619 155.661 104.314 154.433 105.077C153.204 105.841 152.178 106.379 152.123 106.292Z" fill="#F6C85C"/>
<path d="M151.924 105.726C151.864 105.634 152.723 105.004 153.837 104.314C154.95 103.624 155.902 103.136 155.962 103.224C156.022 103.311 155.158 103.95 154.044 104.636C152.931 105.321 151.979 105.813 151.924 105.726Z" fill="#F6C85C"/>
<g opacity="0.5">
<path opacity="0.5" d="M147.466 98.2602L152.982 94.7504L153.042 94.7826C155.814 96.2684 157.075 100.799 157.921 103.799C158.064 104.318 158.202 104.806 158.332 105.22C159.196 108.008 162.18 108.983 162.444 108.923L162.545 109.121L156.659 113.008L156.599 112.971C155.023 111.982 153.671 110.677 152.63 109.139C151.588 107.601 150.881 105.864 150.552 104.038C150.15 101.522 147.576 98.389 147.549 98.3568L147.466 98.2602ZM153.01 95.0126L147.789 98.3338C148.251 98.8996 150.385 101.669 150.76 104.019C151.079 105.801 151.767 107.498 152.778 109.003C153.79 110.507 155.103 111.786 156.636 112.759L162.134 109.135C161.928 109.077 161.726 109.006 161.529 108.923C160.905 108.652 158.803 107.603 158.096 105.312C157.967 104.893 157.828 104.392 157.68 103.886C156.853 100.924 155.601 96.4938 152.973 95.0126H153.01Z" fill="white"/>
</g>
<path d="M123.345 75.4488C123.345 75.4488 119.949 76.0882 117.422 72.79C115.86 70.7522 112.28 67.2424 110.556 68.19L107.355 72.8774C109.336 73.9678 111.054 75.4747 112.391 77.2934C114.34 80.0994 119.496 81.5438 119.496 81.5438L123.345 75.4488Z" fill="#F6C85C"/>
<g opacity="0.4">
<path opacity="0.4" d="M113.005 76.769C112.738 76.4855 112.534 76.1482 112.409 75.7797C112.284 75.4112 112.24 75.0203 112.28 74.6333C112.32 74.2464 112.443 73.8725 112.64 73.537C112.838 73.2015 113.106 72.9122 113.425 72.6888C114.617 71.9252 116.558 72.813 117.329 73.9998C117.697 74.5702 117.823 75.2627 117.678 75.9252C117.533 76.5876 117.13 77.1658 116.558 77.5326C115.361 78.3008 113.971 77.804 113.005 76.769Z" fill="white"/>
</g>
<path d="M113.375 75.7523C113.412 75.7247 113.504 75.7845 113.643 75.8995C113.824 76.0595 114.024 76.197 114.239 76.3089C114.37 76.3734 114.513 76.4124 114.659 76.4239C114.796 76.4377 114.934 76.3981 115.042 76.3135C115.094 76.2717 115.135 76.2181 115.162 76.1572C115.188 76.0964 115.2 76.0301 115.195 75.9639C115.153 75.8008 115.057 75.6566 114.922 75.5545C114.835 75.4763 114.742 75.3935 114.645 75.2969C114.535 75.1895 114.443 75.0653 114.373 74.9289C114.336 74.8513 114.31 74.7694 114.294 74.6851C114.28 74.5983 114.28 74.5098 114.294 74.4229C114.32 74.2652 114.389 74.1176 114.493 73.9961C114.598 73.8745 114.733 73.7835 114.885 73.7329C115.016 73.6906 115.155 73.6781 115.292 73.6961C115.509 73.7233 115.715 73.804 115.893 73.9307C116.025 74.0275 116.143 74.142 116.244 74.2711C116.319 74.3615 116.385 74.4585 116.442 74.5609C116.535 74.7265 116.562 74.8323 116.53 74.8553C116.498 74.8783 116.405 74.8277 116.262 74.7127C116.078 74.5547 115.879 74.416 115.666 74.2987C115.537 74.2377 115.398 74.2033 115.255 74.1975C115.194 74.1934 115.132 74.2047 115.077 74.2304C115.021 74.2561 114.973 74.2955 114.936 74.3447C114.9 74.3894 114.879 74.4441 114.876 74.5011C114.872 74.5255 114.872 74.5504 114.876 74.5747C114.884 74.6057 114.896 74.6352 114.913 74.6621C115.031 74.8367 115.176 74.9919 115.343 75.1221C115.452 75.2217 115.548 75.3345 115.629 75.4579C115.676 75.5277 115.714 75.6035 115.74 75.6833C115.77 75.7645 115.787 75.8499 115.791 75.9363C115.799 76.0979 115.765 76.2588 115.694 76.4043C115.623 76.5497 115.517 76.6751 115.384 76.7689C115.271 76.8478 115.142 76.9027 115.006 76.9304C114.87 76.958 114.73 76.9579 114.594 76.9299C114.384 76.8943 114.185 76.8109 114.012 76.6861C113.784 76.5202 113.595 76.3067 113.458 76.0605C113.365 75.8811 113.342 75.7937 113.375 75.7523Z" fill="#F6C85C"/>
<path d="M114.008 77.1738C113.938 77.1278 114.414 76.332 115.075 75.4028C115.735 74.4736 116.322 73.7514 116.391 73.7974C116.461 73.8434 115.98 74.6438 115.324 75.573C114.668 76.5022 114.072 77.2152 114.008 77.1738Z" fill="#F6C85C"/>
<path d="M113.684 76.8149C113.615 76.7689 114.045 76.0421 114.645 75.1957C115.246 74.3493 115.782 73.7053 115.851 73.7513C115.92 73.7973 115.491 74.5241 114.895 75.3705C114.299 76.2169 113.74 76.8655 113.684 76.8149Z" fill="#F6C85C"/>
<g opacity="0.5">
<path opacity="0.5" d="M108.108 72.7532L111.037 68.4982H111.092C113.564 68.7328 115.897 71.6446 117.445 73.5582C117.713 73.8894 117.962 74.2068 118.184 74.4782C118.699 75.0468 119.351 75.4762 120.078 75.7264C120.805 75.9765 121.584 76.0393 122.342 75.9088L122.481 76.0238L119.394 80.6652H119.339C117.884 80.4303 116.494 79.8952 115.258 79.0944C114.023 78.2935 112.969 77.2445 112.164 76.0146C111.092 74.308 108.242 72.8176 108.214 72.7946L108.108 72.7532ZM111.125 68.6868L108.353 72.6842C108.861 72.9602 111.282 74.3172 112.284 75.9042C113.071 77.1057 114.099 78.1321 115.304 78.919C116.508 79.7059 117.863 80.2362 119.284 80.4766L122.166 76.1388C122 76.1618 121.831 76.1725 121.663 76.171C120.982 76.1751 120.307 76.0373 119.682 75.7664C119.058 75.4955 118.497 75.0974 118.036 74.5978C117.814 74.3356 117.574 74.0182 117.292 73.6778C115.786 71.801 113.504 68.9536 111.125 68.6868Z" fill="white"/>
</g>
<path d="M38.1702 137.935C38.1702 137.935 34.7745 138.575 32.2474 135.276C30.6858 133.239 27.1053 129.729 25.3821 130.676L22.1804 135.364C24.1612 136.454 25.8796 137.961 27.2162 139.78C29.1659 142.586 34.3218 144.03 34.3218 144.03L38.1702 137.935Z" fill="#F6C85C"/>
<g opacity="0.4">
<path opacity="0.4" d="M27.8353 139.274C27.5671 138.991 27.3632 138.653 27.2376 138.285C27.1121 137.916 27.0677 137.525 27.1076 137.138C27.1475 136.751 27.2707 136.377 27.4688 136.041C27.6669 135.706 27.9354 135.416 28.2558 135.194C29.4477 134.43 31.3881 135.318 32.155 136.505C32.5229 137.075 32.6483 137.768 32.5036 138.43C32.359 139.092 31.9561 139.671 31.3835 140.037C30.1915 140.787 28.7963 140.29 27.8353 139.274Z" fill="white"/>
</g>
<path d="M28.2049 138.239C28.2372 138.211 28.3296 138.271 28.4682 138.386C28.6495 138.546 28.8497 138.683 29.0642 138.795C29.1972 138.86 29.3415 138.899 29.4893 138.91C29.6265 138.923 29.7633 138.883 29.8727 138.8C29.923 138.757 29.9625 138.703 29.9882 138.643C30.0138 138.582 30.0249 138.516 30.0206 138.45C29.9805 138.286 29.8841 138.142 29.748 138.041C29.6648 137.963 29.5678 137.88 29.4708 137.783C29.3606 137.682 29.2671 137.564 29.1936 137.434C29.1551 137.357 29.1286 137.275 29.115 137.19C29.0989 137.103 29.0989 137.014 29.115 136.928C29.1355 136.757 29.208 136.596 29.3229 136.468C29.426 136.352 29.5585 136.266 29.7064 136.219C29.8357 136.176 29.9733 136.164 30.1083 136.183C30.325 136.21 30.5315 136.29 30.7089 136.417C30.8436 136.513 30.9635 136.627 31.0647 136.758C31.1384 136.848 31.2034 136.945 31.2587 137.047C31.3511 137.213 31.3835 137.319 31.3511 137.346C31.3188 137.374 31.2218 137.314 31.0785 137.199C30.8964 137.041 30.6982 136.902 30.4872 136.785C30.358 136.725 30.2184 136.691 30.076 136.684C30.0142 136.681 29.9526 136.693 29.8964 136.718C29.8401 136.744 29.7908 136.783 29.7526 136.831C29.7189 136.877 29.6981 136.931 29.6925 136.988C29.6879 137.012 29.6879 137.037 29.6925 137.061C29.7 137.092 29.7125 137.122 29.7295 137.149C29.8479 137.323 29.9928 137.478 30.1592 137.609C30.2699 137.708 30.3677 137.821 30.4502 137.944C30.4936 138.016 30.5307 138.092 30.5611 138.17C30.5898 138.251 30.6054 138.337 30.6073 138.423C30.6187 138.586 30.5883 138.75 30.5188 138.899C30.4493 139.048 30.3431 139.177 30.21 139.274C29.9797 139.428 29.6975 139.486 29.4246 139.435C29.2139 139.398 29.0146 139.313 28.8425 139.186C28.6025 139.018 28.4061 138.796 28.2696 138.538C28.1957 138.354 28.1679 138.262 28.2049 138.239Z" fill="#F6C85C"/>
<path d="M28.8332 139.651C28.7639 139.605 29.2398 138.809 29.9005 137.88C30.5611 136.951 31.1479 136.229 31.2172 136.275C31.2865 136.321 30.8106 137.121 30.1499 138.05C29.4893 138.979 28.9025 139.702 28.8332 139.651Z" fill="#F6C85C"/>
<path d="M28.5145 139.301C28.4452 139.255 28.8702 138.529 29.4708 137.682C30.0714 136.836 30.612 136.192 30.6766 136.238C30.7413 136.284 30.3209 137.011 29.7203 137.857C29.1197 138.703 28.5792 139.352 28.5145 139.301Z" fill="#F6C85C"/>
<g opacity="0.5">
<path opacity="0.5" d="M22.9335 135.24L25.8672 130.994H25.918C28.3897 131.228 30.7274 134.14 32.2705 136.054C32.5385 136.39 32.7879 136.702 33.0143 136.974C33.5292 137.543 34.1807 137.973 34.9079 138.223C35.6352 138.473 36.4143 138.536 37.1723 138.404L37.3109 138.519L34.2294 143.161H34.1693C32.7096 142.927 31.3153 142.391 30.0764 141.587C28.8374 140.784 27.7813 139.731 26.976 138.496C25.9041 136.79 23.0536 135.299 23.0259 135.276L22.9335 135.24ZM25.9596 131.173L23.1876 135.171C23.6958 135.447 26.112 136.804 27.1146 138.391C27.9026 139.592 28.9323 140.618 30.1386 141.403C31.3449 142.189 32.7016 142.717 34.1231 142.954L37.0014 138.616C36.8345 138.639 36.6662 138.65 36.4978 138.648C35.8202 138.652 35.1494 138.514 34.5281 138.245C33.9068 137.976 33.3488 137.58 32.8896 137.084C32.6632 136.822 32.4276 136.505 32.1458 136.164C30.6165 134.287 28.3296 131.454 25.9596 131.173Z" fill="white"/>
</g>
<path d="M87.9646 94.5802C87.9646 94.5802 86.7034 98.6742 81.5937 99.5344C78.429 100.063 72.4692 101.954 72.52 104.397L75.8464 110.63C78.2034 109.09 80.8696 108.08 83.6588 107.672C87.8953 107.161 92.483 102.34 92.483 102.34L87.9646 94.5802Z" fill="#F6C85C"/>
<g opacity="0.4">
<path opacity="0.4" d="M83.4278 106.683C82.9596 106.813 82.4688 106.841 81.9887 106.765C81.5087 106.689 81.0507 106.511 80.646 106.243C80.2413 105.975 79.8994 105.623 79.6436 105.212C79.3878 104.8 79.224 104.339 79.1636 103.858C79.0065 102.106 81.1132 100.491 82.8596 100.339C83.7049 100.267 84.5447 100.531 85.1944 101.074C85.8441 101.618 86.2506 102.396 86.3246 103.237C86.4816 104.99 85.1326 106.227 83.4278 106.683Z" fill="white"/>
</g>
<path d="M82.5177 105.694C82.5177 105.639 82.6286 105.574 82.8411 105.487C83.1214 105.38 83.3882 105.242 83.6357 105.073C83.7851 104.966 83.9109 104.83 84.0053 104.673C84.1025 104.531 84.1406 104.358 84.1116 104.19C84.0931 104.11 84.0564 104.036 84.0043 103.973C83.9522 103.91 83.8861 103.86 83.8113 103.826C83.6059 103.772 83.3879 103.793 83.1968 103.886C83.0629 103.932 82.915 103.992 82.7348 104.038C82.5548 104.098 82.3656 104.126 82.1758 104.121C82.0693 104.118 81.9637 104.101 81.8617 104.07C81.7547 104.038 81.6545 103.986 81.566 103.918C81.398 103.796 81.2709 103.626 81.201 103.431C81.1325 103.252 81.1134 103.058 81.1456 102.869C81.1758 102.704 81.242 102.547 81.3396 102.409C81.4962 102.188 81.7058 102.01 81.9494 101.89C82.134 101.8 82.3297 101.735 82.5316 101.696C82.6749 101.67 82.8201 101.654 82.9658 101.65C83.2015 101.65 83.3354 101.673 83.3447 101.724C83.3539 101.775 83.2384 101.848 83.0305 101.94C82.7476 102.045 82.4778 102.183 82.2266 102.35C82.0818 102.452 81.9618 102.586 81.8755 102.741C81.8355 102.806 81.8125 102.88 81.8084 102.956C81.8044 103.032 81.8195 103.109 81.8524 103.178C81.8803 103.242 81.927 103.296 81.9864 103.334C82.0135 103.351 82.0431 103.363 82.0742 103.371C82.114 103.376 82.1544 103.376 82.1943 103.371C82.4511 103.336 82.7016 103.265 82.9381 103.159C83.1125 103.096 83.294 103.054 83.4787 103.035C83.5815 103.023 83.6853 103.023 83.7882 103.035C83.8974 103.05 84.0035 103.083 84.1024 103.132C84.2844 103.217 84.4424 103.345 84.5625 103.506C84.6826 103.666 84.761 103.854 84.7907 104.052C84.8097 104.222 84.7946 104.394 84.7462 104.558C84.6978 104.722 84.6172 104.875 84.5089 105.008C84.3467 105.218 84.138 105.388 83.8991 105.505C83.5848 105.662 83.2388 105.745 82.8873 105.749C82.6609 105.777 82.5269 105.74 82.5177 105.694Z" fill="#F6C85C"/>
<path d="M84.4488 105.818C84.3564 105.869 83.7558 104.898 83.1044 103.619C82.453 102.34 82.0049 101.292 82.0973 101.246C82.1897 101.2 82.7949 102.166 83.4417 103.444C84.0885 104.723 84.5412 105.772 84.4488 105.818Z" fill="#F6C85C"/>
<path d="M83.8759 105.965C83.7835 106.016 83.2291 105.123 82.6424 103.978C82.0557 102.833 81.6491 101.862 81.7415 101.816C81.8339 101.77 82.3883 102.658 82.9796 103.803C83.571 104.949 83.9683 105.919 83.8759 105.965Z" fill="#F6C85C"/>
<g opacity="0.5">
<path opacity="0.5" d="M76.1421 109.728L73.1345 104.042L73.1715 103.987C74.867 101.416 79.4454 100.542 82.4715 99.9622C82.9936 99.861 83.4833 99.769 83.9037 99.677C86.7219 99.0606 87.9324 96.227 87.8954 95.9648L88.1033 95.8774L91.4482 101.954L91.4066 102.014C90.3004 103.473 88.9008 104.687 87.2972 105.578C85.6936 106.469 83.9211 107.018 82.0927 107.189C79.5794 107.368 76.2807 109.631 76.2484 109.654L76.1421 109.728ZM73.3979 104.056L76.2253 109.397C76.8213 109.001 79.7273 107.134 82.0788 106.963C83.8618 106.796 85.5907 106.264 87.1569 105.399C88.7232 104.535 90.093 103.357 91.1802 101.94L88.0571 96.2638C87.9843 96.4612 87.8979 96.6533 87.7984 96.8388C87.4842 97.4276 86.2738 99.3918 83.9546 99.8978C83.5295 99.9898 83.0306 100.082 82.5131 100.183C79.5517 100.753 75.0703 101.604 73.3979 104.056Z" fill="white"/>
</g>
<path d="M60.2584 82.9881C60.2584 82.9881 56.0311 86.3093 50.1545 83.5677C46.5186 81.8703 39.0341 79.5933 37.3386 82.1371L36.3083 90.9139C36.3083 90.9139 41.6537 90.8863 46.4724 93.4071C51.194 95.8819 59.3668 94.1799 59.3668 94.1799L60.2584 82.9881Z" fill="#F6C85C"/>
<g opacity="0.4">
<path opacity="0.4" d="M46.9298 92.2295C46.3552 92.0304 45.8304 91.7106 45.3909 91.2917C44.9515 90.8728 44.6076 90.3647 44.3828 89.8018C44.158 89.2389 44.0575 88.6345 44.088 88.0295C44.1185 87.4245 44.2794 86.8332 44.5597 86.2956C45.6593 84.382 48.9811 84.2163 50.8984 85.3065C51.3551 85.5658 51.7561 85.9122 52.0783 86.3258C52.4005 86.7394 52.6377 87.2122 52.7763 87.7172C52.9149 88.2222 52.9522 88.7494 52.886 89.2687C52.8198 89.788 52.6515 90.2892 52.3906 90.7437C51.2957 92.6527 49.0134 92.9701 46.9298 92.2295Z" fill="white"/>
</g>
<path d="M46.708 90.5598C46.7358 90.5 46.9067 90.5184 47.17 90.5598C47.5358 90.6505 47.9112 90.6968 48.2881 90.6978C48.5175 90.6935 48.7437 90.6435 48.9534 90.5506C49.1557 90.473 49.3209 90.3217 49.4154 90.1274C49.4539 90.0324 49.4698 89.9297 49.4618 89.8276C49.4538 89.7254 49.4221 89.6265 49.3692 89.5386C49.1951 89.3396 48.9564 89.2077 48.6946 89.166C48.5191 89.1154 48.3297 89.074 48.1264 89.005C47.8988 88.9364 47.6837 88.8324 47.4888 88.6968C47.3822 88.6152 47.2861 88.5209 47.2024 88.4162C47.1182 88.3057 47.0512 88.1832 47.0037 88.0528C46.9225 87.8059 46.9129 87.5412 46.976 87.2892C47.0343 87.0712 47.1445 86.8704 47.2973 86.7038C47.4501 86.5373 47.641 86.4098 47.8538 86.3324C48.1743 86.2162 48.5189 86.1814 48.8563 86.2312C49.1101 86.269 49.3573 86.3418 49.5909 86.4474C49.751 86.522 49.9054 86.6081 50.0529 86.705C50.3024 86.8706 50.4179 86.9948 50.3902 87.05C50.3625 87.1052 50.1961 87.1006 49.9282 87.05C49.5618 86.9623 49.1869 86.9145 48.8101 86.9074C48.5875 86.9107 48.3683 86.9625 48.168 87.0592C48.0812 87.0986 48.0055 87.1586 47.9475 87.234C47.8894 87.3094 47.8509 87.3979 47.8353 87.4916C47.8107 87.5757 47.8107 87.6651 47.8353 87.7492C47.8541 87.7856 47.8774 87.8196 47.9046 87.8504C47.9356 87.8871 47.9713 87.9196 48.0109 87.947C48.3024 88.0944 48.6135 88.1997 48.9349 88.2598C49.1566 88.3191 49.3705 88.404 49.5724 88.5128C49.6856 88.5795 49.7923 88.6565 49.8912 88.7428C49.9911 88.8373 50.0767 88.9458 50.1453 89.0648C50.2719 89.2824 50.3419 89.528 50.3492 89.7794C50.3564 90.0308 50.3007 90.28 50.1869 90.5046C50.0857 90.6946 49.9473 90.8625 49.7799 90.9984C49.6125 91.1343 49.4194 91.2354 49.2121 91.2958C48.8952 91.3923 48.561 91.419 48.2326 91.374C47.7969 91.3123 47.3803 91.1552 47.013 90.914C46.7912 90.7484 46.6803 90.615 46.708 90.5598Z" fill="#F6C85C"/>
<path d="M48.5977 92.064C48.4637 92.064 48.5515 90.6058 48.7871 88.844C49.0228 87.0822 49.3184 85.6699 49.4478 85.6883C49.5771 85.7067 49.494 87.1466 49.2584 88.9084C49.0227 90.6702 48.7317 92.0824 48.5977 92.064Z" fill="#F6C85C"/>
<path d="M47.9047 91.8064C47.7753 91.8064 47.84 90.4816 48.0571 88.8854C48.2743 87.2892 48.5515 86.0058 48.6808 86.0196C48.8102 86.0334 48.7409 87.349 48.5284 88.9452C48.3159 90.5414 48.034 91.8248 47.9047 91.8064Z" fill="#F6C85C"/>
<g opacity="0.5">
<path opacity="0.5" d="M37.2601 90.1918L38.2303 82.2338L38.3043 82.2062C41.8894 80.7572 47.2255 83.1262 50.7783 84.6534C51.3835 84.9248 51.961 85.1732 52.4599 85.3802C55.7956 86.7602 59.0712 84.6856 59.219 84.3866L59.4916 84.4464L58.5676 93.0714L58.4844 93.099C56.303 93.817 53.9953 94.0746 51.7083 93.8552C49.4214 93.6358 47.2055 92.9443 45.2019 91.8248C42.4854 90.2286 37.4727 90.2148 37.4218 90.2148L37.2601 90.1918ZM38.4891 82.4132L37.5651 89.9112C38.4613 89.9112 42.7903 90.0676 45.3267 91.558C47.2833 92.6508 49.4459 93.329 51.6784 93.5498C53.9109 93.7707 56.1652 93.5295 58.2996 92.8414L59.1451 84.7868C58.9292 84.9385 58.7022 85.0738 58.4659 85.1916C57.7221 85.578 55.0702 86.7372 52.3213 85.6148C51.8224 85.4124 51.2449 85.1548 50.635 84.888C47.1793 83.37 41.9633 81.0746 38.4891 82.4132Z" fill="white"/>
</g>
<path d="M94.1647 26.606C94.1647 26.606 94.756 31.298 90.0067 34.4628C87.0591 36.427 81.9217 41.0132 83.0767 43.4512L89.2536 48.2214C90.9258 45.6099 93.1486 43.3921 95.7678 41.7216C99.8011 39.302 102.236 32.379 102.236 32.379L94.1647 26.606Z" fill="#F6C85C"/>
<g opacity="0.4">
<path opacity="0.4" d="M95.0979 40.8337C94.6851 41.1749 94.2034 41.4238 93.6856 41.5634C93.1677 41.703 92.6257 41.73 92.0964 41.6428C91.5671 41.5555 91.0628 41.356 90.6178 41.0576C90.1727 40.7593 89.7973 40.3692 89.517 39.9137C88.5652 38.2163 89.979 35.6449 91.656 34.6973C92.4735 34.2433 93.4385 34.1306 94.3393 34.3842C95.2401 34.6377 96.0031 35.2367 96.4608 36.0497C97.4125 37.7471 96.6087 39.6055 95.0979 40.8337Z" fill="white"/>
</g>
<path d="M93.7304 40.2403C93.6981 40.1943 93.7905 40.0747 93.9614 39.8907C94.1952 39.6557 94.4014 39.3949 94.5759 39.1133C94.6752 38.9387 94.7395 38.7466 94.7653 38.5475C94.7955 38.3615 94.7543 38.171 94.6498 38.0139C94.5965 37.9417 94.5269 37.8828 94.4467 37.8421C94.3665 37.8014 94.2778 37.7799 94.1878 37.7793C93.9572 37.8188 93.7479 37.9376 93.5964 38.1151C93.4809 38.2255 93.3608 38.3497 93.2176 38.4739C93.0598 38.6113 92.8823 38.7245 92.6909 38.8097C92.5808 38.8523 92.4661 38.8816 92.349 38.8971C92.2283 38.9179 92.1048 38.9179 91.984 38.8971C91.7592 38.8479 91.5537 38.7344 91.3927 38.5705C91.2439 38.4212 91.1372 38.2356 91.0831 38.0323C91.0444 37.8488 91.0444 37.6593 91.0831 37.4757C91.1422 37.1822 91.2722 36.9075 91.462 36.6753C91.6058 36.4995 91.7738 36.3446 91.9609 36.2153C92.0925 36.1227 92.2316 36.0411 92.3767 35.9715C92.617 35.8565 92.7602 35.8243 92.7925 35.8703C92.8249 35.9163 92.7417 36.0451 92.5708 36.2291C92.3373 36.4656 92.1297 36.7262 91.9517 37.0065C91.8527 37.1753 91.7928 37.3638 91.7761 37.5585C91.7646 37.6437 91.7745 37.7304 91.8052 37.8108C91.8359 37.8911 91.8862 37.9625 91.9517 38.0185C92.0104 38.0697 92.0825 38.1032 92.1596 38.1151C92.1949 38.1196 92.2306 38.1196 92.2659 38.1151C92.3074 38.1084 92.3478 38.096 92.386 38.0783C92.6301 37.9266 92.851 37.7407 93.042 37.5263C93.1824 37.3876 93.3373 37.2642 93.504 37.1583C93.6062 37.106 93.7129 37.0629 93.8228 37.0295C93.9399 36.9962 94.0614 36.9807 94.1832 36.9835C94.4062 36.988 94.6247 37.0475 94.819 37.1567C95.0134 37.2659 95.1774 37.4213 95.2966 37.6091C95.3943 37.7713 95.4581 37.9515 95.4843 38.1388C95.5105 38.3261 95.4985 38.5167 95.4491 38.6993C95.3813 38.9824 95.2502 39.2466 95.0656 39.4721C94.813 39.7712 94.4976 40.0114 94.1416 40.1759C93.9106 40.2679 93.7627 40.2909 93.7304 40.2403Z" fill="#F6C85C"/>
<path d="M95.7216 39.5044C95.6477 39.5918 94.5943 38.8742 93.3654 37.8944C92.1365 36.9146 91.1986 36.0544 91.2725 35.9578C91.3464 35.8612 92.3998 36.588 93.6287 37.5678C94.8576 38.5476 95.8047 39.4124 95.7216 39.5044Z" fill="#F6C85C"/>
<path d="M95.2227 39.9137C95.1534 40.0057 94.1878 39.3571 93.0744 38.4693C91.9609 37.5815 91.1016 36.7811 91.1894 36.6937C91.2772 36.6063 92.2243 37.2549 93.3377 38.1427C94.4511 39.0305 95.2966 39.8217 95.2227 39.9137Z" fill="#F6C85C"/>
<g opacity="0.5">
<path opacity="0.5" d="M89.1473 47.1817L83.5386 42.8163V42.7427C84.0791 39.3893 88.2833 36.4453 91.0692 34.4995C91.5312 34.1637 91.9932 33.8463 92.3859 33.5795C94.9407 31.6889 94.8668 28.2895 94.6959 28.0595L94.8622 27.8801L100.993 32.4801V32.5537C100.545 34.5215 99.6891 36.3745 98.4807 37.9943C97.2723 39.6141 95.7377 40.965 93.9752 41.9607C91.5266 43.2763 89.235 47.0207 89.2119 47.0759L89.1473 47.1817ZM83.8065 42.7105L89.0826 46.8137C89.4984 46.1421 91.5774 42.9543 93.8643 41.7215C95.5846 40.7493 97.0841 39.4327 98.268 37.8549C99.452 36.277 100.295 34.472 100.743 32.5537L95.0193 28.2481C95.0385 28.4793 95.0385 28.7116 95.0193 28.9427C94.9731 29.6787 94.6451 32.2041 92.543 33.7543C92.1595 34.0395 91.7021 34.3569 91.2216 34.6743C88.4912 36.6109 84.3794 39.4905 83.8065 42.7105Z" fill="white"/>
</g>
<path d="M199.57 196.162H175.241V201.401H199.57V196.162Z" fill="#263238"/>
<path d="M184.901 196.162L185.303 201.401H188.736L188.916 196.162H184.901Z" fill="#E0E0E0"/>
<path d="M193.67 196.162H169.341V201.401H193.67V196.162Z" fill="#455A64"/>
<path d="M193.592 196.981C193.592 197.05 188.182 197.1 181.506 197.1C174.83 197.1 169.415 197.05 169.415 196.981C169.415 196.912 174.825 196.861 181.506 196.861C188.186 196.861 193.592 196.916 193.592 196.981Z" fill="#263238"/>
<path d="M193.582 198.181C193.582 198.246 188.172 198.301 181.497 198.301C174.821 198.301 169.406 198.246 169.406 198.181C169.406 198.117 174.821 198.062 181.497 198.062C188.172 198.062 193.582 198.117 193.582 198.181Z" fill="#263238"/>
<path d="M193.582 199.382C193.582 199.446 188.172 199.502 181.497 199.502C174.821 199.502 169.406 199.446 169.406 199.382C169.406 199.318 174.821 199.262 181.497 199.262C188.172 199.262 193.582 199.313 193.582 199.382Z" fill="#263238"/>
<path d="M193.582 200.578C193.582 200.647 188.172 200.698 181.497 200.698C174.821 200.698 169.406 200.647 169.406 200.578C169.406 200.509 174.821 200.458 181.497 200.458C188.172 200.458 193.582 200.514 193.582 200.578Z" fill="#263238"/>
<path d="M178.997 196.162L179.399 201.401H182.836L183.012 196.162H178.997Z" fill="#E0E0E0"/>
<path d="M202.522 190.978H178.193V196.217H202.522V190.978Z" fill="#263238"/>
<path d="M187.854 190.978L188.256 196.217H191.688L191.869 190.978H187.854Z" fill="#E0E0E0"/>
<path d="M196.623 190.978H172.294V196.217H196.623V190.978Z" fill="#455A64"/>
<path d="M196.544 191.801C196.544 191.866 191.129 191.921 184.458 191.921C177.787 191.921 172.368 191.866 172.368 191.801C172.368 191.737 177.778 191.682 184.458 191.682C191.139 191.682 196.544 191.714 196.544 191.801Z" fill="#263238"/>
<path d="M196.535 192.997C196.535 193.066 191.125 193.117 184.449 193.117C177.773 193.117 172.358 193.066 172.358 192.997C172.358 192.928 177.773 192.878 184.449 192.878C191.125 192.878 196.535 192.933 196.535 192.997Z" fill="#263238"/>
<path d="M196.535 194.198C196.535 194.262 191.125 194.317 184.449 194.317C177.773 194.317 172.358 194.262 172.358 194.198C172.358 194.133 177.773 194.078 184.449 194.078C191.125 194.078 196.535 194.133 196.535 194.198Z" fill="#263238"/>
<path d="M196.535 195.394C196.535 195.458 191.125 195.513 184.449 195.513C177.773 195.513 172.358 195.458 172.358 195.394C172.358 195.329 177.773 195.274 184.449 195.274C191.125 195.274 196.535 195.329 196.535 195.394Z" fill="#263238"/>
<path d="M181.949 190.978L182.351 196.217H185.784L185.964 190.978H181.949Z" fill="#E0E0E0"/>
<path d="M200.873 206.586H176.544V211.825H200.873V206.586Z" fill="#263238"/>
<path d="M186.2 206.581L186.602 211.825H190.039L190.215 206.581H186.2Z" fill="#E0E0E0"/>
<path d="M194.969 206.581H170.64V211.82H194.969V206.581Z" fill="#455A64"/>
<path d="M194.89 207.404C194.89 207.473 189.48 207.524 182.804 207.524C176.128 207.524 170.714 207.473 170.714 207.404C170.714 207.335 176.128 207.285 182.804 207.285C189.48 207.285 194.89 207.354 194.89 207.404Z" fill="#263238"/>
<path d="M194.885 208.605C194.885 208.669 189.471 208.725 182.795 208.725C176.119 208.725 170.709 208.669 170.709 208.605C170.709 208.541 176.119 208.485 182.795 208.485C189.471 208.485 194.885 208.536 194.885 208.605Z" fill="#263238"/>
<path d="M194.885 209.801C194.885 209.87 189.471 209.925 182.795 209.925C176.119 209.925 170.709 209.87 170.709 209.801C170.709 209.732 176.119 209.681 182.795 209.681C189.471 209.681 194.885 209.737 194.885 209.801Z" fill="#263238"/>
<path d="M194.885 211.002C194.885 211.071 189.471 211.121 182.795 211.121C176.119 211.121 170.709 211.071 170.709 211.002C170.709 210.933 176.119 210.882 182.795 210.882C189.471 210.882 194.885 210.937 194.885 211.002Z" fill="#263238"/>
<path d="M180.3 206.581L180.702 211.825H184.135L184.31 206.581H180.3Z" fill="#E0E0E0"/>
<path d="M203.825 201.401H179.496V206.641H203.825V201.401Z" fill="#263238"/>
<path d="M189.152 201.401L189.554 206.641H192.991L193.167 201.401H189.152Z" fill="#E0E0E0"/>
<path d="M197.921 201.401H173.592V206.641H197.921V201.401Z" fill="#455A64"/>
<path d="M197.824 202.22C197.824 202.289 192.414 202.344 185.738 202.344C179.062 202.344 173.647 202.289 173.647 202.22C173.647 202.151 179.062 202.101 185.738 202.101C192.414 202.101 197.824 202.156 197.824 202.22Z" fill="#263238"/>
<path d="M197.824 203.421C197.824 203.49 192.414 203.54 185.738 203.54C179.062 203.54 173.652 203.49 173.652 203.421C173.652 203.352 179.062 203.301 185.738 203.301C192.414 203.301 197.824 203.356 197.824 203.421Z" fill="#263238"/>
<path d="M197.824 204.621C197.824 204.686 192.414 204.741 185.738 204.741C179.062 204.741 173.652 204.686 173.652 204.621C173.652 204.557 179.062 204.502 185.738 204.502C192.414 204.502 197.824 204.552 197.824 204.621Z" fill="#263238"/>
<path d="M197.824 205.817C197.824 205.886 192.414 205.942 185.738 205.942C179.062 205.942 173.652 205.886 173.652 205.817C173.652 205.748 179.062 205.698 185.738 205.698C192.414 205.698 197.824 205.753 197.824 205.817Z" fill="#263238"/>
<path d="M183.248 201.401L183.649 206.641H187.087L187.262 201.401H183.248Z" fill="#E0E0E0"/>
<path d="M184.504 201.346H160.175V206.586H184.504V201.346Z" fill="#F6C85C"/>
<path opacity="0.2" d="M184.504 201.346H160.175V206.586H184.504V201.346Z" fill="black"/>
<path d="M169.836 201.346L170.238 206.586H173.67L173.85 201.346H169.836Z" fill="#E0E0E0"/>
<path d="M181.834 206.586H157.505V211.825H181.834V206.586Z" fill="#F6C85C"/>
<path opacity="0.2" d="M181.834 206.586H157.505V211.825H181.834V206.586Z" fill="black"/>
<path d="M167.165 206.581L167.563 211.825H171L171.176 206.581H167.165Z" fill="#E0E0E0"/>
<path d="M175.929 206.586H151.601V211.825H175.929V206.586Z" fill="#F6C85C"/>
<g opacity="0.2">
<path opacity="0.2" d="M175.856 207.404C175.856 207.473 170.441 207.524 163.765 207.524C157.089 207.524 151.679 207.473 151.679 207.404C151.679 207.335 157.089 207.285 163.765 207.285C170.441 207.285 175.856 207.354 175.856 207.404Z" fill="black"/>
</g>
<g opacity="0.2">
<path opacity="0.2" d="M175.846 208.605C175.846 208.669 170.432 208.725 163.76 208.725C157.089 208.725 151.67 208.669 151.67 208.605C151.67 208.541 157.08 208.485 163.76 208.485C170.441 208.485 175.846 208.536 175.846 208.605Z" fill="black"/>
</g>
<g opacity="0.2">
<path opacity="0.2" d="M175.846 209.801C175.846 209.87 170.432 209.925 163.76 209.925C157.089 209.925 151.67 209.87 151.67 209.801C151.67 209.732 157.08 209.681 163.76 209.681C170.441 209.681 175.846 209.737 175.846 209.801Z" fill="black"/>
</g>
<g opacity="0.2">
<path opacity="0.2" d="M175.846 211.002C175.846 211.071 170.432 211.121 163.76 211.121C157.089 211.121 151.67 211.071 151.67 211.002C151.67 210.933 157.08 210.882 163.76 210.882C170.441 210.882 175.846 210.937 175.846 211.002Z" fill="black"/>
</g>
<path d="M161.261 206.581L161.663 211.825H165.096L165.276 206.581H161.261Z" fill="#E0E0E0"/>
<path d="M179.441 201.346H155.112V206.586H179.441V201.346Z" fill="#F6C85C"/>
<g opacity="0.2">
<path opacity="0.2" d="M179.367 202.165C179.367 202.234 173.952 202.285 167.281 202.285C160.61 202.285 155.19 202.234 155.19 202.165C155.19 202.096 160.6 202.045 167.281 202.045C173.961 202.045 179.367 202.1 179.367 202.165Z" fill="black"/>
</g>
<g opacity="0.2">
<path opacity="0.2" d="M179.344 203.366C179.344 203.43 173.934 203.485 167.258 203.485C160.582 203.485 155.167 203.43 155.167 203.366C155.167 203.301 160.577 203.246 167.258 203.246C173.938 203.246 179.344 203.297 179.344 203.366Z" fill="black"/>
</g>
<g opacity="0.2">
<path opacity="0.2" d="M179.344 204.566C179.344 204.631 173.934 204.686 167.258 204.686C160.582 204.686 155.167 204.631 155.167 204.566C155.167 204.502 160.577 204.447 167.258 204.447C173.938 204.447 179.344 204.497 179.344 204.566Z" fill="black"/>
</g>
<g opacity="0.2">
<path opacity="0.2" d="M179.344 205.762C179.344 205.831 173.934 205.882 167.258 205.882C160.582 205.882 155.167 205.831 155.167 205.762C155.167 205.693 160.577 205.643 167.258 205.643C173.938 205.643 179.344 205.698 179.344 205.762Z" fill="black"/>
</g>
<path d="M164.772 201.346L165.174 206.586H168.607L168.787 201.346H164.772Z" fill="#E0E0E0"/>
<path d="M69.3229 206.586H44.994V211.825H69.3229V206.586Z" fill="#263238"/>
<path d="M54.6499 206.581L55.0518 211.825H58.4891L58.6647 206.581H54.6499Z" fill="#E0E0E0"/>
<path d="M63.4186 206.581H39.0897V211.82H63.4186V206.581Z" fill="#455A64"/>
<path d="M63.34 207.404C63.34 207.473 57.93 207.524 51.2541 207.524C44.5782 207.524 39.1636 207.473 39.1636 207.404C39.1636 207.335 44.5782 207.285 51.2541 207.285C57.93 207.285 63.34 207.354 63.34 207.404Z" fill="#263238"/>
<path d="M63.3308 208.605C63.3308 208.669 57.9208 208.725 51.2449 208.725C44.569 208.725 39.1589 208.669 39.1589 208.605C39.1589 208.541 44.569 208.485 51.2449 208.485C57.9208 208.485 63.3308 208.536 63.3308 208.605Z" fill="#263238"/>
<path d="M63.3308 209.801C63.3308 209.87 57.9208 209.925 51.2449 209.925C44.569 209.925 39.1589 209.87 39.1589 209.801C39.1589 209.732 44.569 209.681 51.2449 209.681C57.9208 209.681 63.3308 209.737 63.3308 209.801Z" fill="#263238"/>
<path d="M63.3308 211.002C63.3308 211.071 57.9208 211.121 51.2449 211.121C44.569 211.121 39.1589 211.071 39.1589 211.002C39.1589 210.933 44.569 210.882 51.2449 210.882C57.9208 210.882 63.3308 210.937 63.3308 211.002Z" fill="#263238"/>
<path d="M48.7455 206.581L49.1474 211.825H52.5847L52.7603 206.581H48.7455Z" fill="#F5F5F5"/>
<path d="M66.3616 201.401H42.0327V206.641H66.3616V201.401Z" fill="#263238"/>
<path d="M51.6931 201.401L52.0904 206.641H55.5277L55.7079 201.401H51.6931Z" fill="#E0E0E0"/>
<path d="M60.4572 201.401H36.1283V206.641H60.4572V201.401Z" fill="#455A64"/>
<path d="M60.3832 202.22C60.3832 202.289 54.9686 202.344 48.2927 202.344C41.6168 202.344 36.2068 202.289 36.2068 202.22C36.2068 202.151 41.6168 202.101 48.2927 202.101C54.9686 202.101 60.3832 202.156 60.3832 202.22Z" fill="#263238"/>
<path d="M60.3741 203.421C60.3741 203.49 54.9595 203.54 48.2836 203.54C41.6077 203.54 36.1976 203.49 36.1976 203.421C36.1976 203.352 41.6077 203.301 48.2836 203.301C54.9595 203.301 60.3741 203.356 60.3741 203.421Z" fill="#263238"/>
<path d="M60.3741 204.621C60.3741 204.686 54.9595 204.741 48.2836 204.741C41.6077 204.741 36.1976 204.686 36.1976 204.621C36.1976 204.557 41.6077 204.502 48.2836 204.502C54.9595 204.502 60.3741 204.552 60.3741 204.621Z" fill="#263238"/>
<path d="M60.3741 205.817C60.3741 205.886 54.9595 205.942 48.2836 205.942C41.6077 205.942 36.1976 205.886 36.1976 205.817C36.1976 205.748 41.6077 205.698 48.2836 205.698C54.9595 205.698 60.3741 205.753 60.3741 205.817Z" fill="#263238"/>
<path d="M45.7887 201.401L46.1906 206.641H49.6233L49.8035 201.401H45.7887Z" fill="#F5F5F5"/>
</svg>
