<svg width="250" height="250" viewBox="0 0 250 250" fill="none" xmlns="http://www.w3.org/2000/svg">
<path d="M69.05 58.955C58.11 69.49 50.845 83.375 46.195 97.83C43.035 107.645 41.01 118.295 43.77 128.23C46.53 138.165 55.215 147.05 65.53 147.15C73.415 147.23 80.645 142.295 85.45 136.045C90.255 129.795 93.085 122.295 96.1 115.015C99.115 107.735 102.495 100.37 108.1 94.825C113.705 89.28 121.38 85.87 129.15 84C134.605 82.69 140.935 82.235 145.26 85.81C150.59 90.21 150.205 98.855 146.635 104.775C141.27 113.665 130.99 118.04 122.66 124.24C107.445 135.565 98.19 154.475 98.58 173.44C98.7 179.395 100.13 186.015 105.08 189.35C110.235 192.85 117.45 191.35 122.58 187.805C127.71 184.26 131.335 179.05 135.5 174.43C147.025 161.66 162.545 153.355 176.435 143.21C190.325 133.065 203.435 119.655 206.18 102.675C208.485 88.39 202.76 73.485 192.845 62.945C182.93 52.405 169.23 45.945 155.085 42.91C127.38 36.945 90.53 38.27 69.05 58.955Z" fill="#F6C85C"/>
<path opacity="0.9" d="M69.05 58.955C58.11 69.49 50.845 83.375 46.195 97.83C43.035 107.645 41.01 118.295 43.77 128.23C46.53 138.165 55.215 147.05 65.53 147.15C73.415 147.23 80.645 142.295 85.45 136.045C90.255 129.795 93.085 122.295 96.1 115.015C99.115 107.735 102.495 100.37 108.1 94.825C113.705 89.28 121.38 85.87 129.15 84C134.605 82.69 140.935 82.235 145.26 85.81C150.59 90.21 150.205 98.855 146.635 104.775C141.27 113.665 130.99 118.04 122.66 124.24C107.445 135.565 98.19 154.475 98.58 173.44C98.7 179.395 100.13 186.015 105.08 189.35C110.235 192.85 117.45 191.35 122.58 187.805C127.71 184.26 131.335 179.05 135.5 174.43C147.025 161.66 162.545 153.355 176.435 143.21C190.325 133.065 203.435 119.655 206.18 102.675C208.485 88.39 202.76 73.485 192.845 62.945C182.93 52.405 169.23 45.945 155.085 42.91C127.38 36.945 90.53 38.27 69.05 58.955Z" fill="white"/>
<path d="M125 213.505C178.541 213.505 221.945 210.971 221.945 207.845C221.945 204.719 178.541 202.185 125 202.185C71.4588 202.185 28.0551 204.719 28.0551 207.845C28.0551 210.971 71.4588 213.505 125 213.505Z" fill="#F5F5F5"/>
<path d="M215.175 181.455L217.715 141.025C217.938 137.469 217.431 133.906 216.224 130.554C215.017 127.202 213.136 124.133 210.696 121.536C208.257 118.939 205.312 116.869 202.042 115.454C198.773 114.04 195.248 113.31 191.685 113.31V113.31C185.023 113.311 178.614 115.861 173.773 120.437C168.932 125.014 166.025 131.269 165.65 137.92L163 185.14H211.25C212.25 185.14 213.212 184.758 213.941 184.074C214.67 183.389 215.111 182.453 215.175 181.455Z" fill="#F6C85C"/>
<path opacity="0.1" d="M215.265 180L217.715 141.035C217.938 137.479 217.431 133.915 216.224 130.563C215.017 127.211 213.136 124.142 210.696 121.545C208.257 118.949 205.312 116.879 202.042 115.464C198.773 114.049 195.248 113.32 191.685 113.32V113.32C185.023 113.321 178.614 115.871 173.773 120.447C168.932 125.023 166.025 131.279 165.65 137.93L163 185.14H209.795C211.188 185.135 212.528 184.602 213.543 183.648C214.558 182.694 215.174 181.39 215.265 180V180Z" fill="black"/>
<path d="M207.345 185.14L210.115 141.025C210.338 137.47 209.83 133.906 208.622 130.554C207.415 127.203 205.534 124.134 203.095 121.537C200.656 118.94 197.711 116.871 194.442 115.456C191.172 114.041 187.647 113.311 184.085 113.31V113.31C177.423 113.31 171.013 115.859 166.172 120.436C161.33 125.012 158.424 131.268 158.05 137.92L155.385 185.14H207.345Z" fill="#F6C85C"/>
<path d="M208.175 192.735H208.84C209.019 192.725 209.189 192.652 209.319 192.528C209.449 192.405 209.531 192.239 209.55 192.06L210.55 185.145H206.5L207.5 192.06C207.518 192.233 207.595 192.394 207.718 192.517C207.841 192.64 208.002 192.717 208.175 192.735Z" fill="#F6C85C"/>
<path opacity="0.7" d="M208.175 192.735H208.84C209.019 192.725 209.189 192.652 209.319 192.528C209.449 192.405 209.531 192.239 209.55 192.06L210.55 185.145H206.5L207.5 192.06C207.518 192.233 207.595 192.394 207.718 192.517C207.841 192.64 208.002 192.717 208.175 192.735Z" fill="white"/>
<path d="M142.85 192.735H143.45C143.62 192.717 143.779 192.64 143.897 192.516C144.015 192.393 144.085 192.231 144.095 192.06L145 185.145H141.32L142.215 192.06C142.224 192.229 142.293 192.39 142.41 192.513C142.526 192.637 142.682 192.715 142.85 192.735V192.735Z" fill="#F6C85C"/>
<path opacity="0.5" d="M142.85 192.735H143.45C143.62 192.717 143.779 192.64 143.897 192.516C144.015 192.393 144.085 192.231 144.095 192.06L145 185.145H141.32L142.215 192.06C142.224 192.229 142.293 192.39 142.41 192.513C142.526 192.637 142.682 192.715 142.85 192.735V192.735Z" fill="white"/>
<path d="M161.655 192.735H162.26C162.43 192.717 162.589 192.64 162.707 192.516C162.825 192.393 162.895 192.231 162.905 192.06L163.795 185.145H160.12L161 192.06C161.01 192.232 161.082 192.395 161.202 192.519C161.322 192.643 161.483 192.72 161.655 192.735V192.735Z" fill="#F6C85C"/>
<path opacity="0.7" d="M161.655 192.735H162.26C162.43 192.717 162.589 192.64 162.707 192.516C162.825 192.393 162.895 192.231 162.905 192.06L163.795 185.145H160.12L161 192.06C161.01 192.232 161.082 192.395 161.202 192.519C161.322 192.643 161.483 192.72 161.655 192.735V192.735Z" fill="white"/>
<path d="M187.925 192.735H188.59C188.77 192.724 188.94 192.651 189.07 192.528C189.201 192.404 189.284 192.239 189.305 192.06L190.305 185.145H186.25L187.25 192.06C187.268 192.233 187.344 192.395 187.467 192.518C187.59 192.641 187.752 192.717 187.925 192.735V192.735Z" fill="#F6C85C"/>
<path opacity="0.5" d="M187.925 192.735H188.59C188.77 192.724 188.94 192.651 189.07 192.528C189.201 192.404 189.284 192.239 189.305 192.06L190.305 185.145H186.25L187.25 192.06C187.268 192.233 187.344 192.395 187.467 192.518C187.59 192.641 187.752 192.717 187.925 192.735V192.735Z" fill="white"/>
<path d="M165.91 168.5H148.13L146.955 151.36L146.7 147.68L146.585 145.985C146.553 145.54 146.495 145.098 146.41 144.66C146.41 144.565 146.37 144.46 146.35 144.365C146.339 144.293 146.321 144.223 146.295 144.155C145.816 142.408 144.883 140.819 143.59 139.55C142.099 138.077 140.127 137.189 138.035 137.05H154.76C154.94 137.05 155.125 137.05 155.31 137.05C157.578 137.06 159.751 137.957 161.365 139.55C162.659 140.819 163.594 142.407 164.075 144.155C164.101 144.223 164.119 144.293 164.13 144.365C164.247 144.898 164.326 145.44 164.365 145.985L164.48 147.68L165.91 168.5Z" fill="#F6C85C"/>
<path opacity="0.1" d="M165.91 168.5H148.13L146.955 151.36L146.7 147.68L146.585 145.985C146.553 145.54 146.495 145.098 146.41 144.66C146.41 144.565 146.37 144.46 146.35 144.365C146.339 144.293 146.321 144.223 146.295 144.155C145.816 142.408 144.883 140.819 143.59 139.55C142.099 138.077 140.127 137.189 138.035 137.05H154.76C154.94 137.05 155.125 137.05 155.31 137.05C157.578 137.06 159.751 137.957 161.365 139.55C162.659 140.819 163.594 142.407 164.075 144.155C164.101 144.223 164.119 144.293 164.13 144.365C164.247 144.898 164.326 145.44 164.365 145.985L164.48 147.68L165.91 168.5Z" fill="black"/>
<g opacity="0.1">
<path opacity="0.1" d="M180 159.35H187.14C188.88 159.35 190.285 160.45 190.285 161.805V166.025C190.285 167.385 188.88 168.48 187.14 168.48H180V159.35Z" fill="black"/>
</g>
<path d="M150.845 168.48H182.295C183.792 168.48 185.005 167.267 185.005 165.77V162.055C185.005 160.559 183.792 159.345 182.295 159.345H150.845C149.348 159.345 148.135 160.559 148.135 162.055V165.77C148.135 167.267 149.348 168.48 150.845 168.48Z" fill="#F6C85C"/>
<path d="M225 147.135C225.004 149.526 224.163 151.841 222.625 153.671C221.087 155.501 218.951 156.728 216.595 157.135L214.77 181.5C214.61 183.57 213.105 185.155 211.305 185.155H191.695C193.495 185.155 194.995 183.57 195.155 181.5L196.155 168.5L197 157.12C198.541 156.855 200 156.236 201.261 155.311C202.521 154.386 203.55 153.181 204.265 151.79C204.363 151.613 204.452 151.431 204.53 151.245C205.108 149.952 205.404 148.551 205.4 147.135C205.399 146.441 205.329 145.75 205.19 145.07C205.135 144.8 205.065 144.53 204.99 144.265C204.634 143.074 204.065 141.958 203.31 140.97V140.97C202.364 139.738 201.147 138.739 199.754 138.051C198.361 137.362 196.829 137.003 195.275 137H214.885C216.457 136.994 218.007 137.361 219.41 138.07C220.781 138.753 221.978 139.739 222.91 140.955V140.955C224.271 142.727 225.006 144.901 225 147.135V147.135Z" fill="#F6C85C"/>
<path opacity="0.1" d="M225 147.135C225.004 149.526 224.163 151.841 222.625 153.671C221.087 155.501 218.951 156.728 216.595 157.135L214.77 181.5C214.61 183.57 213.105 185.155 211.305 185.155H191.695C193.495 185.155 194.995 183.57 195.155 181.5L196.155 168.5L197 157.12C198.541 156.855 200 156.236 201.261 155.311C202.521 154.386 203.55 153.181 204.265 151.79C204.363 151.613 204.452 151.431 204.53 151.245C205.108 149.952 205.404 148.551 205.4 147.135C205.399 146.441 205.329 145.75 205.19 145.07C205.135 144.8 205.065 144.53 204.99 144.265C204.634 143.074 204.065 141.958 203.31 140.97V140.97C202.364 139.738 201.147 138.739 199.754 138.051C198.361 137.362 196.829 137.003 195.275 137H214.885C216.457 136.994 218.007 137.361 219.41 138.07C220.781 138.753 221.978 139.739 222.91 140.955V140.955C224.271 142.727 225.006 144.901 225 147.135V147.135Z" fill="black"/>
<path d="M205.405 147.14C205.405 152.14 202.11 156.305 197.785 157.14L196.115 181.5C195.97 183.57 194.615 185.16 192.975 185.16H140.605C138.975 185.16 137.605 183.57 137.465 181.5L135.79 157.095C131.55 156.205 128.345 152.095 128.345 147.155C128.335 145.081 128.924 143.048 130.04 141.3C130.885 139.967 132.048 138.866 133.425 138.095C134.678 137.39 136.092 137.02 137.53 137.02C139.798 137.033 141.972 137.93 143.59 139.52C144.882 140.787 145.816 142.375 146.295 144.12C146.321 144.191 146.339 144.265 146.35 144.34C146.468 144.872 146.547 145.412 146.585 145.955L146.705 147.65L148.13 168.5H185.45L186.995 146C187.215 142.82 188.765 140.17 190.915 138.915C192.274 137.828 193.934 137.184 195.67 137.07C195.853 137.052 196.036 137.043 196.22 137.045C197.616 137.037 198.992 137.381 200.22 138.045C200.258 138.062 200.295 138.082 200.33 138.105C201.598 138.809 202.686 139.796 203.51 140.99C204.751 142.8 205.412 144.945 205.405 147.14V147.14Z" fill="#F6C85C"/>
<path opacity="0.1" d="M184.585 185.145H140.585C138.955 185.145 137.585 183.555 137.445 181.485L135.77 157.08C131.53 156.19 128.325 152.08 128.325 147.14C128.315 145.066 128.904 143.033 130.02 141.285C130.865 139.952 132.028 138.851 133.405 138.08C134.658 137.375 136.072 137.005 137.51 137.005C139.778 137.018 141.952 137.915 143.57 139.505C144.862 140.772 145.796 142.359 146.275 144.105C146.301 144.176 146.319 144.25 146.33 144.325C146.448 144.857 146.527 145.396 146.565 145.94L146.685 147.635L148.13 168.5H185.45L184.585 185.145Z" fill="white"/>
<path d="M178.88 115.86C178.01 116.36 177.215 116.775 176.38 117.2C175.545 117.625 174.725 118.015 173.88 118.405C172.2 119.17 170.5 119.905 168.75 120.54C166.986 121.196 165.191 121.763 163.37 122.24C161.476 122.749 159.543 123.095 157.59 123.275L157.175 123.315H156.98C155.215 123.11 153.65 122.815 152.08 122.465C150.51 122.115 148.955 121.77 147.415 121.375C145.875 120.98 144.345 120.575 142.815 120.135C141.285 119.695 139.77 119.24 138.255 118.725L138.95 115.255C142.095 115.455 145.235 115.755 148.345 116.08L152.99 116.545C154.52 116.695 156.085 116.825 157.455 116.875H156.85C158.419 116.595 159.966 116.204 161.48 115.705C163.045 115.205 164.61 114.635 166.175 113.965C167.74 113.295 169.29 112.605 170.83 111.87C171.62 111.51 172.385 111.13 173.135 110.755C173.885 110.38 174.685 109.98 175.37 109.625L178.88 115.86Z" fill="#263238"/>
<path opacity="0.1" d="M178.88 115.86C178.01 116.36 177.215 116.775 176.38 117.2C175.545 117.625 174.725 118.015 173.88 118.405C172.2 119.17 170.5 119.905 168.75 120.54C166.986 121.196 165.191 121.763 163.37 122.24C161.476 122.749 159.543 123.095 157.59 123.275L157.175 123.315H156.98C155.215 123.11 153.65 122.815 152.08 122.465C150.51 122.115 148.955 121.77 147.415 121.375C145.875 120.98 144.345 120.575 142.815 120.135C141.285 119.695 139.77 119.24 138.255 118.725L138.95 115.255C142.095 115.455 145.235 115.755 148.345 116.08L152.99 116.545C154.52 116.695 156.085 116.825 157.455 116.875H156.85C158.419 116.595 159.966 116.204 161.48 115.705C163.045 115.205 164.61 114.635 166.175 113.965C167.74 113.295 169.29 112.605 170.83 111.87C171.62 111.51 172.385 111.13 173.135 110.755C173.885 110.38 174.685 109.98 175.37 109.625L178.88 115.86Z" fill="black"/>
<path d="M138.315 113.35C137.576 112.831 136.759 112.433 135.895 112.17L134.6 117.225L138.48 118.855L138.92 118.315C139.218 117.954 139.44 117.537 139.572 117.087C139.703 116.638 139.742 116.167 139.685 115.702C139.629 115.238 139.478 114.789 139.242 114.385C139.007 113.981 138.691 113.628 138.315 113.35V113.35Z" fill="#FFC3BD"/>
<path d="M134.6 117.225L135.895 112.17L132.275 110.195L131.185 113.755L134.6 117.225Z" fill="#FFC3BD"/>
<path opacity="0.2" d="M166.705 121H166.845H166.905C168.815 120.795 174.43 119.85 178.49 115.845C177.885 114.675 177.055 113.77 176.04 113.565C173.24 113.035 169.81 115.04 166.705 121Z" fill="black"/>
<path d="M170 147.135C174.79 134.2 171.64 122.305 172.24 115.72C172.388 114.097 173.06 112.566 174.155 111.359C175.25 110.151 176.709 109.334 178.31 109.03C181.58 108.4 185.625 107.69 189.48 107.17C190.557 107.021 191.654 107.107 192.695 107.422C193.736 107.737 194.696 108.274 195.51 108.995C196.324 109.716 196.973 110.604 197.411 111.599C197.85 112.594 198.068 113.673 198.05 114.76C197.715 134.26 191.465 147.135 191.465 147.135L181.365 147.09L170 147.135Z" fill="#F6C85C"/>
<path opacity="0.8" d="M170 147.135C174.79 134.2 171.64 122.305 172.24 115.72C172.388 114.097 173.06 112.566 174.155 111.359C175.25 110.151 176.709 109.334 178.31 109.03C181.58 108.4 185.625 107.69 189.48 107.17C190.557 107.021 191.654 107.107 192.695 107.422C193.736 107.737 194.696 108.274 195.51 108.995C196.324 109.716 196.973 110.604 197.411 111.599C197.85 112.594 198.068 113.673 198.05 114.76C197.715 134.26 191.465 147.135 191.465 147.135L181.365 147.09L170 147.135Z" fill="white"/>
<path d="M131.68 191.27L130.4 199.685H134.465L137.135 191.27H131.68Z" fill="#FFC3BD"/>
<path d="M129.88 197.81L135.315 197.68C135.358 197.675 135.401 197.679 135.441 197.692C135.482 197.705 135.52 197.726 135.552 197.754C135.584 197.782 135.61 197.817 135.627 197.856C135.645 197.895 135.655 197.937 135.655 197.98V201.98C135.631 202.201 135.526 202.406 135.362 202.556C135.197 202.706 134.983 202.791 134.76 202.795C132.87 202.795 131.97 202.725 129.58 202.795C127.035 202.787 124.494 202.62 121.97 202.295C120.035 201.965 120.56 200.15 121.435 200.12C125.385 199.975 127.595 199.15 129.015 198.12C129.263 197.926 129.566 197.817 129.88 197.81V197.81Z" fill="#263238"/>
<path opacity="0.2" d="M131.165 194.645L131.68 191.27H137.135L135.825 195.48L131.165 194.645Z" fill="black"/>
<path d="M167.5 144.105C167.5 144.105 134.425 144.435 133.91 154.91C133.18 169.97 130.635 192.91 130.635 192.91L136.87 194.625C136.87 194.625 145.77 171.86 146.115 160.095C155.42 158.245 179.335 160.095 182.145 153.985C183.518 150.875 183.889 147.415 183.205 144.085L167.5 144.105Z" fill="#F6C85C"/>
<path opacity="0.6" d="M167.5 144.105C167.5 144.105 134.425 144.435 133.91 154.91C133.18 169.97 130.635 192.91 130.635 192.91L136.87 194.625C136.87 194.625 145.77 171.86 146.115 160.095C155.42 158.245 179.335 160.095 182.145 153.985C183.518 150.875 183.889 147.415 183.205 144.085L167.5 144.105Z" fill="black"/>
<path d="M160.78 194.525L162.985 200.235H167.445L165.91 194.23L160.78 194.525Z" fill="#FFC3BD"/>
<path opacity="0.2" d="M166.325 195.85L165.46 191.455L159.825 192.155L161.27 195.975L166.325 195.85Z" fill="black"/>
<path d="M161.775 198.345H167.47C167.562 198.338 167.653 198.368 167.723 198.428C167.794 198.487 167.837 198.573 167.845 198.665L168.12 202.93C168.115 203.16 168.019 203.38 167.854 203.541C167.688 203.702 167.466 203.791 167.235 203.79C165.235 203.755 164.305 203.645 161.8 203.645C160.265 203.645 157.155 203.795 155.03 203.795C152.905 203.795 152.965 201.795 153.86 201.64C157.91 200.83 159.475 199.715 160.9 198.64C161.153 198.452 161.46 198.349 161.775 198.345V198.345Z" fill="#263238"/>
<path d="M176.395 144.105C176.395 144.105 146.395 146.14 147.135 156.605C147.94 168.065 159.955 194.64 159.955 194.64H166C166 194.64 162 170.53 160.16 158.85C168.62 158.85 188.225 160.125 191.045 154C192.413 150.888 192.78 147.429 192.095 144.1L176.395 144.105Z" fill="#F6C85C"/>
<path opacity="0.5" d="M176.395 144.105C176.395 144.105 146.395 146.14 147.135 156.605C147.94 168.065 159.955 194.64 159.955 194.64H166C166 194.64 162 170.53 160.16 158.85C168.62 158.85 188.225 160.125 191.045 154C192.413 150.888 192.78 147.429 192.095 144.1L176.395 144.105Z" fill="black"/>
<path d="M180.94 101.71C181.63 104.38 181.845 107.71 178.115 109.085C177.08 110.735 176.575 112.475 180.56 111.855C183.732 111.445 186.619 109.812 188.605 107.305C186.22 105.215 186.655 98.8049 187.26 95.1899L180.94 101.71Z" fill="#FFC3BD"/>
<path d="M180.5 106.57C177.075 107.155 174.26 109.805 172.75 112.93C171.24 116.055 170.875 119.615 170.905 123.09C170.935 126.565 171.33 130.025 171.235 133.495C171.13 137.495 170.165 140.33 168.785 144.1C168.785 144.995 170.14 145.5 171.285 145.735C173.675 140.52 175.245 135.53 175.08 129.8C174.955 125.64 174.9 120.9 175.58 116.8C176.26 112.7 181.165 107.345 180.93 106.605L180.5 106.57Z" fill="#263238"/>
<path opacity="0.3" d="M183.85 103.67C183.491 103.937 183.082 104.128 182.647 104.233C182.213 104.338 181.761 104.354 181.32 104.28C181.328 103.63 181.281 102.981 181.18 102.34L185.32 98.9399C185.411 99.3818 185.469 99.8296 185.495 100.28C185.54 100.939 185.412 101.599 185.123 102.194C184.834 102.788 184.396 103.297 183.85 103.67V103.67Z" fill="black"/>
<path d="M177.66 85.9201C173.285 88.3951 173.24 95.3901 174.59 99.4201C174.931 100.478 175.555 101.421 176.396 102.147C177.236 102.874 178.26 103.355 179.356 103.539C180.452 103.723 181.577 103.602 182.608 103.189C183.64 102.777 184.538 102.089 185.205 101.2C187.345 98.4951 187.035 95.7651 186.93 91.0651C186.825 86.3651 182.04 83.4501 177.66 85.9201Z" fill="#FFC3BD"/>
<path opacity="0.2" d="M179.07 98.5005C177.66 99.1055 176.115 99.8905 174.69 99.7205C175.073 100.734 175.722 101.626 176.567 102.303C177.413 102.981 178.424 103.419 179.497 103.572C180.57 103.725 181.664 103.588 182.665 103.174C183.666 102.761 184.538 102.086 185.19 101.22C186.955 99.0005 187.5 97.5004 187 93.4604C184.26 96.6704 182.085 97.2005 179.07 98.5005Z" fill="black"/>
<path d="M183.3 87.4999C182.846 88.238 182.644 89.1037 182.724 89.9667C182.804 90.8296 183.162 91.6432 183.745 92.2849C184.14 92.6999 184.625 93.0199 185.005 93.4449C185.598 94.1117 185.906 94.9837 185.865 95.8749C185.954 95.3015 186.24 94.7769 186.673 94.3911C187.106 94.0052 187.66 93.782 188.24 93.7599C187.647 95.5966 187.053 97.4299 186.46 99.2599C187.634 98.7121 188.65 97.8734 189.409 96.8234C190.169 95.7734 190.647 94.5468 190.8 93.2599C191.18 89.7099 186.8 82.1049 183.3 87.4999Z" fill="#263238"/>
<path d="M173.09 87.7451C172.755 88.1169 172.517 88.5649 172.395 89.0501C172.337 89.2905 172.353 89.543 172.442 89.7736C172.532 90.0043 172.69 90.202 172.895 90.3401C173.274 90.4927 173.693 90.5138 174.085 90.4001L178.085 89.7051C180.375 89.3051 182.665 88.9101 184.925 88.3651C185.925 88.1251 187.08 87.7401 187.48 86.7801C188.775 83.6551 183.245 83.2501 181.395 83.3351C178.245 83.5001 175.06 85.3101 173.09 87.7451Z" fill="#263238"/>
<path d="M187.64 92.9604C186.33 93.2554 185.77 95.1404 185.805 96.3504C185.805 97.7254 186.805 98.6205 187.965 97.7905C188.827 97.1501 189.413 96.2065 189.605 95.1505C189.84 93.8554 188.955 92.6654 187.64 92.9604Z" fill="#FFC3BD"/>
<path d="M178.385 97.735C178.186 97.8673 177.961 97.9542 177.725 97.9897C177.489 98.0251 177.249 98.0081 177.02 97.94C177.52 96.81 177.46 97.065 177.615 95.145L178.385 97.735Z" fill="#ED847E"/>
<path d="M180.69 91.5C180.315 91.0801 179.29 90.9201 178.735 91.0001C178.679 91.0073 178.622 90.9927 178.577 90.9592C178.531 90.9257 178.5 90.8758 178.49 90.8201C178.483 90.7601 178.498 90.6995 178.533 90.6503C178.568 90.6012 178.621 90.5672 178.68 90.5551C179.38 90.4501 180.545 90.6601 181.02 91.185C181.061 91.2271 181.084 91.2837 181.084 91.3425C181.084 91.4014 181.061 91.458 181.02 91.5C180.992 91.529 180.958 91.5513 180.92 91.565C180.88 91.5775 180.836 91.578 180.796 91.5665C180.755 91.555 180.718 91.5319 180.69 91.5V91.5Z" fill="#263238"/>
<path d="M174.22 92.435C174.173 92.4026 174.141 92.3531 174.129 92.2972C174.118 92.2412 174.129 92.183 174.16 92.135C174.335 91.8195 174.581 91.5491 174.879 91.3452C175.177 91.1412 175.518 91.0094 175.875 90.96C175.902 90.9594 175.93 90.9642 175.955 90.9742C175.981 90.9842 176.004 90.9992 176.023 91.0183C176.043 91.0374 176.058 91.0602 176.069 91.0854C176.08 91.1106 176.085 91.1377 176.085 91.165C176.088 91.2257 176.067 91.2852 176.027 91.3309C175.987 91.3765 175.931 91.4049 175.87 91.41C175.588 91.455 175.32 91.5635 175.086 91.7272C174.852 91.8909 174.659 92.1056 174.52 92.355C174.502 92.3876 174.476 92.4152 174.445 92.4352C174.413 92.4553 174.377 92.4673 174.34 92.47C174.297 92.4735 174.254 92.4611 174.22 92.435Z" fill="#263238"/>
<path d="M178 99.7702C178.481 100.382 178.923 101.023 179.325 101.69L179.635 101.56C181.045 100.95 181.445 100.1 181.465 99.3452C181.448 98.7445 181.263 98.1607 180.93 97.6602C180.43 98.5252 179.165 99.2152 178.475 99.5502C178.18 99.6952 178 99.7702 178 99.7702Z" fill="#2E353A"/>
<path d="M178.465 99.5502L178.67 99.8302C178.726 99.9053 178.806 99.9594 178.897 99.9839C178.987 100.008 179.084 100.002 179.17 99.9652C180.21 99.4652 180.9 98.9652 181.17 98.4002C181.195 98.3469 181.208 98.2889 181.208 98.2302C181.208 98.1714 181.195 98.1134 181.17 98.0602C181.103 97.9214 181.026 97.7877 180.94 97.6602C180.415 98.5252 179.155 99.2152 178.465 99.5502Z" fill="white"/>
<path d="M179.625 101.56C181.035 100.95 181.435 100.1 181.455 99.3452C180.919 99.5923 180.444 99.9522 180.06 100.4C179.796 100.731 179.644 101.137 179.625 101.56Z" fill="#DE5753"/>
<path d="M175.825 94C175.58 94.045 175.445 94.395 175.515 94.77C175.585 95.145 175.85 95.415 176.095 95.365C176.34 95.315 176.475 94.975 176.405 94.6C176.335 94.225 176.07 94 175.825 94Z" fill="#263238"/>
<path d="M180.115 93.3102C179.87 93.3552 179.735 93.7002 179.805 94.0802C179.875 94.4602 180.14 94.7252 180.385 94.6752C180.63 94.6252 180.765 94.2802 180.695 93.9052C180.625 93.5302 180.36 93.2652 180.115 93.3102Z" fill="#263238"/>
<path opacity="0.9" d="M173.935 96.0303L177.09 95.3203L177.145 96.6603L174.21 97.3603L173.935 96.0303Z" fill="white"/>
<g opacity="0.8">
<path opacity="0.9" d="M178.05 95.1098L178.425 96.3398L182.475 95.4698L182.235 94.0498L178.05 95.1098Z" fill="white"/>
</g>
<path d="M177.11 95.8149L177.09 95.3199L178.05 95.1099L178.19 95.5749L177.11 95.8149Z" fill="#263238"/>
<path d="M175.96 146.56C175.96 146.56 181.655 148.765 182.96 149.195C184.46 149.782 186.039 150.144 187.645 150.27C188.459 150.325 189.276 150.205 190.041 149.92C190.805 149.635 191.501 149.19 192.08 148.615C193.44 147.165 193.865 144.965 194.22 142.9C195.26 136.836 196.303 130.773 197.35 124.71C197.85 121.71 199.165 117.21 199.055 115.515C198.85 112.365 196.845 108.645 191.74 106.6C189.74 105.805 187.795 106.1 186.125 108.1C185.125 109.29 182.215 112.16 181.5 117.215C180.93 121.265 180.04 126.51 180.095 130.625C180.16 136.035 178 142.855 175.96 146.56Z" fill="#263238"/>
<path d="M198.775 113.85C199.355 119.12 196.44 132.405 195.88 133.205C193.49 140.91 186.925 136.755 185.975 136.4C184.32 135.79 182.635 134.595 181.06 133.8C178.005 132.3 175.11 131.06 172.27 129.175L173.87 126.015C176.985 127.075 185.8 129.355 187.255 129.71C187.885 129.875 190.34 131.16 190.315 129.465C190.66 128.9 191.14 117.895 192.195 114.005C192.315 113.569 192.525 113.162 192.81 112.81L192.905 112.69C193.29 112.207 193.8 111.84 194.38 111.627C194.96 111.415 195.587 111.366 196.193 111.486C196.798 111.606 197.36 111.889 197.815 112.306C198.27 112.723 198.602 113.257 198.775 113.85V113.85Z" fill="#263238"/>
<path opacity="0.1" d="M198.775 113.85C199.355 119.12 196.44 132.405 195.88 133.205C193.49 140.91 186.925 136.755 185.975 136.4C184.32 135.79 182.635 134.595 181.06 133.8C178.005 132.3 175.11 131.06 172.27 129.175L173.87 126.015C176.985 127.075 185.8 129.355 187.255 129.71C187.885 129.875 190.34 131.16 190.315 129.465C190.66 128.9 191.14 117.895 192.195 114.005C192.315 113.569 192.525 113.162 192.81 112.81L192.905 112.69C193.29 112.207 193.8 111.84 194.38 111.627C194.96 111.415 195.587 111.366 196.193 111.486C196.798 111.606 197.36 111.889 197.815 112.306C198.27 112.723 198.602 113.257 198.775 113.85V113.85Z" fill="white"/>
<path d="M172.62 133.75H157.82L156.13 114.44H170.93L172.62 133.75Z" fill="#263238"/>
<path opacity="0.5" d="M172.62 133.75H157.82L156.13 114.44H170.93L172.62 133.75Z" fill="white"/>
<path d="M172.095 133.655H157.295L155.605 114.345H170.405L172.095 133.655Z" fill="#F6C85C"/>
<path opacity="0.8" d="M172.095 133.655H157.295L155.605 114.345H170.405L172.095 133.655Z" fill="white"/>
<path d="M166.225 115.55H160L159.79 113.135H166.01L166.225 115.55Z" fill="#F6C85C"/>
<path d="M159.79 113.135L160.4 112.925H166.845L166.935 113.95L166.455 114.505L166.425 115.345L166.225 115.55L166.01 113.135H159.79Z" fill="#F6C85C"/>
<path opacity="0.5" d="M159.79 113.135L160.4 112.925H166.845L166.935 113.95L166.455 114.505L166.425 115.345L166.225 115.55L166.01 113.135H159.79Z" fill="black"/>
<path d="M175.05 127.06L175.385 128.865C174.585 130.95 170 130.4 170 130.4V125.065L174.045 126.005C174.296 126.066 174.524 126.198 174.702 126.385C174.88 126.572 175.001 126.806 175.05 127.06V127.06Z" fill="#FFC3BD"/>
<path d="M169.99 125.065L170.01 130.41L165.95 130.51L165.02 125.81L169.99 125.065Z" fill="#FFC3BD"/>
<path d="M185.45 168.5L186.995 146C187.215 142.82 188.765 140.17 190.915 138.915C192.274 137.828 193.934 137.184 195.67 137.07C195.853 137.052 196.036 137.043 196.22 137.045C197.616 137.037 198.992 137.381 200.22 138.045C200.258 138.062 200.295 138.082 200.33 138.105C201.598 138.809 202.686 139.797 203.51 140.99C204.757 142.805 205.42 144.958 205.41 147.16C205.41 152.16 202.115 156.325 197.79 157.16L196.115 181.5C195.97 183.57 194.615 185.16 192.975 185.16H184.585L185.45 168.5Z" fill="#F6C85C"/>
<path opacity="0.1" d="M185.45 168.5L186.995 146C187.215 142.82 188.765 140.17 190.915 138.915C192.274 137.828 193.934 137.184 195.67 137.07C195.853 137.052 196.036 137.043 196.22 137.045C197.616 137.037 198.992 137.381 200.22 138.045C200.258 138.062 200.295 138.082 200.33 138.105C201.598 138.809 202.686 139.797 203.51 140.99C204.757 142.805 205.42 144.958 205.41 147.16C205.41 152.16 202.115 156.325 197.79 157.16L196.115 181.5C195.97 183.57 194.615 185.16 192.975 185.16H184.585L185.45 168.5Z" fill="white"/>
<path d="M109.15 63.8002V84.7052C109.15 85.2356 108.939 85.7443 108.564 86.1194C108.189 86.4945 107.68 86.7052 107.15 86.7052H85.7399L78.0899 92.6202C77.8729 92.7841 77.6144 92.8842 77.3435 92.9091C77.0727 92.934 76.8003 92.8827 76.557 92.7611C76.3137 92.6394 76.1092 92.4523 75.9667 92.2206C75.8241 91.989 75.749 91.7222 75.7499 91.4502V86.7052H74.5549C74.0245 86.7052 73.5158 86.4945 73.1407 86.1194C72.7656 85.7443 72.5549 85.2356 72.5549 84.7052V63.7952C72.5562 63.5348 72.6091 63.2772 72.7106 63.0374C72.8121 62.7976 72.9601 62.5802 73.146 62.398C73.332 62.2157 73.5523 62.0721 73.7941 61.9755C74.036 61.8789 74.2946 61.8312 74.5549 61.8352H107.185C107.706 61.8352 108.206 62.0422 108.574 62.4107C108.943 62.7792 109.15 63.279 109.15 63.8002V63.8002Z" stroke="#F6C85C" stroke-width="0.359911" stroke-miterlimit="10"/>
<path d="M89.1 58.8901H85.015V59.3901H89.1V58.8901Z" fill="#F6C85C"/>
<path d="M70 64.7803H69.5V62.3153C69.5013 61.4051 69.8638 60.5327 70.5079 59.8896C71.1519 59.2465 72.0248 58.8853 72.935 58.8853H82.05V59.3853H72.925C72.1479 59.3866 71.4028 59.6955 70.8529 60.2446C70.3029 60.7936 69.9926 61.5381 69.99 62.3153L70 64.7803Z" fill="#F6C85C"/>
<path d="M98.885 77.1503C98.6677 77.1516 98.4525 77.1078 98.2529 77.0219C98.0533 76.936 97.8737 76.8097 97.7253 76.6509C97.5769 76.4922 97.4629 76.3045 97.3906 76.0996C97.3183 75.8947 97.2891 75.677 97.305 75.4603V75.4603C97.84 69.3653 102.67 68.8053 103.275 61.8753C103.45 59.8753 102.72 59.1253 101.325 59.1253C99.93 59.1253 99.07 59.8803 98.895 61.8753L98.795 63.0153C98.7499 63.5303 98.5133 64.0097 98.1319 64.3587C97.7504 64.7077 97.252 64.901 96.735 64.9003V64.9003C96.4488 64.9 96.1658 64.8402 95.904 64.7247C95.6421 64.6093 95.4071 64.4407 95.2139 64.2296C95.0207 64.0185 94.8734 63.7695 94.7815 63.4985C94.6896 63.2275 94.655 62.9404 94.68 62.6553L94.725 62.1553C95.115 57.6953 97.53 55.1553 101.795 55.1553C106.06 55.1553 108.025 57.7053 107.635 62.1553C107 69.3803 101.725 70.5003 101.275 75.5953C101.277 75.6202 101.277 75.6453 101.275 75.6703C101.252 76.0745 101.076 76.4547 100.782 76.7334C100.489 77.0121 100.1 77.1684 99.695 77.1703L98.885 77.1503ZM101.05 81.3903C101.005 81.9146 100.765 82.4029 100.377 82.7585C99.9886 83.114 99.4812 83.311 98.955 83.3103C98.6633 83.3107 98.3748 83.2504 98.1078 83.1332C97.8407 83.016 97.601 82.8444 97.4039 82.6295C97.2068 82.4145 97.0567 82.1608 96.963 81.8846C96.8694 81.6085 96.8343 81.3158 96.86 81.0253C96.9052 80.5001 97.1462 80.0111 97.5352 79.6554C97.9243 79.2997 98.4329 79.1033 98.96 79.1053C99.251 79.1063 99.5386 79.1676 99.8047 79.2854C100.071 79.4032 100.31 79.5748 100.506 79.7896C100.702 80.0043 100.852 80.2574 100.946 80.5329C101.039 80.8084 101.075 81.1004 101.05 81.3903V81.3903Z" fill="#F6C85C"/>
<path d="M93.25 72.2554H81.75C81.4848 72.2554 81.2304 72.15 81.0429 71.9625C80.8554 71.7749 80.75 71.5206 80.75 71.2554C80.75 70.9902 80.8554 70.7358 81.0429 70.5483C81.2304 70.3607 81.4848 70.2554 81.75 70.2554H93.25C93.5152 70.2554 93.7696 70.3607 93.9571 70.5483C94.1446 70.7358 94.25 70.9902 94.25 71.2554C94.25 71.5206 94.1446 71.7749 93.9571 71.9625C93.7696 72.15 93.5152 72.2554 93.25 72.2554Z" fill="#F6C85C"/>
<path d="M91.66 76.2153H81.77C81.5048 76.2153 81.2505 76.11 81.0629 75.9224C80.8754 75.7349 80.77 75.4805 80.77 75.2153C80.77 74.9501 80.8754 74.6958 81.0629 74.5082C81.2505 74.3207 81.5048 74.2153 81.77 74.2153H91.66C91.9252 74.2153 92.1796 74.3207 92.3671 74.5082C92.5547 74.6958 92.66 74.9501 92.66 75.2153C92.66 75.4805 92.5547 75.7349 92.3671 75.9224C92.1796 76.11 91.9252 76.2153 91.66 76.2153Z" fill="#F6C85C"/>
<path d="M90.07 80.1704H81.77C81.5048 80.1704 81.2505 80.065 81.0629 79.8775C80.8754 79.69 80.77 79.4356 80.77 79.1704C80.77 78.9052 80.8754 78.6508 81.0629 78.4633C81.2505 78.2758 81.5048 78.1704 81.77 78.1704H90.07C90.3352 78.1704 90.5896 78.2758 90.7771 78.4633C90.9647 78.6508 91.07 78.9052 91.07 79.1704C91.07 79.4356 90.9647 79.69 90.7771 79.8775C90.5896 80.065 90.3352 80.1704 90.07 80.1704Z" fill="#F6C85C"/>
<path d="M66.54 161.755H59.235C57.455 161.755 56.015 162.88 56.015 164.255V168.575C56.015 169.965 57.455 171.075 59.235 171.075H66.54V161.755Z" fill="#F6C85C"/>
<path d="M32.59 182.1L30.05 141.67C29.8266 138.115 30.334 134.552 31.5409 131.2C32.7477 127.849 34.6285 124.781 37.067 122.184C39.5056 119.588 42.4503 117.518 45.7195 116.104C48.9886 114.689 52.5129 113.96 56.075 113.96V113.96C62.7376 113.96 69.1477 116.509 73.99 121.086C78.8323 125.662 81.7394 131.918 82.115 138.57L84.775 185.79H36.5C35.5018 185.786 34.5425 185.402 33.8165 184.717C33.0906 184.032 32.6521 183.096 32.59 182.1V182.1Z" fill="#F6C85C"/>
<path opacity="0.1" d="M32.5 180.635L30.05 141.67C29.8266 138.115 30.334 134.552 31.5409 131.2C32.7477 127.849 34.6285 124.781 37.067 122.184C39.5056 119.588 42.4503 117.518 45.7195 116.104C48.9886 114.689 52.5129 113.96 56.075 113.96V113.96C62.7376 113.96 69.1477 116.509 73.99 121.086C78.8323 125.662 81.7394 131.918 82.115 138.57L84.775 185.79H38C36.5991 185.793 35.25 185.261 34.2279 184.303C33.2059 183.345 32.5878 182.033 32.5 180.635Z" fill="black"/>
<path d="M40.4201 185.79L37.6501 141.67C37.4267 138.115 37.9342 134.551 39.1414 131.199C40.3486 127.848 42.2297 124.779 44.6688 122.182C47.1079 119.586 50.0532 117.517 53.323 116.102C56.5927 114.688 60.1176 113.959 63.6801 113.96V113.96C70.3418 113.961 76.7507 116.511 81.5919 121.087C86.4331 125.663 89.3396 131.919 89.7151 138.57L92.3801 185.79H40.4201Z" fill="#F6C85C"/>
<path d="M39.59 193.385H38.925C38.745 193.373 38.5749 193.299 38.4442 193.175C38.3136 193.05 38.2307 192.884 38.21 192.705L37.21 185.79H41.265L40.265 192.705C40.2476 192.879 40.171 193.041 40.0481 193.165C39.9252 193.289 39.7634 193.366 39.59 193.385V193.385Z" fill="#F6C85C"/>
<path opacity="0.7" d="M39.59 193.385H38.925C38.745 193.373 38.5749 193.299 38.4442 193.175C38.3136 193.05 38.2307 192.884 38.21 192.705L37.21 185.79H41.265L40.265 192.705C40.2476 192.879 40.171 193.041 40.0481 193.165C39.9252 193.289 39.7634 193.366 39.59 193.385V193.385Z" fill="white"/>
<path d="M104.915 193.385H104.31C104.139 193.366 103.981 193.288 103.863 193.163C103.745 193.039 103.675 192.876 103.665 192.705L102.775 185.79H106.45L105.56 192.705C105.55 192.876 105.48 193.039 105.362 193.163C105.244 193.288 105.086 193.366 104.915 193.385V193.385Z" fill="#F6C85C"/>
<path opacity="0.5" d="M104.915 193.385H104.31C104.139 193.366 103.981 193.288 103.863 193.163C103.745 193.039 103.675 192.876 103.665 192.705L102.775 185.79H106.45L105.56 192.705C105.55 192.876 105.48 193.039 105.362 193.163C105.244 193.288 105.086 193.366 104.915 193.385V193.385Z" fill="white"/>
<path d="M86.11 193.385H85.5C85.3294 193.366 85.1709 193.288 85.0528 193.163C84.9347 193.039 84.8646 192.876 84.855 192.705L83.96 185.79H87.64L86.75 192.705C86.7395 192.875 86.6698 193.037 86.5529 193.161C86.436 193.285 86.2793 193.364 86.11 193.385Z" fill="#F6C85C"/>
<path opacity="0.7" d="M86.11 193.385H85.5C85.3294 193.366 85.1709 193.288 85.0528 193.163C84.9347 193.039 84.8646 192.876 84.855 192.705L83.96 185.79H87.64L86.75 192.705C86.7395 192.875 86.6698 193.037 86.5529 193.161C86.436 193.285 86.2793 193.364 86.11 193.385Z" fill="white"/>
<path d="M59.84 193.385H59.175C58.9947 193.374 58.824 193.3 58.6932 193.176C58.5623 193.051 58.4797 192.885 58.46 192.705L57.46 185.79H61.515L60.515 192.705C60.4976 192.879 60.421 193.041 60.2981 193.165C60.1752 193.289 60.0134 193.366 59.84 193.385V193.385Z" fill="#F6C85C"/>
<path opacity="0.5" d="M59.84 193.385H59.175C58.9947 193.374 58.824 193.3 58.6932 193.176C58.5623 193.051 58.4797 192.885 58.46 192.705L57.46 185.79H61.515L60.515 192.705C60.4976 192.879 60.421 193.041 60.2981 193.165C60.1752 193.289 60.0134 193.366 59.84 193.385V193.385Z" fill="white"/>
<path d="M81.8551 169.125H99.6351L100.81 152L101.06 148.32L101.18 146.625C101.211 146.18 101.268 145.738 101.35 145.3C101.35 145.205 101.395 145.105 101.415 145.01C101.426 144.936 101.444 144.864 101.47 144.795C101.949 143.049 102.883 141.462 104.175 140.195C105.665 138.722 107.635 137.835 109.725 137.695H93.0001C92.8151 137.695 92.6351 137.695 92.4501 137.695C90.1814 137.706 88.0069 138.603 86.3901 140.195C85.0977 141.462 84.1644 143.049 83.6851 144.795C83.6592 144.864 83.6407 144.936 83.6301 145.01C83.5126 145.542 83.4341 146.081 83.3951 146.625L83.2801 148.32L81.8551 169.125Z" fill="#F6C85C"/>
<path opacity="0.1" d="M81.8551 169.125H99.6351L100.81 152L101.06 148.32L101.18 146.625C101.211 146.18 101.268 145.738 101.35 145.3C101.35 145.205 101.395 145.105 101.415 145.01C101.426 144.936 101.444 144.864 101.47 144.795C101.949 143.049 102.883 141.462 104.175 140.195C105.665 138.722 107.635 137.835 109.725 137.695H93.0001C92.8151 137.695 92.6351 137.695 92.4501 137.695C90.1814 137.706 88.0069 138.603 86.3901 140.195C85.0977 141.462 84.1644 143.049 83.6851 144.795C83.6592 144.864 83.6407 144.936 83.6301 145.01C83.5126 145.542 83.4341 146.081 83.3951 146.625L83.2801 148.32L81.8551 169.125Z" fill="black"/>
<g opacity="0.1">
<path opacity="0.1" d="M67.765 160H60.62C58.885 160 57.48 161.1 57.48 162.455V166.68C57.48 168.035 58.885 169.135 60.62 169.135H67.765V160Z" fill="black"/>
</g>
<path d="M96.92 159.995H65.47C63.9733 159.995 62.76 161.208 62.76 162.705V166.42C62.76 167.917 63.9733 169.13 65.47 169.13H96.92C98.4167 169.13 99.63 167.917 99.63 166.42V162.705C99.63 161.208 98.4167 159.995 96.92 159.995Z" fill="#F6C85C"/>
<path d="M22.75 147.785C22.7458 150.176 23.5872 152.491 25.1253 154.321C26.6635 156.151 28.7993 157.378 31.155 157.785L33 182.13C33.16 184.2 34.66 185.79 36.46 185.79H56.075C54.275 185.79 52.775 184.2 52.615 182.13L51.615 169.13L50.755 157.775C49.2161 157.506 47.7604 156.884 46.5017 155.959C45.2431 155.033 44.2157 153.829 43.5 152.44C43.405 152.26 43.32 152.075 43.24 151.89C42.6599 150.6 42.3616 149.2 42.365 147.785C42.3652 147.09 42.4372 146.396 42.58 145.715C42.635 145.445 42.705 145.175 42.775 144.915C43.1338 143.723 43.7046 142.605 44.46 141.615V141.615C45.3945 140.402 46.5909 139.416 47.96 138.73C49.3563 138.028 50.8972 137.662 52.46 137.66H32.88C31.8628 137.66 30.8513 137.813 29.88 138.115C27.8797 138.732 26.1203 139.955 24.845 141.615V141.615C23.4846 143.384 22.7479 145.554 22.75 147.785Z" fill="#F6C85C"/>
<path opacity="0.1" d="M22.75 147.785C22.7458 150.176 23.5872 152.491 25.1253 154.321C26.6635 156.151 28.7993 157.378 31.155 157.785L33 182.13C33.16 184.2 34.66 185.79 36.46 185.79H56.075C54.275 185.79 52.775 184.2 52.615 182.13L51.615 169.13L50.755 157.775C49.2161 157.506 47.7604 156.884 46.5017 155.959C45.2431 155.033 44.2157 153.829 43.5 152.44C43.405 152.26 43.32 152.075 43.24 151.89C42.6599 150.6 42.3616 149.2 42.365 147.785C42.3652 147.09 42.4372 146.396 42.58 145.715C42.635 145.445 42.705 145.175 42.775 144.915C43.1338 143.723 43.7046 142.605 44.46 141.615V141.615C45.3945 140.402 46.5909 139.416 47.96 138.73C49.3563 138.028 50.8972 137.662 52.46 137.66H32.88C31.8628 137.66 30.8513 137.813 29.88 138.115C27.8797 138.732 26.1203 139.955 24.845 141.615V141.615C23.4846 143.384 22.7479 145.554 22.75 147.785Z" fill="black"/>
<path d="M42.36 147.785C42.36 152.785 45.655 156.955 49.98 157.785L51.65 182.15C51.795 184.225 53.15 185.81 54.79 185.81H107.16C108.79 185.81 110.16 184.225 110.3 182.15L111.975 157.75C116.21 156.86 119.415 152.75 119.415 147.805C119.427 145.731 118.84 143.698 117.725 141.95C116.878 140.617 115.713 139.516 114.335 138.745C113.082 138.044 111.671 137.676 110.235 137.675C107.966 137.685 105.791 138.582 104.175 140.175C102.882 141.442 101.947 143.029 101.465 144.775C101.443 144.845 101.426 144.917 101.415 144.99C101.295 145.521 101.217 146.061 101.18 146.605L101.06 148.3L99.635 169.12H62.315L60.77 146.62C60.545 143.44 59 140.79 56.85 139.535C55.489 138.451 53.8305 137.808 52.095 137.69C51.91 137.69 51.73 137.69 51.545 137.69C50.1489 137.682 48.7732 138.026 47.545 138.69C47.5048 138.704 47.4663 138.722 47.43 138.745C46.1651 139.453 45.0777 140.44 44.25 141.63C43.0077 143.441 42.3483 145.589 42.36 147.785V147.785Z" fill="#F6C85C"/>
<path opacity="0.1" d="M63.1751 185.79H107.175C108.805 185.79 110.175 184.205 110.315 182.13L111.99 157.73C116.225 156.84 119.43 152.73 119.43 147.785C119.442 145.711 118.855 143.678 117.74 141.93C116.893 140.597 115.728 139.496 114.35 138.725C113.097 138.024 111.686 137.656 110.25 137.655C107.981 137.665 105.806 138.562 104.19 140.155C102.897 141.422 101.962 143.009 101.48 144.755C101.458 144.825 101.441 144.897 101.43 144.97C101.31 145.501 101.232 146.041 101.195 146.585L101.075 148.28L99.6501 169.1H62.3151L63.1751 185.79Z" fill="white"/>
<path d="M76.5649 194.395L80.8299 195.575L84.66 185.55L80.3949 184.37L76.5649 194.395Z" fill="#FFC3BD"/>
<path d="M82.74 194.245C82.4035 193.808 81.9171 193.513 81.375 193.414L77 192.56C76.8979 192.53 76.7883 192.542 76.6947 192.592C76.6012 192.643 76.5313 192.728 76.5 192.83L75.145 196.83C75.1063 196.938 75.0893 197.053 75.0953 197.169C75.1012 197.284 75.1298 197.397 75.1796 197.501C75.2293 197.605 75.2991 197.698 75.385 197.775C75.4709 197.852 75.5712 197.911 75.68 197.95H75.71C77.33 198.59 78.425 198.37 80.955 198.86C82.52 199.16 85.795 200.2 87.985 200.11C90.175 200.02 90.17 197.855 89.25 197.695C86 197.195 83.5 195.235 82.74 194.245Z" fill="#263238"/>
<g opacity="0.2">
<path opacity="0.2" d="M84.66 185.555L82.685 190.725L78.42 189.535L80.39 184.37L84.66 185.555Z" fill="black"/>
</g>
<path d="M70.425 147.5C70.425 147.5 96.105 147.36 95.305 155.96C94.765 161.77 91.975 167.875 89.805 173.77C86.65 182.315 83.915 189.77 83.915 189.77L78.065 187.745C78.065 187.745 83.32 163.035 86.86 160.505H65.145C57.96 160.505 54.855 152.615 61.85 143.415C66.125 143.43 70.425 147.5 70.425 147.5Z" fill="#F6C85C"/>
<path opacity="0.6" d="M70.425 147.5C70.425 147.5 96.105 147.36 95.305 155.96C95.7 161.305 83.91 189.76 83.91 189.76L78.06 187.735C78.06 187.735 83.315 163.025 86.855 160.495H65.145C57.96 160.495 54.855 152.605 61.85 143.405C66.125 143.43 70.425 147.5 70.425 147.5Z" fill="black"/>
<path d="M88.535 131.885C85.375 134.77 79.17 127.94 78.17 127.13C76.03 125.38 69.74 119.51 70.07 117.47C71.07 111.47 80.91 119.97 83.755 125.83L88.535 131.885Z" fill="#263238"/>
<path d="M60.88 113.83C59.295 114.165 57.58 113.595 56.465 114.77C55.35 115.945 54.885 117.595 54.725 119.205C54.5842 121.454 54.7016 123.712 55.075 125.935C55.4083 128.645 55.7566 131.353 56.12 134.06C56.3454 136.289 56.2596 138.539 55.865 140.745V140.745C55.8234 140.979 55.8607 141.221 55.9711 141.432C56.0815 141.642 56.2587 141.811 56.475 141.91C56.475 141.91 68.77 142.33 72.345 142.195C74.245 142.125 72.94 137.125 73.525 134.195C73.655 133.545 74.925 130.875 75.115 130.195C75.995 126.97 75.41 124.75 74.615 121.51C74.02 119.155 73.775 115.76 72.575 115.51C70.415 115.065 65.29 112.89 60.88 113.83Z" fill="#F6C85C"/>
<path opacity="0.8" d="M60.88 113.83C59.295 114.165 57.58 113.595 56.465 114.77C55.35 115.945 54.885 117.595 54.725 119.205C54.5842 121.454 54.7016 123.712 55.075 125.935C55.4083 128.645 55.7566 131.353 56.12 134.06C56.3454 136.289 56.2596 138.539 55.865 140.745V140.745C55.8234 140.979 55.8607 141.221 55.9711 141.432C56.0815 141.642 56.2587 141.811 56.475 141.91C56.475 141.91 68.77 142.33 72.345 142.195C74.245 142.125 72.94 137.125 73.525 134.195C73.655 133.545 74.925 130.875 75.115 130.195C75.995 126.97 75.41 124.75 74.615 121.51C74.02 119.155 73.775 115.76 72.575 115.51C70.415 115.065 65.29 112.89 60.88 113.83Z" fill="white"/>
<path d="M59.125 116.14C58.96 115.89 54.625 112.25 53.85 116.455C52.755 122.31 55.02 128.07 55.02 128.07C55.02 128.07 55.52 134.405 57.38 135.04C59.24 135.675 60.97 135.83 61.59 134.745C61.991 133.899 62.2025 132.976 62.21 132.04C62.21 132.04 62 120.5 59.125 116.14Z" fill="#263238"/>
<path d="M62.12 105.795C62.565 108.49 62.94 113.415 61.015 115.15C61.015 115.15 65.72 117.615 68.81 121.915C69.4961 121.403 70.0035 120.688 70.2602 119.871C70.5169 119.054 70.5098 118.177 70.24 117.365C70.0851 116.852 69.8281 116.376 69.4843 115.965C69.1406 115.555 68.7174 115.218 68.24 114.975C66.415 113.975 66.59 112.085 67.09 110.315L62.12 105.795Z" fill="#E8BFBF"/>
<path opacity="0.2" d="M62.735 110.37L64.49 111.045C65.2414 111.336 66.0454 111.465 66.85 111.425C66.7248 111.975 66.7248 112.545 66.85 113.095C66.2208 113.267 65.5552 113.253 64.9339 113.054C64.3126 112.855 63.7624 112.48 63.35 111.975C63.0663 111.474 62.8591 110.933 62.735 110.37V110.37Z" fill="black"/>
<path d="M106.3 185.775H111.08L106.075 173.79L102.835 179.29L106.3 185.775Z" fill="#FFC3BD"/>
<path d="M110.685 184.64L105.08 183.365C104.984 183.341 104.882 183.354 104.795 183.401C104.708 183.448 104.642 183.526 104.61 183.62L103.045 187.93C103.014 188.039 103.004 188.152 103.017 188.265C103.03 188.377 103.064 188.486 103.119 188.585C103.174 188.684 103.248 188.771 103.336 188.841C103.425 188.912 103.526 188.964 103.635 188.995C105.6 189.405 106.565 189.495 109.03 190.06C110.53 190.405 114.39 191.415 116.485 191.89C118.58 192.365 119.13 190.315 118.295 189.925C114.555 188.195 112.53 186.54 111.445 185.13C111.256 184.884 110.987 184.711 110.685 184.64V184.64Z" fill="#263238"/>
<g opacity="0.2">
<path opacity="0.2" d="M106.075 173.79L108.205 178.895L103.905 181.295L102.835 179.295L106.075 173.79Z" fill="black"/>
</g>
<path d="M55.7701 141.965L55.2701 143.595C55.2051 143.72 55.3501 143.85 55.5601 143.86L74.0601 144.42C74.2301 144.42 74.3651 144.35 74.3801 144.245L74.5951 142.605C74.5951 142.495 74.4651 142.395 74.2901 142.385L56.0901 141.835C56.03 141.826 55.9684 141.833 55.912 141.856C55.8556 141.879 55.8066 141.916 55.7701 141.965V141.965Z" fill="#263238"/>
<path d="M78.91 155.34C72.825 157.935 66.225 160.525 62.635 160.525C55.445 160.525 49.06 155.335 55.865 143.525C60.145 143.525 67.58 143.645 67.58 143.645C67.58 143.645 81.58 139.645 91.77 140.825C94.1847 141.107 96.4479 142.147 98.2347 143.795C100.021 145.444 101.24 147.616 101.715 150C104.295 163 108.27 177.06 108.27 177.06L103.155 180.56C103.155 180.56 95.18 163.795 90.59 150.5C88.16 151.265 83.695 153.3 78.91 155.34Z" fill="#F6C85C"/>
<path opacity="0.5" d="M101.715 150C101.242 147.614 100.024 145.439 98.2372 143.789C96.4502 142.139 94.186 141.097 91.7699 140.815C81.5999 139.655 67.5799 143.635 67.5799 143.635C67.5799 143.635 60.1449 143.5 55.8649 143.515C48.9499 155.275 55.4449 160.515 62.6349 160.515C66.2249 160.515 72.8249 157.925 78.9099 155.33C83.6949 153.29 88.1599 151.255 90.5899 150.475C95.1799 163.785 103.155 180.555 103.155 180.555L108.27 177.055C108.27 177.055 104.295 163 101.715 150Z" fill="black"/>
<path d="M95.305 156C95.1424 157.67 94.8921 159.331 94.555 160.975C94.53 160.92 94.51 160.87 94.49 160.815C94.47 160.76 94.49 160.79 94.49 160.775C94.4735 160.72 94.4518 160.666 94.425 160.615C93.065 157.235 91.735 153.77 90.61 150.505H90.645C93.555 151.74 95.54 153.5 95.305 156Z" fill="#F6C85C"/>
<path opacity="0.6" d="M95.305 156C95.1424 157.67 94.8921 159.331 94.555 160.975C94.53 160.92 94.51 160.87 94.49 160.815C94.47 160.76 94.49 160.79 94.49 160.775C94.4735 160.72 94.4518 160.666 94.425 160.615C93.065 157.235 91.735 153.77 90.61 150.505H90.645C93.555 151.74 95.54 153.5 95.305 156Z" fill="black"/>
<path d="M58.8401 103.205C60.3401 107.43 60.8901 109.25 63.7001 110.835C67.9351 113.225 72.7851 110.445 72.5751 105.835C72.3851 101.71 69.9601 95.4895 65.2601 94.9895C64.2232 94.8729 63.1737 95.0235 62.2114 95.427C61.2492 95.8306 60.4062 96.4737 59.7627 97.2951C59.1192 98.1165 58.6966 99.0889 58.5351 100.12C58.3736 101.151 58.4786 102.206 58.8401 103.185V103.205Z" fill="#E8BFBF"/>
<path d="M66.435 102.655C66.54 103.02 66.805 103.235 67.035 103.155C67.265 103.075 67.355 102.755 67.265 102.4C67.175 102.045 66.9 101.82 66.665 101.9C66.43 101.98 66.3349 102.305 66.435 102.655Z" fill="#263238"/>
<path d="M70.36 101.415C70.465 101.785 70.73 102 70.96 101.915C71.19 101.83 71.28 101.515 71.19 101.16C71.1 100.805 70.82 100.58 70.595 100.66C70.37 100.74 70.26 101.07 70.36 101.415Z" fill="#263238"/>
<path d="M70.5 100.715L71.27 100.215C71.27 100.215 71.025 101 70.5 100.715Z" fill="#263238"/>
<path d="M68.9551 102.215C69.4961 102.925 70.132 103.558 70.8451 104.095C70.7019 104.272 70.5215 104.415 70.3167 104.514C70.1119 104.614 69.8877 104.667 69.6601 104.67L68.9551 102.215Z" fill="#ED847E"/>
<path d="M56.08 106C56.3872 106.76 56.6199 107.549 56.775 108.355C56.8176 109.165 56.557 109.962 56.044 110.59C55.5309 111.219 54.8023 111.634 54 111.755C54.6987 111.941 55.4402 111.88 56.099 111.582C56.7579 111.284 57.2934 110.767 57.615 110.12C57.2328 111.138 56.4762 111.971 55.5 112.45C56.1978 112.457 56.8879 112.304 57.5166 112.001C58.1453 111.699 58.6957 111.255 59.125 110.705C58.89 111.315 58.625 111.92 58.415 112.53C59.6022 111.811 60.5771 110.789 61.24 109.57C61.505 109.07 61.705 108.42 61.355 107.98C61.005 107.54 60.45 107.57 59.94 107.56C59.43 107.55 58.815 107.43 58.63 106.955C58.445 106.48 58.785 106.005 59.155 105.68C59.525 105.355 59.97 105.055 60.105 104.58C60.169 104.236 60.1449 103.882 60.035 103.55C59.805 102.63 59.5783 101.708 59.355 100.785C59.2943 100.459 59.1776 100.146 59.01 99.8597C58.01 98.3597 56.895 100.56 56.51 101.305C55.7893 102.762 55.6361 104.436 56.08 106V106Z" fill="#263238"/>
<path d="M58.5451 107.345C59.1114 108.081 59.9449 108.564 60.8651 108.69C62.0901 108.84 62.5201 107.69 62.0301 106.645C61.5851 105.685 60.4151 104.46 59.2601 104.785C58.1051 105.11 57.8551 106.425 58.5451 107.345Z" fill="#E8BFBF"/>
<path d="M66.5 99.6351C66.4919 99.6817 66.4699 99.7248 66.4369 99.7587C66.4039 99.7926 66.3614 99.8157 66.315 99.8251C65.315 100.015 64.735 101.22 64.735 101.23C64.7099 101.285 64.6645 101.327 64.6084 101.349C64.5524 101.37 64.4902 101.369 64.435 101.345C64.3818 101.32 64.3404 101.275 64.3198 101.22C64.2993 101.165 64.3011 101.104 64.325 101.05C64.37 101.005 64.99 99.6201 66.23 99.3801C66.2882 99.3712 66.3475 99.3849 66.3959 99.4183C66.4442 99.4518 66.4779 99.5026 66.49 99.5601C66.5007 99.5836 66.5042 99.6097 66.5 99.6351V99.6351Z" fill="#263238"/>
<path d="M69.17 98.6348C69.1366 98.6296 69.1025 98.6313 69.0698 98.6399C69.0371 98.6485 69.0065 98.6638 68.98 98.6848C68.925 98.7448 68.74 98.8498 68.845 98.9048C69.455 99.2148 70.3 99.7248 70.95 99.6198C71.06 99.6198 71.32 99.5048 71.265 99.4248C71.2275 99.3844 71.1801 99.3545 71.1275 99.3378C71.075 99.3212 71.019 99.3184 70.965 99.3298C70.465 99.3998 69.76 98.9148 69.28 98.6648C69.2448 98.6502 69.2078 98.6401 69.17 98.6348Z" fill="#263238"/>
<path d="M66.5701 101.95L67.3451 101.45C67.3451 101.45 67.1001 102.245 66.5701 101.95Z" fill="#263238"/>
<path d="M66.5 93.14C64.795 92.83 64.575 92.715 62.845 92.825C61.0976 92.8797 59.4081 93.4638 58 94.5C56.6846 95.5873 55.7566 97.0713 55.355 98.73C54.962 100.383 54.9177 102.099 55.225 103.77C55.2802 104.568 55.6252 105.318 56.195 105.88C56.2531 104.981 56.4056 104.092 56.65 103.225C56.905 102.35 57.43 101.578 58.15 101.02C58.4678 100.848 58.7416 100.605 58.95 100.31C59.0582 100.018 59.119 99.711 59.13 99.4C59.2868 98.6999 59.7054 98.0863 60.3 97.685C60.8906 97.293 61.5228 96.9677 62.185 96.715C64.29 95.81 66.585 95.29 68.525 94.07C67.8903 93.6789 67.2103 93.3666 66.5 93.14V93.14Z" fill="#263238"/>
<path d="M57.775 99.8299C58.2329 100.386 58.8596 100.777 59.56 100.945C60.39 101.135 62.465 101.085 62.59 100.87C62.715 100.655 61.975 98.3248 61.135 98.1848C61.7145 98.7443 62.4065 99.1738 63.165 99.4448C64.0232 99.6164 64.9069 99.6164 65.765 99.4448C66.205 99.3448 65.22 97.5248 64.505 97.0048C66.66 97.4548 68.94 97.9698 70.505 99.5048C72.07 101.04 72.745 103.47 72.665 105.735C73.0317 105.439 73.3263 105.064 73.5265 104.638C73.7266 104.212 73.827 103.746 73.82 103.275C74.1975 104.446 74.3358 105.681 74.2267 106.907C74.1177 108.132 73.7634 109.324 73.185 110.41C75.475 108.53 76.33 105.245 75.73 102.345C75.13 99.4448 73.23 96.9199 70.925 95.0649C68.925 93.4799 66.545 92.2949 64.01 92.2349C60.685 92.1349 54.525 95.9149 57.775 99.8299Z" fill="#263238"/>
<path d="M60.4699 113.2C60.4699 113.035 60.5099 112.815 60.5299 112.585C60.5736 112.057 60.4198 111.531 60.0984 111.11C59.777 110.689 59.3108 110.402 58.7899 110.305C58.6353 110.277 58.4908 110.209 58.3713 110.107C58.2518 110.005 58.1616 109.873 58.1099 109.725C57.7249 108.605 57.5749 108.265 57.2049 107.165C56.2049 106.92 54.9999 107.295 53.9549 107.405C53.6652 108.659 53.6447 109.961 53.8949 111.225C53.935 111.507 54.045 111.775 54.2149 112.005C55.1638 112.782 56.2133 113.428 57.3349 113.925C58.2349 114.2 59.4999 113.285 60.4699 113.2Z" fill="#E8BFBF"/>
<path d="M57.44 113.95C57.44 113.95 54.685 131.725 57.525 134.45C59.19 136.04 60.63 135.16 61.525 134.165C61.8531 133.794 62.0999 133.359 62.2498 132.887C62.3996 132.415 62.4491 131.917 62.395 131.425L60.46 113.215C60.46 113.215 58.56 112.09 57.44 113.95Z" fill="#E8BFBF"/>
<path d="M87.04 130C88.1713 129.013 88.9825 127.711 89.37 126.26C89.4584 125.749 89.4919 125.229 89.47 124.71C89.445 121.49 88.535 115.585 88.535 115.585L85.92 114.72C85.92 114.72 85.105 119.22 84.92 121.68C84.885 122.18 84.83 122.735 84.77 123.34C84.655 124.44 84.515 125.65 84.39 126.655L87.04 130Z" fill="#E8BFBF"/>
<path d="M88.535 131.885C89.34 131.15 89.475 130.26 89.89 128.385C90.285 126.595 89.84 124.385 89.47 124.72C89.4237 124.762 89.3893 124.815 89.37 124.875C88.735 126.375 86.265 125.06 85.565 124.31C85.2635 124.023 84.9982 123.701 84.775 123.35C84.6832 123.216 84.6341 123.057 84.6341 122.895C84.6341 122.732 84.6832 122.574 84.775 122.44C84.015 122.125 83.405 125.115 83.775 125.85L83.965 126.405C84.2662 127.305 84.7306 128.142 85.335 128.875L86.71 130.53L88.535 131.885Z" fill="#263238"/>
<path d="M85.85 115.095L85.54 110.525C86.3488 110.91 87.1843 111.236 88.04 111.5C89.31 111.935 91.04 111.17 90.64 112C90.0023 113.235 89.291 114.43 88.51 115.58L85.85 115.095Z" fill="#E8BFBF"/>
<path d="M85.54 110.525L87.5 105.95L90.06 107.515C90.765 109.045 90.68 112.015 90.68 112.015C90.68 112.015 87.12 112.155 85.54 110.525Z" fill="#E8BFBF"/>
<path d="M68.655 107C68.72 107.325 68.955 107.555 69.155 107.5C69.355 107.445 69.48 107.155 69.41 106.83C69.34 106.505 69.11 106.275 68.91 106.33C68.71 106.385 68.585 106.695 68.655 107Z" fill="#263238"/>
<path d="M62.315 169.125L60.77 146.625C60.545 143.445 59 140.795 56.85 139.54C55.489 138.457 53.8305 137.813 52.095 137.695C51.91 137.695 51.73 137.695 51.545 137.695C50.1489 137.687 48.7732 138.031 47.545 138.695C47.5048 138.709 47.4663 138.728 47.43 138.75C46.1651 139.458 45.0777 140.445 44.25 141.635C43.0012 143.449 42.3382 145.602 42.35 147.805C42.35 152.805 45.645 156.975 49.97 157.805L51.64 182.17C51.785 184.245 53.14 185.83 54.78 185.83H63.165L62.315 169.125Z" fill="#F6C85C"/>
<path opacity="0.1" d="M62.315 169.125L60.77 146.625C60.545 143.445 59 140.795 56.85 139.54C55.489 138.457 53.8305 137.813 52.095 137.695C51.91 137.695 51.73 137.695 51.545 137.695C50.1489 137.687 48.7732 138.031 47.545 138.695C47.5048 138.709 47.4663 138.728 47.43 138.75C46.1651 139.458 45.0777 140.445 44.25 141.635C43.0012 143.449 42.3382 145.602 42.35 147.805C42.35 152.805 45.645 156.975 49.97 157.805L51.64 182.17C51.785 184.245 53.14 185.83 54.78 185.83H63.165L62.315 169.125Z" fill="white"/>
<path d="M122.08 210.235C131.342 210.235 138.85 208.315 138.85 205.945C138.85 203.576 131.342 201.655 122.08 201.655C112.818 201.655 105.31 203.576 105.31 205.945C105.31 208.315 112.818 210.235 122.08 210.235Z" fill="#263238"/>
<path opacity="0.3" d="M122.08 208.805C131.342 208.805 138.85 207.205 138.85 205.23C138.85 203.256 131.342 201.655 122.08 201.655C112.818 201.655 105.31 203.256 105.31 205.23C105.31 207.205 112.818 208.805 122.08 208.805Z" fill="white"/>
<path d="M123.465 205.225H120.695L117.495 170.715H126.665L123.465 205.225Z" fill="#263238"/>
<path d="M126.665 170.716C126.665 171.716 124.615 172.536 122.08 172.536C119.545 172.536 117.495 171.721 117.495 170.716C117.495 169.711 119.55 168.896 122.08 168.896C124.61 168.896 126.665 169.711 126.665 170.716Z" fill="#263238"/>
<path opacity="0.7" d="M126.665 170.716C126.665 171.716 124.615 172.536 122.08 172.536C119.545 172.536 117.495 171.721 117.495 170.716C117.495 169.711 119.55 168.896 122.08 168.896C124.61 168.896 126.665 169.711 126.665 170.716Z" fill="white"/>
<path opacity="0.7" d="M66 171.256C66.0125 171.049 66.0663 170.847 66.1582 170.662C66.2501 170.476 66.3782 170.311 66.535 170.176C70.41 174.076 94.995 177.081 124.745 177.081C154.495 177.081 179.08 174.081 182.96 170.176C183.117 170.311 183.245 170.476 183.337 170.662C183.429 170.847 183.482 171.049 183.495 171.256C183.495 175.661 157.19 179.256 124.745 179.256C92.3 179.256 66 175.661 66 171.256Z" fill="white"/>
<path opacity="0.7" d="M66.5549 172.251C70.4299 168.351 95.0149 165.351 124.765 165.351C154.515 165.351 179.1 168.351 182.98 172.251C179.1 176.151 154.515 179.156 124.765 179.156C95.0149 179.156 70.4299 176.151 66.5549 172.251Z" fill="white"/>
<path opacity="0.7" d="M66 171.101C66 166.691 92.3 163.101 124.745 163.101C157.19 163.101 183.495 166.671 183.495 171.101C183.483 171.307 183.429 171.508 183.337 171.693C183.245 171.878 183.117 172.042 182.96 172.176C179.08 168.276 154.495 165.276 124.745 165.276C94.995 165.276 70.41 168.276 66.535 172.176C66.3779 172.042 66.2496 171.878 66.1576 171.693C66.0657 171.508 66.0121 171.307 66 171.101Z" fill="white"/>
<path d="M147.425 167.215L122.845 166.75C122.779 166.744 122.714 166.724 122.656 166.692C122.598 166.66 122.546 166.616 122.505 166.564C122.463 166.512 122.433 166.452 122.415 166.388C122.397 166.324 122.392 166.257 122.4 166.19V166.19C122.395 166.124 122.403 166.057 122.423 165.994C122.444 165.93 122.477 165.872 122.521 165.821C122.565 165.771 122.618 165.73 122.678 165.701C122.738 165.671 122.803 165.654 122.87 165.65L147.45 166.115C147.517 166.122 147.582 166.141 147.641 166.173C147.7 166.205 147.752 166.248 147.794 166.3C147.836 166.352 147.867 166.412 147.885 166.477C147.903 166.541 147.908 166.609 147.9 166.675C147.905 166.742 147.897 166.81 147.876 166.873C147.855 166.937 147.821 166.996 147.777 167.046C147.733 167.097 147.679 167.138 147.618 167.167C147.558 167.196 147.492 167.212 147.425 167.215Z" fill="#263238"/>
<path opacity="0.2" d="M147.425 167.215L122.845 166.75C122.779 166.744 122.714 166.724 122.656 166.692C122.598 166.66 122.546 166.616 122.505 166.564C122.463 166.512 122.433 166.452 122.415 166.388C122.397 166.324 122.392 166.257 122.4 166.19V166.19C122.395 166.124 122.403 166.057 122.423 165.994C122.444 165.93 122.477 165.872 122.521 165.821C122.565 165.771 122.618 165.73 122.678 165.701C122.738 165.671 122.803 165.654 122.87 165.65L147.45 166.115C147.517 166.122 147.582 166.141 147.641 166.173C147.7 166.205 147.752 166.248 147.794 166.3C147.836 166.352 147.867 166.412 147.885 166.477C147.903 166.541 147.908 166.609 147.9 166.675C147.905 166.742 147.897 166.81 147.876 166.873C147.855 166.937 147.821 166.996 147.777 167.046C147.733 167.097 147.679 167.138 147.618 167.167C147.558 167.196 147.492 167.212 147.425 167.215Z" fill="white"/>
<path d="M159.36 165.421L147.61 167.196C147.482 167.196 147.358 167.147 147.265 167.058C147.172 166.97 147.116 166.849 147.11 166.721C147.09 166.586 147.12 166.449 147.194 166.335C147.269 166.222 147.383 166.14 147.515 166.106L159.265 164.331C159.393 164.33 159.517 164.38 159.61 164.468C159.703 164.556 159.759 164.677 159.765 164.806C159.785 164.94 159.755 165.077 159.681 165.191C159.606 165.304 159.492 165.386 159.36 165.421V165.421Z" fill="#263238"/>
<path d="M159.255 164.331H134.415L122.87 165.651L146.78 166.101L159.255 164.331Z" fill="#263238"/>
<path opacity="0.6" d="M159.255 164.331H134.415L122.87 165.651L146.78 166.101L159.255 164.331Z" fill="white"/>
<path opacity="0.5" d="M159.36 165.421L147.61 167.196C147.482 167.196 147.358 167.147 147.265 167.058C147.172 166.97 147.116 166.849 147.11 166.721C147.09 166.586 147.12 166.449 147.194 166.335C147.269 166.222 147.383 166.14 147.515 166.106L159.265 164.331C159.393 164.33 159.517 164.38 159.61 164.468C159.703 164.556 159.759 164.677 159.765 164.806C159.785 164.94 159.755 165.077 159.681 165.191C159.606 165.304 159.492 165.386 159.36 165.421V165.421Z" fill="white"/>
<path d="M146.78 166.1L123.86 165.67C123.428 165.615 123.031 165.404 122.744 165.076C122.458 164.748 122.301 164.326 122.305 163.89L121.615 150.05C121.565 149.085 122.19 148.31 122.995 148.325L145.915 148.76C146.348 148.813 146.746 149.024 147.033 149.353C147.32 149.681 147.476 150.104 147.47 150.54L148.165 164.375C148.21 165.34 147.59 166.115 146.78 166.1Z" fill="#F6C85C"/>
<path opacity="0.2" d="M146.78 166.1L123.86 165.67C123.428 165.615 123.031 165.404 122.744 165.076C122.458 164.748 122.301 164.326 122.305 163.89L121.615 150.05C121.565 149.085 122.19 148.31 122.995 148.325L145.915 148.76C146.348 148.813 146.746 149.024 147.033 149.353C147.32 149.681 147.476 150.104 147.47 150.54L148.165 164.375C148.21 165.34 147.59 166.115 146.78 166.1Z" fill="white"/>
<path d="M146.11 166.031L123.19 165.596C122.757 165.542 122.359 165.331 122.071 165.002C121.784 164.674 121.627 164.252 121.63 163.816L120.94 150.001C120.89 149.036 121.515 148.261 122.325 148.276L145.24 148.706C145.673 148.76 146.071 148.971 146.359 149.299C146.646 149.627 146.803 150.049 146.8 150.486L147.5 164.306C147.54 165.271 146.915 166.046 146.11 166.031Z" fill="#F6C85C"/>
<path opacity="0.6" d="M146.11 166.031L123.19 165.596C122.757 165.542 122.359 165.331 122.071 165.002C121.784 164.674 121.627 164.252 121.63 163.816L120.94 150.001C120.89 149.036 121.515 148.261 122.325 148.276L145.24 148.706C145.673 148.76 146.071 148.971 146.359 149.299C146.646 149.627 146.803 150.049 146.8 150.486L147.5 164.306C147.54 165.271 146.915 166.046 146.11 166.031Z" fill="white"/>
<path d="M131.18 156.915C131.247 157.574 131.554 158.185 132.041 158.633C132.528 159.08 133.163 159.334 133.825 159.345C134.136 159.351 134.445 159.29 134.731 159.167C135.017 159.043 135.273 158.861 135.483 158.631C135.693 158.401 135.852 158.129 135.949 157.834C136.046 157.538 136.078 157.225 136.045 156.915C135.972 156.26 135.664 155.654 135.177 155.21C134.691 154.765 134.059 154.513 133.4 154.5C133.09 154.495 132.783 154.556 132.498 154.678C132.213 154.8 131.958 154.981 131.748 155.21C131.538 155.438 131.379 155.708 131.281 156.002C131.183 156.296 131.149 156.607 131.18 156.915V156.915Z" fill="white"/>
</svg>
