<svg width="113" height="45" viewBox="0 0 113 45" fill="none" xmlns="http://www.w3.org/2000/svg">
<path d="M8.21131 35.3962V19.2601H16.7927V35.3962H22.322V13.7641H8.21131V12.9737C8.21131 10.8105 9.31711 9.8537 11.3241 9.8537C11.5698 9.8537 12.3616 9.8537 13.6996 9.8537V4.9449C11.8975 4.9449 10.6005 4.9449 9.80861 4.9449C7.18731 4.9449 2.72301 6.2345 2.72301 12.6409V13.7641H0.0198059V19.2601H2.72301V35.3962H8.21131ZM36.8619 44.049C41.6949 44.049 48.084 42.0522 48.084 33.7738V13.7641H42.596V16.6761H42.3502C41.8178 15.4697 39.4422 13.3481 35.6741 13.3481C30.7592 13.3481 25.4348 17.0921 25.4348 24.5802C25.4348 32.0682 30.7592 35.8122 35.6741 35.8122C39.4422 35.8122 41.8178 33.6906 42.3502 32.4842H42.596V34.1481C42.596 37.4345 39.9747 39.3898 35.8789 39.3898C33.7901 39.3898 31.6603 38.8489 30.6773 38.1833V42.7178C31.947 43.5498 34.4045 44.049 36.8619 44.049ZM36.78 30.8201C33.7082 30.8201 30.8412 28.6154 30.8412 24.5802C30.8412 20.5449 33.7082 18.3401 36.78 18.3401C39.8928 18.3401 42.7188 20.5033 42.7188 24.5802C42.7188 28.657 39.8928 30.8201 36.78 30.8201ZM60.29 35.8122C63.484 35.8122 65.655 34.3561 66.843 32.4425V35.3962H72.331V13.7641H66.843V25.5785C66.843 28.7401 65.082 30.8201 62.297 30.8201C59.43 30.8201 57.75 28.7401 57.75 25.5785V13.7641H52.262V26.4937C52.262 33.0665 55.948 35.8122 60.29 35.8122ZM81.997 35.3962V25.9529C81.997 21.6265 84.577 18.7145 88.714 18.7145C89.206 18.7145 89.615 18.7561 90.107 18.8393V13.5145C89.615 13.3897 89.165 13.348 88.673 13.348C87.441 13.348 82.734 13.5159 81.997 16.8439V13.7641H76.509V35.3962H81.997ZM102.364 35.8122C106.132 35.8122 109.204 34.2314 110.965 31.985L108.467 29.281C106.911 30.6538 105.068 31.2361 102.979 31.2361C99.784 31.2361 97.245 29.6969 96.466 26.7433H112.399C113.587 17.2169 107.443 13.3481 102.037 13.3481C96.589 13.3481 91.265 17.3001 91.265 24.5802C91.265 31.777 96.507 35.8122 102.364 35.8122ZM107.525 22.6665H96.385C97.081 19.5465 99.538 18.0489 102.078 18.0489C104.658 18.0489 107.197 19.5881 107.525 22.6665Z" fill="white"/>
<path fill-rule="evenodd" clip-rule="evenodd" d="M22.322 9.8539V4.9451H16.7927V9.8539H22.322Z" fill="#0D8F74"/>
<path fill-rule="evenodd" clip-rule="evenodd" d="M27.851 4.9469V0.0381012H22.3218V4.9469H27.851Z" fill="#13CCA5"/>
</svg>
