<svg width="255" height="255" viewBox="0 0 255 255" fill="none" xmlns="http://www.w3.org/2000/svg">
<path d="M220.155 91.5019C214.836 78.1822 206.393 65.5076 193.856 58.5581C181.319 51.6087 164.199 51.756 153.785 61.6061C139.251 75.3221 142.304 101.362 127.222 114.499C114.12 125.904 94.0797 122.119 77.3716 126.869C57.6358 132.457 42.6396 151.796 42.1164 172.31C41.5931 192.823 55.5784 212.883 74.984 219.493L107.13 213.493C128.466 224.308 154.755 224.161 176.421 214.057C198.088 203.953 214.908 184.354 222.594 161.697C230.28 139.041 229.03 113.707 220.155 91.5019Z" fill="#FFFAEE"/>
<path d="M244.595 237.145C244.595 237.216 193.861 237.277 131.311 237.277C68.7609 237.277 17.9965 237.216 17.9965 237.145C17.9965 237.074 68.7203 237.013 131.311 237.013C193.902 237.013 244.595 237.069 244.595 237.145Z" fill="#263238"/>
<path d="M207.384 193.162C212.271 194.869 218.641 193.345 222.822 190.292C227.003 187.239 230.01 182.865 232.677 178.43C233.81 176.535 234.923 174.564 235.283 172.385C235.644 170.206 235.111 167.752 233.424 166.33C230.798 164.12 226.774 165.242 223.772 166.939C219.115 169.652 215.188 173.456 212.33 178.025C209.471 182.593 207.767 187.788 207.364 193.162" fill="#F6C85C"/>
<path d="M212.652 204.857C215.588 208.728 220.627 210.445 225.484 210.673C230.34 210.902 235.136 209.561 239.662 207.818C241.308 207.188 243.112 206.32 243.675 204.653C243.851 204.008 243.865 203.329 243.715 202.676C243.565 202.024 243.257 201.419 242.817 200.915C241.918 199.921 240.794 199.157 239.54 198.684C235.075 196.785 229.964 196.693 225.265 197.912C220.566 199.132 216.467 201.854 212.652 204.857Z" fill="#F6C85C"/>
<path d="M207.313 172.228C211.377 172.309 214.425 168.768 216.248 165.162C218.79 160.117 219.635 154.387 218.656 148.824C218.286 146.757 217.503 144.527 215.654 143.531C213.805 142.535 211.331 143.191 209.756 144.628C208.181 146.066 207.318 148.118 206.708 150.155C204.534 157.181 205.001 165.258 207.333 172.228" fill="#F6C85C"/>
<path d="M194.024 194.6C200.922 182.865 202.07 168.504 197.996 155.515C197.336 153.407 196.091 150.999 193.886 150.856C191.448 150.704 189.914 153.427 189.243 155.774C186.876 164.024 187.379 172.782 187.902 181.346C188.227 186.625 190.036 191.136 194.024 194.6Z" fill="#F6C85C"/>
<path d="M186.856 199.426C185.571 195.405 183.401 191.724 180.505 188.653C177.609 185.582 174.061 183.2 170.122 181.682C168.288 180.996 165.962 180.6 164.595 182.002C163.229 183.404 163.671 185.674 164.529 187.392C165.916 190.16 168.171 192.39 170.417 194.504C172.449 196.449 174.582 198.4 177.163 199.533C179.744 200.666 184.493 200.945 186.856 199.406" fill="#F6C85C"/>
<path d="M229.609 169.276C229.609 169.276 229.573 169.317 229.487 169.383L229.116 169.673L227.673 170.75L226.622 171.527C226.246 171.816 225.855 172.157 225.423 172.507C224.57 173.218 223.559 173.985 222.543 174.951L220.917 176.429C220.353 176.937 219.815 177.531 219.231 178.105C218.042 179.248 216.894 180.579 215.675 181.956C210.418 188.041 206.164 194.925 203.071 202.347C202.395 204.069 201.715 205.695 201.227 207.265C200.973 208.047 200.689 208.789 200.48 209.525L199.886 211.638C199.474 212.98 199.241 214.224 198.982 215.306C198.865 215.85 198.738 216.353 198.646 216.83C198.555 217.308 198.489 217.724 198.423 218.115C198.286 218.867 198.179 219.462 198.103 219.893C198.062 220.076 198.037 220.229 198.011 220.351C197.986 220.473 197.976 220.508 197.966 220.508C197.96 220.454 197.96 220.4 197.966 220.346C197.966 220.224 198.001 220.071 198.027 219.883C198.088 219.446 198.179 218.867 198.286 218.095C198.347 217.704 198.413 217.272 198.484 216.805C198.555 216.337 198.682 215.824 198.794 215.281C199.038 214.194 199.256 212.939 199.652 211.593C199.835 210.912 200.028 210.201 200.231 209.464C200.435 208.728 200.709 207.976 200.958 207.188C201.466 205.608 202.111 203.973 202.787 202.24C205.865 194.774 210.139 187.859 215.441 181.768C216.685 180.396 217.849 179.065 219.048 177.928C219.637 177.348 220.186 176.769 220.755 176.256L222.4 174.788C223.416 173.833 224.432 173.076 225.316 172.375C225.758 172.03 226.155 171.699 226.541 171.415L227.607 170.658L229.091 169.642L229.482 169.383C229.558 169.297 229.604 169.271 229.609 169.276Z" fill="#263238"/>
<path d="M238.743 201.809C238.582 201.798 238.422 201.772 238.265 201.732C237.961 201.677 237.513 201.555 236.924 201.458C230.643 200.208 224.143 200.629 218.076 202.68C212.008 204.73 206.585 208.338 202.35 213.142C201.235 214.397 200.205 215.724 199.266 217.115C198.921 217.623 198.692 217.999 198.514 218.258C198.434 218.397 198.341 218.528 198.235 218.649C198.295 218.5 198.37 218.357 198.458 218.222C198.616 217.953 198.829 217.541 199.159 217.044C200.062 215.615 201.071 214.257 202.177 212.98C205.83 208.736 210.426 205.407 215.598 203.259C220.769 201.111 226.371 200.203 231.956 200.61C233.64 200.72 235.313 200.96 236.96 201.326C237.544 201.443 237.976 201.58 238.296 201.656C238.448 201.697 238.597 201.748 238.743 201.809Z" fill="#263238"/>
<path d="M213.272 148.22C213.272 148.282 213.264 148.343 213.246 148.403C213.216 148.54 213.18 148.713 213.134 148.911C213.028 149.419 212.875 150.074 212.682 150.943C212.286 152.695 211.666 155.225 210.92 158.349C209.396 164.598 207.191 173.203 204.89 182.733C203.747 187.503 202.715 192.06 201.842 196.216C200.968 200.371 200.221 204.125 199.667 207.29C199.368 208.87 199.159 210.308 198.931 211.567C198.702 212.827 198.55 213.909 198.423 214.798C198.296 215.687 198.184 216.353 198.108 216.83C198.067 217.049 198.037 217.221 198.016 217.338C197.996 217.455 197.981 217.521 197.971 217.521C197.965 217.46 197.965 217.399 197.971 217.338C197.971 217.196 198.006 217.023 198.032 216.8C198.093 216.292 198.179 215.621 198.291 214.768C198.402 213.914 198.55 212.787 198.748 211.522C198.946 210.257 199.149 208.819 199.434 207.239C199.942 204.064 200.683 200.305 201.547 196.139C202.411 191.974 203.447 187.417 204.595 182.642C206.896 173.107 209.142 164.511 210.691 158.258L212.555 150.877C212.774 150.023 212.947 149.353 213.063 148.87C213.119 148.657 213.165 148.489 213.206 148.362C213.222 148.312 213.244 148.265 213.272 148.22Z" fill="#263238"/>
<path d="M197.437 216.617C197.416 216.572 197.4 216.524 197.392 216.474L197.3 216.053C197.214 215.652 197.102 215.103 196.96 214.417C196.665 213 196.279 210.937 195.837 208.382C194.953 203.277 193.902 196.19 193.262 188.301C192.947 184.354 192.754 180.589 192.698 177.16C192.642 173.731 192.672 170.643 192.779 168.052C192.809 166.756 192.896 165.588 192.952 164.557C193.008 163.526 193.074 162.647 193.145 161.925C193.216 161.204 193.256 160.671 193.297 160.264C193.297 160.092 193.333 159.949 193.343 159.832C193.353 159.716 193.343 159.685 193.373 159.685C193.379 159.736 193.379 159.787 193.373 159.838C193.373 159.954 193.373 160.097 193.373 160.269C193.373 160.676 193.317 161.235 193.277 161.936C193.236 162.637 193.175 163.541 193.14 164.567C193.104 165.593 193.033 166.767 193.018 168.062C192.941 170.648 192.931 173.731 193.018 177.155C193.104 180.579 193.292 184.333 193.602 188.27C194.247 196.144 195.258 203.231 196.086 208.346C196.497 210.886 196.848 212.969 197.102 214.392C197.219 215.088 197.315 215.636 197.381 216.038C197.407 216.21 197.427 216.353 197.447 216.469C197.45 216.519 197.446 216.568 197.437 216.617Z" fill="#263238"/>
<path d="M197.945 218.105C197.874 217.977 197.814 217.843 197.767 217.704L197.315 216.52C197.214 216.261 197.107 215.977 196.99 215.667L196.548 214.676C196.391 214.321 196.218 213.94 196.04 213.533C195.862 213.127 195.634 212.726 195.415 212.284C195.197 211.842 194.953 211.395 194.709 210.917L193.856 209.474C193.302 208.458 192.586 207.442 191.895 206.36C190.305 204.053 188.585 201.838 186.744 199.726C184.86 197.635 182.87 195.642 180.78 193.757C179.789 192.924 178.88 192.086 177.966 191.385L176.66 190.369L175.421 189.454C174.638 188.865 173.897 188.367 173.256 187.93C172.616 187.493 172.053 187.112 171.585 186.833L170.488 186.132C170.359 186.06 170.238 185.975 170.127 185.878C170.265 185.932 170.398 185.998 170.523 186.076L171.621 186.701C172.103 186.97 172.677 187.326 173.328 187.757C173.978 188.189 174.735 188.662 175.527 189.246L176.787 190.145L178.108 191.161C179.038 191.852 179.952 192.685 180.953 193.518C183.062 195.398 185.067 197.392 186.957 199.492C188.826 201.62 190.563 203.859 192.159 206.198C192.845 207.305 193.556 208.321 194.105 209.342C194.389 209.85 194.664 210.333 194.933 210.805L195.619 212.187C195.832 212.634 196.056 213.046 196.228 213.452L196.736 214.61L197.153 215.626C197.265 215.941 197.361 216.231 197.453 216.495C197.615 217.003 197.747 217.389 197.849 217.694C197.898 217.826 197.931 217.965 197.945 218.105Z" fill="#263238"/>
<path d="M227.054 182.891C227.054 182.941 226.216 182.941 224.874 183.013C223.127 183.114 221.388 183.324 219.667 183.643C217.947 183.974 216.25 184.416 214.587 184.968C213.312 185.39 212.555 185.695 212.515 185.649C212.669 185.531 212.841 185.437 213.023 185.37C213.363 185.202 213.866 184.989 214.501 184.75C217.813 183.514 221.31 182.849 224.844 182.784C225.52 182.784 226.068 182.784 226.444 182.814C226.65 182.806 226.856 182.832 227.054 182.891Z" fill="#263238"/>
<path d="M232.256 208.296C232.154 208.347 231.377 206.101 229.416 204.018C227.455 201.936 225.296 200.97 225.352 200.869C225.85 200.999 226.323 201.208 226.754 201.489C228.917 202.734 230.652 204.604 231.732 206.853C231.979 207.304 232.156 207.791 232.256 208.296Z" fill="#263238"/>
<path d="M214.511 157.745C214.577 157.816 213.307 159.076 211.926 160.793C210.544 162.51 209.553 163.988 209.472 163.937C209.391 163.886 210.264 162.306 211.672 160.584C212.479 159.508 213.435 158.552 214.511 157.745Z" fill="#263238"/>
<path d="M210.346 150.551C210.437 150.551 210.716 151.755 210.976 153.274C211.235 154.793 211.372 156.033 211.285 156.048C211.199 156.063 210.915 154.844 210.656 153.325C210.396 151.806 210.259 150.567 210.346 150.551Z" fill="#263238"/>
<path d="M197.447 173.132C197.524 173.173 196.624 175.073 195.415 177.379C194.206 179.685 193.19 181.519 193.109 181.478C193.028 181.438 193.932 179.533 195.141 177.227C196.35 174.92 197.366 173.091 197.447 173.132Z" fill="#263238"/>
<path d="M189.792 165.466C189.873 165.426 190.64 166.802 191.504 168.54C192.367 170.277 193.002 171.715 192.926 171.755C192.85 171.796 192.078 170.419 191.214 168.682C190.351 166.944 189.685 165.507 189.792 165.466Z" fill="#263238"/>
<path d="M178.484 191.679C178.484 191.776 177.092 191.507 175.385 191.39C173.678 191.273 172.286 191.339 172.276 191.242C172.266 191.146 173.668 190.938 175.41 191.065C177.153 191.192 178.504 191.598 178.484 191.679Z" fill="#263238"/>
<path d="M186.19 214.859L190.031 235.047C190.153 235.695 190.497 236.279 191.005 236.699C191.512 237.119 192.15 237.349 192.809 237.348H204.153C204.823 237.349 205.472 237.111 205.982 236.677C206.493 236.244 206.833 235.642 206.942 234.981L210.279 214.859H186.19Z" fill="#263238"/>
<path d="M187.44 221.423H209.126L210.279 214.859H186.19L187.44 221.423Z" fill="#455A64"/>
<path d="M187.44 221.422L187.892 223.815H208.796L209.126 221.422H187.44Z" fill="#FAFAFA"/>
<path d="M99.1597 234.499L100.47 228.911L111.357 229.18L110.448 237.13L109.757 237.186C106.673 237.394 94.0696 238.029 91.9766 237.43C89.716 236.754 99.1597 234.499 99.1597 234.499Z" fill="#F6C85C"/>
<g opacity="0.4">
<path opacity="0.4" d="M106.394 237.09C106.546 236.143 107.044 235.287 107.791 234.687C108.521 234.089 109.449 233.788 110.392 233.843L110.432 236.968L106.394 237.09Z" fill="black"/>
</g>
<g opacity="0.4">
<path opacity="0.4" d="M94.5368 235.769C94.5368 235.769 91.2195 236.785 91.6412 237.293C92.0628 237.801 104.849 237.674 110.437 237.11V236.861L95.5528 237.176C95.5528 237.176 95.187 235.784 94.5368 235.769Z" fill="black"/>
</g>
<path d="M110.6 236.866C110.537 236.882 110.472 236.89 110.407 236.891L109.858 236.932L107.826 237.044C106.114 237.13 103.762 237.211 101.121 237.247C98.479 237.282 96.127 237.247 94.4099 237.247L92.3779 237.186H91.8242H91.6362C91.7003 237.178 91.7652 237.178 91.8293 237.186H92.3779H94.4099C96.1219 237.186 98.4739 237.186 101.116 237.186C103.757 237.186 106.104 237.079 107.816 237.018L109.848 236.952H110.402L110.6 236.866Z" fill="#263238"/>
<path d="M95.5477 237.369C95.4543 237.033 95.323 236.709 95.1566 236.404C94.9521 236.119 94.7151 235.86 94.4504 235.631C94.7985 235.756 95.0892 236.004 95.2683 236.327C95.4852 236.629 95.5846 236.999 95.5477 237.369Z" fill="#263238"/>
<path d="M98.8243 235.662C98.7938 235.662 98.6313 235.494 98.4636 235.235C98.296 234.976 98.1893 234.758 98.2198 234.727C98.2503 234.697 98.4128 234.9 98.5805 235.154C98.7481 235.408 98.8599 235.631 98.8243 235.662Z" fill="#263238"/>
<path d="M99.7236 235.154C99.7236 235.179 99.5204 235.062 99.3273 234.895C99.1343 234.727 98.9921 234.559 99.0175 234.534C99.0429 234.509 99.2207 234.62 99.4137 234.793C99.6067 234.966 99.749 235.154 99.7236 235.154Z" fill="#263238"/>
<path d="M100.282 234.097C100.097 234.171 99.897 234.201 99.6982 234.184C99.5017 234.207 99.3025 234.188 99.114 234.128C99.3001 234.057 99.4998 234.029 99.6982 234.046C99.8943 234.02 100.094 234.037 100.282 234.097Z" fill="#263238"/>
<path d="M100.47 233.35C100.269 233.461 100.048 233.528 99.8196 233.548C99.5914 233.569 99.3614 233.541 99.1444 233.467C99.3644 233.432 99.587 233.415 99.8099 233.416C100.028 233.376 100.249 233.354 100.47 233.35Z" fill="#263238"/>
<path d="M98.4333 234.681C98.1945 234.722 97.9506 234.722 97.7119 234.681C97.452 234.652 97.1953 234.599 96.9448 234.524C96.7935 234.479 96.6472 234.42 96.5079 234.346C96.422 234.302 96.3551 234.228 96.32 234.138C96.308 234.084 96.3117 234.029 96.3306 233.977C96.3496 233.926 96.3829 233.881 96.4267 233.848C96.6995 233.71 97.0117 233.672 97.31 233.738C97.6083 233.805 97.8742 233.973 98.0624 234.214C98.1753 234.354 98.2568 234.517 98.3012 234.691C98.3317 234.813 98.3317 234.879 98.3012 234.884C98.2262 234.663 98.1127 234.457 97.9659 234.275C97.8022 234.086 97.5867 233.95 97.3461 233.884C97.2062 233.839 97.0588 233.822 96.9123 233.834C96.7658 233.846 96.6232 233.887 96.4927 233.955C96.3809 234.036 96.4267 234.173 96.5537 234.244C96.6822 234.316 96.8186 234.372 96.9601 234.412C97.2021 234.492 97.4501 234.553 97.7017 234.595C98.1589 234.646 98.4333 234.646 98.4333 234.681Z" fill="#263238"/>
<path d="M98.2453 234.722C98.1554 234.569 98.1247 234.388 98.1589 234.214C98.1809 234.032 98.2453 233.858 98.3469 233.706C98.4056 233.598 98.4911 233.507 98.5951 233.441C98.6992 233.375 98.8183 233.337 98.9412 233.33C99.0143 233.345 99.0787 233.388 99.1205 233.45C99.1623 233.511 99.1782 233.587 99.1648 233.66C99.1508 233.775 99.1108 233.884 99.0479 233.98C98.9554 234.141 98.8428 234.29 98.7126 234.422C98.4891 234.646 98.3164 234.732 98.3062 234.717C98.2961 234.702 98.4485 234.585 98.6415 234.356C98.7554 234.222 98.8542 234.075 98.9362 233.919C99.0327 233.767 99.0987 233.498 98.9362 233.467C98.7736 233.437 98.5704 233.63 98.4637 233.777C98.3644 233.917 98.2968 234.076 98.2656 234.245C98.2455 234.403 98.2387 234.563 98.2453 234.722Z" fill="#263238"/>
<path d="M110.336 233.813C110.336 233.838 110.016 233.787 109.508 233.854C108.85 233.932 108.228 234.196 107.715 234.615C107.202 235.034 106.819 235.591 106.612 236.221C106.444 236.703 106.434 237.029 106.409 237.023C106.394 236.95 106.394 236.874 106.409 236.8C106.427 236.595 106.466 236.392 106.526 236.195C106.718 235.536 107.105 234.95 107.636 234.515C108.168 234.08 108.818 233.816 109.503 233.757C109.707 233.735 109.913 233.735 110.117 233.757C110.193 233.76 110.267 233.779 110.336 233.813Z" fill="#263238"/>
<path d="M109.116 229.175C109.201 229.937 109.243 230.704 109.243 231.471C109.287 232.236 109.287 233.002 109.243 233.767C109.156 233.007 109.114 232.242 109.116 231.476C109.073 230.71 109.073 229.941 109.116 229.175Z" fill="#263238"/>
<path d="M104.956 236.018C103.88 236.237 102.774 236.261 101.69 236.089C101.69 236.048 102.426 236.089 103.325 236.089C104.224 236.089 104.956 235.977 104.956 236.018Z" fill="#263238"/>
<path d="M107.161 235.987C107.191 236.013 107.105 236.14 107.034 236.307C106.963 236.475 106.922 236.627 106.881 236.622C106.841 236.617 106.825 236.45 106.907 236.257C106.988 236.064 107.14 235.957 107.161 235.987Z" fill="#263238"/>
<path d="M107.973 234.946C108.004 234.971 107.933 235.088 107.816 235.21C107.699 235.332 107.587 235.403 107.562 235.378C107.537 235.352 107.608 235.235 107.719 235.113C107.831 234.991 107.948 234.92 107.973 234.946Z" fill="#263238"/>
<path d="M109.152 234.463C109.152 234.499 108.995 234.504 108.832 234.56C108.669 234.616 108.553 234.712 108.522 234.687C108.492 234.661 108.583 234.504 108.786 234.433C108.989 234.362 109.162 234.428 109.152 234.463Z" fill="#263238"/>
<path d="M109.99 234.229C109.99 234.264 109.939 234.325 109.848 234.361C109.756 234.397 109.67 234.397 109.655 234.361C109.64 234.325 109.706 234.264 109.797 234.229C109.888 234.193 109.975 234.193 109.99 234.229Z" fill="#263238"/>
<path d="M143.706 234.524L143.742 228.56L132.566 228.423L132.424 237.156L133.12 237.206C136.198 237.415 148.807 238.05 150.874 237.45C153.175 236.78 143.706 234.524 143.706 234.524Z" fill="#F6C85C"/>
<g opacity="0.4">
<path opacity="0.4" d="M136.452 237.115C136.298 236.169 135.801 235.313 135.055 234.712C134.323 234.117 133.396 233.816 132.454 233.869L132.413 236.993L136.452 237.115Z" fill="black"/>
</g>
<g opacity="0.4">
<path opacity="0.4" d="M148.329 235.794C148.329 235.794 151.646 236.81 151.225 237.318C150.803 237.826 138.042 237.699 132.429 237.135V236.881L147.313 237.201C147.313 237.201 147.679 235.814 148.329 235.794Z" fill="black"/>
</g>
<path d="M132.266 236.896H132.459L133.008 236.937L135.04 237.054C136.752 237.135 139.104 237.216 141.745 237.257C144.387 237.298 146.739 237.257 148.456 237.232L150.488 237.176H151.042H151.235C151.171 237.168 151.106 237.168 151.042 237.176H150.488H148.456C146.739 237.176 144.367 237.176 141.745 237.176C139.124 237.176 136.757 237.069 135.045 237.013L133.013 236.942H132.459L132.266 236.896Z" fill="#263238"/>
<path d="M147.318 237.395C147.412 237.059 147.544 236.736 147.709 236.429C147.911 236.145 148.148 235.887 148.415 235.662C148.064 235.782 147.772 236.031 147.597 236.358C147.382 236.658 147.282 237.027 147.318 237.395Z" fill="#263238"/>
<path d="M144.041 235.662C144.072 235.662 144.234 235.494 144.402 235.24C144.57 234.986 144.676 234.763 144.646 234.732C144.615 234.702 144.453 234.9 144.285 235.154C144.118 235.408 144.011 235.662 144.041 235.662Z" fill="#263238"/>
<path d="M143.142 235.189C143.168 235.215 143.346 235.103 143.544 234.93C143.742 234.758 143.874 234.6 143.848 234.57C143.823 234.539 143.645 234.656 143.452 234.829C143.259 235.001 143.117 235.154 143.142 235.189Z" fill="#263238"/>
<path d="M142.583 234.138C142.77 234.206 142.969 234.234 143.168 234.219C143.364 234.246 143.564 234.227 143.752 234.163C143.567 234.096 143.369 234.068 143.173 234.082C142.975 234.056 142.773 234.075 142.583 234.138Z" fill="#263238"/>
<path d="M142.401 233.381C142.6 233.491 142.821 233.559 143.049 233.579C143.276 233.599 143.505 233.571 143.721 233.498C143.504 233.459 143.282 233.44 143.061 233.442C142.844 233.399 142.622 233.378 142.401 233.381Z" fill="#263238"/>
<path d="M144.433 234.707C144.671 234.751 144.916 234.751 145.154 234.707C145.414 234.68 145.671 234.627 145.921 234.55C146.071 234.505 146.218 234.447 146.358 234.377C146.443 234.326 146.508 234.247 146.541 234.153C146.553 234.1 146.549 234.044 146.53 233.993C146.511 233.942 146.478 233.897 146.434 233.864C146.162 233.727 145.851 233.689 145.554 233.756C145.256 233.823 144.991 233.99 144.803 234.23C144.687 234.369 144.604 234.532 144.56 234.707C144.545 234.771 144.545 234.837 144.56 234.9C144.635 234.679 144.748 234.472 144.895 234.291C145.06 234.104 145.275 233.968 145.515 233.899C145.655 233.854 145.802 233.837 145.949 233.85C146.095 233.862 146.238 233.903 146.368 233.971C146.48 234.057 146.434 234.189 146.307 234.265C146.178 234.334 146.042 234.388 145.901 234.428C145.659 234.511 145.411 234.573 145.159 234.616C144.707 234.687 144.433 234.687 144.433 234.707Z" fill="#263238"/>
<path d="M144.621 234.748C144.71 234.594 144.741 234.414 144.707 234.24C144.684 234.058 144.62 233.884 144.519 233.732C144.46 233.623 144.375 233.532 144.271 233.466C144.167 233.4 144.047 233.362 143.925 233.356C143.852 233.372 143.789 233.415 143.747 233.476C143.705 233.538 143.689 233.613 143.701 233.686C143.716 233.801 143.756 233.912 143.818 234.011C143.912 234.17 144.024 234.316 144.153 234.448C144.377 234.671 144.549 234.758 144.56 234.742C144.57 234.727 144.417 234.615 144.224 234.382C144.11 234.249 144.012 234.104 143.93 233.95C143.833 233.798 143.767 233.523 143.93 233.493C144.092 233.462 144.29 233.655 144.397 233.803C144.496 233.942 144.564 234.102 144.595 234.27C144.617 234.428 144.625 234.588 144.621 234.748Z" fill="#263238"/>
<path d="M132.53 233.838C132.53 233.838 132.855 233.812 133.358 233.879C134.016 233.959 134.638 234.224 135.15 234.644C135.663 235.064 136.046 235.622 136.254 236.251C136.421 236.728 136.432 237.054 136.457 237.048C136.472 236.975 136.472 236.899 136.457 236.825C136.441 236.62 136.402 236.417 136.34 236.22C136.146 235.563 135.76 234.977 135.233 234.539C134.697 234.109 134.047 233.846 133.363 233.782C133.159 233.76 132.953 233.76 132.749 233.782C132.674 233.792 132.6 233.81 132.53 233.838Z" fill="#263238"/>
<path d="M133.749 229.2C133.665 229.963 133.623 230.729 133.622 231.496C133.579 232.263 133.579 233.031 133.622 233.798C133.71 233.036 133.752 232.269 133.749 231.502C133.793 230.735 133.793 229.967 133.749 229.2Z" fill="#263238"/>
<path d="M137.895 236.043C138.97 236.263 140.077 236.287 141.161 236.114C141.161 236.079 140.424 236.114 139.525 236.089C138.626 236.063 137.9 236.002 137.895 236.043Z" fill="#263238"/>
<path d="M135.705 236.013C135.675 236.038 135.761 236.165 135.832 236.338C135.903 236.51 135.944 236.653 135.985 236.653C136.025 236.653 136.046 236.475 135.959 236.282C135.873 236.089 135.725 235.987 135.705 236.013Z" fill="#263238"/>
<path d="M134.892 234.976C134.862 235.002 134.933 235.119 135.05 235.236C135.167 235.352 135.278 235.429 135.304 235.403C135.329 235.378 135.258 235.261 135.146 235.144C135.035 235.027 134.928 234.946 134.892 234.976Z" fill="#263238"/>
<path d="M133.714 234.489C133.714 234.529 133.871 234.529 134.034 234.59C134.196 234.651 134.313 234.738 134.344 234.712C134.374 234.687 134.283 234.529 134.08 234.458C133.876 234.387 133.704 234.453 133.714 234.489Z" fill="#263238"/>
<path d="M132.896 234.255C132.896 234.29 132.947 234.351 133.038 234.387C133.13 234.422 133.216 234.428 133.231 234.387C133.246 234.346 133.18 234.295 133.089 234.255C132.997 234.214 132.896 234.224 132.896 234.255Z" fill="#263238"/>
<path d="M150.061 125.589L144.976 233.117L131.021 233.447L132.119 140.214L111.235 233.625L99.3527 233.087L117.986 125.807L150.061 125.589Z" fill="#263238"/>
<path d="M135.543 127.041C135.544 127.633 135.502 128.224 135.416 128.809C135.299 129.896 135.121 131.395 134.908 133.051C134.832 133.838 134.703 134.618 134.521 135.388C134.36 136.035 134.006 136.618 133.505 137.059C133.169 137.355 132.761 137.556 132.322 137.643C132.163 137.682 131.998 137.682 131.839 137.643C132.432 137.542 132.981 137.265 133.414 136.848C133.848 136.432 134.147 135.895 134.273 135.306C134.434 134.545 134.553 133.775 134.628 133C134.847 131.349 135.055 129.851 135.222 128.774C135.279 128.188 135.386 127.609 135.543 127.041Z" fill="#455A64"/>
<path d="M132.103 127.682C132.144 127.707 132.012 127.885 132.103 128.164C132.125 128.239 132.162 128.308 132.211 128.368C132.261 128.427 132.323 128.476 132.393 128.51C132.48 128.542 132.574 128.548 132.665 128.528C132.755 128.507 132.837 128.46 132.901 128.393C132.974 128.333 133.026 128.252 133.052 128.161C133.077 128.07 133.074 127.974 133.043 127.885C133.012 127.814 132.966 127.749 132.91 127.696C132.853 127.643 132.786 127.602 132.713 127.575C132.439 127.468 132.256 127.575 132.23 127.549C132.205 127.524 132.378 127.301 132.769 127.372C132.878 127.397 132.981 127.447 133.069 127.518C133.157 127.588 133.228 127.677 133.277 127.778C133.327 127.917 133.335 128.068 133.301 128.212C133.266 128.356 133.19 128.487 133.082 128.588C132.974 128.689 132.838 128.756 132.692 128.781C132.547 128.806 132.396 128.788 132.261 128.728C132.159 128.673 132.072 128.595 132.006 128.499C131.941 128.404 131.899 128.294 131.885 128.179C131.849 127.814 132.093 127.646 132.103 127.682Z" fill="#455A64"/>
<path d="M123.244 129.536C123.028 129.061 122.933 128.541 122.97 128.021C123.006 127.501 123.172 126.998 123.452 126.559C123.533 126.589 123.315 127.229 123.264 128.037C123.213 128.845 123.33 129.49 123.244 129.536Z" fill="#455A64"/>
<path d="M125.235 129.333C125.024 128.84 124.923 128.307 124.94 127.772C124.958 127.236 125.093 126.711 125.337 126.234C125.333 126.743 125.299 127.252 125.235 127.758C125.266 128.282 125.266 128.808 125.235 129.333Z" fill="#455A64"/>
<path d="M142.411 129.134C142.38 128.599 142.391 128.062 142.446 127.529C142.404 126.993 142.404 126.454 142.446 125.918C142.842 126.957 142.825 128.107 142.401 129.134H142.411Z" fill="#455A64"/>
<path d="M144.58 128.936C144.499 128.906 144.732 128.2 144.758 127.301C144.783 126.402 144.605 125.68 144.687 125.655C144.992 126.148 145.119 126.73 145.047 127.306C145.079 127.886 144.914 128.461 144.58 128.936Z" fill="#455A64"/>
<path d="M141.384 58.1669C141.953 57.4913 142.4 56.2873 142.05 55.4745C142.731 55.124 142.792 54.5195 142.792 53.7575C142.753 52.9912 142.526 52.2463 142.131 51.5883C141.596 50.4703 140.742 49.5354 139.678 48.901C139.141 48.5934 138.528 48.4445 137.911 48.4714C137.293 48.4984 136.695 48.7002 136.188 49.0534C135.823 48.6199 135.374 48.2642 134.869 48.0072C134.364 47.7503 133.813 47.5974 133.248 47.5576C132.683 47.5178 132.115 47.5919 131.579 47.7755C131.043 47.9592 130.549 48.2486 130.127 48.6267C129.861 48.9474 129.552 49.2295 129.208 49.4649C128.603 49.8001 127.862 49.6731 127.176 49.7392C126.614 49.7877 126.072 49.969 125.594 50.2684C125.116 50.5677 124.716 50.9764 124.427 51.4608C124.138 51.9451 123.969 52.4912 123.933 53.0539C123.897 53.6167 123.995 54.1799 124.219 54.6973C123.739 55.0343 123.342 55.4761 123.058 55.9892C122.774 56.5022 122.61 57.0732 122.578 57.6589C122.53 58.829 122.664 59.9994 122.975 61.1285C123.29 62.5357 123.645 64.014 124.641 65.0554C125.332 65.7708 126.26 66.2096 127.252 66.2898C127.958 66.3369 128.664 66.2035 129.304 65.9022C129.944 65.6009 130.496 65.1417 130.91 64.5677" fill="#263238"/>
<path d="M126.515 82.1395L137.803 81.6315C137.869 80.4326 137.255 72.9955 137.255 72.9955C137.255 72.9955 141.522 72.3351 141.578 68.0679C141.633 63.8007 140.887 54.0064 140.887 54.0064C138.462 52.9641 135.802 52.5879 133.183 52.9165C130.564 53.2451 128.08 54.2667 125.987 55.8759L125.357 56.3839L126.515 82.1395Z" fill="#B78876"/>
<path d="M137.265 72.9498C135.286 72.9917 133.34 72.4415 131.677 71.3699C131.677 71.3699 132.992 74.4179 137.265 74.0573V72.9498Z" fill="#AA6550"/>
<path d="M125.88 60.7981C125.809 60.7676 122.949 59.9294 123.046 62.8301C123.142 65.7307 126.048 65.0551 126.048 64.9687C126.048 64.8824 125.88 60.7981 125.88 60.7981Z" fill="#B78876"/>
<path d="M125.124 63.9072C125.124 63.9072 125.073 63.9478 124.986 63.9885C124.866 64.0365 124.731 64.0365 124.61 63.9885C124.417 63.8756 124.257 63.7128 124.148 63.5171C124.039 63.3214 123.985 63.0999 123.991 62.876C123.975 62.626 124.017 62.3757 124.113 62.1444C124.137 62.0533 124.183 61.9694 124.247 61.8996C124.311 61.8298 124.39 61.7761 124.478 61.7431C124.537 61.7259 124.599 61.7297 124.655 61.7539C124.71 61.778 124.756 61.821 124.783 61.8752C124.824 61.9565 124.809 62.0124 124.824 62.0174C124.839 62.0225 124.885 61.9666 124.859 61.8447C124.839 61.7738 124.796 61.7114 124.737 61.6669C124.697 61.6375 124.651 61.6165 124.602 61.6051C124.553 61.5938 124.502 61.5923 124.453 61.6009C124.335 61.6306 124.227 61.6894 124.138 61.772C124.05 61.8546 123.983 61.9582 123.945 62.0733C123.828 62.3292 123.775 62.6102 123.793 62.8912C123.787 63.1511 123.858 63.4069 123.997 63.6265C124.137 63.8461 124.337 64.0197 124.575 64.1256C124.654 64.1457 124.736 64.1479 124.816 64.1321C124.896 64.1162 124.972 64.0828 125.037 64.0342C125.118 63.958 125.134 63.9123 125.124 63.9072Z" fill="#AA6550"/>
<path d="M139.947 60.7071C139.95 60.8657 139.89 61.019 139.781 61.134C139.672 61.249 139.521 61.3164 139.363 61.3217C139.285 61.328 139.207 61.3186 139.133 61.2943C139.059 61.2699 138.991 61.231 138.932 61.1799C138.874 61.1288 138.826 61.0665 138.792 60.9967C138.757 60.9268 138.737 60.8508 138.733 60.7731C138.731 60.6149 138.792 60.4622 138.901 60.3475C139.01 60.2328 139.159 60.165 139.317 60.1584C139.395 60.1515 139.473 60.1603 139.547 60.1844C139.622 60.2085 139.69 60.2473 139.749 60.2985C139.808 60.3498 139.856 60.4124 139.89 60.4826C139.924 60.5528 139.943 60.6291 139.947 60.7071Z" fill="#263238"/>
<path d="M140.079 60.0207C140.008 60.1019 139.546 59.7565 138.89 59.7616C138.235 59.7667 137.752 60.0918 137.681 60.0105C137.61 59.9292 137.722 59.8327 137.93 59.6803C138.215 59.4834 138.554 59.3788 138.901 59.3806C139.241 59.3791 139.574 59.4858 139.85 59.6854C140.049 59.8429 140.12 59.9851 140.079 60.0207Z" fill="#263238"/>
<path d="M133.526 60.8593C133.529 61.018 133.469 61.1713 133.36 61.2863C133.25 61.4013 133.1 61.4687 132.942 61.474C132.864 61.4802 132.786 61.4709 132.712 61.4466C132.638 61.4222 132.57 61.3833 132.511 61.3322C132.453 61.2811 132.405 61.2188 132.371 61.1489C132.336 61.0791 132.316 61.0031 132.312 60.9254C132.31 60.7663 132.371 60.6129 132.481 60.4981C132.591 60.3833 132.742 60.316 132.901 60.3107C132.978 60.3045 133.056 60.3139 133.13 60.3383C133.203 60.3627 133.271 60.4016 133.33 60.4528C133.388 60.504 133.435 60.5663 133.469 60.6361C133.503 60.706 133.522 60.7819 133.526 60.8593Z" fill="#263238"/>
<path d="M133.638 60.143C133.561 60.2243 133.099 59.8788 132.444 59.8839C131.788 59.889 131.306 60.2141 131.235 60.1328C131.164 60.0515 131.275 59.955 131.489 59.8026C131.772 59.6055 132.109 59.5008 132.454 59.5029C132.795 59.5014 133.128 59.6081 133.404 59.8077C133.607 59.9652 133.673 60.1074 133.638 60.143Z" fill="#263238"/>
<path d="M136.015 65.0045C136.362 64.8984 136.72 64.8336 137.082 64.8114C137.25 64.8114 137.407 64.7606 137.438 64.6489C137.449 64.4724 137.41 64.2963 137.326 64.1409L136.818 62.8658C136.361 61.7856 135.989 60.6714 135.705 59.5333C136.252 60.5727 136.712 61.655 137.082 62.7693L137.56 64.0545C137.664 64.2561 137.695 64.488 137.646 64.7098C137.621 64.7685 137.584 64.821 137.537 64.8632C137.489 64.9054 137.433 64.9363 137.372 64.9537C137.279 64.9806 137.183 64.9943 137.087 64.9943C136.732 65.045 136.371 65.0484 136.015 65.0045Z" fill="#263238"/>
<path d="M134.085 65.4823C134.191 65.4823 134.196 66.1884 134.806 66.6964C135.416 67.2044 136.173 67.1231 136.178 67.2044C136.183 67.2857 136.005 67.3467 135.67 67.3517C135.254 67.3586 134.849 67.2183 134.527 66.9555C134.217 66.7009 134.017 66.3372 133.968 65.9395C133.958 65.6296 134.039 65.4823 134.085 65.4823Z" fill="#263238"/>
<path d="M133.805 57.5724C133.739 57.7502 133.089 57.6689 132.317 57.7604C131.545 57.8518 130.925 58.0652 130.823 57.9026C130.778 57.8264 130.884 57.6588 131.138 57.486C131.471 57.2708 131.851 57.1384 132.246 57.1C132.639 57.0507 133.038 57.0978 133.409 57.2371C133.693 57.354 133.836 57.4911 133.805 57.5724Z" fill="#263238"/>
<path d="M139.84 58.1208C139.723 58.2732 139.271 58.1208 138.728 58.1208C138.184 58.1208 137.712 58.2224 137.62 58.0649C137.575 57.9887 137.646 57.8414 137.849 57.6991C138.119 57.53 138.433 57.4449 138.752 57.4549C139.07 57.4648 139.378 57.5693 139.637 57.755C139.83 57.8973 139.891 58.0497 139.84 58.1208Z" fill="#263238"/>
<path d="M125.129 56.1857C125.184 57.4252 124.91 58.8121 125.129 60.0313C125.164 60.2192 125.637 60.712 125.687 60.8949C125.936 61.9718 126.383 62.4189 127.028 61.3216C127.276 60.6417 127.446 59.9363 127.536 59.2185L128.314 55.2764C129.315 55.7985 130.431 56.0638 131.56 56.0486C132.122 56.0326 132.671 55.8741 133.155 55.588C133.639 55.3019 134.043 54.8975 134.328 54.4128C134.596 54.8558 134.959 55.2329 135.392 55.5161C135.825 55.7993 136.316 55.9813 136.829 56.0486C137.342 56.116 137.864 56.0669 138.355 55.9051C138.846 55.7433 139.295 55.4728 139.667 55.1138C139.877 55.4061 140.188 55.6095 140.539 55.6838C140.891 55.758 141.258 55.6979 141.567 55.5152C141.867 55.3153 142.095 55.0259 142.22 54.6883C142.345 54.3507 142.36 53.9822 142.263 53.6356C141.969 52.5942 140.851 52.0303 139.815 51.7255C135.751 50.5317 131.27 51.4664 127.623 53.6051C127.079 53.9005 126.583 54.2755 126.15 54.7176C125.733 55.1697 125.159 55.7336 125.134 56.3229" fill="#263238"/>
<path d="M134.791 63.1963C134.791 63.1963 134.943 63.0134 135.146 62.6527C135.429 62.1424 135.536 61.5534 135.451 60.9763C135.384 60.5095 135.188 60.0706 134.886 59.7088C134.584 59.3469 134.187 59.0764 133.739 58.9274C133.292 58.7785 132.812 58.757 132.353 58.8654C131.894 58.9738 131.474 59.2079 131.141 59.5413C130.807 59.8748 130.573 60.2944 130.465 60.7533C130.357 61.2122 130.378 61.6923 130.527 62.1397C130.676 62.5871 130.946 62.9842 131.308 63.2866C131.67 63.5889 132.109 63.7845 132.576 63.8516C133.152 63.9376 133.741 63.8323 134.252 63.5519C134.613 63.3487 134.76 63.1759 134.791 63.1963C134.821 63.2166 134.76 63.2471 134.684 63.3283C134.569 63.4458 134.441 63.5498 134.303 63.6382C133.784 63.9736 133.164 64.1157 132.55 64.0395C132.037 63.9756 131.552 63.7689 131.15 63.4427C130.748 63.1166 130.446 62.6842 130.278 62.1948C130.11 61.7054 130.083 61.1786 130.199 60.6744C130.316 60.1703 130.572 59.709 130.937 59.343C131.303 58.9771 131.765 58.7213 132.269 58.6047C132.773 58.4881 133.3 58.5154 133.789 58.6835C134.279 58.8516 134.711 59.1537 135.037 59.5554C135.363 59.9572 135.57 60.4425 135.634 60.956C135.711 61.5669 135.571 62.1856 135.238 62.7035C135.151 62.8443 135.046 62.974 134.928 63.0896C134.847 63.1641 134.801 63.1996 134.791 63.1963Z" fill="#455A64"/>
<path d="M141.532 63.196C141.532 63.196 141.684 63.0132 141.888 62.6525C142.168 62.1414 142.273 61.5526 142.187 60.9761C142.12 60.5093 141.925 60.0704 141.622 59.7086C141.32 59.3467 140.923 59.0761 140.475 58.9272C140.028 58.7782 139.548 58.7568 139.089 58.8652C138.63 58.9736 138.21 59.2077 137.877 59.5411C137.544 59.8745 137.31 60.2942 137.201 60.7531C137.093 61.212 137.114 61.6921 137.263 62.1395C137.412 62.5869 137.683 62.984 138.044 63.2863C138.406 63.5887 138.845 63.7843 139.312 63.8514C139.888 63.9373 140.477 63.8321 140.988 63.5516C141.349 63.3484 141.496 63.1757 141.532 63.196C141.567 63.2164 141.501 63.2468 141.425 63.3281C141.31 63.4468 141.18 63.5508 141.039 63.638C140.522 63.9726 139.903 64.1147 139.292 64.0393C138.778 63.9764 138.292 63.7703 137.889 63.4447C137.487 63.119 137.184 62.6869 137.015 62.1975C136.846 61.708 136.818 61.181 136.935 60.6765C137.051 60.172 137.306 59.7102 137.672 59.3438C138.038 58.9774 138.499 58.7212 139.003 58.6042C139.508 58.4873 140.035 58.5143 140.525 58.6824C141.014 58.8504 141.447 59.1526 141.773 59.5545C142.099 59.9565 142.306 60.442 142.37 60.9558C142.447 61.5667 142.307 62.1854 141.974 62.7033C141.887 62.8441 141.783 62.9738 141.664 63.0894C141.593 63.1656 141.532 63.2011 141.532 63.196Z" fill="#455A64"/>
<path d="M137.066 61.1133C137.066 61.1895 136.731 61.2454 136.315 61.2454C135.898 61.2454 135.558 61.1895 135.558 61.1133C135.558 61.0371 135.898 60.9813 136.315 60.9813C136.731 60.9813 137.066 61.0422 137.066 61.1133Z" fill="#455A64"/>
<path d="M125.682 60.9102C126.445 60.7502 127.224 60.6786 128.004 60.6968C128.781 60.6296 129.563 60.6483 130.336 60.7527C129.572 60.9123 128.793 60.9822 128.014 60.961C127.237 61.0313 126.455 61.0142 125.682 60.9102Z" fill="#455A64"/>
<path d="M128.131 60.092L124.483 58.7762L121.029 59.9751L116.249 64.9738L113.14 67.9406L118.22 70.1961L120.907 69.1242L125.19 66.2083L127.613 61.6363C127.613 61.6363 126.922 61.3112 126.145 62.4034L125.418 63.3736L124.727 60.732V59.9497L126.871 60.605C127.086 60.6751 127.318 60.6786 127.535 60.6152C127.753 60.5517 127.946 60.4243 128.09 60.2494L128.131 60.092Z" fill="#B78876"/>
<path d="M121.288 63.9578C121.319 63.9578 121.466 64.1509 121.603 64.5369C121.777 65.0435 121.849 65.5793 121.815 66.1137C121.781 66.6482 121.641 67.1706 121.405 67.651C121.217 68.0168 121.044 68.2047 121.019 68.1844C121.273 67.512 121.444 66.8107 121.527 66.0965C121.538 65.3764 121.457 64.6578 121.288 63.9578Z" fill="#AA6550"/>
<path d="M121.324 64.0086C121.754 63.8604 122.198 63.7549 122.65 63.6937H122.68C122.765 63.7447 122.832 63.8212 122.871 63.9124C122.91 64.0035 122.92 64.1048 122.898 64.2017C122.855 64.3839 122.778 64.5563 122.67 64.7097C122.621 64.7749 122.587 64.8503 122.571 64.9304C122.556 65.0104 122.558 65.093 122.578 65.1719C122.659 65.3437 122.783 65.491 122.939 65.5987H122.782C123.152 65.3728 123.468 65.0674 123.706 64.7046C124.062 64.1407 123.655 63.5463 123.437 63.0028C123.389 62.8805 123.33 62.7631 123.259 62.6523C123.22 62.6207 123.173 62.5988 123.124 62.5882C123.075 62.5776 123.024 62.5787 122.975 62.5913L122.253 62.7031C121.778 62.8002 121.295 62.8546 120.811 62.8656C121.269 62.7065 121.742 62.5908 122.223 62.5202L122.944 62.3779C123.028 62.3566 123.115 62.3556 123.199 62.375C123.283 62.3945 123.361 62.4338 123.427 62.4897C123.523 62.6149 123.6 62.7536 123.655 62.9012C123.777 63.1755 123.925 63.4397 124.036 63.7648C124.097 63.9392 124.12 64.1246 124.104 64.3086C124.087 64.4926 124.031 64.6709 123.94 64.8316C123.68 65.23 123.333 65.5637 122.924 65.8069L122.843 65.8628L122.766 65.7968C122.58 65.6567 122.434 65.469 122.345 65.2532C122.315 65.1423 122.311 65.0261 122.333 64.9135C122.355 64.8008 122.403 64.6946 122.472 64.603C122.571 64.4702 122.645 64.3204 122.69 64.161C122.708 64.1034 122.708 64.0417 122.691 63.9838C122.674 63.9259 122.64 63.8744 122.594 63.8359H122.65C122.214 63.9346 121.77 63.9924 121.324 64.0086Z" fill="#AA6550"/>
<path d="M124.021 64.3947C124.021 64.3947 124.082 64.5014 124.255 64.5573C124.313 64.5758 124.374 64.5822 124.435 64.5763C124.495 64.5703 124.554 64.552 124.607 64.5225C124.661 64.493 124.707 64.4529 124.745 64.4047C124.782 64.3566 124.809 64.3013 124.824 64.2423C124.902 63.8529 124.826 63.4483 124.611 63.1145C124.428 62.6878 124.24 62.1798 124.021 61.7175C123.803 61.2552 123.239 61.3314 122.782 61.3822C122.325 61.433 121.898 61.4889 121.547 61.5448C121.172 61.6322 120.789 61.6883 120.404 61.7124C120.754 61.5425 121.128 61.4244 121.512 61.3619C121.862 61.2806 122.284 61.1994 122.756 61.1384C123.01 61.0956 123.267 61.082 123.523 61.0978C123.678 61.112 123.827 61.1663 123.954 61.2554C124.081 61.3445 124.183 61.4652 124.25 61.6058C124.499 62.1138 124.656 62.6218 124.839 63.0383C124.929 63.2501 125.001 63.4694 125.052 63.6937C125.101 63.9042 125.082 64.1249 124.997 64.3236C124.965 64.4104 124.914 64.489 124.848 64.554C124.782 64.619 124.703 64.6687 124.616 64.6995C124.55 64.722 124.481 64.7309 124.412 64.7257C124.343 64.7204 124.276 64.7012 124.214 64.669C124.011 64.5471 124.011 64.3896 124.021 64.3947Z" fill="#AA6550"/>
<path d="M125.439 63.3687C125.28 63.0601 125.162 62.7323 125.088 62.3934C124.992 62.0581 124.885 61.6974 124.778 61.3215C124.717 61.1234 124.661 60.8948 124.6 60.6966C124.568 60.6017 124.515 60.5149 124.446 60.4422C124.376 60.3695 124.292 60.3124 124.199 60.275C123.78 60.1891 123.344 60.2315 122.949 60.3969L121.867 60.6865C121.538 60.7944 121.197 60.861 120.851 60.8846C121.155 60.7169 121.48 60.5888 121.817 60.5036L122.878 60.1632C123.325 59.9637 123.825 59.9173 124.301 60.0312C124.427 60.083 124.542 60.1616 124.635 60.2615C124.729 60.3615 124.8 60.4804 124.844 60.6103C124.915 60.849 124.956 61.0522 125.012 61.2605L125.271 62.3476C125.371 62.6792 125.428 63.0225 125.439 63.3687Z" fill="#AA6550"/>
<path d="M116.249 64.9743C116.271 64.9396 116.296 64.9073 116.325 64.8777C116.396 64.8066 116.472 64.7152 116.569 64.6085L117.519 63.5925L120.983 59.9298L124.438 58.7157H124.463L128.116 60.0263H128.166V60.2651C128.017 60.4499 127.815 60.5846 127.587 60.6512C127.352 60.7046 127.107 60.7046 126.871 60.6512L125.372 60.194L124.732 59.9959L124.834 59.9247C124.834 60.1838 124.834 60.4327 124.834 60.7071V60.6817C125.068 61.5859 125.301 62.4698 125.525 63.3233H125.388C125.703 62.9067 125.992 62.5003 126.312 62.1041C126.46 61.8895 126.669 61.7238 126.911 61.628C127.154 61.5321 127.419 61.5104 127.674 61.5656H127.745L127.704 61.6418L125.271 66.2138L122.121 68.3271L121.212 68.9316C121.014 69.0636 120.907 69.1246 120.907 69.1246C120.907 69.1246 121.004 69.0433 121.192 68.9062L122.04 68.3169L125.159 66.163L127.567 61.591L127.603 61.6926C127.497 61.6601 127.386 61.6488 127.276 61.6592C127.167 61.6697 127.06 61.7017 126.963 61.7535C126.753 61.865 126.567 62.0149 126.414 62.1955C126.114 62.5714 125.814 62.9981 125.505 63.4096L125.408 63.5366L125.367 63.3842C125.139 62.5257 124.91 61.6469 124.671 60.7426C124.671 60.4835 124.671 60.2346 124.671 59.9603V59.8536L124.773 59.8841L125.413 60.0822L126.912 60.5394C127.124 60.5876 127.345 60.5876 127.557 60.5394C127.756 60.4822 127.934 60.3652 128.065 60.2041V60.2549V60.1025L128.116 60.1737L124.468 58.8529H124.519L121.06 60.0467L117.554 63.6687L116.584 64.6847L116.325 64.9438C116.301 64.9563 116.275 64.9665 116.249 64.9743Z" fill="#AA6550"/>
<path d="M117.732 97.1305L117.493 79.5791L122.065 78.0551C123.503 77.7808 124.9 77.2576 126.592 77.1865C128.135 78.407 130.039 79.0824 132.006 79.1072C133.974 79.132 135.894 78.5049 137.468 77.3236L137.62 77.2068C138.057 77.2576 138.636 77.3135 139.363 77.3998H139.505C141.312 77.6264 143.031 78.312 144.499 79.3912L167.216 92.9548L180.556 82.7948L187.313 88.0932C187.313 88.0932 169.838 105.568 168.141 105.985C166.967 106.275 155.309 99.889 148.243 95.9672C148.532 100.199 150.112 123.719 150.036 126.955H117.575L117.549 112.122V108.083L117.732 97.1305Z" fill="#F6C85C"/>
<path d="M147.806 85.9338C147.767 86.1928 147.759 86.4553 147.78 86.7162C147.78 87.28 147.821 87.9912 147.841 88.8294C147.907 90.6176 148.024 93.0814 148.171 95.8043C148.319 98.5272 148.466 100.991 148.593 102.774C148.659 103.612 148.715 104.298 148.756 104.882C148.767 105.144 148.802 105.404 148.862 105.659C148.901 105.402 148.909 105.141 148.888 104.882C148.888 104.313 148.847 103.607 148.822 102.764C148.756 100.976 148.644 98.5119 148.497 95.789C148.349 93.0662 148.202 90.5973 148.075 88.8142C148.009 87.976 147.953 87.2902 147.907 86.706C147.899 86.4459 147.865 86.1872 147.806 85.9338Z" fill="#263238"/>
<path d="M176.985 85.7002C176.909 85.7815 178.377 87.1683 180.252 88.8041C182.126 90.4398 183.691 91.7098 183.752 91.6387C183.813 91.5676 182.34 90.196 180.465 88.5551C179.53 87.7373 178.672 87.0312 178.042 86.4927C177.715 86.1961 177.361 85.9308 176.985 85.7002Z" fill="#263238"/>
<path d="M175.436 86.8586C175.375 86.9297 176.863 88.3216 178.743 89.9879C179.683 90.821 180.546 91.5576 181.181 92.0808C181.506 92.3896 181.868 92.6575 182.258 92.8784C181.993 92.5185 181.684 92.1926 181.339 91.9081C180.739 91.3391 179.901 90.5721 178.956 89.7389C178.011 88.9058 177.153 88.1692 176.513 87.6511C176.189 87.3426 175.827 87.0763 175.436 86.8586Z" fill="#263238"/>
<path d="M114.166 65.0298C114.166 65.0298 101.182 77.166 97.0821 82.1393C95.2279 84.3796 94.8062 87.7273 96.2997 90.2165C96.883 91.1959 97.7264 91.9945 98.7361 92.5236C99.7459 93.0527 100.883 93.2916 102.02 93.2137L117.656 92.1672L118.84 79.1573L109.386 82.1088L120.399 70.5924L114.166 65.0298Z" fill="#F6C85C"/>
<path d="M117.565 102.464C117.488 102.464 117.468 99.6705 117.514 96.2313C117.56 92.7921 117.656 90.0083 117.732 90.0083C117.808 90.0083 117.824 92.7972 117.778 96.2364C117.732 99.6755 117.656 102.464 117.565 102.464Z" fill="#263238"/>
<path d="M113.668 77.6334C113.556 77.8158 113.425 77.9861 113.277 78.1414L112.129 79.4266C111.149 80.5086 109.762 82.0123 108.177 83.7141L108.207 83.6582C108.055 84.2069 107.867 84.7708 107.653 85.3346C107.22 86.5605 106.642 87.7303 105.931 88.8195C105.319 89.6963 104.536 90.441 103.63 91.009C103.024 91.401 102.348 91.6718 101.639 91.8066C101.448 91.844 101.254 91.8644 101.06 91.8675C100.928 91.8675 100.856 91.8675 100.856 91.8675C100.856 91.8675 101.136 91.8269 101.618 91.71C102.3 91.5378 102.946 91.249 103.529 90.8566C104.394 90.2808 105.14 89.5445 105.728 88.6874C106.414 87.6066 106.978 86.4532 107.41 85.2483C107.618 84.6895 107.801 84.1307 107.958 83.5922V83.5617C109.548 81.865 110.961 80.3867 111.977 79.3352L113.175 78.1058C113.325 77.9337 113.49 77.7755 113.668 77.6334Z" fill="#263238"/>
<path d="M107.42 85.6545C107.651 86.4502 107.719 87.2846 107.618 88.1071C107.518 88.9296 107.252 89.7232 106.836 90.4399C106.759 90.4094 107.201 89.4239 107.344 88.0726C107.486 86.7213 107.339 85.6647 107.42 85.6545Z" fill="#263238"/>
<path d="M122.274 126.63C122.246 126.599 122.223 126.565 122.203 126.528L122.004 126.213L121.273 124.994C120.877 124.354 120.516 123.692 120.191 123.013C119.731 122.102 119.571 121.069 119.734 120.062C119.942 118.944 120.607 117.887 121.095 116.704C121.35 116.096 121.493 115.447 121.517 114.789C121.528 114.086 121.455 113.385 121.298 112.701C121.004 111.283 120.45 109.825 120.308 108.215C120.197 106.561 120.345 104.901 120.745 103.292C121.115 101.641 121.573 100.057 121.898 98.5071C122.055 97.7482 122.173 96.9818 122.253 96.211C122.253 95.835 122.304 95.4591 122.319 95.0883C122.335 94.7174 122.319 94.3466 122.319 93.9859C122.133 91.4117 121.707 88.8605 121.044 86.3659C120.536 84.2171 120.176 82.4594 120.028 81.23C119.942 80.6154 119.896 80.1378 119.876 79.8127C119.876 79.6654 119.876 79.5435 119.876 79.4419C119.871 79.3997 119.871 79.357 119.876 79.3149C119.876 79.3149 119.876 79.3606 119.901 79.4419C119.927 79.5232 119.932 79.6603 119.952 79.8076C119.983 80.1328 120.049 80.6052 120.15 81.2148C120.343 82.434 120.729 84.1764 121.263 86.3202C121.956 88.8226 122.403 91.3866 122.599 93.9758C122.599 94.3415 122.599 94.7174 122.599 95.0934C122.599 95.4693 122.563 95.8503 122.543 96.2364C122.467 97.0034 122.345 97.7604 122.187 98.563C121.862 100.128 121.405 101.708 121.039 103.348C120.646 104.93 120.498 106.563 120.602 108.19C120.734 109.759 121.278 111.207 121.573 112.65C121.732 113.355 121.802 114.077 121.781 114.799C121.755 115.483 121.603 116.156 121.334 116.785C120.826 117.994 120.16 119.025 119.957 120.097C119.788 121.068 119.93 122.067 120.364 122.952C120.668 123.633 121.007 124.298 121.38 124.943L122.065 126.188L122.238 126.513C122.264 126.589 122.279 126.63 122.274 126.63Z" fill="#FAFAFA"/>
<path d="M129.34 79.152C129.357 79.191 129.369 79.2319 129.375 79.2739L129.457 79.6346C129.523 79.9495 129.609 80.4169 129.711 81.0265C129.983 82.7425 130.131 84.4759 130.153 86.2132C130.189 88.791 129.966 91.366 129.487 93.8992C128.979 96.7593 128.136 99.853 127.862 103.18C127.587 106.508 128.095 109.688 128.492 112.558C128.911 115.099 129.167 117.665 129.259 120.239C129.304 121.98 129.098 123.718 128.649 125.4L128.537 125.822L128.41 126.183L128.197 126.747L128.065 127.087C128.034 127.163 128.014 127.204 128.014 127.204C128.008 127.162 128.008 127.119 128.014 127.077L128.126 126.726L128.309 126.157C128.344 126.045 128.385 125.929 128.426 125.797C128.466 125.664 128.486 125.522 128.522 125.375C128.925 123.694 129.096 121.966 129.03 120.239C128.909 117.685 128.632 115.14 128.202 112.619C127.796 109.749 127.303 106.559 127.552 103.185C127.801 99.8123 128.68 96.7288 129.203 93.884C129.691 91.3651 129.931 88.8043 129.919 86.2386C129.909 84.509 129.791 82.7817 129.563 81.0671C129.482 80.4575 129.411 79.9851 129.355 79.6701C129.355 79.5228 129.314 79.4009 129.304 79.3044C129.303 79.2514 129.315 79.1988 129.34 79.152Z" fill="#FAFAFA"/>
<path d="M141.273 126.65L141.202 126.544L141.014 126.218C140.909 126.041 140.822 125.854 140.755 125.66C140.714 125.548 140.658 125.426 140.617 125.289C140.577 125.152 140.546 125.009 140.506 124.857C140.343 124.105 140.288 123.333 140.343 122.566C140.42 121.553 140.554 120.546 140.744 119.548C140.98 118.351 141.131 117.139 141.197 115.921C141.218 114.533 140.975 113.154 140.48 111.857C139.906 110.407 139.434 108.918 139.068 107.402C138.811 105.734 138.844 104.035 139.165 102.378C139.429 100.676 139.774 99.0404 139.871 97.4351C139.938 95.892 139.817 94.3464 139.51 92.8326C138.941 89.9269 138.154 87.3513 137.884 85.1009C137.609 83.3349 137.664 81.5331 138.047 79.7872C138.187 79.1469 138.413 78.5284 138.718 77.9482C138.711 77.9924 138.697 78.0352 138.677 78.0752L138.545 78.4258C138.382 78.8769 138.249 79.3386 138.149 79.8075C137.805 81.5445 137.779 83.3293 138.072 85.0755C138.357 87.3005 139.165 89.8608 139.749 92.7869C140.069 94.3195 140.197 95.8861 140.13 97.4504C140.038 99.081 139.688 100.732 139.424 102.419C139.109 104.045 139.075 105.713 139.322 107.351C139.682 108.856 140.145 110.335 140.709 111.776C140.949 112.466 141.139 113.172 141.278 113.889C141.401 114.569 141.447 115.261 141.415 115.952C141.336 117.182 141.166 118.404 140.907 119.609C140.707 120.596 140.561 121.593 140.47 122.596C140.405 123.353 140.444 124.116 140.587 124.862C140.742 125.484 140.972 126.084 141.273 126.65Z" fill="#FAFAFA"/>
<path d="M145.565 81.0065C145.583 81.0442 145.596 81.0833 145.606 81.1234L145.703 81.4637C145.794 81.7635 145.891 82.2105 146.002 82.7947C146.26 84.4512 146.327 86.1319 146.2 87.8036C146.079 89.9169 145.667 92.4111 145.286 95.1746C144.892 98.174 144.703 101.197 144.722 104.222C144.841 109.722 145.33 115.207 146.185 120.641C146.495 122.713 146.749 124.4 146.927 125.594C147.013 126.158 147.074 126.61 147.125 126.94C147.125 127.082 147.156 127.194 147.171 127.29C147.175 127.331 147.175 127.372 147.171 127.412C147.154 127.375 147.142 127.336 147.135 127.295C147.135 127.199 147.095 127.087 147.069 126.945C147.008 126.62 146.927 126.173 146.82 125.609C146.617 124.446 146.312 122.759 145.997 120.671C145.092 115.232 144.583 109.735 144.473 104.222C144.455 101.184 144.652 98.149 145.063 95.1391C145.459 92.3705 145.88 89.8915 146.028 87.7883C146.172 86.1298 146.135 84.4603 145.916 82.8099C145.825 82.2308 145.743 81.7939 145.667 81.4739L145.596 81.1285C145.579 81.0899 145.568 81.0486 145.565 81.0065Z" fill="#FAFAFA"/>
<path d="M153.389 99.1673C153.34 99.0022 153.315 98.8313 153.312 98.6593C153.282 98.324 153.246 97.8363 153.216 97.2318C153.15 96.0279 153.094 94.3616 153.089 92.5176C153.084 90.6735 153.119 89.0073 153.175 87.8033C153.206 87.1988 153.231 86.7111 153.262 86.3759C153.264 86.2046 153.286 86.0341 153.328 85.8679C153.362 86.0349 153.374 86.2057 153.363 86.3759V87.8033C153.363 89.0733 153.363 90.7091 153.363 92.5125C153.363 94.3159 153.399 95.9516 153.414 97.2216C153.414 97.7754 153.414 98.2376 153.414 98.6491C153.425 98.8223 153.416 98.9961 153.389 99.1673Z" fill="#FAFAFA"/>
<path d="M158.296 87.7275C158.229 87.8869 158.151 88.0413 158.062 88.1898C157.86 88.6074 157.759 89.0669 157.768 89.5309C157.768 90.1151 157.889 90.8263 157.971 91.6086C158.052 92.3909 158.24 93.2444 158.357 94.1486C158.469 95.0094 158.486 95.8799 158.408 96.7445C158.354 97.4586 158.182 98.159 157.9 98.8171C157.706 99.2547 157.454 99.6646 157.153 100.036C156.94 100.3 156.802 100.427 156.787 100.417C157.146 99.8871 157.46 99.3281 157.727 98.746C158.207 97.2718 158.328 95.7046 158.083 94.174C157.971 93.2748 157.803 92.4163 157.717 91.634C157.628 90.9329 157.579 90.2274 157.569 89.5207C157.577 89.0324 157.712 88.5545 157.961 88.1339C158.046 87.9784 158.159 87.8405 158.296 87.7275Z" fill="#FAFAFA"/>
<path d="M103.574 92.37C103.801 92.3507 104.028 92.3507 104.255 92.37C104.864 92.3896 105.473 92.3333 106.068 92.2024C106.932 91.95 107.698 91.4395 108.263 90.7393C108.939 89.9723 109.614 89.0528 110.361 88.1282C111.844 86.2588 113.196 84.5722 114.186 83.3733L115.365 81.9509C115.502 81.7667 115.657 81.5965 115.827 81.4429C115.719 81.6415 115.592 81.8288 115.446 82.0017L114.334 83.48C113.379 84.7144 112.053 86.4163 110.569 88.2806C109.818 89.2103 109.147 90.1145 108.446 90.8917C107.843 91.6177 107.027 92.1364 106.114 92.3751C105.501 92.4964 104.872 92.5256 104.25 92.4615C104.022 92.457 103.795 92.4263 103.574 92.37Z" fill="#FAFAFA"/>
<path d="M116.477 68.0679C116.445 68.171 116.404 68.2713 116.355 68.3676C116.231 68.6494 116.085 68.9212 115.919 69.1804C115.315 70.1476 114.552 71.0063 113.663 71.7204C112.571 72.65 111.123 73.5848 109.624 74.6922C108.126 75.7996 106.5 77.156 105.525 79.0864C105.083 80.0549 104.584 80.9963 104.031 81.9058C103.449 82.7232 102.718 83.4245 101.877 83.9733C101.095 84.5169 100.323 84.9893 99.6473 85.4516C99.0096 85.8769 98.435 86.39 97.9404 86.9756C97.5773 87.3947 97.3057 87.885 97.143 88.4151C96.9803 88.9452 96.9301 89.5035 96.9955 90.0541C97.0664 90.4573 97.2092 90.8445 97.4172 91.1971C97.4172 91.1971 97.4172 91.1971 97.3613 91.1361C97.3057 91.0764 97.2579 91.0098 97.2191 90.938C97.061 90.6714 96.9509 90.3791 96.8939 90.0744C96.8075 89.5053 96.843 88.9244 96.998 88.37C97.153 87.8156 97.424 87.3005 97.7931 86.8588C98.2894 86.247 98.8711 85.7098 99.5203 85.2637C100.201 84.7557 100.973 84.3036 101.735 83.7651C102.549 83.2222 103.255 82.5332 103.818 81.7331C104.364 80.8327 104.854 79.8996 105.286 78.9391C106.302 76.9528 107.958 75.5609 109.482 74.4687C111.006 73.3765 112.449 72.4367 113.546 71.5528C114.431 70.8666 115.203 70.0455 115.832 69.1194C116.008 68.8701 116.166 68.6087 116.305 68.3371C116.351 68.2409 116.409 68.1505 116.477 68.0679Z" fill="#FAFAFA"/>
<g opacity="0.3">
<path opacity="0.3" d="M101.12 91.776C102.179 91.7921 103.23 91.5983 104.212 91.2057C105.195 90.8131 106.09 90.2296 106.846 89.4889C107.602 88.7482 108.204 87.8649 108.616 86.8902C109.028 85.9156 109.243 84.8688 109.248 83.8106C109.248 83.5413 109.203 83.2213 108.964 83.0993C108.849 83.0584 108.724 83.0578 108.608 83.0975C108.493 83.1371 108.394 83.2148 108.329 83.3178C108.204 83.5272 108.126 83.7612 108.1 84.0036C107.753 85.7374 106.999 87.3639 105.9 88.7495C104.801 90.1351 103.39 91.2402 101.781 91.9741" fill="black"/>
</g>
<g opacity="0.3">
<path opacity="0.3" d="M163.569 91.3899C163.229 91.6616 162.957 92.0097 162.777 92.4059C161.674 94.1432 159.495 94.8443 158.037 96.2921C156.924 97.4046 156.035 98.7203 156.03 100.295L158.413 101.377L164.61 91.7252C164.555 91.2832 163.94 91.146 163.569 91.3899Z" fill="black"/>
</g>
<path d="M52.1239 211.512C52.1239 211.512 43.7724 213.31 48.1056 223.47C52.4389 233.63 49.8481 236.399 46.856 237.115L69.7667 236.968L71.7987 211.42L52.1239 211.512Z" fill="#E0E0E0"/>
<path d="M68.7863 237.104C67.1612 237.114 65.5894 236.525 64.3718 235.448C62.4871 233.792 60.1605 230.693 59.6982 225.319C58.7279 213.945 52.1239 211.516 52.1239 211.516L71.7886 211.43C71.7886 211.43 78.1741 211.43 78.6923 221.524C79.2359 232.106 93.9069 238.181 102.965 236.998L68.7863 237.104Z" fill="#F5F5F5"/>
<path d="M98.0573 193.935C98.0573 193.935 87.755 192.701 86.612 215.52C85.469 238.339 68.2123 237.1 68.2123 237.1H102.614C102.614 237.1 109.772 235.51 108.106 219.406C107.41 212.65 119.53 193.95 119.53 193.95L98.0573 193.935Z" fill="#EBEBEB"/>
<path d="M92.3169 196.515C91.2196 197.831 91.6666 199.939 92.6267 201.362C93.5869 202.784 95.0855 203.744 96.6095 204.537C98.1335 205.329 99.7286 206 101.095 207.041C103.208 208.657 104.616 211.054 105.469 213.574C106.244 216.121 106.765 218.738 107.023 221.387C107.023 221.387 105.896 202.454 102.568 197.201C99.2409 191.948 94.42 194.006 92.3169 196.515Z" fill="#E0E0E0"/>
<path d="M118.835 237.1C118.835 237.1 108.675 237.608 107.262 225.817C105.85 214.026 104.666 194.641 98.0574 193.935H118.885C120.317 193.932 121.716 194.361 122.899 195.165C124.083 195.97 124.996 197.114 125.52 198.446C126.424 200.772 127.344 204.212 127.913 209.221C129.116 219.802 135.111 237.232 150.127 237.079L118.835 237.1Z" fill="#F5F5F5"/>
<path d="M125.672 227.386C125.672 227.457 122.624 227.518 118.89 227.518C115.157 227.518 112.109 227.457 112.109 227.386C112.109 227.315 115.157 227.254 118.89 227.254C122.624 227.254 125.672 227.31 125.672 227.386Z" fill="#263238"/>
<path d="M129.132 228.204C129.057 227.542 129.02 226.875 129.02 226.208L129.132 226.32H127.135L127.267 226.188V226.696C127.267 226.874 127.267 227.041 127.267 227.204C127.267 227.529 127.267 227.844 127.267 228.144L127.15 228.032C127.817 228.032 128.484 228.069 129.147 228.144C128.485 228.232 127.818 228.271 127.15 228.26H127.039V228.144C127.039 227.844 127.039 227.529 127.039 227.204C127.039 227.031 127.039 226.863 127.039 226.696V226.188L127.171 226.056H129.167H129.284V226.167C129.285 226.849 129.234 227.53 129.132 228.204Z" fill="#263238"/>
<path d="M128.786 231.76C128.786 231.837 125.738 231.892 122.01 231.892C118.281 231.892 115.228 231.837 115.228 231.76C115.228 231.684 118.276 231.628 122.01 231.628C125.743 231.628 128.786 231.689 128.786 231.76Z" fill="#263238"/>
<path d="M132.251 232.583C132.173 231.921 132.134 231.254 132.134 230.587L132.251 230.699H130.254L130.386 230.566V231.613C130.386 231.952 130.386 232.267 130.386 232.558L130.275 232.441C130.942 232.441 131.608 232.48 132.271 232.558C131.609 232.642 130.942 232.679 130.275 232.67H130.158V232.553C130.158 232.255 130.158 231.94 130.158 231.608V230.582C130.036 230.699 130.315 230.419 130.29 230.45H132.286H132.388V230.582C132.389 231.251 132.344 231.92 132.251 232.583Z" fill="#263238"/>
<path d="M123.056 216.358C123.056 216.429 120.008 216.49 116.279 216.49C112.551 216.49 109.497 216.429 109.497 216.358C109.497 216.287 112.545 216.226 116.279 216.226C120.013 216.226 123.056 216.287 123.056 216.358Z" fill="#263238"/>
<path d="M126.52 217.181C126.443 216.518 126.404 215.852 126.404 215.184L126.52 215.301H124.524L124.656 215.169V216.185C124.656 216.51 124.656 216.825 124.656 217.125L124.544 217.013C125.211 217.014 125.878 217.051 126.541 217.125C125.879 217.213 125.212 217.252 124.544 217.242H124.427V217.125C124.427 216.825 124.427 216.51 124.427 216.185V215.169C124.311 215.286 124.59 215.007 124.565 215.037H126.561H126.678V215.149C126.675 215.829 126.622 216.508 126.52 217.181Z" fill="#263238"/>
<path d="M122.314 210.608C122.314 210.679 119.266 210.74 115.533 210.74C111.799 210.74 108.751 210.679 108.751 210.608C108.751 210.536 111.799 210.476 115.533 210.476C119.266 210.476 122.314 210.536 122.314 210.608Z" fill="#263238"/>
<path d="M125.784 211.43C125.71 210.766 125.672 210.097 125.672 209.429L125.784 209.545H123.787L123.92 209.413V209.921C123.92 210.099 123.92 210.272 123.92 210.429C123.92 210.76 123.92 211.069 123.92 211.374L123.803 211.257C124.47 211.258 125.137 211.297 125.799 211.374C125.137 211.455 124.47 211.493 123.803 211.486H123.691V211.369C123.691 211.064 123.691 210.755 123.691 210.424C123.691 210.257 123.691 210.084 123.691 209.916V209.408C123.574 209.53 123.854 209.251 123.823 209.276H125.819H125.936V209.388C125.937 210.072 125.886 210.754 125.784 211.43Z" fill="#263238"/>
<path d="M121.329 205.339C121.329 205.41 118.281 205.471 114.547 205.471C110.813 205.471 107.765 205.41 107.765 205.339C107.765 205.268 110.813 205.207 114.547 205.207C118.281 205.207 121.329 205.263 121.329 205.339Z" fill="#263238"/>
<path d="M124.768 206.157C124.693 205.494 124.654 204.828 124.651 204.161L124.768 204.278H122.771L122.904 204.146V204.654C122.904 204.831 122.904 205.004 122.904 205.162C122.904 205.487 122.904 205.802 122.904 206.101L122.792 205.99C123.459 205.99 124.125 206.027 124.788 206.101C124.126 206.189 123.459 206.228 122.792 206.218H122.68V206.101C122.68 205.802 122.68 205.487 122.68 205.162C122.68 204.994 122.68 204.821 122.68 204.654V204.146C122.563 204.262 122.837 203.983 122.812 204.014H124.808H124.925V204.166C124.919 204.833 124.866 205.498 124.768 206.157Z" fill="#263238"/>
<path d="M119.932 200.509C119.932 200.58 116.884 200.641 113.15 200.641C109.416 200.641 106.368 200.58 106.368 200.509C106.368 200.438 109.416 200.372 113.15 200.372C116.884 200.372 119.932 200.433 119.932 200.509Z" fill="#263238"/>
<path d="M123.391 201.326C123.317 200.663 123.28 199.997 123.28 199.33L123.391 199.442H121.395L121.527 199.309V199.843C121.527 200.016 121.527 200.188 121.527 200.351C121.527 200.676 121.527 200.991 121.527 201.291L121.41 201.174C122.077 201.177 122.744 201.216 123.407 201.291C122.745 201.376 122.077 201.415 121.41 201.408H121.298V201.291C121.298 200.991 121.298 200.676 121.298 200.351C121.298 200.178 121.298 200.005 121.298 199.843V199.309L121.43 199.177H123.427H123.544V199.294C123.544 199.974 123.493 200.654 123.391 201.326Z" fill="#263238"/>
<path d="M117.58 196.455C117.58 196.526 114.532 196.587 110.798 196.587C107.064 196.587 104.016 196.526 104.016 196.455C104.016 196.384 107.064 196.323 110.798 196.323C114.532 196.323 117.58 196.384 117.58 196.455Z" fill="#263238"/>
<path d="M121.039 197.272C120.965 196.61 120.927 195.943 120.927 195.276L121.039 195.393H119.043L119.175 195.261V195.769C119.175 195.947 119.175 196.119 119.175 196.277C119.175 196.607 119.175 196.917 119.175 197.217L119.058 197.105C119.725 197.108 120.391 197.145 121.054 197.217C120.393 197.305 119.725 197.344 119.058 197.333H118.946V197.211C118.946 196.912 118.946 196.602 118.946 196.272C118.946 196.104 118.946 195.931 118.946 195.764V195.256L119.078 195.124H121.075H121.192V195.235C121.193 195.917 121.142 196.598 121.039 197.272Z" fill="#263238"/>
<path d="M122.309 206.808C122.54 206.319 122.848 205.871 123.224 205.482C123.341 205.35 123.447 205.218 123.564 205.081L123.65 204.979L123.742 205.065C124.209 205.492 124.514 205.822 124.478 205.868C124.443 205.914 124.067 205.655 123.579 205.253H123.757L123.427 205.665C123.119 206.104 122.741 206.49 122.309 206.808Z" fill="#F6C85C"/>
<path d="M123.356 211.837C123.586 211.348 123.895 210.9 124.27 210.511L124.61 210.109L124.697 210.013L124.788 210.094C125.256 210.521 125.56 210.851 125.525 210.897C125.489 210.943 125.113 210.683 124.626 210.287H124.804L124.473 210.699C124.164 211.135 123.787 211.52 123.356 211.837Z" fill="#F6C85C"/>
<path d="M126.333 229.058C126.563 228.569 126.872 228.121 127.247 227.732C127.364 227.6 127.47 227.468 127.587 227.331L127.674 227.229L127.765 227.316C128.232 227.742 128.537 228.073 128.502 228.118C128.466 228.164 128.09 227.905 127.603 227.504H127.78L127.45 227.915C127.142 228.354 126.764 228.74 126.333 229.058Z" fill="#F6C85C"/>
<path d="M124.108 217.628C124.336 217.138 124.645 216.689 125.022 216.302L125.362 215.901L125.449 215.799L125.54 215.885C126.003 216.312 126.312 216.642 126.277 216.688C126.241 216.734 125.865 216.475 125.378 216.073H125.555L125.225 216.485C124.915 216.922 124.538 217.308 124.108 217.628Z" fill="#F6C85C"/>
<path d="M124.367 221.875C124.367 221.946 121.319 222.007 117.585 222.007C113.851 222.007 110.803 221.946 110.803 221.875C110.803 221.804 113.851 221.743 117.585 221.743C121.319 221.743 124.367 221.799 124.367 221.875Z" fill="#263238"/>
<path d="M127.816 222.693C127.741 222.03 127.702 221.363 127.699 220.696L127.816 220.813H125.82L125.952 220.681V221.189C125.952 221.367 125.952 221.534 125.952 221.697C125.952 222.022 125.952 222.337 125.952 222.637L125.84 222.525C126.507 222.525 127.173 222.562 127.836 222.637C127.175 222.725 126.507 222.764 125.84 222.754H125.728V222.637C125.728 222.337 125.728 222.022 125.728 221.697C125.728 221.524 125.728 221.357 125.728 221.189V220.681C125.606 220.798 125.886 220.518 125.86 220.549H127.857H127.973V220.661C127.97 221.341 127.917 222.02 127.816 222.693Z" fill="#263238"/>
<path d="M125.129 223.373C125.361 222.885 125.67 222.438 126.043 222.047C126.16 221.915 126.272 221.783 126.383 221.646L126.47 221.544L126.561 221.631C127.029 222.058 127.338 222.388 127.298 222.428C127.257 222.469 126.886 222.22 126.399 221.819H126.576L126.251 222.23C125.94 222.669 125.561 223.054 125.129 223.373Z" fill="#F6C85C"/>
<path d="M67.9938 230.46C67.9938 230.384 70.7471 230.328 74.1457 230.328C77.5442 230.328 80.3026 230.384 80.3026 230.46C80.3026 230.536 77.5493 230.592 74.1457 230.592C70.7421 230.592 67.9938 230.531 67.9938 230.46Z" fill="#263238"/>
<path d="M64.8544 229.713C64.9278 230.315 64.9651 230.92 64.9661 231.527L64.8544 231.415H66.6679C66.6933 231.384 66.4139 231.664 66.5308 231.547V230.582C66.5308 230.282 66.5308 229.998 66.5308 229.723L66.6476 229.84C66.0412 229.84 65.4355 229.8 64.8341 229.723C65.4347 229.638 66.0411 229.601 66.6476 229.611H66.7594V229.728C66.7594 230.003 66.7594 230.287 66.7594 230.587V231.537L66.6273 231.669H64.8137H64.6969V231.557C64.6981 230.939 64.7508 230.322 64.8544 229.713Z" fill="#263238"/>
<path d="M67.3028 229.099C67.1014 229.547 66.8229 229.956 66.4799 230.308L66.17 230.674L66.0836 230.775L65.9922 230.689C65.5706 230.303 65.2912 229.998 65.3318 229.952C65.3724 229.907 65.7077 230.14 66.1548 230.501H65.977L66.2716 230.125C66.7847 229.52 67.2419 229.058 67.3028 229.099Z" fill="#F6C85C"/>
<path d="M65.5453 226.848C65.5453 226.772 68.3037 226.716 71.7022 226.716C75.1008 226.716 77.8541 226.772 77.8541 226.848C77.8541 226.925 75.1008 226.98 71.7022 226.98C68.3037 226.98 65.5453 226.919 65.5453 226.848Z" fill="#263238"/>
<path d="M62.406 226.101C62.4794 226.703 62.5168 227.308 62.5178 227.915L62.406 227.803H64.2196L64.0875 227.935V227.452C64.0875 227.295 64.0875 227.137 64.0875 226.985C64.0875 226.685 64.0875 226.401 64.0875 226.126L64.2043 226.243C63.5979 226.243 62.9922 226.204 62.3908 226.126C62.9914 226.042 63.5978 226.004 64.2043 226.015H64.3161V226.131C64.3161 226.406 64.3161 226.69 64.3161 226.99C64.3161 227.142 64.3161 227.3 64.3161 227.457V227.94L64.184 228.072H62.3705H62.2841V227.96C62.2727 227.338 62.3135 226.716 62.406 226.101Z" fill="#263238"/>
<path d="M64.8544 225.502C64.6529 225.95 64.3744 226.359 64.0314 226.711L63.7215 227.077L63.6352 227.178L63.5437 227.092C63.1221 226.706 62.8478 226.401 62.8833 226.355C62.9189 226.31 63.2643 226.543 63.7063 226.904H63.5285L63.8079 226.518C64.3159 225.908 64.8239 225.441 64.8544 225.502Z" fill="#F6C85C"/>
<path d="M64.7122 222.769C64.7122 222.693 67.4655 222.637 70.864 222.637C74.2626 222.637 77.021 222.693 77.021 222.769C77.021 222.845 74.2676 222.901 70.864 222.901C67.4604 222.901 64.7122 222.84 64.7122 222.769Z" fill="#263238"/>
<path d="M61.5726 222.022C61.6463 222.624 61.6837 223.229 61.6844 223.836L61.5726 223.724H63.3811L63.249 223.856V222.906C63.249 222.606 63.249 222.322 63.249 222.047L63.3608 222.164C62.7561 222.164 62.1521 222.125 61.5523 222.047C62.1512 221.962 62.756 221.925 63.3608 221.936H63.4776V222.052C63.4776 222.327 63.4776 222.611 63.4776 222.911V223.861C63.5945 223.744 63.3151 224.023 63.3405 223.993H61.532H61.4152V223.881C61.4155 223.258 61.4682 222.636 61.5726 222.022Z" fill="#263238"/>
<path d="M64.0163 221.408C63.8201 221.857 63.5429 222.267 63.1984 222.617L62.8885 222.982L62.8021 223.084L62.7107 222.998C62.2891 222.612 62.0097 222.307 62.0503 222.261C62.0909 222.215 62.4262 222.449 62.8733 222.81H62.6955L62.9901 222.434C63.5032 221.829 63.9604 221.362 64.0163 221.408Z" fill="#F6C85C"/>
<path d="M63.808 218.598C63.808 218.522 66.5613 218.461 69.9599 218.461C73.3584 218.461 76.1117 218.522 76.1117 218.598C76.1117 218.675 73.3584 218.73 69.9599 218.73C66.5613 218.73 63.808 218.669 63.808 218.598Z" fill="#263238"/>
<path d="M60.6684 217.852C60.7457 218.453 60.7847 219.059 60.7852 219.665L60.6684 219.548H62.482L62.3499 219.681V219.208C62.3499 219.046 62.3499 218.893 62.3499 218.736C62.3499 218.441 62.3499 218.157 62.3499 217.882L62.4667 217.999C61.8604 217.995 61.2549 217.956 60.6532 217.882C61.2538 217.797 61.8601 217.758 62.4667 217.765H62.5785V217.882C62.5785 218.157 62.5785 218.441 62.5785 218.736C62.5785 218.893 62.5785 219.046 62.5785 219.208V219.681L62.4464 219.813H60.6328H60.516V219.701C60.5171 219.081 60.5681 218.463 60.6684 217.852Z" fill="#263238"/>
<path d="M63.1171 217.237C62.9166 217.685 62.6379 218.095 62.2941 218.446L61.9842 218.811L61.8979 218.908L61.8064 218.827C61.3848 218.435 61.1105 218.136 61.146 218.09C61.1816 218.044 61.527 218.278 61.969 218.634H61.7912L62.0909 218.263C62.5989 217.653 63.0612 217.186 63.1171 217.237Z" fill="#F6C85C"/>
<path d="M61.4812 214.478C61.4812 214.407 64.2346 214.346 67.6331 214.346C71.0316 214.346 73.785 214.407 73.785 214.478C73.785 214.549 71.0316 214.61 67.6331 214.61C64.2346 214.61 61.4812 214.554 61.4812 214.478Z" fill="#263238"/>
<path d="M58.3367 213.737C58.4139 214.336 58.4529 214.94 58.4536 215.545L58.3367 215.433H60.1503L60.0182 215.566V215.083C60.0182 214.925 60.0182 214.768 60.0182 214.616C60.0182 214.321 60.0182 214.036 60.0182 213.762L60.13 213.874C59.5237 213.873 58.9181 213.836 58.3164 213.762C58.9167 213.674 59.5233 213.635 60.13 213.645H60.2519V213.762C60.2519 214.036 60.2519 214.321 60.2519 214.616C60.2519 214.768 60.2519 214.925 60.2519 215.083V215.566C60.3687 215.449 60.0893 215.728 60.1198 215.703H58.3062H58.2199V215.586C58.2087 214.967 58.2478 214.349 58.3367 213.737Z" fill="#263238"/>
<path d="M60.7853 213.117C60.5864 213.566 60.3075 213.976 59.9624 214.326L59.6525 214.692L59.5712 214.793L59.4747 214.707C59.0581 214.321 58.7787 214.016 58.8193 213.976C58.86 213.935 59.1953 214.158 59.6423 214.519H59.4594L59.7592 214.143C60.2519 213.539 60.7294 213.071 60.7853 213.117Z" fill="#F6C85C"/>
<path d="M97.7118 193.915H97.8185H98.1334H99.3526L103.894 193.884H119.429C120.533 193.747 121.653 193.96 122.629 194.494C123.648 195.037 124.52 195.82 125.169 196.775C126.193 198.406 126.871 200.23 127.161 202.134C127.521 203.948 127.78 205.69 127.999 207.392C128.451 210.75 128.725 213.798 129.264 216.292C129.695 218.245 130.348 220.142 131.209 221.946C131.514 222.591 131.794 223.074 131.981 223.404C132.068 223.551 132.139 223.673 132.2 223.77C132.227 223.811 132.249 223.855 132.266 223.902C132.23 223.867 132.2 223.828 132.174 223.785L131.936 223.43C131.637 222.965 131.362 222.485 131.113 221.992C130.202 220.177 129.51 218.26 129.05 216.282C128.481 213.742 128.192 210.73 127.73 207.372C127.501 205.695 127.222 203.938 126.876 202.134C126.588 200.265 125.923 198.475 124.92 196.871C124.3 195.953 123.467 195.199 122.492 194.672C121.562 194.164 120.496 193.96 119.444 194.087L103.894 194.006L99.3526 193.96L98.1334 193.935H97.8185L97.7118 193.915Z" fill="#263238"/>
<path d="M46.8559 237.115C47.0023 237.086 47.1465 237.047 47.2877 236.998C47.708 236.871 48.1045 236.675 48.4612 236.419C49.0395 236.004 49.4999 235.445 49.7972 234.798C50.1818 233.908 50.3556 232.942 50.3052 231.974C50.2853 230.757 50.1147 229.547 49.7972 228.372C49.3761 226.986 48.867 225.629 48.2732 224.308C47.9786 223.582 47.6941 222.825 47.4401 222.022C47.165 221.195 46.9627 220.345 46.8356 219.482C46.5338 217.596 46.8927 215.663 47.8516 214.011C48.3903 213.127 49.1665 212.412 50.0918 211.948C50.3307 211.834 50.5788 211.741 50.8335 211.669C50.9605 211.639 51.0875 211.593 51.2196 211.567L51.6209 211.517C52.1725 211.455 52.7294 211.571 53.211 211.847C54.1672 212.417 54.9955 213.178 55.6443 214.082C56.3345 214.996 56.9463 215.966 57.4731 216.983C58.0213 218.03 58.49 219.117 58.8752 220.234C59.0844 220.808 59.2541 221.395 59.3832 221.992C59.4949 222.601 59.5457 223.206 59.6372 223.815C59.7998 225.051 60.0287 226.277 60.323 227.488C60.6395 228.729 61.0193 229.954 61.4609 231.156C61.6549 231.771 61.921 232.361 62.2534 232.914C62.6065 233.463 63.0358 233.959 63.5284 234.387C64.0276 234.823 64.5668 235.21 65.1388 235.545C65.709 235.895 66.3091 236.195 66.932 236.439C67.5609 236.679 68.2254 236.811 68.898 236.83C69.5635 236.83 70.2645 236.754 70.93 236.698C72.3169 236.604 73.6843 236.321 74.994 235.855C76.3192 235.348 77.5699 234.664 78.7126 233.823C79.8821 232.987 80.8993 231.956 81.7199 230.775C83.4096 228.35 84.6597 225.647 85.4131 222.789C85.7569 221.502 86.0165 220.194 86.1903 218.873C86.358 217.562 86.4342 216.241 86.5459 214.93C86.7245 212.341 87.0535 209.765 87.5314 207.214C87.7854 205.959 88.1055 204.73 88.4662 203.531C88.8025 202.33 89.2201 201.154 89.7158 200.01C90.223 198.891 90.8792 197.845 91.6666 196.901C92.4314 195.961 93.3783 195.186 94.4504 194.621C95.3524 194.08 96.381 193.788 97.4324 193.772C98.4753 193.776 99.4826 194.152 100.272 194.834C101.014 195.51 101.608 196.334 102.015 197.252C102.414 198.134 102.762 199.038 103.056 199.96C104.192 203.408 104.999 206.956 105.464 210.557C105.941 213.955 106.185 217.161 106.399 220.153C106.612 223.145 106.907 225.883 107.684 228.281C108.301 230.426 109.403 232.4 110.905 234.052C112.039 235.265 113.461 236.174 115.04 236.693C116.022 237.015 117.055 237.153 118.088 237.1C118.438 237.069 118.702 237.039 118.88 237.003L119.149 236.967L118.885 237.023C118.622 237.08 118.356 237.119 118.088 237.14C117.047 237.215 116.002 237.089 115.009 236.769C113.411 236.257 111.968 235.351 110.813 234.133C109.287 232.475 108.164 230.488 107.531 228.326C106.759 225.934 106.434 223.165 106.211 220.198C105.987 217.232 105.738 214.006 105.256 210.618C104.774 207.033 103.956 203.502 102.812 200.071C102.527 199.158 102.188 198.262 101.796 197.389C101.404 196.502 100.831 195.706 100.115 195.052C99.3675 194.403 98.4123 194.042 97.4222 194.036C96.4154 194.055 95.4311 194.337 94.5672 194.854C93.5308 195.401 92.6165 196.153 91.8799 197.064C91.1072 197.988 90.4646 199.014 89.9698 200.112C89.479 201.244 89.0665 202.408 88.7354 203.597C88.3747 204.796 88.0598 206.015 87.8058 207.26C87.3299 209.799 87.0008 212.363 86.8202 214.941C86.7136 216.246 86.6323 217.567 86.4697 218.898C86.2913 220.23 86.03 221.55 85.6874 222.85C84.9218 225.737 83.6564 228.467 81.9485 230.917C81.12 232.125 80.0888 233.18 78.9005 234.036C77.7393 234.891 76.468 235.585 75.121 236.099C73.7861 236.571 72.3933 236.86 70.9808 236.957C70.2798 237.008 69.6041 237.079 68.898 237.084C68.2026 237.064 67.5157 236.927 66.866 236.678C66.2263 236.428 65.6108 236.12 65.027 235.758C64.4441 235.414 63.8947 235.016 63.3862 234.57C62.8734 234.129 62.4283 233.616 62.0654 233.046C61.7244 232.477 61.4516 231.87 61.2526 231.237C60.8071 230.027 60.4256 228.794 60.1096 227.544C59.8174 226.324 59.5902 225.09 59.4289 223.846C59.1995 221.471 58.4817 219.169 57.3207 217.084C56.8055 216.077 56.2038 215.117 55.5224 214.214C54.8932 213.332 54.0891 212.588 53.1602 212.03C52.2407 211.466 51.1282 211.72 50.2239 212.126C49.3354 212.576 48.5923 213.268 48.0802 214.123C47.1366 215.736 46.7778 217.625 47.0642 219.472C47.1763 220.311 47.3616 221.139 47.6179 221.946C47.8668 222.738 48.1259 223.47 48.4358 224.222C49.0324 225.552 49.5415 226.92 49.9598 228.316C50.2779 229.503 50.4486 230.725 50.4678 231.954C50.4992 232.938 50.3046 233.916 49.8988 234.814C49.5889 235.467 49.1145 236.029 48.5221 236.444C48.1577 236.695 47.7543 236.884 47.3283 237.003C47.1749 237.056 47.0167 237.093 46.8559 237.115Z" fill="#263238"/>
<path d="M82.5276 229.805C82.5276 229.805 82.492 229.805 82.4362 229.744C82.3803 229.683 82.2888 229.632 82.1822 229.541C81.8654 229.266 81.5635 228.974 81.2779 228.667C80.8222 228.188 80.3996 227.679 80.013 227.143C79.497 226.425 79.0769 225.643 78.7633 224.816C78.4524 223.798 78.2197 222.756 78.0674 221.702C77.8896 220.569 77.7473 219.355 77.5289 218.095C77.3212 216.777 76.9099 215.498 76.3097 214.306C75.9894 213.685 75.5785 213.114 75.0905 212.614C74.8614 212.352 74.5837 212.136 74.2726 211.979C73.947 211.838 73.606 211.736 73.2566 211.674C71.8356 211.469 70.3985 211.396 68.964 211.456C67.567 211.456 66.2208 211.547 64.9356 211.557L58.103 211.618H53.4954H52.2457C52.0996 211.624 51.9533 211.616 51.8088 211.593C51.9536 211.573 52.0996 211.563 52.2457 211.563L53.4954 211.522L58.0979 211.42L64.9254 211.303C66.2106 211.303 67.5568 211.207 68.9589 211.187C70.4121 211.122 71.868 211.195 73.3074 211.405C73.6822 211.467 74.0475 211.576 74.3945 211.73C74.5772 211.81 74.7482 211.914 74.9025 212.04C75.0397 212.162 75.1768 212.284 75.3038 212.421C75.8091 212.939 76.2338 213.53 76.5637 214.174C77.1732 215.39 77.588 216.695 77.793 218.04C78.0064 219.315 78.1385 220.529 78.301 221.657C78.4395 222.701 78.6586 223.734 78.9564 224.745C79.2522 225.561 79.6535 226.335 80.1502 227.046C80.524 227.589 80.9312 228.108 81.3694 228.601C81.73 229.002 82.0247 229.302 82.233 229.5C82.4412 229.698 82.5327 229.8 82.5276 229.805Z" fill="#263238"/>
<path d="M189.284 76.2209C189.297 75.6116 189.473 75.0169 189.793 74.4987C190.114 73.9805 190.568 73.5578 191.108 73.2746C191.279 73.1749 191.473 73.1206 191.672 73.1171C191.77 73.1163 191.867 73.1442 191.95 73.1974C192.033 73.2507 192.098 73.3269 192.139 73.4168C192.167 73.5182 192.167 73.6254 192.138 73.7266C192.109 73.8278 192.053 73.9192 191.976 73.9908C191.816 74.1328 191.647 74.2635 191.468 74.382C191.216 74.5911 191.026 74.8642 190.916 75.1726C190.806 75.481 190.781 75.8133 190.844 76.1346" fill="#B78876"/>
<path d="M179.703 54.4331C177.38 54.6086 175.221 55.6969 173.698 57.4599C172.174 59.2229 171.411 61.5172 171.575 63.8413C172.037 70.6993 171.895 80.016 168.619 85.6853C162.949 95.4998 154.445 97.2423 155.096 116.866C155.746 136.49 156.62 138.568 152.698 143.638C148.776 148.708 140.272 146.086 136.564 157.643C132.855 169.2 135.471 226.98 129.584 233.087C129.584 233.087 124.788 237.659 119.774 237.227H147.948C150.345 237.257 152.658 236.345 154.389 234.687C155.104 234.003 155.67 233.18 156.055 232.269C156.439 231.357 156.633 230.377 156.625 229.388C156.625 225.411 157.93 169.211 160.115 164.41C162.299 159.609 173.632 154.717 175.355 143.648C177.077 132.579 176.482 114.667 176.467 111.446C176.467 108.398 177.061 102.414 182.924 95.4389C191.824 84.8979 190.61 73.3764 190.808 69.4496C191.006 65.5228 189.284 53.7016 189.284 53.7016L179.703 54.4331Z" fill="#EBEBEB"/>
<path d="M172.362 62.3726C172.499 61.8733 172.776 61.4235 173.16 61.0765C173.545 60.7294 174.02 60.4996 174.531 60.4141C175.042 60.3286 175.566 60.3911 176.042 60.5941C176.519 60.7972 176.927 61.1322 177.219 61.5598C178.057 62.779 177.864 64.6078 178.992 65.573C179.708 66.1877 180.744 66.2284 181.689 66.2131C184.664 66.1532 187.624 65.7854 190.523 65.1158L189.873 55.8296C189.873 55.8296 175.776 54.5901 174.059 56.9066C172.342 59.223 172.362 62.3726 172.362 62.3726Z" fill="#E0E0E0"/>
<path d="M171.692 67.1331C171.692 65.0401 172.164 63.1961 172.657 61.1641C173.251 58.7054 174.963 56.9121 177.041 56.5921C179.667 56.2162 182.258 60.0059 182.258 60.0059C182.258 60.0059 192.469 58.5225 197.326 58.1618C196.97 56.8969 194.42 53.6355 192.586 53.2393C190.742 52.9149 188.866 52.8142 186.998 52.9396C183.645 53.031 180.175 53.1478 177.148 54.5906C174.12 56.0333 171.001 58.1466 171.738 65.9393" fill="#F5F5F5"/>
<path d="M191.56 53.4879C191.393 53.5278 191.223 53.5483 191.052 53.5489L189.665 53.6555C188.496 53.7419 186.881 53.8638 185.093 54.0518C183.305 54.2397 181.71 54.4683 180.556 54.6715L179.195 54.9205C179.028 54.9601 178.858 54.9856 178.687 54.9967C178.852 54.9354 179.022 54.8895 179.195 54.8595C179.515 54.7782 179.977 54.6766 180.551 54.5598C181.705 54.3312 183.31 54.0518 185.088 53.8943C186.866 53.7368 188.486 53.6047 189.66 53.5438L191.047 53.4879C191.217 53.4743 191.389 53.4743 191.56 53.4879Z" fill="#263238"/>
<path d="M159.927 165.02C159.927 165.096 155.604 165.797 150.275 166.589C144.946 167.382 140.572 167.966 140.562 167.895C140.552 167.824 144.88 167.123 150.214 166.325C155.548 165.528 159.916 164.949 159.927 165.02Z" fill="#263238"/>
<path d="M160.948 162.907C160.948 162.978 156.97 163.064 152.063 163.094C147.156 163.125 143.173 163.094 143.173 163.013C143.173 162.932 147.15 162.856 152.058 162.825C156.965 162.795 160.948 162.83 160.948 162.907Z" fill="#263238"/>
<path d="M121.039 237.293L121.547 237.227C122.024 237.164 122.496 237.067 122.959 236.937C124.735 236.413 126.405 235.581 127.892 234.479C128.411 234.111 128.909 233.716 129.386 233.295C129.887 232.813 130.272 232.225 130.513 231.573C131.074 230.094 131.483 228.562 131.733 227.001C132.359 223.171 132.786 219.312 133.013 215.439C133.607 206.833 133.851 196.561 134.207 185.162C134.394 179.457 134.582 173.478 135.06 167.275C135.182 165.751 135.329 164.171 135.532 162.602C135.708 161.013 136.007 159.44 136.427 157.898C136.681 157.13 136.975 156.374 137.265 155.617L137.808 154.524L138.083 153.976C138.184 153.803 138.301 153.63 138.413 153.468C139.265 152.046 140.393 150.81 141.73 149.83C143.074 148.877 144.536 148.102 146.079 147.524C147.593 146.985 149.061 146.322 150.468 145.543L150.976 145.228C151.133 145.111 151.28 144.979 151.433 144.857L151.89 144.486L152.286 144.049C152.413 143.907 152.55 143.765 152.677 143.618L153.028 143.14C153.272 142.83 153.485 142.5 153.699 142.17C154.121 141.518 154.477 140.825 154.76 140.102C155.021 139.377 155.211 138.629 155.329 137.867C155.536 136.352 155.623 134.824 155.588 133.295C155.588 131.771 155.532 130.247 155.482 128.774C155.363 125.79 155.25 122.873 155.141 120.021C155.101 118.594 155.014 117.191 155.029 115.794C155.029 115.099 155.029 114.408 155.029 113.722C155.029 113.036 155.101 112.355 155.131 111.69C155.167 110.333 155.405 109.013 155.563 107.707C155.788 106.433 156.094 105.174 156.477 103.938C157.203 101.584 158.288 99.3565 159.693 97.3337C161.015 95.5003 162.437 93.74 163.95 92.0607C165.303 90.5231 166.557 88.901 167.704 87.2042L168.466 85.9901C168.72 85.5939 168.913 85.1722 169.132 84.7709C169.51 83.9728 169.837 83.1516 170.112 82.3122C170.964 79.5051 171.476 76.6056 171.636 73.6762C171.799 71.2683 171.793 69.3938 171.783 68.1288C171.783 67.4989 171.783 67.0163 171.758 66.681C171.733 66.3458 171.758 66.173 171.758 66.173C171.758 66.173 171.814 66.8385 171.844 68.1085C171.875 69.3785 171.89 71.2581 171.743 73.666C171.596 76.5945 171.094 79.4943 170.249 82.302C169.977 83.1498 169.651 83.9795 169.274 84.7862C169.055 85.1875 168.862 85.6193 168.603 86.0155C168.344 86.4118 168.095 86.8232 167.846 87.2398C166.699 88.9463 165.445 90.5785 164.092 92.1268C162.574 93.8075 161.147 95.5695 159.82 97.4049C158.433 99.4125 157.362 101.621 156.645 103.953C156.272 105.182 155.975 106.432 155.756 107.697C155.598 108.992 155.37 110.303 155.334 111.654C155.304 112.325 155.243 113 155.233 113.686C155.223 114.372 155.233 115.058 155.233 115.754C155.233 117.136 155.309 118.548 155.35 119.97C155.461 122.822 155.578 125.741 155.7 128.728C155.751 130.217 155.807 131.725 155.807 133.254C155.846 134.8 155.76 136.346 155.548 137.877C155.43 138.656 155.236 139.422 154.969 140.163C154.68 140.905 154.316 141.615 153.881 142.282C153.668 142.617 153.45 142.952 153.206 143.267L152.85 143.745C152.718 143.902 152.576 144.044 152.444 144.197L152.032 144.649L151.565 145.035C151.407 145.157 151.255 145.294 151.087 145.411L150.579 145.736C149.162 146.524 147.682 147.194 146.155 147.738C144.631 148.307 143.188 149.072 141.862 150.013C140.553 150.971 139.447 152.18 138.611 153.569C138.504 153.737 138.387 153.905 138.286 154.077L138.017 154.616L137.509 155.693C137.224 156.445 136.929 157.191 136.681 157.943C136.266 159.471 135.969 161.028 135.792 162.602C135.588 164.166 135.441 165.721 135.314 167.27C134.836 173.452 134.643 179.437 134.45 185.136C134.08 196.536 133.82 206.813 133.201 215.423C132.965 219.312 132.524 223.185 131.88 227.026C131.622 228.603 131.202 230.149 130.625 231.639C130.38 232.309 129.982 232.913 129.462 233.402C128.976 233.822 128.467 234.216 127.938 234.58C126.437 235.681 124.751 236.504 122.959 237.008C122.493 237.135 122.018 237.223 121.537 237.272L121.039 237.293Z" fill="#263238"/>
<path d="M171.722 66.1523L171.677 65.5122C171.677 65.0804 171.611 64.4556 171.56 63.6275C171.543 63.1629 171.56 62.6977 171.611 62.2356C171.666 61.7276 171.804 61.179 171.92 60.5846C172.213 59.2027 172.867 57.9231 173.815 56.8762C175.085 55.6477 176.607 54.71 178.276 54.1279C180.247 53.4199 182.307 52.9858 184.397 52.8376C185.52 52.7411 186.683 52.6903 187.887 52.67C189.133 52.6191 190.381 52.7492 191.59 53.056C192.222 53.2225 192.837 53.4452 193.429 53.7215C194.031 54.0229 194.592 54.3983 195.1 54.8391C195.633 55.2791 196.116 55.7747 196.543 56.3174C196.762 56.5947 196.955 56.8924 197.117 57.2064C197.301 57.5267 197.408 57.8846 197.432 58.2529V58.3392H197.341C195.06 58.5374 192.616 59.0403 190.056 59.3552L190.147 59.2435C190.447 61.7225 190.752 64.3235 190.915 66.9803C190.95 67.6458 190.976 68.3265 190.965 69.0123C190.955 69.6981 190.915 70.3738 190.915 71.0443C190.915 72.4261 190.915 73.8282 190.808 75.2506C190.652 78.1756 190.161 81.0732 189.345 83.8866C188.463 86.837 187.167 89.6473 185.494 92.233C183.808 94.9 181.481 97.1504 179.906 99.9952C178.204 102.825 177.128 105.986 176.752 109.266C176.629 110.957 176.608 112.653 176.691 114.346C176.711 116.04 176.731 117.757 176.752 119.497C176.777 122.952 176.752 126.452 176.635 129.988C176.492 134.052 176.279 138.116 175.761 142.047C175.558 144.023 175.086 145.961 174.359 147.808C173.588 149.604 172.585 151.291 171.377 152.827C168.994 155.875 166.033 158.298 163.32 160.793L162.36 161.773C162.05 162.108 161.735 162.439 161.435 162.789L161.024 163.328C160.879 163.498 160.753 163.684 160.648 163.881L160.318 164.466C160.233 164.668 160.158 164.875 160.094 165.085C159.722 166.828 159.459 168.593 159.307 170.368C158.631 177.399 158.316 184.115 158.011 190.394C157.707 196.673 157.503 202.525 157.321 207.869C157.138 213.213 157 218.029 156.889 222.291C156.841 224.415 156.797 226.386 156.757 228.204C156.78 229.079 156.732 229.954 156.614 230.82C156.477 231.604 156.205 232.359 155.812 233.051C155.142 234.209 154.201 235.188 153.069 235.9C152.241 236.42 151.335 236.802 150.386 237.033C149.805 237.178 149.211 237.267 148.613 237.297C148.212 237.297 148.004 237.297 148.004 237.297H148.156C148.258 237.297 148.41 237.297 148.613 237.272C150.18 237.17 151.696 236.678 153.023 235.84C154.138 235.127 155.064 234.154 155.72 233.005C156.104 232.321 156.369 231.578 156.503 230.805C156.616 229.945 156.658 229.077 156.63 228.209C156.665 226.391 156.701 224.415 156.741 222.291C156.838 218.044 156.965 213.208 157.133 207.864C157.3 202.52 157.508 196.688 157.788 190.389C158.067 184.09 158.392 177.394 159.063 170.348C159.202 168.554 159.454 166.771 159.82 165.009C159.896 164.791 159.957 164.557 160.054 164.349L160.399 163.744C160.507 163.54 160.637 163.348 160.785 163.17L161.207 162.621C161.512 162.271 161.826 161.936 162.141 161.605L163.157 160.64C165.88 158.131 168.827 155.733 171.184 152.7C172.377 151.183 173.368 149.516 174.13 147.742C174.843 145.914 175.308 143.999 175.512 142.047C176.02 138.11 176.238 134.082 176.381 130.008C176.498 126.477 176.523 122.982 176.498 119.528C176.477 117.801 176.457 116.085 176.437 114.382C176.357 112.689 176.379 110.992 176.503 109.302C176.883 105.985 177.973 102.788 179.698 99.9292C181.288 97.0539 183.63 94.7882 185.286 92.1568C186.953 89.5936 188.244 86.8052 189.121 83.8764C189.933 81.0795 190.424 78.1992 190.584 75.2912C190.666 73.8739 190.686 72.4718 190.696 71.09C190.696 70.4042 190.727 69.7032 190.747 69.058C190.767 68.4129 190.747 67.7068 190.701 67.026C190.544 64.359 190.244 61.7784 189.949 59.2994V59.1978H190.051C192.591 58.8828 195.045 58.385 197.351 58.1818L197.259 58.2783C197.16 57.6019 196.867 56.9688 196.416 56.4546C195.997 55.9228 195.524 55.4359 195.004 55.0017C194.506 54.5718 193.959 54.2034 193.373 53.9044C192.79 53.6335 192.185 53.4126 191.565 53.244C190.37 52.9412 189.139 52.8112 187.907 52.8579C186.708 52.8579 185.55 52.9189 184.432 53.0154C182.352 53.1523 180.301 53.5763 178.336 54.2752C176.682 54.8435 175.171 55.7638 173.907 56.9727C172.965 58.0045 172.312 59.266 172.012 60.6303C171.895 61.2196 171.748 61.7632 171.697 62.2712C171.637 62.7291 171.615 63.1913 171.631 63.6529C171.672 64.4759 171.702 65.1058 171.722 65.5325C171.743 65.9592 171.722 66.1523 171.722 66.1523Z" fill="#263238"/>
<path d="M197.336 58.2532C197.244 58.2859 197.148 58.3064 197.051 58.3142L196.218 58.4361L193.17 58.8374L183.086 60.0668L182.279 60.1633H182.197L182.157 60.0972C181.667 59.3285 181.099 58.6134 180.46 57.9636C179.879 57.3652 179.141 56.9426 178.331 56.7444C177.596 56.5969 176.834 56.6424 176.122 56.8765C175.5 57.0794 174.936 57.4277 174.476 57.8925C173.815 58.5876 173.297 59.4057 172.952 60.3004C172.835 60.6154 172.748 60.8643 172.698 61.037C172.674 61.1233 172.645 61.2081 172.611 61.291C172.608 61.2 172.62 61.109 172.647 61.0218C172.704 60.7657 172.775 60.513 172.86 60.2649C173.168 59.3388 173.666 58.4874 174.323 57.7655C174.797 57.2698 175.382 56.8938 176.03 56.6682C176.78 56.4106 177.584 56.3546 178.362 56.5057C179.22 56.7029 180.004 57.1439 180.617 57.7757C181.273 58.4339 181.856 59.1612 182.355 59.9448L182.228 59.889L183.035 59.7924L193.129 58.6393L196.177 58.3192L197.011 58.243C197.119 58.2328 197.228 58.2362 197.336 58.2532Z" fill="#263238"/>
<path d="M190.808 77.1254C190.803 77.2522 190.761 77.3748 190.687 77.4778C190.613 77.5808 190.51 77.6597 190.391 77.7046L187.343 78.8577C186.876 79.0355 186.251 79.1676 185.962 78.7612C185.876 78.6128 185.842 78.4405 185.864 78.2707C185.886 78.101 185.963 77.9431 186.084 77.8214C186.33 77.5899 186.625 77.4163 186.947 77.3134C188.121 76.8054 189.406 76.3279 190.595 75.8351C190.622 75.8237 190.652 75.8195 190.681 75.8229C190.71 75.8263 190.738 75.8372 190.762 75.8546C190.786 75.8719 190.805 75.8951 190.818 75.9219C190.83 75.9488 190.836 75.9783 190.833 76.0078L190.808 77.1254Z" fill="#B78876"/>
<path d="M190.925 78.1467C190.992 78.4492 190.948 78.7657 190.802 79.0388C190.656 79.3119 190.416 79.5235 190.127 79.6352L187.298 80.7223C186.83 80.9001 186.205 81.0322 185.916 80.6309C185.831 80.4825 185.796 80.3102 185.818 80.1404C185.84 79.9707 185.917 79.8128 186.038 79.6911C186.283 79.4581 186.579 79.2844 186.901 79.1831C188.024 78.7157 189.248 78.2433 190.386 77.7759C190.437 77.7545 190.491 77.7444 190.546 77.7466C190.601 77.7487 190.654 77.7628 190.703 77.7881C190.751 77.8134 190.794 77.849 190.827 77.8926C190.86 77.9362 190.883 77.9865 190.894 78.0401L190.925 78.1467Z" fill="#B78876"/>
<path d="M190.417 79.6653C190.523 80.1087 190.464 80.5756 190.251 80.9786C190.038 81.3816 189.685 81.6931 189.259 81.8548L186.901 82.754C186.434 82.9318 185.809 83.0638 185.52 82.6574C185.436 82.5086 185.403 82.3366 185.425 82.1673C185.447 81.998 185.523 81.8402 185.642 81.7176C185.891 81.487 186.187 81.3136 186.51 81.2096C187.765 80.7016 189.152 80.153 190.402 79.6298L190.417 79.6653Z" fill="#B78876"/>
<path d="M177.966 103.76C177.966 103.831 174.252 105.208 169.619 106.838C164.986 108.469 161.207 109.739 161.181 109.668C161.156 109.597 164.895 108.22 169.528 106.589C174.161 104.959 177.94 103.689 177.966 103.76Z" fill="#263238"/>
<path d="M175.959 105.792C175.538 106.152 175.086 106.475 174.608 106.757C173.754 107.321 172.576 108.072 171.209 108.87C169.843 109.668 168.629 110.358 167.724 110.836C167.25 111.122 166.75 111.363 166.231 111.557C166.676 111.229 167.145 110.934 167.633 110.673L171.077 108.641L174.511 106.609C174.973 106.301 175.457 106.028 175.959 105.792Z" fill="#263238"/>
<path d="M97.6714 43.4552C97.6771 43.5109 97.6771 43.5671 97.6714 43.6228C97.6714 43.7447 97.6714 43.8971 97.6714 44.08C97.6714 44.5017 97.6714 45.096 97.6968 45.7869C97.6968 47.2652 97.7323 49.3429 97.7577 51.7864L97.6409 51.6746H105.972C106.003 51.6746 105.723 51.9235 105.845 51.8067V47.3871C105.845 45.9901 105.845 44.6693 105.845 43.4552L105.962 43.572L99.9574 43.5111L98.2505 43.4806H97.7933H97.6256C97.8185 43.4691 98.0119 43.4691 98.2048 43.4806L99.8811 43.4501L105.977 43.3942H106.089V43.5111C106.089 44.7252 106.089 46.0511 106.089 47.443V51.7661C106.206 51.6492 105.926 51.9286 105.952 51.8981H97.6205H97.5088V51.7661C97.5342 49.2769 97.5545 47.1941 97.5647 45.6701C97.5647 44.969 97.5647 44.4102 97.5951 43.9886C97.6256 43.5669 97.6663 43.445 97.6714 43.4552Z" fill="#263238"/>
<path d="M107.745 41.6061C107.913 41.7432 106.145 44.1765 103.798 47.0315C103.29 47.6309 102.833 48.1999 102.391 48.7181L102.132 49.0127L101.852 48.7638C99.9015 47.0061 98.5807 45.6701 98.6925 45.538C98.8043 45.4059 100.323 46.5184 102.345 48.1948L101.812 48.2405C102.228 47.7071 102.696 47.128 103.188 46.5286C105.535 43.6635 107.572 41.4537 107.745 41.6061Z" fill="#F6C85C"/>
<path d="M102.705 35.5098H102.497H101.908C101.776 35.5098 101.623 35.5098 101.461 35.5098L100.922 35.586L100.292 35.6774L99.5914 35.8501C98.3847 36.1544 97.2365 36.6556 96.1929 37.3335C94.6471 38.3163 93.3467 39.6399 92.3913 41.2028C91.4359 42.7657 90.8509 44.5266 90.6811 46.3505C90.6335 46.8978 90.6216 47.4476 90.6455 47.9964C90.6455 48.2758 90.6455 48.5552 90.7014 48.8346C90.7573 49.114 90.7878 49.3985 90.8284 49.683C91.0426 50.8491 91.4277 51.9771 91.9714 53.0307C92.5507 54.1333 93.2864 55.1462 94.1558 56.0381C95.0838 56.9483 96.1461 57.7108 97.3054 58.2987C98.5056 58.9161 99.806 59.3151 101.146 59.4772C101.482 59.5287 101.822 59.5575 102.162 59.5636C102.5 59.5831 102.84 59.5831 103.178 59.5636C103.875 59.5335 104.568 59.4451 105.251 59.2994C106.721 58.9827 108.12 58.3953 109.375 57.5671H109.254L113.455 59.2537L113.704 59.3553L113.633 59.0962C113.211 57.5722 112.794 56.0482 112.398 54.6004V54.7122C113.521 53.2108 114.278 51.4677 114.608 49.622C114.77 48.7566 114.824 47.8745 114.77 46.9957C114.765 46.5716 114.726 46.1486 114.654 45.7307C114.623 45.5225 114.588 45.3193 114.557 45.1161C114.527 44.9129 114.461 44.7147 114.41 44.5217C113.708 41.7583 112.046 39.3347 109.721 37.684C108.863 37.0678 107.925 36.5721 106.932 36.2108L106.302 35.9873L105.703 35.8349L105.159 35.6977L104.651 35.6215C104.331 35.5809 104.052 35.5301 103.808 35.5149H103.193H102.812H102.685C102.727 35.5198 102.77 35.5198 102.812 35.5149L103.188 35.5453L103.803 35.586C104.047 35.586 104.311 35.6673 104.636 35.713C106.917 36.1052 109.035 37.1518 110.732 38.7256C112.43 40.2994 113.633 42.3325 114.196 44.5776C114.242 44.7706 114.303 44.9637 114.339 45.1618C114.374 45.3599 114.395 45.5631 114.425 45.7663C114.496 46.1758 114.533 46.5903 114.537 47.0058C114.587 47.8697 114.53 48.7363 114.369 49.5865C114.032 51.4109 113.274 53.1314 112.154 54.6106L112.119 54.6614V54.7223L113.348 59.2181L113.526 59.0607L109.36 57.3538L109.294 57.3233L109.233 57.3639C107.43 58.5578 105.334 59.2327 103.173 59.3147C102.834 59.3327 102.495 59.3327 102.157 59.3147C101.817 59.3097 101.477 59.2809 101.141 59.2283C99.8312 59.0717 98.5599 58.6829 97.3867 58.0802C96.251 57.5092 95.2108 56.7655 94.3031 55.8755C93.4492 55.0034 92.7255 54.0128 92.1543 52.9342C91.6204 51.9047 91.2404 50.8025 91.0265 49.6627C90.9808 49.3833 90.9402 49.1039 90.8945 48.8295C90.8487 48.5552 90.8589 48.2809 90.8386 48.0066C90.8139 47.4681 90.8224 46.9286 90.864 46.3911C91.0239 44.5958 91.5905 42.8603 92.5208 41.3165C93.4512 39.7727 94.7208 38.461 96.2335 37.4808C97.2606 36.7967 98.3909 36.2822 99.5813 35.9568L100.272 35.7739L100.892 35.6723L101.425 35.5809L101.872 35.5504L102.482 35.5047C102.556 35.5152 102.631 35.5169 102.705 35.5098Z" fill="#455A64"/>
</svg>
