<svg width="250" height="250" viewBox="0 0 250 250" fill="none" xmlns="http://www.w3.org/2000/svg">
<g clip-path="url(#clip0)">
<path d="M195.041 27.3462L193.94 25.5335C184.668 10.2499 167.9 1.04185 150.226 2.15737C147.95 2.30096 145.688 2.61222 143.458 3.08863C127.388 6.52981 113.404 18.681 107.602 34.2435C104.221 43.3968 103.225 53.9394 96.7757 61.2052C88.3595 70.6672 74.0669 70.9561 61.4974 70.5676C48.9279 70.1792 34.6303 70.5079 26.2489 79.9998C21.005 85.9459 19.3367 94.4019 19.7749 102.365C20.8954 123.445 35.5815 142.295 54.2664 151.667C72.9514 161.039 94.943 161.876 115.386 157.757C144.026 151.981 171.267 136.124 187.636 111.638C204.005 87.151 208.138 53.785 195.041 27.3462Z" fill="#FFFAEE"/>
<path d="M192.725 197.299H127.592V211.392H192.725V197.299Z" fill="#E0E0E0"/>
<path d="M153.448 197.299L154.524 211.392H163.717L164.195 197.299H153.448Z" fill="#E0E0E0"/>
<path d="M176.735 197.259H111.601V211.353H176.735V197.259Z" fill="#EBEBEB"/>
<path d="M176.715 199.51C176.715 199.684 162.223 199.829 144.345 199.829C126.467 199.829 111.975 199.684 111.975 199.51C111.975 199.336 126.462 199.186 144.345 199.186C162.228 199.186 176.715 199.331 176.715 199.51Z" fill="#E0E0E0"/>
<path d="M176.695 202.732C176.695 202.911 162.203 203.056 144.325 203.056C126.447 203.056 111.955 202.911 111.955 202.732C111.955 202.553 126.442 202.408 144.325 202.408C162.208 202.408 176.695 202.553 176.695 202.732Z" fill="#E0E0E0"/>
<path d="M176.695 205.954C176.695 206.133 162.203 206.278 144.325 206.278C126.447 206.278 111.955 206.133 111.955 205.954C111.955 205.775 126.442 205.635 144.325 205.635C162.208 205.635 176.695 205.78 176.695 205.954Z" fill="#E0E0E0"/>
<path d="M176.695 209.161C176.695 209.341 162.203 209.485 144.325 209.485C126.447 209.485 111.955 209.341 111.955 209.161C111.955 208.982 126.442 208.838 144.325 208.838C162.208 208.838 176.695 209.002 176.695 209.161Z" fill="#E0E0E0"/>
<path d="M137.647 197.299L138.717 211.392H147.915L148.393 197.299H137.647Z" fill="#E0E0E0"/>
<path d="M123.807 211.392H124.156H125.182L129.131 211.367L143.752 211.328L192.725 211.288L192.596 211.417V197.324L192.725 197.453L143.767 197.384L129.156 197.334L125.207 197.309H124.181C123.952 197.309 123.832 197.309 123.832 197.309H124.181H125.207H129.156L143.767 197.279H192.725H192.865V211.631H192.735L143.762 211.591L129.121 211.437H125.172H124.146L123.807 211.392Z" fill="#263238"/>
<path d="M176.999 211.303C176.929 211.303 176.869 208.23 176.869 204.44C176.869 200.65 176.929 197.583 176.999 197.583C177.068 197.583 177.128 200.65 177.128 204.44C177.128 208.23 177.073 211.303 176.999 211.303Z" fill="#263238"/>
<path d="M192.008 170.865H130.525V184.167H192.008V170.865Z" fill="#E0E0E0"/>
<path d="M154.932 170.865L155.948 184.167H164.628L165.076 170.865H154.932Z" fill="#E0E0E0"/>
<path d="M177.088 170.86H115.605V184.162H177.088V170.86Z" fill="#EBEBEB"/>
<path d="M176.894 172.947C176.894 173.116 163.219 173.256 146.347 173.256C129.474 173.256 115.794 173.116 115.794 172.947C115.794 172.778 129.474 172.643 146.347 172.643C163.219 172.643 176.894 172.807 176.894 172.947Z" fill="#E0E0E0"/>
<path d="M176.874 175.994C176.874 176.159 163.199 176.298 146.327 176.298C129.454 176.298 115.774 176.159 115.774 175.994C115.774 175.83 129.454 175.691 146.327 175.691C163.199 175.691 176.874 175.825 176.874 175.994Z" fill="#E0E0E0"/>
<path d="M176.874 179.037C176.874 179.202 163.199 179.341 146.327 179.341C129.454 179.341 115.774 179.202 115.774 179.037C115.774 178.873 129.454 178.733 146.327 178.733C163.199 178.733 176.874 178.868 176.874 179.037Z" fill="#E0E0E0"/>
<path d="M176.874 182.08C176.874 182.249 163.199 182.384 146.327 182.384C129.454 182.384 115.774 182.249 115.774 182.08C115.774 181.911 129.454 181.776 146.327 181.776C163.199 181.776 176.874 181.911 176.874 182.08Z" fill="#E0E0E0"/>
<path d="M140.017 170.865L141.028 184.167H149.708L150.161 170.865H140.017Z" fill="#E0E0E0"/>
<path d="M126.95 184.127C126.95 184.127 127.064 184.127 127.278 184.127H128.249H131.974L145.774 184.087L192.008 184.042L191.879 184.172V170.815L192.008 170.945L145.46 171.104H131.561H127.801H126.805C126.586 171.104 126.471 171.104 126.471 171.104H126.805H127.801L131.561 171.064L145.46 170.965L192.008 170.721H192.138V184.261H192.008L145.774 184.221L131.974 184.182L128.249 184.157H127.278L126.95 184.127Z" fill="#263238"/>
<path d="M198.587 184.167H137.104V197.468H198.587V184.167Z" fill="#E0E0E0"/>
<path d="M161.511 184.167L162.527 197.468H171.207L171.66 184.167H161.511Z" fill="#E0E0E0"/>
<path d="M183.492 184.127H122.009V197.428H183.492V184.127Z" fill="#EBEBEB"/>
<path d="M183.473 186.253C183.473 186.417 169.797 186.557 152.925 186.557C136.053 186.557 122.378 186.417 122.378 186.253C122.378 186.089 136.053 185.949 152.925 185.949C169.797 185.949 183.473 186.084 183.473 186.253Z" fill="#E0E0E0"/>
<path d="M183.453 189.296C183.453 189.461 169.778 189.6 152.905 189.6C136.033 189.6 122.353 189.461 122.353 189.296C122.353 189.132 136.033 188.992 152.905 188.992C169.778 188.992 183.453 189.127 183.453 189.296Z" fill="#E0E0E0"/>
<path d="M183.453 192.339C183.453 192.508 169.778 192.642 152.905 192.642C136.033 192.642 122.353 192.508 122.353 192.339C122.353 192.169 136.033 192.035 152.905 192.035C169.778 192.035 183.453 192.169 183.453 192.339Z" fill="#E0E0E0"/>
<path d="M183.453 195.382C183.453 195.551 169.778 195.686 152.905 195.686C136.033 195.686 122.353 195.551 122.353 195.382C122.353 195.212 136.033 195.078 152.905 195.078C169.778 195.078 183.453 195.217 183.453 195.382Z" fill="#E0E0E0"/>
<path d="M146.596 184.167L147.607 197.468H156.287L156.74 184.167H146.596Z" fill="#E0E0E0"/>
<path d="M133.528 197.468H133.862H134.828L138.558 197.443L152.358 197.403L198.587 197.364L198.457 197.493V184.167L198.587 184.296L152.373 184.226L138.578 184.177L134.853 184.152H133.887H133.558C133.558 184.152 133.668 184.152 133.887 184.152H134.853H138.578L152.373 184.122H198.587H198.716V197.682H198.587L152.358 197.638L138.583 197.513H134.853H133.887C133.643 197.478 133.528 197.468 133.528 197.468Z" fill="#263238"/>
<path d="M177.148 184.261C177.078 184.261 177.018 181.273 177.018 177.628C177.018 173.983 177.078 170.995 177.148 170.995C177.218 170.995 177.277 173.983 177.277 177.628C177.277 181.273 177.223 184.261 177.148 184.261Z" fill="#263238"/>
<path d="M183.746 197.383C183.672 197.383 183.617 194.485 183.617 190.909C183.617 187.334 183.672 184.435 183.746 184.435C183.821 184.435 183.876 187.334 183.876 190.909C183.876 194.485 183.816 197.383 183.746 197.383Z" fill="#263238"/>
<path d="M101.731 27.4162C101.779 26.7449 102.025 26.103 102.438 25.5716C102.851 25.0403 103.413 24.6435 104.051 24.4314C104.69 24.2193 105.377 24.2015 106.026 24.3802C106.675 24.5589 107.257 24.926 107.697 25.4352C108.137 25.9443 108.416 26.5726 108.499 27.2405C108.582 27.9084 108.465 28.5859 108.162 29.1872C107.86 29.7885 107.386 30.2866 106.801 30.6185C106.215 30.9504 105.544 31.1011 104.873 31.0516C104.428 31.0194 103.994 30.8998 103.595 30.6997C103.196 30.4995 102.84 30.2227 102.549 29.8851C102.257 29.5475 102.034 29.1556 101.894 28.732C101.754 28.3084 101.698 27.8613 101.731 27.4162Z" fill="#F6C85C"/>
<g opacity="0.3">
<path opacity="0.3" d="M104.928 26.1014L104.953 25.6532H105.356L105.331 26.0914C105.693 26.1198 106.038 26.2512 106.327 26.4699L106.078 26.9679C105.855 26.7946 105.591 26.6814 105.311 26.6392L105.271 27.3065C105.715 27.446 106.203 27.6253 106.168 28.198C106.168 28.6262 105.809 28.9699 105.172 29.0047V29.4529L104.768 29.428V28.9898C104.482 28.9575 104.207 28.8567 103.967 28.696L104.196 28.198C104.379 28.3185 104.583 28.4031 104.798 28.447L104.843 27.7597C104.4 27.6302 103.917 27.451 103.952 26.8832C103.962 26.4848 104.29 26.1412 104.928 26.1014ZM105.217 27.8892L105.182 28.4619C105.401 28.427 105.491 28.3125 105.501 28.183C105.51 28.0535 105.396 27.9739 105.217 27.8892ZM104.584 26.8932C104.584 27.0326 104.689 27.1173 104.858 27.187L104.888 26.6342C104.689 26.6641 104.594 26.7637 104.589 26.8932H104.584Z" fill="black"/>
</g>
<g opacity="0.3">
<path opacity="0.3" d="M102.522 27.7648C102.549 27.869 102.564 27.9759 102.567 28.0835C102.605 28.3646 102.686 28.6384 102.806 28.8952C102.892 29.0713 102.996 29.2381 103.115 29.3932C103.26 29.5684 103.428 29.724 103.613 29.8564C103.708 29.9279 103.808 29.9928 103.912 30.0506C104.022 30.1121 104.137 30.1637 104.255 30.205C104.377 30.2519 104.502 30.2886 104.629 30.3145C104.76 30.3398 104.894 30.3548 105.027 30.3593C105.16 30.3694 105.293 30.3694 105.426 30.3593C105.554 30.3467 105.68 30.3233 105.804 30.2896C105.925 30.2555 106.043 30.2122 106.158 30.1601C106.27 30.1147 106.376 30.058 106.477 29.9908C106.66 29.873 106.827 29.7325 106.975 29.5725C107.105 29.4275 107.222 29.2708 107.323 29.1044C107.465 28.8578 107.567 28.5907 107.627 28.3126C107.641 28.2073 107.666 28.1038 107.702 28.0038C107.723 28.1106 107.723 28.2207 107.702 28.3275C107.664 28.6215 107.575 28.9065 107.438 29.1691C107.343 29.3492 107.226 29.5166 107.089 29.6671C106.932 29.8454 106.751 30.0012 106.551 30.1303C106.443 30.2021 106.33 30.2653 106.213 30.3195C106.091 30.3771 105.964 30.4238 105.834 30.4589C105.699 30.5 105.561 30.5284 105.421 30.5436C105.278 30.5536 105.135 30.5536 104.993 30.5436C104.848 30.5379 104.705 30.5196 104.564 30.4888C104.427 30.4612 104.292 30.4229 104.161 30.3743C104.036 30.3252 103.914 30.267 103.797 30.2C103.685 30.1356 103.577 30.0641 103.474 29.9858C103.287 29.8414 103.12 29.674 102.976 29.4878C102.856 29.3195 102.754 29.1393 102.672 28.95C102.557 28.675 102.493 28.3814 102.483 28.0835C102.476 27.9757 102.489 27.8675 102.522 27.7648Z" fill="black"/>
</g>
<path d="M102.518 27.5207C102.519 27.7357 102.536 27.9504 102.567 28.1631C102.671 28.7397 102.963 29.2654 103.399 29.6571C103.718 29.944 104.105 30.1449 104.523 30.2407C104.941 30.3366 105.377 30.3243 105.789 30.2049C106.293 30.0539 106.739 29.7536 107.069 29.3438C107.398 28.934 107.596 28.434 107.635 27.9096C107.674 27.3852 107.554 26.8613 107.289 26.4068C107.025 25.9524 106.628 25.5889 106.153 25.3644C105.762 25.1846 105.332 25.1077 104.903 25.1408C104.474 25.1739 104.061 25.316 103.703 25.5536C103.216 25.8754 102.849 26.3502 102.662 26.9032C102.6 27.1073 102.552 27.3152 102.518 27.5257C102.518 27.3106 102.553 27.097 102.622 26.8932C102.801 26.321 103.167 25.826 103.663 25.4889C104.032 25.2407 104.457 25.0909 104.9 25.0534C105.343 25.0159 105.788 25.0921 106.193 25.2747C106.687 25.5067 107.098 25.8832 107.374 26.3543C107.649 26.8255 107.775 27.3691 107.734 27.9132C107.694 28.4574 107.489 28.9764 107.147 29.4016C106.805 29.8269 106.342 30.1382 105.819 30.2946C105.389 30.4223 104.934 30.4357 104.497 30.3335C104.06 30.2313 103.658 30.0171 103.329 29.7119C102.889 29.3069 102.599 28.7643 102.508 28.1731C102.476 27.9565 102.479 27.7362 102.518 27.5207Z" fill="#263238"/>
<path d="M106.213 24.6273C106.344 24.638 106.472 24.6771 106.586 24.7418C106.876 24.8711 107.14 25.0497 107.368 25.2697C107.601 25.4859 107.794 25.7402 107.941 26.0217C108.008 26.134 108.055 26.257 108.08 26.3852C107.866 26.0058 107.603 25.656 107.298 25.3444C106.971 25.0573 106.605 24.816 106.213 24.6273Z" fill="white"/>
<path d="M105.665 24.443C105.665 24.443 105.745 24.4131 105.824 24.443C105.904 24.4728 105.959 24.5027 105.954 24.5326C105.949 24.5625 105.874 24.5625 105.794 24.5326C105.715 24.5027 105.655 24.4728 105.665 24.443Z" fill="white"/>
<path d="M140.575 116.035V110.517H141.984C142.42 110.517 142.838 110.344 143.146 110.036C143.454 109.728 143.627 109.31 143.627 108.874C143.627 108.438 143.454 108.02 143.146 107.712C142.838 107.404 142.42 107.231 141.984 107.231H140.575V105.333H141.984C142.405 105.31 142.801 105.127 143.091 104.82C143.38 104.514 143.542 104.109 143.542 103.687C143.542 103.266 143.38 102.86 143.091 102.554C142.801 102.248 142.405 102.065 141.984 102.041H140.575V99.2874H60.5061V102.041H59.0968C58.6759 102.065 58.2799 102.248 57.9902 102.554C57.7005 102.86 57.539 103.266 57.539 103.687C57.539 104.109 57.7005 104.514 57.9902 104.82C58.2799 105.127 58.6759 105.31 59.0968 105.333H60.5061V107.231H59.0968C58.6609 107.231 58.2429 107.404 57.9347 107.712C57.6266 108.02 57.4534 108.438 57.4534 108.874C57.4534 109.31 57.6266 109.728 57.9347 110.036C58.2429 110.344 58.6609 110.517 59.0968 110.517H60.5061V115.258C59.1374 115.258 57.782 115.528 56.5174 116.052C55.2528 116.576 54.1038 117.343 53.1359 118.311C52.168 119.279 51.4002 120.428 50.8764 121.693C50.3526 122.957 50.083 124.313 50.083 125.681V197.209C50.0896 200.998 51.5985 204.629 54.2789 207.307C56.9592 209.984 60.592 211.489 64.3806 211.492H136.685C140.476 211.493 144.113 209.99 146.797 207.312C149.48 204.634 150.991 201 150.998 197.209V126.493C151.002 125.121 150.736 123.762 150.214 122.494C149.693 121.225 148.926 120.072 147.957 119.1C146.989 118.129 145.838 117.358 144.571 116.832C143.305 116.306 141.946 116.035 140.575 116.035Z" fill="#FAFAFA"/>
<path d="M140.575 116.035C140.575 116.035 140.953 116.035 141.67 116.08C142.737 116.198 143.78 116.472 144.768 116.892C145.494 117.208 146.18 117.608 146.815 118.082C147.586 118.645 148.272 119.316 148.851 120.074C150.32 121.98 151.09 124.332 151.033 126.737C151.033 137.464 151.058 152.977 151.073 172.145C151.073 176.939 151.073 181.955 151.073 187.194C151.073 189.811 151.073 192.478 151.073 195.197C151.073 195.875 151.073 196.562 151.073 197.244C151.061 197.939 151.004 198.633 150.903 199.321C150.803 200.014 150.653 200.7 150.455 201.372C150.355 201.706 150.221 202.035 150.101 202.368C149.987 202.702 149.847 203.027 149.683 203.34C149.378 203.985 149.031 204.609 148.642 205.207C148.234 205.797 147.786 206.36 147.303 206.89C146.328 207.977 145.186 208.901 143.921 209.629C142.644 210.379 141.258 210.927 139.813 211.253C138.338 211.546 136.833 211.665 135.331 211.606H116.85H77.0797H66.6466C64.9036 211.606 63.1108 211.671 61.3628 211.283C59.6065 210.912 57.9368 210.211 56.4426 209.216C53.3904 207.194 51.2177 204.091 50.362 200.531C49.9138 198.758 49.9487 196.905 49.9537 195.098V189.62C49.9537 175.357 49.9537 161.418 49.9537 147.977V125.811C49.9537 125.408 49.9935 125.004 50.0084 124.601C50.0234 124.197 50.118 123.794 50.2076 123.406C50.5628 121.833 51.2674 120.361 52.2694 119.098C53.2606 117.867 54.5139 116.873 55.938 116.188C57.3621 115.503 58.9211 115.145 60.5013 115.139L60.3818 115.258C60.3818 113.645 60.3818 112.076 60.3818 110.517L60.4963 110.637H59.5003C59.1501 110.669 58.7971 110.627 58.4645 110.512C58.1298 110.382 57.8431 110.152 57.6428 109.854C57.4426 109.556 57.3384 109.204 57.3444 108.845C57.3503 108.486 57.4661 108.137 57.6762 107.846C57.8862 107.555 58.1804 107.335 58.5193 107.216C58.8426 107.123 59.1797 107.087 59.5153 107.111H60.5113L60.3967 107.231V105.333L60.5113 105.448H59.5153C59.1631 105.479 58.8083 105.435 58.4744 105.318C58.1418 105.186 57.8574 104.956 57.6593 104.657C57.4612 104.359 57.3588 104.008 57.3658 103.65C57.3729 103.292 57.489 102.945 57.6987 102.655C57.9083 102.365 58.2016 102.145 58.5392 102.026C58.8628 101.935 59.1999 101.901 59.5352 101.927H60.5312L60.4216 102.041V99.1779H60.5312L140.6 99.2277H140.659V102.041L140.6 101.982H141.785C142.17 101.947 142.557 102.034 142.89 102.231C143.181 102.409 143.412 102.671 143.552 102.982C143.691 103.293 143.734 103.639 143.675 103.975C143.615 104.311 143.456 104.621 143.217 104.865C142.979 105.109 142.672 105.276 142.338 105.343C142.044 105.378 141.747 105.388 141.451 105.373H140.575L140.625 105.328C140.625 106.16 140.625 106.698 140.625 107.226L140.58 107.181H141.86C142.268 107.158 142.672 107.279 143 107.524C143.271 107.727 143.474 108.008 143.582 108.328C143.691 108.649 143.7 108.995 143.608 109.321C143.517 109.647 143.329 109.937 143.069 110.154C142.81 110.371 142.49 110.505 142.153 110.537C141.586 110.537 141.068 110.537 140.58 110.537L140.61 110.507C140.61 114.198 140.58 115.826 140.58 116.02C140.58 115.826 140.58 114.198 140.55 110.507V110.482H140.575C141.073 110.482 141.571 110.482 142.143 110.482C142.464 110.449 142.768 110.319 143.015 110.111C143.261 109.902 143.439 109.625 143.526 109.314C143.612 109.003 143.603 108.673 143.499 108.367C143.396 108.061 143.203 107.794 142.945 107.599C142.632 107.364 142.245 107.25 141.855 107.275H140.53V105.283H141.426C141.716 105.294 142.005 105.283 142.293 105.248C142.606 105.184 142.893 105.027 143.115 104.797C143.338 104.567 143.485 104.275 143.539 103.96C143.593 103.644 143.55 103.32 143.417 103.029C143.283 102.738 143.065 102.495 142.791 102.33C142.475 102.146 142.109 102.064 141.745 102.096H140.505V102.041C140.505 101.235 140.505 100.408 140.505 99.2874L140.565 99.3472L60.4963 99.402L60.6109 99.2874V102.156H59.5202C59.2056 102.13 58.8888 102.158 58.584 102.241C58.2921 102.345 58.0382 102.535 57.8553 102.785C57.6724 103.036 57.5689 103.335 57.5581 103.645C57.5497 103.958 57.638 104.266 57.8108 104.527C57.9837 104.788 58.2328 104.99 58.5242 105.104C58.8317 105.208 59.1575 105.245 59.4804 105.214H60.6158V107.345H59.5153C59.2003 107.318 58.8831 107.348 58.579 107.435C58.285 107.538 58.0295 107.728 57.8471 107.98C57.6646 108.233 57.5638 108.535 57.5584 108.847C57.553 109.158 57.6431 109.464 57.8167 109.722C57.9903 109.981 58.239 110.18 58.5292 110.293C58.8356 110.394 59.1592 110.431 59.4804 110.403H60.6158V110.522C60.6158 112.081 60.6158 113.65 60.6158 115.263V115.388H60.4913C58.1482 115.39 55.8758 116.191 54.0483 117.657C52.2207 119.124 50.947 121.168 50.4367 123.455C50.3471 123.839 50.3072 124.232 50.2425 124.626C50.1778 125.019 50.1927 125.413 50.1877 125.811V128.226C50.1877 134.68 50.1877 141.272 50.1877 148.002V195.113C50.0983 196.914 50.2338 198.719 50.5911 200.486C51.4325 203.982 53.5681 207.028 56.5671 209.012C58.0343 209.992 59.6758 210.682 61.4027 211.044C63.1158 211.427 64.8887 211.357 66.6317 211.367H116.85H135.371C136.852 211.423 138.334 211.305 139.788 211.014C141.212 210.698 142.578 210.162 143.837 209.425C145.08 208.708 146.203 207.798 147.163 206.731C147.642 206.209 148.085 205.655 148.488 205.073C148.87 204.483 149.213 203.87 149.514 203.235C149.676 202.926 149.814 202.604 149.927 202.274C150.042 201.945 150.176 201.626 150.276 201.278C150.472 200.616 150.621 199.94 150.719 199.256C150.886 197.9 150.945 196.533 150.893 195.167C150.893 192.448 150.893 189.781 150.893 187.165C150.893 181.932 150.893 176.916 150.893 172.115C150.893 152.947 150.923 137.434 150.933 126.707C150.991 124.32 150.23 121.984 148.777 120.089C148.202 119.333 147.523 118.662 146.76 118.097C146.131 117.624 145.451 117.223 144.733 116.902C143.75 116.479 142.712 116.199 141.65 116.07L140.575 116.035Z" fill="#263238"/>
<path d="M130.933 174.356C128.454 175.359 125.733 175.605 123.114 175.061C120.496 174.517 118.097 173.208 116.223 171.301C114.348 169.393 113.082 166.972 112.584 164.344C112.086 161.717 112.378 159 113.425 156.539C114.471 154.078 116.224 151.982 118.462 150.518C120.7 149.053 123.322 148.286 125.997 148.312C128.671 148.339 131.278 149.158 133.486 150.667C135.695 152.175 137.406 154.305 138.403 156.786C139.742 160.107 139.708 163.823 138.307 167.118C136.906 170.413 134.254 173.016 130.933 174.356Z" fill="#F6C85C"/>
<g opacity="0.3">
<path opacity="0.3" d="M120.62 165.198L118.966 165.89L118.349 164.396L119.957 163.719C119.446 162.389 119.32 160.943 119.594 159.545L121.735 159.6C121.499 160.697 121.553 161.837 121.89 162.907L124.38 161.871C124.086 160.063 123.882 158.007 125.978 157.12C127.542 156.463 129.365 157.035 130.61 159.257L132.248 158.569L132.866 160.063L131.257 160.741C131.642 161.822 131.765 162.979 131.616 164.117L129.489 164.142C129.599 163.277 129.538 162.399 129.31 161.557L126.82 162.613C127.124 164.411 127.318 166.443 125.251 167.319C123.673 167.962 121.875 167.399 120.62 165.198ZM126.526 160.98L128.623 160.098C128.125 159.391 127.562 159.261 127.074 159.466C126.586 159.67 126.461 160.243 126.526 160.98ZM124.036 165.013C124.534 164.799 124.654 164.251 124.609 163.519L122.572 164.376C123.04 165.048 123.563 165.213 124.036 165.013Z" fill="black"/>
</g>
<g opacity="0.3">
<path opacity="0.3" d="M130.764 170.855C130.739 170.795 131.143 170.586 131.815 170.138C132.759 169.513 133.6 168.743 134.305 167.857C134.786 167.25 135.199 166.592 135.535 165.895C135.914 165.095 136.188 164.25 136.352 163.38C136.532 162.42 136.573 161.438 136.471 160.467C136.418 159.963 136.326 159.463 136.197 158.973C136.061 158.462 135.886 157.963 135.674 157.479C135.457 156.995 135.205 156.528 134.922 156.079C134.644 155.646 134.333 155.235 133.991 154.849C133.344 154.119 132.594 153.487 131.765 152.972C131.012 152.505 130.202 152.137 129.355 151.876C127.522 151.323 125.574 151.276 123.717 151.742C123.319 151.881 122.906 151.978 122.487 152.031C122.823 151.757 123.214 151.558 123.633 151.448C124.75 151.047 125.932 150.859 127.119 150.895C128.876 150.939 130.593 151.43 132.109 152.319C132.552 152.579 132.973 152.873 133.369 153.201C133.787 153.535 134.177 153.903 134.534 154.301C134.901 154.716 135.234 155.159 135.53 155.626C135.839 156.103 136.112 156.603 136.347 157.12C136.573 157.645 136.76 158.186 136.904 158.739C137.044 159.276 137.14 159.824 137.193 160.377C137.235 160.912 137.235 161.45 137.193 161.986C137.166 162.498 137.098 163.008 136.989 163.509C136.631 165.248 135.828 166.865 134.658 168.201C133.886 169.096 132.951 169.837 131.904 170.387C131.559 170.618 131.172 170.777 130.764 170.855Z" fill="black"/>
</g>
<path d="M129.908 171.313L130.057 171.233L130.5 171.014C130.744 170.906 130.979 170.778 131.202 170.631C131.52 170.454 131.825 170.254 132.114 170.033C132.923 169.449 133.642 168.747 134.245 167.952C135.05 166.913 135.648 165.73 136.008 164.466C136.491 162.81 136.538 161.057 136.145 159.377C135.751 157.698 134.93 156.148 133.762 154.879C133.435 154.524 133.084 154.191 132.711 153.883C132.321 153.574 131.91 153.291 131.481 153.037C130.599 152.5 129.638 152.107 128.633 151.871C127.596 151.616 126.525 151.525 125.46 151.602C124.365 151.688 123.288 151.933 122.263 152.329C121.249 152.753 120.303 153.323 119.455 154.023C118.633 154.706 117.924 155.514 117.353 156.418C116.792 157.282 116.372 158.23 116.108 159.227C115.975 159.707 115.875 160.197 115.809 160.691C115.76 161.177 115.74 161.666 115.749 162.155C115.788 163.87 116.267 165.546 117.139 167.023C118.011 168.5 119.247 169.728 120.729 170.591C122.746 171.765 125.096 172.233 127.408 171.921C127.768 171.875 128.126 171.809 128.478 171.721C128.74 171.669 128.998 171.597 129.25 171.507L129.723 171.358L129.883 171.313C129.835 171.344 129.783 171.368 129.728 171.383L129.265 171.557C129.016 171.658 128.76 171.738 128.498 171.796C128.145 171.896 127.786 171.971 127.423 172.02C126.424 172.172 125.408 172.172 124.41 172.02C123.081 171.839 121.801 171.401 120.64 170.73C119.23 169.921 118.035 168.785 117.154 167.419C116.135 165.842 115.567 164.016 115.51 162.14C115.496 161.641 115.516 161.142 115.57 160.646C115.636 160.142 115.736 159.643 115.869 159.152C116.137 158.13 116.565 157.156 117.139 156.269C117.723 155.344 118.447 154.516 119.285 153.813C121.021 152.348 123.179 151.475 125.445 151.323C126.536 151.247 127.632 151.342 128.692 151.607C129.72 151.85 130.704 152.253 131.606 152.802C132.044 153.067 132.465 153.36 132.866 153.679C133.247 154 133.606 154.346 133.941 154.715C135.574 156.525 136.512 158.855 136.588 161.291C136.665 163.728 135.875 166.112 134.36 168.021C133.74 168.818 133.003 169.517 132.173 170.093C131.877 170.31 131.566 170.507 131.242 170.681C131.012 170.82 130.77 170.94 130.52 171.039L130.067 171.238C130.017 171.271 129.964 171.296 129.908 171.313Z" fill="#263238"/>
<path d="M113.1 163.206C113.1 163.206 113.05 163.066 113.005 162.802C112.95 162.428 112.918 162.05 112.911 161.672C112.864 159.149 113.627 156.678 115.087 154.62C115.305 154.311 115.543 154.017 115.799 153.739C115.887 153.63 115.989 153.535 116.103 153.455C116.138 153.485 115.754 153.953 115.236 154.72C113.889 156.8 113.147 159.214 113.095 161.692C113.075 162.613 113.145 163.201 113.1 163.206Z" fill="white"/>
<path d="M113.414 165.472C113.339 165.472 113.234 165.238 113.17 164.914C113.105 164.59 113.115 164.321 113.17 164.311C113.224 164.301 113.349 164.545 113.409 164.864C113.468 165.183 113.483 165.457 113.414 165.472Z" fill="white"/>
<path d="M122.293 165.113C116.237 167.867 110.416 171.532 103.822 172.463C94.669 173.758 85.6901 169.973 77.3187 165.755C64.9484 159.56 53.4894 158.908 50.093 161.353V197.08C50.0917 200.872 51.5958 204.509 54.2748 207.193C56.9538 209.876 60.5886 211.387 64.3806 211.392H136.69C138.57 211.392 140.431 211.022 142.167 210.303C143.904 209.583 145.482 208.529 146.811 207.2C148.14 205.871 149.194 204.293 149.913 202.557C150.633 200.82 151.003 198.959 151.003 197.08V158.908C141.76 159.391 130.226 161.502 122.293 165.113Z" fill="#455A64"/>
<path d="M140.356 115.223C140.356 115.293 122.109 115.353 99.6092 115.353C77.1096 115.353 58.8579 115.293 58.8579 115.223C58.8579 115.154 77.0997 115.094 99.6092 115.094C122.119 115.094 140.356 115.149 140.356 115.223Z" fill="#263238"/>
<path d="M150.211 158.908H149.942L149.15 158.943C148.458 158.968 147.437 159.027 146.122 159.132C136.89 159.887 127.891 162.424 119.624 166.602C116.825 167.971 113.922 169.505 110.759 170.76C109.152 171.405 107.497 171.925 105.809 172.314C105.376 172.409 104.948 172.503 104.505 172.568L103.852 172.678L103.185 172.752C102.742 172.787 102.298 172.862 101.845 172.872L100.496 172.922C98.7112 172.911 96.9306 172.752 95.1721 172.448C93.4697 172.13 91.787 171.715 90.1323 171.203C87.0245 170.197 83.9782 169.01 81.009 167.648C78.1554 166.378 75.4812 165.108 72.9214 164.047C70.5588 163.04 68.1394 162.172 65.6755 161.448C62.1152 160.351 58.3902 159.888 54.6697 160.078C54.0877 160.108 53.5076 160.168 52.9317 160.257C52.6827 160.292 52.4337 160.312 52.2395 160.352L51.6668 160.472L50.8949 160.626C50.7206 160.661 50.626 160.671 50.626 160.671C50.626 160.671 50.7156 160.641 50.8899 160.601L51.6568 160.422L52.2246 160.287C52.4337 160.247 52.6678 160.223 52.9218 160.183C53.4983 160.081 54.0803 160.013 54.6648 159.979C58.3994 159.746 62.1454 160.184 65.7253 161.273C68.2006 161.981 70.6304 162.839 73.0011 163.843C75.5708 164.894 78.255 166.164 81.1036 167.424C84.0676 168.775 87.1071 169.954 90.207 170.954C91.8517 171.462 93.5245 171.875 95.2169 172.19C96.9608 172.489 98.7263 172.646 100.496 172.658L101.83 172.608C102.279 172.608 102.717 172.528 103.155 172.488L103.812 172.419L104.465 172.309C104.898 172.244 105.326 172.155 105.75 172.055C107.426 171.672 109.07 171.158 110.665 170.516C113.812 169.276 116.711 167.747 119.514 166.383C124.472 163.903 129.701 162.01 135.097 160.74C138.725 159.88 142.418 159.315 146.137 159.052C147.457 158.963 148.478 158.918 149.175 158.913H149.967C150.048 158.907 150.13 158.905 150.211 158.908Z" fill="#263238"/>
<path d="M73.2053 178.101C74.9732 178.509 76.6464 179.246 78.3845 179.754C78.6549 179.349 78.893 178.922 79.0966 178.479C79.726 177.077 79.9833 175.537 79.8436 174.006C79.704 172.476 79.172 171.007 78.2992 169.742C77.4263 168.477 76.2421 167.458 74.8608 166.784C73.4794 166.111 71.9477 165.804 70.4135 165.895C68.8793 165.986 67.3944 166.471 66.1022 167.303C64.8099 168.135 63.7541 169.286 63.0365 170.645C62.319 172.004 61.9639 173.525 62.0057 175.062C62.0475 176.598 62.4848 178.098 63.2751 179.416C66.3303 177.832 69.8432 177.367 73.2053 178.101Z" fill="#F6C85C"/>
<path d="M62.4733 175.73C62.361 175.411 62.3087 175.073 62.3189 174.734C62.2916 173.9 62.4044 173.067 62.6526 172.269C62.8975 171.471 63.2727 170.719 63.7631 170.043C63.9507 169.752 64.1884 169.495 64.4653 169.286C63.0627 171.144 62.3576 173.435 62.4733 175.76V175.73Z" fill="white"/>
<path d="M62.6775 177.234C62.6078 177.234 62.5181 177.085 62.4783 176.871C62.4385 176.657 62.4783 176.477 62.5281 176.463C62.5779 176.448 62.6875 176.612 62.7323 176.821C62.7771 177.03 62.7522 177.22 62.6775 177.234Z" fill="white"/>
<path d="M65.2273 178.584L65.3717 178.539C64.9369 177.877 64.6201 177.144 64.4355 176.373C64.1911 175.348 64.1911 174.28 64.4355 173.255C64.7212 172.078 65.324 171.002 66.1785 170.143C66.6316 169.675 67.156 169.281 67.7323 168.978C68.3259 168.649 68.968 168.417 69.6346 168.29C71.0431 168.005 72.5057 168.168 73.8164 168.758C75.127 169.348 76.2196 170.334 76.9403 171.577C77.6079 172.734 77.9164 174.064 77.8267 175.397C77.7482 176.603 77.3418 177.766 76.6514 178.758C76.5718 178.883 76.4722 178.987 76.3825 179.102L76.5967 179.172C76.6714 179.077 76.756 178.987 76.8307 178.883C77.5537 177.856 77.9808 176.65 78.0658 175.397C78.1166 174.729 78.0646 174.057 77.9114 173.405C77.7599 172.715 77.4993 172.055 77.1395 171.448C76.393 170.158 75.2603 169.135 73.9011 168.524C72.542 167.913 71.0252 167.744 69.5649 168.041C68.8661 168.172 68.1933 168.416 67.5729 168.763C66.9778 169.08 66.4366 169.488 65.9693 169.974C65.1494 170.807 64.5579 171.838 64.2518 172.967C63.9456 174.095 63.9351 175.284 64.2214 176.418C64.428 177.193 64.7684 177.926 65.2273 178.584Z" fill="#263238"/>
<g opacity="0.3">
<path opacity="0.3" d="M74.7839 169.132C75.4168 169.541 75.9829 170.045 76.4622 170.626C76.7892 171.022 77.0714 171.453 77.3038 171.911C77.5705 172.434 77.7664 172.99 77.8864 173.564C77.9553 173.874 77.9986 174.189 78.0159 174.505C78.0438 174.837 78.0438 175.17 78.0159 175.501C77.9885 175.837 77.9352 176.17 77.8566 176.497C77.693 177.183 77.4224 177.838 77.0548 178.44C76.9057 178.692 76.7393 178.933 76.5568 179.162L77.0548 179.341C77.217 179.14 77.3667 178.928 77.503 178.709C77.6927 178.389 77.8592 178.056 78.001 177.713C78.1439 177.362 78.2588 177.001 78.3446 176.632C78.4298 176.273 78.4864 175.909 78.5139 175.541C78.5414 175.187 78.5414 174.83 78.5139 174.476C78.489 174.14 78.4357 173.806 78.3546 173.48C78.2135 172.867 77.9889 172.278 77.6872 171.727C77.4236 171.25 77.1061 170.806 76.741 170.402C76.214 169.823 75.5842 169.347 74.8835 168.998C74.6363 168.85 74.362 168.753 74.0767 168.714C74.0618 168.714 74.3407 168.848 74.7839 169.132Z" fill="black"/>
</g>
<g opacity="0.3">
<path opacity="0.3" d="M68.011 177.015C69.3805 177.608 70.257 176.577 70.999 175.606L72.6574 176.323C72.3598 176.818 71.9672 177.25 71.502 177.593L71.761 177.857C72.2063 177.905 72.6485 177.978 73.0856 178.076C73.4215 177.716 73.7094 177.314 73.9422 176.881L75.003 177.339L75.4262 176.343L74.3406 175.895C74.8386 174.281 74.2659 173.146 73.235 172.697C71.8406 172.095 70.9592 173.151 70.247 174.117L68.6186 173.415C68.9732 172.765 69.4874 172.217 70.1126 171.821L69.1564 170.77C68.364 171.283 67.7309 172.008 67.3288 172.862L66.268 172.399L65.8447 173.395L66.9353 173.868C66.4373 175.456 66.9951 176.577 68.011 177.015ZM72.6175 174.301C72.9412 174.44 73.1155 174.769 73.0259 175.337L71.6464 174.734C71.9651 174.366 72.2789 174.157 72.6175 174.301ZM68.2003 174.406L69.5449 174.983C69.2212 175.342 68.9124 175.541 68.5489 175.397C68.1853 175.252 68.1007 174.938 68.2003 174.406Z" fill="black"/>
</g>
<path d="M83.8723 180.92C83.7928 180.927 83.7128 180.927 83.6333 180.92C83.4739 180.92 83.2399 180.92 82.9411 180.92C82.0905 180.898 81.243 180.81 80.4062 180.656C79.1683 180.413 77.9473 180.09 76.7509 179.69C75.3964 179.261 73.9322 178.694 72.3536 178.325C70.8649 177.991 69.3192 178.004 67.8367 178.365C66.6147 178.634 65.4183 179.009 64.2611 179.485C63.2651 179.879 62.4782 180.242 61.9354 180.481C61.6582 180.626 61.3721 180.752 61.0789 180.86C61.1411 180.807 61.2097 180.762 61.283 180.725C61.4225 180.646 61.6217 180.531 61.8906 180.392C62.4235 180.113 63.2003 179.724 64.1914 179.301C65.3519 178.8 66.5553 178.405 67.7869 178.121C69.303 177.738 70.8879 177.718 72.4133 178.061C74.0169 178.455 75.476 179.017 76.8256 179.456C78.01 179.859 79.2173 180.191 80.4411 180.452C81.2624 180.623 82.0943 180.739 82.9311 180.8C83.2473 180.818 83.5618 180.858 83.8723 180.92Z" fill="#263238"/>
<path d="M95.7546 19.9711L95.401 20.1852C95.172 20.3247 94.8283 20.5338 94.405 20.8326C93.5286 21.4203 92.2736 22.3266 90.7198 23.6115C89.9479 24.2489 89.0714 24.9561 88.18 25.7728C87.3339 26.7854 86.775 28.0064 86.5615 29.3086C85.9988 32.1024 86.5615 35.3991 87.702 38.7706C88.2978 40.5455 88.9911 42.2861 89.7786 43.9847C90.6003 45.7575 91.5714 47.5553 92.428 49.4876C92.8762 50.4437 93.2746 51.4447 93.7029 52.4457C94.1311 53.4467 94.5146 54.4925 94.8831 55.5582C95.6451 57.6797 96.3323 59.8958 96.9199 62.1965C98.1747 67.0127 98.9422 71.9428 99.2107 76.9124C99.3601 79.497 99.3303 82.1315 99.2755 84.7958C99.2207 87.4601 99.1161 90.1692 98.9817 92.9082C98.7177 98.3862 98.3691 103.72 98.1699 108.879C97.9707 114.038 97.8711 119.023 97.8661 123.769C97.8661 133.261 98.2446 141.802 98.7426 148.963C99.2406 156.124 99.8382 161.911 100.291 165.895C100.515 167.887 100.71 169.441 100.839 170.487C100.899 171.01 100.949 171.403 100.979 171.682C101.009 171.961 101.018 172.09 101.018 172.09C101.018 172.09 101.018 171.956 100.954 171.687C100.889 171.418 100.859 171.015 100.789 170.497C100.645 169.446 100.431 167.902 100.192 165.91C99.6938 161.926 99.0813 156.144 98.5584 148.978C98.0355 141.812 97.652 133.266 97.6271 123.769C97.6271 119.018 97.7118 114.033 97.9159 108.869C98.1201 103.705 98.4588 98.3663 98.7227 92.8932C98.8572 90.1592 98.9617 87.4551 99.0215 84.7908C99.0813 82.1265 99.1062 79.502 98.9568 76.9274C98.6987 71.9724 97.9446 67.0558 96.7058 62.2513C96.1231 59.9555 95.4359 57.7693 94.6839 55.6329C94.3204 54.5672 93.9021 53.5413 93.5136 52.5254C93.1252 51.5094 92.6919 50.5334 92.2437 49.5722C91.3971 47.645 90.436 45.8472 89.6143 44.0643C88.8115 42.3657 88.1049 40.6233 87.4978 38.8453C86.3623 35.4489 85.8046 32.1223 86.3872 29.2887C86.6141 27.9638 87.1919 26.7239 88.0605 25.6981C88.9719 24.8714 89.8434 24.2041 90.6252 23.5418C92.1939 22.2868 93.4588 21.3755 94.3453 20.7978C94.7974 20.4932 95.2681 20.2171 95.7546 19.9711Z" fill="#263238"/>
<path d="M53.8679 138.908C53.9376 138.908 53.9974 150.477 53.9974 164.74C53.9974 179.002 53.9376 190.571 53.8679 190.571C53.7982 190.571 53.7384 179.007 53.7384 164.74C53.7384 150.472 53.7932 138.908 53.8679 138.908Z" fill="#263238"/>
<path d="M146.357 193.295C146.282 193.295 146.227 188.23 146.227 181.985C146.227 175.74 146.282 170.676 146.357 170.676C146.431 170.676 146.486 175.74 146.486 181.985C146.486 188.23 146.426 193.295 146.357 193.295Z" fill="white"/>
<path d="M146.356 162.259C146.529 163.022 146.529 163.813 146.356 164.575C146.184 163.813 146.184 163.022 146.356 162.259Z" fill="white"/>
<path d="M112.786 126.04C118.424 123.316 124.738 122.419 130.953 121.603C130.506 124.992 129.308 128.238 127.445 131.104C125.583 133.971 123.104 136.385 120.19 138.171C117.275 139.957 113.998 141.069 110.599 141.427C107.199 141.784 103.763 141.378 100.54 140.238C101.765 134.093 107.144 128.759 112.786 126.04Z" fill="#455A64"/>
<path d="M97.9658 141.931C97.9658 141.931 98.0306 141.862 98.17 141.747C98.369 141.579 98.5786 141.425 98.7975 141.284C99.3503 140.89 100.187 140.382 101.228 139.76C103.309 138.525 106.208 136.901 109.46 135.124L117.731 130.552L120.221 129.148L120.904 128.769C120.98 128.721 121.062 128.682 121.148 128.655C121.082 128.717 121.009 128.771 120.929 128.814L120.271 129.232C119.699 129.596 118.857 130.099 117.816 130.726C115.729 131.951 112.811 133.585 109.579 135.363C106.347 137.14 103.414 138.739 101.312 139.934C100.262 140.532 99.415 141.02 98.8473 141.383C98.2796 141.747 97.9808 141.931 97.9658 141.931Z" fill="#263238"/>
<path d="M112.622 62.067C117.851 59.5471 123.707 58.7155 129.464 57.9585C129.049 61.0994 127.937 64.1078 126.211 66.7642C124.484 69.4206 122.186 71.6579 119.485 73.3129C116.783 74.968 113.746 75.9988 110.595 76.3304C107.444 76.6619 104.259 76.2857 101.272 75.2292C102.408 69.537 107.393 64.5919 112.622 62.067Z" fill="#455A64"/>
<path d="M99.2008 76.6185C99.254 76.5537 99.316 76.4967 99.3851 76.4492C99.5664 76.2978 99.7559 76.1564 99.9528 76.0259C100.451 75.6673 101.223 75.1992 102.174 74.6265C104.071 73.501 106.741 72.017 109.694 70.3885L117.248 66.2352L119.529 64.9554L120.152 64.6117C120.224 64.5684 120.301 64.5333 120.381 64.5072C120.32 64.5661 120.251 64.6164 120.177 64.6566L119.579 65.045C119.081 65.3737 118.289 65.8318 117.338 66.3946C115.436 67.5151 112.771 69.0091 109.818 70.6326C106.865 72.256 104.186 73.7152 102.264 74.8008C101.307 75.3486 100.53 75.7968 100.013 76.1255C99.4946 76.4542 99.2406 76.6384 99.2008 76.6185Z" fill="#263238"/>
<path d="M87.8265 88.3264C83.6383 86.18 78.9073 85.3882 74.256 84.6611C74.5307 87.2136 75.3717 89.6726 76.7175 91.8588C78.0634 94.045 79.8803 95.9033 82.0357 97.298C84.191 98.6928 86.6305 99.5889 89.1762 99.921C91.7219 100.253 94.3096 100.013 96.7506 99.2176C95.9588 94.5812 92.0147 90.4727 87.8265 88.3264Z" fill="#455A64"/>
<path d="M98.419 100.383C98.1945 100.253 97.9768 100.112 97.7666 99.9597C97.3532 99.6858 96.7307 99.3123 95.9638 98.8541L89.9181 95.3333C87.5576 93.9538 85.4361 92.6889 83.9072 91.7427C83.1503 91.2447 82.5377 90.8762 82.1244 90.5973C81.8997 90.4647 81.688 90.3113 81.4919 90.1391C81.7292 90.2427 81.9575 90.366 82.1742 90.5077L84.0019 91.5833L90.0526 95.1191C92.4131 96.4936 94.5346 97.7486 96.0584 98.7047C96.8154 99.2027 97.423 99.5812 97.8263 99.885C97.9845 99.997 98.1359 100.118 98.2795 100.249C98.3791 100.328 98.4289 100.378 98.419 100.383Z" fill="#263238"/>
<path d="M82.757 45.7176C77.1843 42.864 70.8896 41.8083 64.7045 40.8471C65.0692 44.2456 66.1885 47.5196 67.9806 50.4301C69.7726 53.3405 72.1922 55.8139 75.0625 57.6696C77.9329 59.5252 81.1815 60.7163 84.5711 61.1557C87.9606 61.5951 91.4056 61.2718 94.6542 60.2094C93.5785 54.0392 88.3296 48.5761 82.757 45.7176Z" fill="#455A64"/>
<path d="M96.8552 61.7532C96.8552 61.7532 96.5564 61.5341 95.9937 61.1756C95.4309 60.817 94.6192 60.3041 93.6033 59.6816C91.5565 58.4565 88.7079 56.8131 85.5656 54.9854C82.4232 53.1578 79.5896 51.4994 77.5627 50.2196C76.5667 49.5921 75.735 49.0742 75.1773 48.7256L74.5398 48.3072C74.4631 48.2621 74.3927 48.2068 74.3307 48.1429C74.4154 48.1718 74.4958 48.212 74.5697 48.2624L75.2321 48.6509L77.6573 50.0901L85.695 54.7812C88.8374 56.6089 91.671 58.2672 93.6979 59.5421C94.6939 60.1796 95.5156 60.7025 96.0534 61.1009C96.265 61.2555 96.4679 61.4217 96.661 61.5989C96.7955 61.6935 96.8602 61.7532 96.8552 61.7532Z" fill="#263238"/>
<path d="M84.2409 139.312C78.6035 136.593 72.2889 135.691 66.0739 134.874C66.521 138.263 67.7195 141.51 69.5817 144.376C71.4439 147.242 73.9228 149.657 76.8375 151.443C79.7521 153.229 83.0288 154.341 86.4283 154.699C89.8278 155.056 93.2643 154.65 96.4867 153.51C95.2567 147.369 89.8832 142.031 84.2409 139.312Z" fill="#455A64"/>
<path d="M99.161 155.258C99.161 155.283 98.8523 155.048 98.2696 154.695C97.6869 154.341 96.8453 153.843 95.7796 153.241C93.6681 152.041 90.7199 150.437 87.4779 148.649C84.236 146.861 81.3027 145.223 79.2062 143.993C78.1604 143.375 77.3138 142.872 76.7162 142.499L76.0538 142.081C75.9044 141.981 75.8297 141.926 75.8347 141.916C75.9215 141.948 76.0049 141.988 76.0837 142.036L76.8307 142.429L79.3207 143.838L87.6174 148.405C90.8594 150.193 93.7926 151.821 95.8842 153.061C96.93 153.684 97.7666 154.197 98.3244 154.59C98.5429 154.736 98.754 154.892 98.9568 155.058C99.0314 155.118 99.0998 155.185 99.161 155.258Z" fill="#263238"/>
<path d="M141.292 102.051C141.292 102.121 123.05 102.181 100.55 102.181C78.0508 102.181 59.7991 102.121 59.7991 102.051C59.7991 101.982 78.0408 101.922 100.55 101.922C123.06 101.922 141.292 101.977 141.292 102.051Z" fill="#263238"/>
<path d="M141.122 105.388C141.122 105.458 122.881 105.518 100.376 105.518C77.8715 105.518 59.6298 105.458 59.6298 105.388C59.6298 105.318 77.8715 105.254 100.376 105.254C122.881 105.254 141.122 105.313 141.122 105.388Z" fill="#263238"/>
<path d="M141.122 107.181C141.122 107.256 122.881 107.31 100.376 107.31C77.8715 107.31 59.6298 107.256 59.6298 107.181C59.6298 107.106 77.8715 107.051 100.376 107.051C122.881 107.051 141.122 107.111 141.122 107.181Z" fill="#263238"/>
<path d="M141.038 110.517C141.038 110.587 122.791 110.647 100.292 110.647C77.7919 110.647 59.5452 110.587 59.5452 110.517C59.5452 110.447 77.7869 110.388 100.292 110.388C122.796 110.388 141.038 110.447 141.038 110.517Z" fill="#263238"/>
<path d="M96.412 121.513C96.3174 121.139 96.1269 120.795 95.8592 120.517C94.3533 119.008 92.5331 117.85 90.5283 117.125C88.5235 116.4 86.3834 116.127 84.2608 116.324C84.1688 116.32 84.077 116.335 83.9913 116.369C83.9056 116.402 83.8277 116.453 83.7628 116.518C83.5885 116.752 83.7628 117.081 83.9819 117.3C85.5312 118.992 87.483 120.266 89.656 121.003C91.829 121.739 94.1529 121.915 96.412 121.513Z" fill="#455A64"/>
<path d="M97.7467 122.429C97.7467 122.459 97.2487 122.121 96.412 121.623C95.3467 120.979 94.2308 120.422 93.0754 119.959C91.916 119.505 90.7241 119.139 89.5097 118.864C89.005 118.776 88.5061 118.658 88.0157 118.51C88.1542 118.487 88.2956 118.487 88.4341 118.51C88.703 118.51 89.0914 118.585 89.5645 118.669C90.8038 118.896 92.0181 119.243 93.19 119.705C94.3619 120.169 95.4819 120.755 96.5315 121.453C96.9349 121.722 97.2487 121.951 97.4578 122.126C97.667 122.3 97.7765 122.414 97.7467 122.429Z" fill="#263238"/>
<path d="M96.4668 55.2792C96.4871 54.8939 96.6053 54.5203 96.8104 54.1935C97.9821 52.4127 99.5322 50.9124 101.35 49.7993C103.168 48.6863 105.209 47.9881 107.328 47.7544C107.413 47.7364 107.501 47.7355 107.587 47.7518C107.672 47.768 107.754 47.8011 107.826 47.849C108.045 48.0432 107.921 48.4018 107.771 48.6558C106.595 50.6205 104.943 52.2572 102.967 53.4148C100.991 54.5725 98.7558 55.2136 96.4668 55.2792Z" fill="#455A64"/>
<path d="M95.1123 56.7086C95.1817 56.582 95.267 56.4648 95.3663 56.36C95.5406 56.1409 95.8145 55.862 96.1631 55.4885C97.0751 54.5627 98.076 53.7287 99.1511 52.9985C100.228 52.2743 101.374 51.6588 102.572 51.1609C103.03 50.9716 103.409 50.8322 103.673 50.7525C103.808 50.6964 103.951 50.6628 104.096 50.6529C104.096 50.6928 103.538 50.9119 102.647 51.3302C101.483 51.8704 100.363 52.4997 99.2955 53.2126C98.2406 53.9329 97.2417 54.732 96.3075 55.603C95.9298 55.9933 95.5308 56.3624 95.1123 56.7086Z" fill="#263238"/>
<path d="M117.876 172.18L107.154 175.078L107.174 175.148L112.806 202.612L135.704 196.427L131.242 179.899L117.876 172.18Z" fill="#F6C85C"/>
<g opacity="0.3">
<path opacity="0.3" d="M117.876 172.18L107.154 175.078L107.174 175.148L112.806 202.612L135.704 196.427L131.242 179.899L117.876 172.18Z" fill="black"/>
</g>
<path d="M107.154 175.078L99.141 188.001L103.747 205.058L125.191 199.266L120.684 182.573L107.154 175.078Z" fill="#F6C85C"/>
<path d="M110.869 203.135C110.779 202.935 110.707 202.726 110.655 202.513C110.525 202.065 110.356 201.482 110.157 200.77C109.733 199.236 109.161 197.154 108.493 194.794L108.459 194.669L108.578 194.639L111.232 193.917L113.892 193.205L114.016 193.17L114.046 193.29L115.625 199.311C115.804 200.033 115.954 200.625 116.063 201.074C116.118 201.276 116.155 201.482 116.173 201.691C116.082 201.491 116.011 201.282 115.959 201.069C115.829 200.62 115.66 200.038 115.461 199.326C115.032 197.792 114.464 195.71 113.792 193.35L113.947 193.434L111.292 194.156L108.638 194.873L108.703 194.719L110.281 200.735C110.461 201.457 110.61 202.05 110.72 202.498C110.789 202.705 110.839 202.919 110.869 203.135Z" fill="#263238"/>
<g opacity="0.3">
<path opacity="0.3" d="M118.356 186.014L113.767 187.244L114.997 191.833L119.586 190.603L118.356 186.014Z" fill="white"/>
</g>
<g opacity="0.3">
<path opacity="0.3" d="M106.759 187.972L102.192 189.205L103.425 193.772L107.992 192.539L106.759 187.972Z" fill="white"/>
</g>
<path d="M101.749 178.504L99.4651 179.121L101.295 185.9L103.579 185.283L101.749 178.504Z" fill="#F6C85C"/>
<path d="M107.154 175.078C107.214 175.049 107.278 175.027 107.343 175.013L107.896 174.849L110.027 174.246L117.851 172.09H117.891H117.926L131.322 179.779L131.591 179.933L131.287 180.013L124.001 181.881L120.714 182.717H120.665L120.62 182.692L107.104 175.178L107.248 175.138C104.818 179.017 102.806 182.239 101.387 184.5L99.7436 187.1L99.3003 187.782C99.2557 187.862 99.2023 187.937 99.141 188.006C99.1797 187.921 99.2246 187.84 99.2755 187.762L99.6888 187.07C100.062 186.447 100.6 185.576 101.282 184.435L107.064 175.023L107.119 174.939L107.209 174.988L120.744 182.458H120.65L123.936 181.622L131.227 179.759L131.197 179.988L117.831 172.274H117.901L110.052 174.346L107.911 174.899L107.348 175.038L107.154 175.078Z" fill="#263238"/>
<g opacity="0.3">
<path opacity="0.3" d="M116.183 201.701L113.917 193.305L108.603 194.739L110.869 203.135" fill="black"/>
</g>
<path d="M141.79 199.605C139.727 197.588 137.145 196.184 134.331 195.55C131.517 194.916 128.582 195.077 125.854 196.014C122.064 197.379 118.593 200.282 114.579 199.943C112.373 199.754 110.386 198.589 108.274 197.951C105.958 197.265 103.505 197.186 101.15 197.724C98.7945 198.261 96.6175 199.396 94.8284 201.019L92.9509 207.055C92.9509 207.055 144.165 208.972 144.165 207.055C144.165 205.137 141.79 199.605 141.79 199.605Z" fill="#455A64"/>
<path d="M139.484 197.488C139.35 197.432 139.22 197.368 139.096 197.294C138.847 197.159 138.478 196.96 137.99 196.741C136.612 196.11 135.154 195.668 133.657 195.426C131.439 195.051 129.165 195.2 127.014 195.859C124.579 196.567 122.094 197.881 119.405 199.072C118.07 199.669 116.686 200.227 115.256 200.247C113.827 200.267 112.542 199.674 111.392 199.166C109.36 198.212 107.16 197.668 104.918 197.568C103.405 197.501 101.89 197.633 100.411 197.961C99.913 198.086 99.4847 198.19 99.2108 198.275C99.0754 198.324 98.9352 198.359 98.7925 198.379C98.9239 198.32 99.0586 198.269 99.1959 198.225C99.4648 198.125 99.8632 198.001 100.386 197.866C101.869 197.49 103.398 197.323 104.928 197.368C107.202 197.444 109.437 197.976 111.501 198.932C112.662 199.43 113.902 200.008 115.271 199.978C116.641 199.948 117.985 199.415 119.315 198.818C121.994 197.637 124.489 196.328 126.964 195.615C129.148 194.954 131.458 194.823 133.702 195.232C135.209 195.493 136.671 195.966 138.045 196.636C138.419 196.815 138.783 197.015 139.135 197.234C139.258 197.309 139.375 197.394 139.484 197.488Z" fill="#263238"/>
<path d="M87.2091 193.05L68.6805 189.959L67.3974 197.652L85.926 200.742L87.2091 193.05Z" fill="#F6C85C"/>
<path d="M92.838 193.391L64.5098 188.666L64.2558 190.189L92.584 194.914L92.838 193.391Z" fill="#F6C85C"/>
<g opacity="0.3">
<path opacity="0.3" d="M92.836 193.386L84.4264 191.983L84.174 193.496L92.5836 194.898L92.836 193.386Z" fill="black"/>
</g>
<g opacity="0.3">
<path opacity="0.3" d="M88.389 194.329L79.7267 192.929L78.6303 199.713L87.2926 201.113L88.389 194.329Z" fill="black"/>
</g>
<path d="M92.6273 194.908C92.6273 194.978 86.2878 193.982 78.494 192.682C70.7003 191.383 64.3907 190.272 64.4006 190.192C64.4106 190.113 70.7402 191.119 78.5339 192.418C86.3276 193.718 92.6422 194.834 92.6273 194.908Z" fill="#263238"/>
<path d="M64.824 196.94C67.6028 196.527 70.5261 196.124 73.1605 197.11C74.764 197.712 76.1983 198.818 77.8915 199.102C79.8835 199.435 81.9452 198.554 83.987 198.708C84.8782 198.785 85.7417 199.057 86.5163 199.504C87.2908 199.952 87.9575 200.564 88.469 201.298C88.3056 201.636 88.0658 201.932 87.7685 202.162C87.4712 202.392 87.1245 202.55 86.7559 202.622C86.0183 202.759 85.2637 202.78 84.5199 202.682C79.993 202.334 75.4612 201.985 70.9892 201.228C69.6394 201.06 68.3268 200.67 67.1048 200.073C66.4964 199.769 65.9628 199.334 65.5426 198.799C65.1224 198.264 64.8259 197.643 64.6746 196.98" fill="#455A64"/>
<path d="M63.2601 196.213C63.2601 196.213 63.4195 196.049 63.6585 195.715C63.8976 195.382 64.2213 194.859 64.6047 194.221C65.3667 192.941 66.3477 191.054 68.0459 189.445C68.8488 188.685 69.8501 188.167 70.9343 187.951C71.8328 187.766 72.7681 187.926 73.5538 188.4C74.0845 188.708 74.5057 189.175 74.759 189.734C74.8291 189.883 74.8793 190.04 74.9084 190.202C74.9084 190.312 74.9333 190.372 74.9084 190.372C74.8835 190.372 74.8436 190.143 74.6544 189.774C74.3764 189.261 73.9584 188.838 73.4492 188.554C72.6921 188.131 71.8064 188 70.9592 188.185C69.9197 188.42 68.9651 188.937 68.2003 189.679C67.4308 190.424 66.743 191.249 66.1485 192.14C65.5908 192.946 65.1525 193.733 64.7392 194.366C64.4365 194.875 64.1039 195.365 63.7432 195.835C63.6114 195.994 63.4466 196.123 63.2601 196.213Z" fill="#263238"/>
<path d="M91.5814 201.074C91.1713 201.136 90.7536 201.127 90.3464 201.049C89.2458 200.809 88.1846 200.415 87.194 199.878C86.5092 199.534 85.7961 199.249 85.0626 199.027C84.6564 198.911 84.239 198.839 83.8176 198.813C83.3688 198.8 82.9199 198.833 82.478 198.912C81.5666 199.057 80.6254 199.36 79.6045 199.52C79.0814 199.61 78.5482 199.625 78.0209 199.565C77.4764 199.489 76.951 199.312 76.4721 199.042C75.501 198.519 74.6942 197.807 73.8078 197.354C72.9357 196.936 71.9931 196.686 71.0289 196.616C69.1764 196.457 67.4882 196.686 66.0489 196.616C64.9207 196.606 63.7994 196.438 62.7173 196.118C62.4261 196.028 62.1401 195.922 61.8608 195.8C61.7611 195.76 61.6659 195.71 61.5769 195.65C61.5769 195.625 61.9853 195.815 62.7472 196.024C63.8283 196.294 64.9396 196.425 66.0539 196.412C67.4583 196.447 69.1415 196.193 71.0339 196.348C72.031 196.409 73.0068 196.662 73.9074 197.095C74.8386 197.593 75.6404 198.275 76.5767 198.778C77.0305 199.031 77.5266 199.2 78.0408 199.276C78.5385 199.329 79.0412 199.314 79.5348 199.231C80.5308 199.082 81.477 198.783 82.4132 198.638C82.8708 198.564 83.3344 198.534 83.7977 198.549C84.2363 198.581 84.6703 198.66 85.0925 198.783C85.8507 199.021 86.5858 199.328 87.2886 199.699C88.2619 200.242 89.3014 200.658 90.3812 200.934C90.7779 201.006 91.1788 201.053 91.5814 201.074Z" fill="#263238"/>
<path d="M101.96 29.0843C101.751 29.2696 101.526 29.4363 101.287 29.5823C101.063 29.7367 100.789 29.9209 100.491 30.155C100.192 30.389 99.8233 30.653 99.4647 30.9568C99.1062 31.2605 98.6829 31.5942 98.2745 31.9876C97.8662 32.381 97.4329 32.7944 96.9897 33.2525C96.0496 34.2604 95.1951 35.3448 94.435 36.4945C93.6902 37.6527 93.0454 38.8722 92.5077 40.1399C92.2736 40.7325 92.0495 41.2952 91.8902 41.8381C91.7308 42.3809 91.5764 42.8789 91.4569 43.3321C91.3374 43.7852 91.2577 44.2285 91.178 44.602C91.0984 44.9755 91.0486 45.2992 91.0087 45.5681C90.9819 45.8473 90.9319 46.1238 90.8593 46.3948C90.8546 46.1134 90.8712 45.832 90.9091 45.5531C90.9091 45.2842 90.9639 44.9555 91.0336 44.5571C91.1033 44.1587 91.1531 43.7404 91.2776 43.2723C91.4021 42.8042 91.5017 42.2763 91.681 41.7385C91.8603 41.2006 92.0595 40.618 92.2886 40.0154C92.8164 38.7256 93.4615 37.487 94.2158 36.3152C94.9855 35.1542 95.8554 34.0627 96.8154 33.0533C97.2686 32.5952 97.6969 32.1619 98.1301 31.7934C98.5634 31.4249 98.9668 31.0763 99.3502 30.7974C99.7337 30.5185 100.092 30.2496 100.406 30.0255C100.72 29.8014 100.999 29.6221 101.228 29.4827C101.461 29.3315 101.706 29.1983 101.96 29.0843Z" fill="#263238"/>
<path d="M83.3046 76.3096C82.1387 76.7879 80.857 76.9092 79.622 76.6583C78.387 76.4073 77.2543 75.7954 76.3675 74.9C75.4806 74.0046 74.8796 72.8661 74.6405 71.6288C74.4014 70.3914 74.535 69.111 75.0244 67.9496C75.5139 66.7883 76.337 65.7985 77.3896 65.1055C78.4422 64.4125 79.6769 64.0476 80.9371 64.057C82.1973 64.0665 83.4263 64.4499 84.4684 65.1585C85.5105 65.8672 86.3187 66.8693 86.7906 68.0379C87.4219 69.5973 87.4095 71.3434 86.7561 72.8938C86.1028 74.4441 84.8617 75.6724 83.3046 76.3096Z" fill="#F6C85C"/>
<g opacity="0.3">
<path opacity="0.3" d="M78.4541 71.9969L77.6772 72.3256L77.3834 71.6284L78.1404 71.3097C77.9019 70.6842 77.8433 70.0046 77.9711 69.3475L78.9671 69.3724C78.8587 69.8882 78.8844 70.4232 79.0418 70.9262L80.2021 70.4282C80.0676 69.5816 79.9631 68.6105 80.9541 68.1922C81.6911 67.8834 82.5477 68.1523 83.1353 69.1882L83.9072 68.8645L84.201 69.5617L83.4391 69.8804C83.6228 70.3885 83.6809 70.9336 83.6084 71.469H82.6124C82.6665 71.0624 82.6377 70.6491 82.5278 70.2539L81.3475 70.7519C81.4919 71.5985 81.5865 72.5547 80.6105 72.963C79.8933 73.2967 79.0418 73.0327 78.4541 71.9969ZM81.233 70.0049L82.229 69.5916C81.9949 69.2579 81.731 69.1981 81.5019 69.2928C81.2728 69.3874 81.2031 69.6663 81.233 70.0099V70.0049ZM80.0627 71.9073C80.3067 71.8027 80.3515 71.5487 80.3316 71.2051L79.3704 71.6085C79.5945 71.9272 79.8186 72.0019 80.0627 71.9122V71.9073Z" fill="black"/>
</g>
<g opacity="0.3">
<path opacity="0.3" d="M83.2299 74.6614C83.2299 74.6316 83.4092 74.532 83.7279 74.3228C84.171 74.0265 84.5657 73.6637 84.8982 73.2471C85.1224 72.962 85.3145 72.653 85.4709 72.3258C85.6522 71.9496 85.7828 71.5511 85.8594 71.1406C85.9477 70.6896 85.9662 70.2277 85.9142 69.7711C85.8904 69.5289 85.8471 69.2891 85.7847 69.054C85.7198 68.8145 85.6382 68.5799 85.5407 68.3518C85.4378 68.1233 85.3197 67.902 85.1871 67.6894C85.0547 67.4869 84.9083 67.2938 84.7488 67.1118C84.5957 66.9333 84.4292 66.7669 84.2508 66.6138C84.0793 66.4678 83.8961 66.3362 83.703 66.2203C83.3494 66.006 82.9694 65.8385 82.5726 65.7223C82.2224 65.6166 81.8617 65.5498 81.4969 65.5231C80.9669 65.4868 80.4345 65.5322 79.9182 65.6576C79.7287 65.722 79.5337 65.7687 79.3356 65.797C79.4944 65.6673 79.6797 65.5739 79.8784 65.5231C80.4018 65.3346 80.9557 65.245 81.5118 65.2592C82.3471 65.2857 83.1623 65.5221 83.8823 65.9464C84.0905 66.0683 84.2887 66.2065 84.4749 66.3598C84.6699 66.5116 84.8531 66.6781 85.0227 66.8578C85.2038 67.0528 85.3702 67.2608 85.5207 67.4803C85.6671 67.7072 85.7953 67.9453 85.9042 68.1924C86.0114 68.4393 86.0996 68.6941 86.1681 68.9544C86.231 69.2061 86.2726 69.4626 86.2926 69.7213C86.31 69.9733 86.31 70.2262 86.2926 70.4782C86.2773 70.7194 86.244 70.9591 86.193 71.1954C86.1013 71.6314 85.9523 72.0534 85.7498 72.4503C85.5711 72.7923 85.3521 73.1116 85.0974 73.4015C84.7328 73.8217 84.2939 74.1711 83.8026 74.4324C83.6306 74.5494 83.4352 74.6275 83.2299 74.6614Z" fill="black"/>
</g>
<path d="M82.8066 74.8704C83.1572 74.6786 83.498 74.4692 83.8275 74.2429C84.7015 73.5931 85.3355 72.6719 85.6302 71.6235C85.8482 70.8553 85.8655 70.0441 85.6807 69.2673C85.4959 68.4905 85.115 67.774 84.5745 67.1863C84.267 66.8452 83.9093 66.5529 83.5137 66.3198C83.1023 66.0738 82.6555 65.8924 82.189 65.7819C81.2054 65.5423 80.1714 65.6172 79.2325 65.996C78.2936 66.3747 77.4971 67.0384 76.9551 67.8934C76.6935 68.2951 76.4969 68.7354 76.3724 69.1982C76.2455 69.6381 76.1883 70.0952 76.2031 70.5528C76.2226 71.3514 76.4455 72.1318 76.8507 72.8202C77.2559 73.5086 77.83 74.0823 78.5188 74.487C79.4597 75.0364 80.5548 75.262 81.6363 75.1294C82.0305 75.0628 82.4211 74.9764 82.8066 74.8704C82.4422 75.0486 82.0525 75.1696 81.6512 75.229C80.5422 75.4083 79.4051 75.2027 78.4291 74.6463C77.7538 74.265 77.1799 73.727 76.7559 73.0776C76.2669 72.3275 75.993 71.4577 75.964 70.5627C75.9465 70.0804 76.0036 69.5983 76.1334 69.1335C76.2599 68.6446 76.4633 68.179 76.7359 67.754C77.3101 66.8572 78.149 66.161 79.1363 65.762C80.1251 65.3642 81.214 65.2876 82.2488 65.5429C82.7401 65.6567 83.2094 65.8502 83.6382 66.1156C84.0547 66.3581 84.4296 66.6658 84.7488 67.0269C85.3105 67.6456 85.7029 68.3989 85.8879 69.2139C86.0728 70.0288 86.0441 70.8777 85.8045 71.6782C85.4876 72.7561 84.8109 73.6929 83.8872 74.3326C83.5579 74.5682 83.1931 74.7497 82.8066 74.8704Z" fill="#263238"/>
<path d="M74.9133 71.0608C74.7239 70.2387 74.755 69.3812 75.0033 68.5749C75.2516 67.7687 75.7085 67.0423 76.3276 66.4693C75.894 67.1568 75.5334 67.8879 75.252 68.6505C75.0522 69.4393 74.9386 70.2475 74.9133 71.0608Z" fill="white"/>
<path d="M75.0628 72.1265C74.9881 72.1265 74.9084 72.0269 74.8785 71.8775C74.8486 71.7281 74.8785 71.5936 74.9532 71.5787C75.0279 71.5637 75.1026 71.6783 75.1325 71.8277C75.1624 71.9771 75.1325 72.1116 75.0628 72.1265Z" fill="white"/>
<path d="M76.5718 76.1355C80.5558 77.7341 85.5358 77.5199 89.0218 75.0598C87.1941 73.5907 84.7489 72.276 82.4233 72.5947C81.2601 72.7615 80.1424 73.161 79.137 73.7693C78.1316 74.3777 77.2592 75.1824 76.5718 76.1355Z" fill="#455A64"/>
<path d="M83.3047 63.9944C85.0818 65.1909 86.5386 66.8048 87.5474 68.6949C88.5562 70.5849 89.0864 72.6934 89.0915 74.8358L88.9919 75.2043C87.8625 74.872 86.813 74.3123 85.9078 73.5596C85.0026 72.8068 84.2609 71.877 83.7283 70.8271C83.1957 69.7772 82.8833 68.6295 82.8105 67.4545C82.7376 66.2795 82.9058 65.102 83.3047 63.9944Z" fill="#455A64"/>
<path d="M99.0962 83.9688C98.9512 83.7743 98.8261 83.5657 98.7227 83.3463C98.3924 82.7842 98.0317 82.2406 97.6421 81.7178C97.0566 80.9487 96.4051 80.2321 95.6949 79.5764C94.8981 78.8294 93.9569 78.0824 92.9658 77.2906C91.3157 75.9025 89.4948 74.731 87.5476 73.8046C86.7956 73.466 86.1681 73.2269 85.7299 73.0775C85.4984 73.011 85.2721 72.9278 85.0526 72.8285C85.2929 72.8537 85.5299 72.9038 85.7598 72.9779C86.3929 73.1576 87.0134 73.3788 87.6173 73.6403C89.608 74.5209 91.4627 75.6813 93.1252 77.0864C94.1212 77.8782 95.0624 78.6402 95.8592 79.4021C96.57 80.0763 97.2169 80.8148 97.7915 81.6083C98.1627 82.1486 98.4955 82.7144 98.7875 83.3015C98.9115 83.5135 99.0149 83.737 99.0962 83.9688Z" fill="#263238"/>
<path d="M109.026 99.641C109.075 98.9697 109.321 98.3278 109.734 97.7965C110.147 97.2652 110.708 96.8684 111.347 96.6563C111.986 96.4442 112.673 96.4264 113.322 96.605C113.971 96.7837 114.552 97.1509 114.992 97.66C115.432 98.1692 115.712 98.7975 115.794 99.4654C115.877 100.133 115.76 100.811 115.458 101.412C115.156 102.013 114.682 102.511 114.096 102.843C113.511 103.175 112.84 103.326 112.169 103.276C111.724 103.244 111.289 103.125 110.89 102.925C110.492 102.724 110.136 102.448 109.844 102.11C109.552 101.772 109.33 101.381 109.19 100.957C109.049 100.533 108.994 100.086 109.026 99.641Z" fill="#F6C85C"/>
<g opacity="0.3">
<path opacity="0.3" d="M112.238 98.3312L112.268 97.878L112.667 97.9029L112.642 98.3412C113.003 98.3724 113.349 98.5054 113.638 98.7246L113.384 99.2226C113.165 99.0449 112.901 98.9296 112.622 98.889L112.582 99.5613C113.02 99.6957 113.513 99.875 113.478 100.448C113.478 100.876 113.12 101.225 112.482 101.259L112.453 101.703H112.049L112.079 101.264C111.792 101.23 111.517 101.127 111.277 100.966L111.506 100.468C111.689 100.59 111.893 100.675 112.109 100.717L112.149 100.034C111.711 99.8999 111.228 99.7206 111.262 99.1529C111.277 98.7097 111.606 98.3661 112.238 98.3312ZM112.537 100.134L112.502 100.702C112.717 100.667 112.811 100.557 112.816 100.423C112.821 100.288 112.712 100.199 112.537 100.134ZM111.9 99.138C111.9 99.2774 112.004 99.3621 112.174 99.4318L112.209 98.874C112.004 98.8939 111.91 98.9936 111.9 99.1031V99.138Z" fill="black"/>
</g>
<g opacity="0.3">
<path opacity="0.3" d="M109.833 99.9944C109.833 99.9944 109.833 100.109 109.883 100.308C109.919 100.591 110 100.867 110.122 101.125C110.204 101.302 110.306 101.469 110.426 101.623C110.571 101.798 110.739 101.954 110.924 102.086C111.019 102.159 111.121 102.224 111.228 102.28C111.337 102.341 111.45 102.395 111.566 102.44C111.688 102.483 111.813 102.518 111.94 102.544C112.071 102.568 112.204 102.585 112.338 102.594C112.471 102.604 112.604 102.604 112.737 102.594C112.866 102.58 112.994 102.555 113.12 102.519C113.241 102.486 113.359 102.444 113.474 102.395C113.788 102.255 114.071 102.054 114.305 101.802C114.439 101.66 114.556 101.503 114.654 101.334C114.799 101.089 114.903 100.821 114.963 100.542C114.977 100.438 115.001 100.334 115.032 100.233C115.032 100.233 115.062 100.348 115.032 100.557C115 100.853 114.912 101.14 114.773 101.404C114.674 101.581 114.558 101.748 114.425 101.902C114.266 102.08 114.086 102.238 113.887 102.37C113.777 102.437 113.664 102.499 113.548 102.554C113.426 102.611 113.3 102.658 113.17 102.694C113.035 102.734 112.896 102.763 112.756 102.778C112.612 102.788 112.467 102.788 112.323 102.778C112.179 102.772 112.036 102.755 111.895 102.728C111.759 102.699 111.626 102.659 111.496 102.609C111.368 102.564 111.244 102.506 111.128 102.435C111.015 102.374 110.908 102.302 110.809 102.22C110.622 102.077 110.454 101.91 110.311 101.722C110.191 101.555 110.089 101.375 110.007 101.185C109.892 100.91 109.828 100.616 109.818 100.318C109.799 100.21 109.805 100.1 109.833 99.9944Z" fill="black"/>
</g>
<path d="M109.828 99.7504C109.834 99.9638 109.852 100.177 109.883 100.388C109.986 100.965 110.279 101.49 110.715 101.882C111.034 102.168 111.421 102.369 111.839 102.464C112.258 102.559 112.693 102.545 113.105 102.425C113.608 102.273 114.054 101.972 114.383 101.562C114.712 101.152 114.909 100.652 114.948 100.128C114.987 99.6033 114.866 99.0795 114.601 98.6255C114.336 98.1714 113.939 97.8083 113.464 97.5841C113.074 97.4043 112.644 97.3274 112.216 97.3605C111.788 97.3936 111.376 97.5357 111.018 97.7734C110.53 98.0938 110.163 98.5691 109.978 99.1229C109.915 99.3289 109.865 99.5384 109.828 99.7504C109.833 99.5337 109.87 99.3188 109.938 99.113C110.115 98.5413 110.482 98.0475 110.979 97.7136C111.345 97.4632 111.77 97.3119 112.213 97.2744C112.655 97.2369 113.1 97.3144 113.503 97.4995C114 97.7295 114.414 98.1054 114.691 98.5769C114.968 99.0485 115.094 99.5933 115.054 100.139C115.013 100.684 114.807 101.204 114.464 101.629C114.12 102.055 113.655 102.365 113.13 102.519C112.773 102.619 112.4 102.641 112.034 102.585C111.668 102.53 111.319 102.397 111.008 102.196C110.697 101.995 110.433 101.73 110.232 101.419C110.031 101.109 109.899 100.759 109.843 100.393C109.805 100.181 109.8 99.9641 109.828 99.7504Z" fill="#263238"/>
<path d="M113.523 96.8522C113.654 96.8678 113.78 96.9066 113.897 96.9667C114.479 97.231 114.957 97.6812 115.256 98.2466C115.324 98.3604 115.371 98.4851 115.396 98.6151C115.184 98.2327 114.921 97.8809 114.614 97.5693C114.284 97.2826 113.917 97.0414 113.523 96.8522Z" fill="white"/>
<path d="M112.98 96.673C112.98 96.6431 113.055 96.6381 113.135 96.673C113.215 96.7078 113.274 96.7377 113.264 96.7626C113.254 96.7875 113.19 96.7975 113.11 96.7626C113.03 96.7278 112.97 96.6979 112.98 96.673Z" fill="white"/>
<path d="M111.521 95.6619C110.398 96.3593 109.463 97.3214 108.798 98.4639C108.133 99.6065 107.758 100.895 107.707 102.216L107.761 102.445C108.465 102.265 109.125 101.944 109.701 101.5C110.276 101.057 110.755 100.5 111.108 99.8654C111.46 99.2304 111.68 98.5301 111.753 97.8074C111.826 97.0846 111.75 96.3545 111.531 95.6619H111.521Z" fill="#455A64"/>
<path d="M115.381 102.873C114.181 103.431 112.863 103.686 111.542 103.617C110.22 103.548 108.936 103.155 107.801 102.475L107.637 102.3C108.174 101.81 108.805 101.434 109.492 101.196C110.179 100.958 110.907 100.863 111.632 100.917C112.357 100.971 113.064 101.172 113.709 101.508C114.353 101.845 114.922 102.309 115.381 102.873Z" fill="#455A64"/>
<path d="M109.275 101.314C109.055 101.497 108.822 101.663 108.578 101.812C108.344 101.972 108.08 102.166 107.756 102.415C107.433 102.664 107.079 102.913 106.706 103.251C106.332 103.59 105.914 103.924 105.496 104.337C105.077 104.75 104.644 105.194 104.191 105.667C102.267 107.78 100.719 110.207 99.6142 112.843C99.3801 113.455 99.1162 114.033 98.9668 114.591C98.8771 114.87 98.7825 115.139 98.7078 115.398L98.5086 116.155C98.3692 116.653 98.2995 117.076 98.2148 117.464C98.1301 117.853 98.0754 118.186 98.0355 118.46C98.0092 118.75 97.9575 119.036 97.8811 119.317C97.8802 119.027 97.8985 118.738 97.9359 118.45C97.9638 118.116 98.0087 117.784 98.0704 117.454C98.1401 117.061 98.1999 116.608 98.3293 116.125C98.3891 115.881 98.4538 115.627 98.5186 115.358C98.5833 115.089 98.6779 114.825 98.7626 114.541C98.922 113.973 99.161 113.391 99.3951 112.768C99.9511 111.437 100.617 110.154 101.387 108.934C102.171 107.726 103.054 106.585 104.026 105.522C104.485 105.024 104.913 104.581 105.361 104.193C105.809 103.804 106.208 103.436 106.601 103.122C106.995 102.808 107.358 102.544 107.682 102.31C107.955 102.105 108.239 101.916 108.533 101.742C108.768 101.578 109.016 101.435 109.275 101.314Z" fill="#263238"/>
<path d="M90.7746 26.8035C88.1668 27.3925 85.4429 27.1946 82.9477 26.2348C80.4524 25.275 78.298 23.5965 76.7571 21.4117C75.2162 19.227 74.3582 16.6342 74.2916 13.9615C74.2249 11.2888 74.9527 8.6565 76.3828 6.39766C77.8129 4.13882 79.881 2.35503 82.3253 1.27208C84.7696 0.189136 87.4803 -0.144285 90.1142 0.314026C92.7481 0.772337 95.1869 2.00177 97.1217 3.84672C99.0566 5.69166 100.401 8.06917 100.984 10.6783C101.768 14.1704 101.133 17.8311 99.2186 20.8552C97.3041 23.8792 94.2667 26.0189 90.7746 26.8035Z" fill="#F6C85C"/>
<g opacity="0.3">
<path opacity="0.3" d="M82.0846 16.0915L80.3416 16.5048L79.9681 14.9411L81.6663 14.5377C81.3793 13.1439 81.4915 11.6974 81.99 10.3645L84.0916 10.7679C83.6821 11.8102 83.5499 12.941 83.7081 14.0497L86.2927 13.4471C86.2927 11.6145 86.4172 9.54777 88.6483 9.01491C90.2967 8.62149 91.9998 9.48303 92.8663 11.8784L94.5994 11.4651L94.9679 13.0238L93.2697 13.4272C93.4727 14.5572 93.4062 15.7191 93.0755 16.8186L90.9739 16.4949C91.2238 15.661 91.3051 14.7858 91.213 13.9202L88.5835 14.5427C88.5835 16.3654 88.464 18.4022 86.2678 18.9301C84.6493 19.3135 82.9661 18.4669 82.0846 16.0915ZM88.5985 12.8893L90.8096 12.3615C90.4261 11.5796 89.8983 11.3655 89.3853 11.485C88.8724 11.6045 88.6533 12.1523 88.5985 12.8893ZM85.486 16.465C86.0288 16.3355 86.218 15.8126 86.2927 15.0855L84.1414 15.5835C84.4999 16.3355 84.988 16.5845 85.486 16.465Z" fill="black"/>
</g>
<g opacity="0.3">
<path opacity="0.3" d="M91.1781 23.3226C91.1781 23.2578 91.5914 23.1184 92.3235 22.7847C93.3572 22.3149 94.3102 21.6846 95.1471 20.9172C95.7186 20.3954 96.2313 19.8126 96.676 19.1792C97.1809 18.4533 97.5893 17.6648 97.8911 16.8336C98.0589 16.3847 98.1921 15.9235 98.2895 15.4542C98.3905 14.9614 98.4571 14.4622 98.4887 13.9602C98.5185 13.4456 98.5085 12.9295 98.4588 12.4164C98.408 11.8892 98.3181 11.3665 98.1899 10.8527C98.0594 10.3435 97.8929 9.8443 97.6919 9.35867C97.4879 8.88625 97.2482 8.43009 96.9748 7.99415C96.7114 7.57138 96.415 7.17007 96.0883 6.79397C95.7809 6.43827 95.448 6.10539 95.0923 5.79797C94.4262 5.20698 93.6864 4.7048 92.8912 4.30397C92.1967 3.96303 91.4669 3.69918 90.7149 3.51713C89.6146 3.25741 88.4806 3.17005 87.3534 3.25817C86.9357 3.32895 86.5119 3.35731 86.0885 3.34283C86.4591 3.14159 86.8682 3.02109 87.2887 2.98925C88.4502 2.76758 89.6431 2.76758 90.8046 2.98925C92.5505 3.31525 94.1812 4.09112 95.5356 5.24021C95.9295 5.56993 96.299 5.92777 96.6411 6.3109C97.3641 7.13103 97.9555 8.05838 98.3941 9.05987C98.8592 10.114 99.1453 11.2383 99.2407 12.3865C99.2854 12.94 99.2854 13.4963 99.2407 14.0498C99.1676 15.0975 98.9376 16.1282 98.5584 17.1075C97.9188 18.7642 96.8641 20.2286 95.4957 21.3605C94.5858 22.1159 93.544 22.6967 92.4231 23.0736C92.0304 23.2438 91.606 23.3287 91.1781 23.3226Z" fill="black"/>
</g>
<path d="M90.2767 23.6213C90.3274 23.5967 90.381 23.5783 90.4361 23.5665L90.9092 23.4221C91.1677 23.3531 91.4207 23.2649 91.6661 23.1582C92.0081 23.034 92.341 22.8859 92.6621 22.715C93.5558 22.2698 94.3782 21.6941 95.1023 21.0068C96.1717 20.0136 97.0171 18.8039 97.5821 17.4583C98.1472 16.1127 98.4189 14.6621 98.3792 13.2032C98.3133 11.3693 97.7504 9.58774 96.7507 8.04887C96.4852 7.63951 96.1924 7.24852 95.8742 6.87857C95.5264 6.50829 95.1537 6.1622 94.7587 5.84273C93.9771 5.16884 93.0928 4.62414 92.1392 4.22921C91.1589 3.80916 90.1187 3.54534 89.0566 3.44735C86.8521 3.23044 84.6359 3.72428 82.732 4.85669C81.8273 5.40184 81.0125 6.08389 80.3167 6.87857C79.6119 7.64358 79.0336 8.51608 78.6036 9.46319C78.1759 10.3548 77.8967 11.3102 77.7769 12.2918C77.5417 13.9905 77.746 15.7212 78.3703 17.3184C78.9945 18.9156 80.0179 20.3262 81.3426 21.4152C82.3622 22.2624 83.5357 22.905 84.7987 23.3076C85.7462 23.6186 86.7349 23.7865 87.7319 23.8056C88.0951 23.8289 88.4594 23.8289 88.8226 23.8056C89.0897 23.7951 89.3559 23.7668 89.6194 23.7209L90.1174 23.6462C90.1719 23.6397 90.2271 23.6397 90.2817 23.6462C90.2311 23.6689 90.1774 23.684 90.1223 23.691L89.6243 23.7857C89.3622 23.844 89.0957 23.8807 88.8275 23.8952C88.4623 23.9372 88.0944 23.9522 87.727 23.94C86.7129 23.937 85.7053 23.7792 84.739 23.4719C82.4025 22.7675 80.394 21.2525 79.0749 19.1994C77.7557 17.1462 77.2125 14.6898 77.5429 12.2719C77.6096 11.7781 77.7077 11.2891 77.8367 10.8078C77.9866 10.3185 78.168 9.83948 78.3795 9.37355C78.8106 8.40815 79.3922 7.51727 80.1026 6.73415C80.8283 5.91525 81.6787 5.21608 82.6225 4.66247C83.5957 4.09591 84.6481 3.67795 85.7449 3.42245C86.846 3.18988 87.9751 3.11942 89.0965 3.21329C90.188 3.30161 91.2586 3.56214 92.2687 3.98519C93.2445 4.38933 94.1491 4.94756 94.948 5.63855C95.3388 5.96811 95.7066 6.32419 96.0485 6.70427C97.3777 8.21866 98.2299 10.0919 98.4984 12.0888C98.7668 14.0858 98.4395 16.1176 97.5575 17.9292C96.9799 19.14 96.1733 20.2274 95.182 21.1313C94.4426 21.8173 93.603 22.3866 92.692 22.8195C92.3702 22.985 92.0374 23.1281 91.696 23.2478C91.4453 23.3474 91.1872 23.4273 90.9241 23.4869L90.4261 23.6064C90.377 23.6168 90.3269 23.6219 90.2767 23.6213Z" fill="#263238"/>
<path d="M74.9881 12.9044C74.9567 12.7673 74.9483 12.6259 74.9632 12.486C74.9662 12.1092 74.9961 11.7331 75.0529 11.3606C75.408 8.8643 76.5548 6.54791 78.3247 4.7521C78.5905 4.48354 78.8733 4.23236 79.1713 4.00012C79.3855 3.84076 79.505 3.7561 79.5199 3.77104C79.5349 3.78598 79.0916 4.18438 78.4542 4.88158C77.6278 5.79193 76.9291 6.81057 76.3775 7.90942C75.8346 9.01394 75.4427 10.1864 75.2122 11.3954C75.0628 12.3167 75.0329 12.9044 74.9881 12.9044Z" fill="white"/>
<path d="M74.9282 15.1903C74.8585 15.1903 74.7888 14.9313 74.7789 14.6026C74.7689 14.2739 74.8187 14.01 74.8934 14.005C74.9681 14 75.0278 14.269 75.0378 14.5927C75.0478 14.9164 74.998 15.1853 74.9282 15.1903Z" fill="white"/>
<path d="M182.541 52.0174C182.043 50.9816 181.356 50.0254 181.142 48.875C180.893 47.5952 181.261 46.1659 180.604 45.0404C179.832 43.7008 178.044 43.4468 176.73 42.6401C174.578 41.3204 175.285 34.4729 170.081 32.2269L168.279 42.4259C168.249 49.1456 168.083 55.862 167.781 62.575C171.122 62.8697 174.476 62.9927 177.83 62.9435C178.722 62.9816 179.613 62.8481 180.455 62.5501C181.998 61.9027 182.91 60.2643 183.288 58.6308C183.794 56.4053 183.53 54.0742 182.541 52.0174Z" fill="#263238"/>
<path d="M171.003 48.7703L164.897 62.062L163.353 53.3619L162.288 55.1248C162.288 55.1248 160.48 66.9623 160.913 69.0688C161.476 71.8128 163.582 74.0189 163.582 74.0189L165.729 84.2628C165.888 85.3534 166.879 86.1253 167.332 85.9809L182.432 78.6852C183.278 78.0527 183.263 77.2559 182.8 76.1952L181.939 74.263L181.665 61.9325C181.665 61.1805 181.406 55.1796 180.873 52.8838C180.668 51.9767 180.243 51.1341 179.635 50.4305C179.027 49.7269 178.255 49.1841 177.387 48.85C176.172 48.4018 172.646 47.8341 171.003 48.7703Z" fill="#F6C85C"/>
<path d="M167.86 40.9418L153.667 32.0226C151.83 36.5743 153.373 41.9378 153.971 43.4169C154.569 44.8959 155.306 46.4447 154.997 48.0084C154.783 49.119 154.071 50.0602 153.652 51.106C153.353 51.873 153.21 52.6924 153.234 53.5156C153.258 54.3387 153.448 55.1485 153.792 55.8967C154.265 56.8927 155.037 57.8887 154.982 58.9843C154.927 60.0799 153.961 61.1108 153.782 62.2711C153.587 63.5311 154.364 64.7611 155.276 65.6526C155.853 66.3558 156.671 66.8191 157.571 66.9523C158.567 67.0021 159.454 66.3747 160.111 65.6426C161.605 63.9843 162.248 61.7482 162.601 59.5521C162.955 57.3559 163.099 55.1099 163.792 52.9834C164.444 50.9416 165.564 49.0841 166.476 47.1419C167.387 45.1997 168.099 43.0732 167.86 40.9418Z" fill="#263238"/>
<path d="M207.008 118.69L217.162 107.395L212.511 102.729L200.499 112.978L207.008 118.69Z" fill="#FFBE9D"/>
<path d="M215.862 108.924L216.181 108.615C216.181 108.615 223.502 111.852 224.567 110.926L214.214 100.418L210.858 104.004C211.995 104.418 213.03 105.072 213.894 105.921C214.757 106.769 215.429 107.793 215.862 108.924Z" fill="#F6C85C"/>
<g opacity="0.6">
<path opacity="0.6" d="M213.024 103.969C212.956 103.837 212.938 103.684 212.975 103.54C213.012 103.396 213.1 103.27 213.223 103.187C213.351 103.114 213.503 103.092 213.647 103.128C213.79 103.163 213.915 103.252 213.995 103.376C214.068 103.516 214.086 103.678 214.047 103.831C214.007 103.983 213.912 104.116 213.781 104.203C213.638 104.265 213.477 104.269 213.332 104.215C213.186 104.161 213.067 104.053 212.999 103.914" fill="white"/>
</g>
<g opacity="0.6">
<path opacity="0.6" d="M214.214 100.418L213.407 101.279L223.621 111.055C223.621 111.055 224.289 111.324 224.567 110.946L214.214 100.418Z" fill="white"/>
</g>
<path d="M216.271 108.625C216.321 108.57 216.091 108.291 216.007 107.878C215.922 107.465 216.007 107.116 215.937 107.091C215.867 107.066 215.648 107.43 215.763 107.933C215.877 108.436 216.206 108.685 216.271 108.625Z" fill="#263238"/>
<path d="M217.765 109.277C217.83 109.243 217.695 108.934 217.74 108.545C217.785 108.157 217.964 107.878 217.914 107.833C217.864 107.788 217.541 108.037 217.491 108.52C217.441 109.004 217.735 109.327 217.765 109.277Z" fill="#263238"/>
<path d="M219.722 108.605C219.687 108.545 219.358 108.73 219.224 109.138C219.089 109.546 219.224 109.895 219.264 109.875C219.304 109.855 219.328 109.556 219.458 109.223C219.587 108.889 219.757 108.66 219.722 108.605Z" fill="#263238"/>
<path d="M174.528 55.0899C174.563 55.0899 174.434 54.6815 174.334 54.0242C174.215 53.1658 174.243 52.2932 174.419 51.4445C174.548 50.5895 174.945 49.7976 175.554 49.1836C175.826 48.9509 176.146 48.7808 176.491 48.6856C176.392 48.6607 176.29 48.6607 176.192 48.6856C175.924 48.7469 175.674 48.8677 175.46 49.0392C174.793 49.6526 174.356 50.4746 174.22 51.3698C174.035 52.2408 174.026 53.14 174.195 54.0142C174.242 54.3896 174.355 54.7537 174.528 55.0899Z" fill="#263238"/>
<path d="M176.964 152.758L178.582 168.161L185.29 167.827L185.738 151.732L176.964 152.758Z" fill="#FFBE9D"/>
<path d="M178.313 166.134V166.582C178.313 166.582 170.843 169.914 170.843 171.353L185.893 170.696L185.47 165.716C184.377 166.296 183.172 166.633 181.937 166.705C180.702 166.778 179.466 166.583 178.313 166.134Z" fill="#F6C85C"/>
<path d="M176.027 169.023C176.087 169.023 176.162 168.704 175.977 168.36C175.793 168.017 175.479 167.862 175.479 167.937C175.479 168.012 175.649 168.176 175.793 168.435C175.938 168.694 175.963 169.018 176.027 169.023Z" fill="#263238"/>
<g opacity="0.6">
<path opacity="0.6" d="M184.005 167.369C184.152 167.407 184.279 167.498 184.363 167.623C184.446 167.749 184.481 167.902 184.459 168.052C184.426 168.199 184.338 168.329 184.213 168.414C184.088 168.499 183.936 168.534 183.786 168.51C183.627 168.473 183.488 168.378 183.396 168.243C183.304 168.108 183.265 167.944 183.288 167.783C183.337 167.632 183.443 167.506 183.584 167.431C183.724 167.357 183.888 167.34 184.04 167.384" fill="white"/>
</g>
<g opacity="0.6">
<path opacity="0.6" d="M185.893 170.696L185.793 169.495L171.426 170.566C171.426 170.566 170.768 170.885 170.863 171.353L185.893 170.696Z" fill="white"/>
</g>
<path d="M178.278 166.627C178.278 166.702 178.652 166.717 179.02 166.936C179.389 167.155 179.598 167.459 179.668 167.434C179.737 167.409 179.603 166.986 179.17 166.727C178.736 166.468 178.258 166.557 178.278 166.627Z" fill="#263238"/>
<path d="M176.73 167.329C176.73 167.399 177.038 167.509 177.302 167.827C177.566 168.146 177.651 168.45 177.726 168.445C177.8 168.44 177.825 168.022 177.492 167.653C177.158 167.284 176.73 167.28 176.73 167.329Z" fill="#263238"/>
<path d="M206.973 107.41L195.897 115.687C195.897 115.687 192.322 104.786 191.316 98.471C191.316 98.471 192.606 92.9481 190.534 88.9641C187.885 84.4124 184.927 82.4901 184.927 82.4901L182.437 78.6655L167.337 85.9961L171.037 97.9481L171.7 133.032L177.775 162.763L185.743 162.733C185.743 162.733 186.475 145.417 184.399 138.943C182.322 132.469 182.949 129.317 182.949 129.317L184.389 114.377C189.314 133.301 196.998 128.69 199.603 126.857C203.736 123.954 212.551 112.719 212.551 112.719L206.973 107.41Z" fill="#263238"/>
<path d="M170.076 84.9501C170.175 85.0735 170.288 85.184 170.415 85.2788C170.553 85.4014 170.697 85.5161 170.848 85.6224C171.042 85.7705 171.245 85.9069 171.456 86.0307C171.707 86.1898 171.968 86.3329 172.237 86.459C172.541 86.6134 172.854 86.7498 173.174 86.8674C174.645 87.4177 176.223 87.6205 177.785 87.46C178.12 87.4262 178.452 87.3747 178.781 87.3056C179.072 87.2492 179.36 87.176 179.643 87.0865C179.878 87.0176 180.109 86.9362 180.335 86.8425C180.506 86.7783 180.672 86.7035 180.833 86.6184C180.979 86.5582 181.118 86.4813 181.246 86.3893C181.246 86.3495 180.629 86.6632 179.598 86.9471C179.316 87.0266 179.03 87.0914 178.741 87.1413C178.433 87.206 178.099 87.2359 177.745 87.2757C176.98 87.3329 176.211 87.3162 175.45 87.2259C174.69 87.1211 173.943 86.9427 173.219 86.6931C172.885 86.5636 172.571 86.454 172.287 86.3096C172.021 86.1905 171.761 86.0558 171.51 85.9062C170.599 85.3734 170.101 84.9202 170.076 84.9501Z" fill="#455A64"/>
<path d="M171.032 33.6662C169.583 31.2709 167.636 28.9751 164.982 28.0936C162.616 27.3068 159.653 27.6753 157.342 28.5916C156.16 29.1544 155.118 29.9725 154.29 30.987C153.194 32.2619 153.179 34.0547 153.03 35.7329C152.731 39.0895 154.305 42.929 155.594 43.7009L169.917 45.7328C171.645 43.8553 173.403 41.5097 173.149 38.9749C172.945 37.2618 171.949 35.1503 171.032 33.6662Z" fill="#263238"/>
<path d="M164.862 30.5786L156.481 31.0766C153.916 31.5995 153.229 35.1801 153.856 37.7249C154.559 40.5485 155.525 43.9698 156.506 45.9319C158.473 49.8811 161.829 49.4179 161.829 49.4179C161.829 49.4179 161.859 49.4777 162.273 50.7028L163.269 53.89L164.613 63.4267L170.953 49.8811L166.615 31.6493C166.507 31.2856 166.268 30.9749 165.944 30.7772C165.621 30.5794 165.235 30.5087 164.862 30.5786Z" fill="#FFBE9D"/>
<path d="M155.555 40.6383C155.598 40.7775 155.695 40.8943 155.823 40.9639C155.951 41.0336 156.101 41.0508 156.242 41.0118C156.311 40.9955 156.376 40.9656 156.433 40.9237C156.491 40.8819 156.539 40.8291 156.576 40.7683C156.612 40.7076 156.637 40.6401 156.647 40.5699C156.657 40.4996 156.653 40.4281 156.635 40.3594C156.594 40.2196 156.499 40.1018 156.371 40.031C156.244 39.9603 156.094 39.9423 155.953 39.9809C155.883 39.9972 155.818 40.0273 155.76 40.0694C155.702 40.1114 155.653 40.1646 155.616 40.2258C155.579 40.2871 155.554 40.3551 155.544 40.4259C155.533 40.4967 155.537 40.5689 155.555 40.6383Z" fill="#263238"/>
<path d="M155.151 39.2437C155.236 39.2935 155.545 38.8652 156.147 38.6859C156.75 38.5067 157.233 38.661 157.273 38.5714C157.313 38.4818 157.183 38.427 156.959 38.3523C156.658 38.2541 156.334 38.2541 156.033 38.3523C155.734 38.4436 155.472 38.6287 155.286 38.8802C155.126 39.0794 155.106 39.2238 155.151 39.2437Z" fill="#263238"/>
<path d="M161.127 38.9199C161.171 39.0591 161.267 39.1759 161.395 39.2456C161.524 39.3153 161.674 39.3324 161.814 39.2934C161.884 39.2771 161.949 39.2472 162.006 39.2054C162.064 39.1637 162.113 39.111 162.15 39.0503C162.187 38.9897 162.211 38.9223 162.222 38.852C162.233 38.7818 162.23 38.7101 162.213 38.6411C162.169 38.5016 162.073 38.3845 161.945 38.314C161.817 38.2435 161.667 38.2251 161.526 38.2626C161.456 38.2795 161.391 38.3099 161.333 38.3521C161.276 38.3944 161.227 38.4475 161.19 38.5086C161.153 38.5697 161.128 38.6374 161.118 38.708C161.107 38.7786 161.11 38.8506 161.127 38.9199Z" fill="#263238"/>
<path d="M160.823 37.5703C160.908 37.6201 161.222 37.1918 161.795 37.0125C162.367 36.8333 162.88 37.0125 162.92 36.898C162.96 36.7834 162.835 36.7536 162.606 36.6789C162.305 36.5834 161.981 36.5834 161.68 36.6789C161.38 36.7719 161.118 36.9587 160.933 37.2117C160.799 37.4059 160.779 37.5504 160.823 37.5703Z" fill="#263238"/>
<path d="M160.081 42.4806C159.746 42.4848 159.411 42.5283 159.085 42.6101C158.936 42.64 158.787 42.6549 158.732 42.5603C158.672 42.4136 158.658 42.252 158.692 42.0971C158.717 41.6987 158.747 41.2804 158.777 40.8472C158.879 39.7745 158.895 38.6954 158.826 37.6201C158.635 38.6825 158.527 39.7581 158.503 40.8372C158.483 41.2754 158.463 41.6938 158.443 42.0922C158.407 42.2975 158.444 42.5088 158.548 42.6898C158.585 42.7351 158.632 42.7713 158.686 42.7954C158.739 42.8196 158.798 42.8312 158.856 42.8292C158.944 42.8271 159.032 42.812 159.115 42.7844C159.449 42.7262 159.774 42.624 160.081 42.4806Z" fill="#263238"/>
<path d="M161.829 49.3979C163.796 48.8098 165.562 47.6875 166.929 46.1559C166.929 46.1559 166.466 49.4975 162.183 50.4237L161.829 49.3979Z" fill="#EB996E"/>
<path d="M162.317 42.9539C162.192 42.8547 162.045 42.787 161.888 42.7567C161.731 42.7264 161.569 42.7342 161.416 42.7796C161.198 42.8322 160.997 42.9421 160.835 43.0979C160.673 43.2537 160.556 43.4498 160.495 43.666C160.466 43.8594 160.51 44.0566 160.619 44.2188C160.684 44.2985 160.619 44.2637 160.734 44.3035C161.04 44.4678 161.382 44.5566 161.73 44.5624C161.919 44.5518 162.1 44.4843 162.251 44.3688C162.401 44.2533 162.513 44.0951 162.571 43.915C162.617 43.7466 162.618 43.5692 162.573 43.4005C162.528 43.2318 162.44 43.0778 162.317 42.9539Z" fill="#EB996E"/>
<path d="M161.894 42.3314C161.799 42.3563 161.994 42.9788 161.6 43.5913C161.207 44.2039 160.525 44.3383 160.549 44.428C160.574 44.5176 160.734 44.5027 161.018 44.428C161.383 44.3145 161.697 44.0789 161.909 43.7606C162.11 43.4535 162.183 43.0801 162.113 42.7198C162.053 42.4609 161.939 42.3314 161.894 42.3314Z" fill="#263238"/>
<path d="M160.146 36.3553C160.251 36.4947 160.799 36.2408 161.501 36.1063C162.203 35.9718 162.801 35.9868 162.845 35.8224C162.845 35.7428 162.721 35.6232 162.457 35.5436C162.106 35.4497 161.738 35.4377 161.381 35.5085C161.024 35.5793 160.689 35.731 160.4 35.9519C160.181 36.1013 160.096 36.2657 160.146 36.3553Z" fill="#263238"/>
<path d="M154.733 37.197C154.872 37.2916 155.231 37.0327 155.699 36.8783C156.167 36.7239 156.605 36.689 156.655 36.5247C156.655 36.445 156.571 36.3305 156.356 36.2657C156.073 36.1952 155.776 36.209 155.501 36.3054C155.226 36.4019 154.985 36.5768 154.808 36.8086C154.678 36.9928 154.668 37.1472 154.733 37.197Z" fill="#263238"/>
<path d="M167.153 37.0575C167.198 37.0127 169.22 35.5635 169.947 37.8941C170.674 40.2248 168.194 40.4688 168.169 40.3841C168.144 40.2995 167.153 37.0575 167.153 37.0575Z" fill="#FFBE9D"/>
<path d="M168.602 39.2984C168.602 39.2984 168.652 39.2984 168.732 39.2984C168.786 39.3042 168.84 39.2993 168.892 39.2839C168.945 39.2685 168.993 39.243 169.035 39.2088C169.157 39.0679 169.238 38.8966 169.269 38.7132C169.301 38.5299 169.282 38.3414 169.215 38.168C169.16 37.9669 169.059 37.7812 168.921 37.6252C168.876 37.5606 168.817 37.5075 168.747 37.4702C168.678 37.433 168.601 37.4127 168.522 37.411C168.472 37.4119 168.423 37.431 168.386 37.4649C168.348 37.4987 168.324 37.5451 168.318 37.5953C168.318 37.67 168.318 37.7098 168.318 37.7198C168.318 37.7297 168.258 37.6949 168.244 37.5953C168.238 37.533 168.255 37.4708 168.293 37.421C168.316 37.3861 168.346 37.3566 168.381 37.3343C168.417 37.3119 168.456 37.2974 168.498 37.2915C168.599 37.2798 168.701 37.2948 168.794 37.335C168.888 37.3752 168.969 37.4392 169.03 37.5206C169.193 37.6897 169.311 37.8968 169.374 38.1232C169.451 38.3256 169.466 38.5464 169.418 38.7575C169.369 38.9686 169.258 39.1604 169.1 39.3084C169.044 39.3467 168.98 39.3716 168.912 39.3811C168.845 39.3906 168.776 39.3845 168.712 39.3632C168.627 39.3433 168.597 39.3034 168.602 39.2984Z" fill="#EB996E"/>
<path d="M154.773 31.1013C153.821 32.0733 153.232 33.3426 153.104 34.6969C152.977 36.0453 153.147 37.4053 153.602 38.6809L153.876 38.4369C154.017 37.666 154.391 36.9568 154.947 36.405C155.475 35.8273 156.082 35.3393 156.605 34.7566C157.805 33.4092 158.465 31.6657 158.458 29.8613C157.79 29.7705 157.109 29.8352 156.47 30.0502C155.831 30.2653 155.25 30.625 154.773 31.1013Z" fill="#263238"/>
<path d="M165.37 29.7319C163.134 28.6562 159.608 28.8056 157.621 30.2896C158.582 32.1273 160.764 33.8454 162.537 34.921C164.309 35.9967 165.963 38.407 168.513 36.5744C168.687 36.4499 168.971 36.5744 169.11 36.3951C169.213 36.2505 169.261 36.0739 169.245 35.8971C169.23 34.6122 168.86 33.3565 168.176 32.2685C167.493 31.1805 166.521 30.3027 165.37 29.7319Z" fill="#263238"/>
<path d="M162.487 65.6725C161.284 65.9938 160.061 66.2367 158.826 66.3996C157.605 66.6452 156.369 66.8116 155.126 66.8976C156.33 66.5794 157.552 66.3383 158.787 66.1755C160.008 65.9299 161.244 65.7619 162.487 65.6725Z" fill="white"/>
<path d="M172.526 50.0255C172.581 50.0753 169.394 53.7405 165.41 58.2126C161.426 62.6846 158.154 66.2752 158.099 66.2354C158.045 66.1955 161.232 62.5253 165.216 58.0482C169.2 53.5712 172.472 49.9806 172.526 50.0255Z" fill="#263238"/>
<path d="M191.724 93.8345C191.748 93.9085 191.76 93.9858 191.759 94.0636C191.787 94.2816 191.8 94.5011 191.799 94.7209C191.796 95.5336 191.704 96.3435 191.525 97.1362C190.907 99.7466 189.859 102.236 188.423 104.502C188.004 105.164 187.546 105.777 187.143 106.384C186.747 106.962 186.401 107.571 186.107 108.207C185.622 109.295 185.254 110.432 185.011 111.598C184.797 112.594 184.668 113.406 184.583 113.974C184.555 114.268 184.501 114.56 184.424 114.845C184.423 114.549 184.443 114.252 184.483 113.959C184.538 113.391 184.643 112.564 184.832 111.558C185.055 110.374 185.409 109.218 185.888 108.112C186.18 107.46 186.528 106.836 186.929 106.245C187.337 105.627 187.79 105.015 188.204 104.362C189.628 102.124 190.697 99.6776 191.371 97.1113C191.565 96.333 191.682 95.5373 191.719 94.7358C191.724 94.1532 191.7 93.8345 191.724 93.8345Z" fill="#455A64"/>
<path d="M164.21 62.102L143.528 94.1035L149.006 97.1811L175.425 62.9984L164.21 62.102Z" fill="#F6C85C"/>
<path d="M162.024 56.076C161.995 56.1351 161.971 56.1968 161.954 56.2603C161.914 56.4047 161.859 56.579 161.8 56.7931C161.665 57.2563 161.481 57.9336 161.277 58.7851C160.696 60.9666 160.387 63.2112 160.355 65.4683C160.343 67.7377 160.905 69.9735 161.989 71.9672C162.325 72.5653 162.727 73.1233 163.189 73.6305C163.343 73.8148 163.493 73.9343 163.582 74.0289C163.626 74.0774 163.676 74.1194 163.732 74.1534C163.732 74.1534 163.557 73.9493 163.234 73.5807C162.8 73.0586 162.42 72.4948 162.098 71.8975C161.063 69.9083 160.529 67.696 160.545 65.4534C160.578 63.212 160.865 60.9817 161.401 58.8051C161.59 57.9884 161.745 57.3111 161.859 56.8131C161.909 56.5989 161.949 56.4197 161.979 56.2703C162.001 56.2074 162.016 56.1423 162.024 56.076Z" fill="#263238"/>
<path d="M165.186 68.1076C165.186 68.1076 165.236 68.2172 165.36 68.3915C165.433 68.4979 165.513 68.5993 165.599 68.6953C165.709 68.829 165.827 68.9554 165.953 69.0737C166.273 69.3867 166.623 69.667 166.999 69.9104C167.468 70.2078 167.969 70.4517 168.493 70.6375C169.014 70.817 169.553 70.9389 170.101 71.001C170.548 71.0456 170.999 71.0456 171.446 71.001C171.745 70.9733 172.042 70.92 172.332 70.8416C172.441 70.82 172.547 70.7831 172.646 70.7321C172.646 70.6922 172.183 70.8167 171.436 70.8566C170.997 70.8802 170.557 70.8635 170.121 70.8068C169.591 70.7329 169.069 70.6095 168.562 70.4383C168.058 70.2547 167.573 70.0229 167.113 69.746C166.741 69.5146 166.389 69.2514 166.062 68.9592C165.475 68.4662 165.216 68.0827 165.186 68.1076Z" fill="#263238"/>
<path d="M137.975 77.49C140.176 77.0966 160.729 74.1684 160.729 74.1684C161.385 73.911 162 73.5604 162.556 73.1275C167.173 69.6415 180.056 59.3927 180.838 56.8131C181.744 53.8251 180.738 50.593 178.348 49.3032C176.525 48.3072 174.668 47.615 170.773 52.102C166.879 56.589 158.099 66.2352 158.099 66.2352L137.791 71.2152L137.975 77.49Z" fill="#F6C85C"/>
<path d="M167.332 85.991C167.332 85.991 167.268 86.0209 167.143 86.0408C166.959 86.0672 166.771 86.0413 166.6 85.9661C166.102 85.7719 165.744 85.1046 165.629 84.2829C165.39 83.2321 165.106 81.9074 164.802 80.4732C164.429 78.6953 164.105 77.0868 163.886 75.9165C163.777 75.3338 163.692 74.8607 163.637 74.532C163.595 74.3696 163.576 74.2018 163.582 74.034C163.654 74.1932 163.706 74.3604 163.737 74.532C163.821 74.8557 163.931 75.3189 164.065 75.9015C164.334 77.0569 164.683 78.6605 165.061 80.4383C165.365 81.8726 165.634 83.2022 165.838 84.2629C165.844 84.574 165.921 84.8796 166.062 85.1566C166.204 85.4336 166.406 85.6747 166.655 85.8615C166.871 85.9454 167.101 85.9892 167.332 85.991Z" fill="#263238"/>
<path d="M195.853 122.011C195.731 121.764 195.663 121.494 195.654 121.219C195.586 120.566 195.594 119.908 195.678 119.257C195.848 117.723 196.366 116.563 196.445 116.598C196.525 116.633 196.102 117.783 195.947 119.287C195.868 119.923 195.835 120.564 195.848 121.204C195.878 121.472 195.88 121.743 195.853 122.011Z" fill="#455A64"/>
<path d="M168.841 40.2794C168.318 40.9268 168.473 41.1708 168.712 41.9676C168.951 42.7644 169.314 43.5562 169.255 44.3879C169.16 45.6926 168.034 46.7733 168.034 48.083C168.034 49.0491 168.652 49.9455 168.597 50.9067C168.532 52.0322 167.601 52.8987 166.854 53.7204C166.107 54.5421 164.862 57.0221 165.445 57.9783C167.437 55.9016 170.141 53.2473 171.854 51.1806C173.567 49.1139 174.842 46.4745 174.469 43.8201L168.841 40.2794Z" fill="#263238"/>
<path d="M180.574 51.1509C180.579 50.9491 180.598 50.7478 180.629 50.5484C180.676 50.0049 180.629 49.4572 180.489 48.9299C180.393 48.5749 180.238 48.2384 180.031 47.9339C179.788 47.5854 179.485 47.2835 179.135 47.0424C178.281 46.5396 177.353 46.1749 176.386 45.9618C175.386 45.748 174.435 45.353 173.577 44.7965C172.893 44.2943 172.397 43.5771 172.168 42.7596C172.011 42.2226 171.93 41.6659 171.929 41.1063C171.912 40.9012 171.926 40.6949 171.969 40.4937C172.004 40.6945 172.023 40.8976 172.028 41.1013C172.068 41.6465 172.173 42.1849 172.342 42.7049C172.583 43.4719 173.068 44.1396 173.722 44.6072C174.561 45.1343 175.486 45.5085 176.456 45.7128C177.452 45.9323 178.404 46.316 179.274 46.8482C179.644 47.1096 179.961 47.4371 180.211 47.8143C180.422 48.1469 180.577 48.512 180.669 48.895C180.8 49.4433 180.82 50.0121 180.729 50.5683C180.706 50.7691 180.654 50.9655 180.574 51.1509Z" fill="#455A64"/>
<path d="M171.59 33.4071C171.419 33.3345 171.253 33.2513 171.092 33.1581C170.61 32.9484 170.11 32.7818 169.598 32.6601C168.842 32.4858 168.075 32.361 167.302 32.2866C166.346 32.234 165.393 32.1276 164.449 31.9679C162.724 31.6249 161.083 30.9482 159.618 29.9759C159.177 29.6843 158.756 29.3632 158.358 29.0147C158.079 28.7608 157.935 28.6163 157.95 28.6014C157.965 28.5865 158.587 29.1293 159.718 29.8215C161.188 30.7246 162.807 31.3586 164.499 31.694C165.495 31.9081 166.446 31.9181 167.332 32.0276C168.112 32.1162 168.885 32.2627 169.643 32.4659C170.162 32.595 170.663 32.7856 171.137 33.0336C171.264 33.1034 171.386 33.1833 171.501 33.2726C171.555 33.3672 171.595 33.4021 171.59 33.4071Z" fill="#455A64"/>
<path d="M121.093 91.0308C120.636 90.7981 120.164 90.5984 119.679 90.4332C118.853 90.1047 118.07 89.6765 117.348 89.1583V89.4521C117.638 90.9849 118.504 92.3484 119.768 93.2618C120.062 93.4949 120.401 93.6645 120.764 93.7598C120.982 93.8308 121.216 93.8354 121.437 93.773C121.657 93.7106 121.854 93.5841 122.002 93.4096C122.151 93.2351 122.244 93.0204 122.27 92.7928C122.296 92.5652 122.254 92.3349 122.149 92.1314C121.938 91.6512 121.564 91.2612 121.093 91.0308Z" fill="#F5F5F5"/>
<path d="M125.819 73.9542C125.819 73.9542 131.83 68.6107 134.644 74.1285C134.644 74.1285 135.51 75.1245 134.265 78.1125C133.02 81.1005 130.446 86.2996 130.446 86.2996L129.654 84.5068C129.654 84.5068 133.055 78.1275 133.434 76.8327C133.812 75.5379 133.747 74.4572 133.468 73.8845C133.13 73.1973 132.218 72.1116 130.376 72.7042C126.691 73.8994 126.551 75.8665 126.551 75.8665L125.819 73.9542Z" fill="#F6C85C"/>
<path d="M133.184 92.2211C133.184 92.2211 127.487 97.7937 119.355 96.4441L115.471 77.1914L125.774 73.5162L133.184 92.2211Z" fill="#F6C85C"/>
<path d="M119.778 93.6252L109.016 88.0526C108.405 88.6192 107.67 89.0367 106.87 89.2727L109.43 84.0337C109.701 84.8206 109.774 85.662 109.644 86.4839L118.558 90.2836L119.778 93.6252Z" fill="#F6C85C"/>
<path d="M137.701 72.4404L133.603 70.7173L129.121 70.3736C129.121 70.3736 128.747 71.4792 130.366 71.5689L132.308 71.8328L132.681 72.7591C132.681 72.7591 134.673 75.5578 137.104 75.279L137.701 72.4404Z" fill="#FFBE9D"/>
<path d="M137.811 71.9325L134.474 71.7682L132.358 71.8379C131.571 72.062 130.928 72.5401 129.947 72.8339C129.645 72.9214 129.357 73.0504 129.091 73.2173C128.957 73.2961 128.848 73.4093 128.773 73.5451C128.699 73.681 128.662 73.8344 128.668 73.9893C128.676 74.0653 128.701 74.1385 128.741 74.204C128.781 74.2694 128.834 74.3256 128.897 74.3686C128.961 74.4116 129.033 74.4404 129.108 74.4532C129.184 74.4659 129.261 74.4623 129.335 74.4424C129.304 74.5857 129.302 74.7336 129.329 74.8776C129.356 75.0216 129.411 75.1589 129.491 75.2816C129.571 75.4043 129.675 75.5099 129.796 75.5923C129.917 75.6748 130.053 75.7325 130.196 75.7621C130.146 75.8421 130.116 75.9329 130.108 76.0269C130.1 76.121 130.115 76.2155 130.151 76.3027C130.187 76.3899 130.244 76.4672 130.316 76.5282C130.388 76.5893 130.473 76.6322 130.565 76.6535C130.684 76.6535 130.819 76.6536 130.918 76.7283C131.018 76.803 131.028 77.0171 131.073 77.1715C131.187 77.5699 131.705 77.6695 132.114 77.5998C132.503 77.464 132.911 77.3901 133.324 77.3806C133.757 77.4404 134.111 77.7691 134.534 77.8786C134.843 77.9083 135.155 77.8652 135.445 77.7528C135.735 77.6404 135.994 77.4618 136.202 77.2312C136.704 76.7642 137.293 76.4004 137.935 76.1605L137.811 71.9325Z" fill="#FFBE9D"/>
<path d="M119.39 96.3942C119.301 96.1512 119.233 95.9014 119.186 95.6472C119.071 95.1193 118.912 94.4321 118.728 93.6004C118.349 91.8674 117.846 89.472 117.303 86.8226C116.76 84.1733 116.307 81.7729 115.954 80.0299C115.804 79.1933 115.675 78.5011 115.575 77.9682C115.519 77.7159 115.484 77.4594 115.471 77.2013C115.562 77.4417 115.63 77.6902 115.675 77.9433C115.794 78.4762 115.949 79.1634 116.138 79.9951C116.511 81.7231 117.019 84.1235 117.557 86.7729C118.095 89.4222 118.553 91.8226 118.907 93.5656C119.061 94.4022 119.191 95.0944 119.285 95.6323C119.344 95.8823 119.379 96.1375 119.39 96.3942Z" fill="#263238"/>
<path d="M133.184 92.2208C133.12 92.2208 131.407 88.0824 129.36 82.9232C127.313 77.7639 125.709 73.5558 125.774 73.5259C125.839 73.496 127.552 77.6643 129.599 82.8286C131.646 87.9928 133.249 92.1959 133.184 92.2208Z" fill="#263238"/>
<path d="M125.889 73.6704C125.813 73.8023 125.719 73.923 125.61 74.0289C125.333 74.3392 125.033 74.6288 124.713 74.8954C124.248 75.2974 123.748 75.6574 123.219 75.9711C122.565 76.3525 121.876 76.6726 121.163 76.9273C120.444 77.1738 119.704 77.3522 118.952 77.4601C118.338 77.5462 117.718 77.5796 117.099 77.5597C116.683 77.5503 116.269 77.5086 115.859 77.4352C115.707 77.4219 115.558 77.3866 115.416 77.3307C115.416 77.2809 116.063 77.3854 117.104 77.3755C117.711 77.3689 118.317 77.319 118.917 77.2261C119.642 77.1051 120.356 76.9269 121.053 76.6932C121.752 76.4433 122.43 76.1368 123.08 75.7769C123.61 75.4821 124.117 75.1492 124.599 74.7809C125.416 74.1136 125.854 73.6355 125.889 73.6704Z" fill="#263238"/>
<path d="M109.43 84.0537C109.523 84.3461 109.554 84.655 109.519 84.96C109.479 85.7005 109.286 86.4245 108.952 87.0865C108.622 87.7484 108.169 88.3416 107.617 88.8345C107.402 89.0509 107.144 89.2205 106.86 89.3325C107.597 88.6404 108.224 87.8392 108.718 86.957C109.036 86.3209 109.245 85.6357 109.335 84.9301C109.347 84.6362 109.379 84.3434 109.43 84.0537Z" fill="#263238"/>
<path d="M105.107 86.7729C104.94 86.7473 104.769 86.7576 104.606 86.8032C104.443 86.8487 104.291 86.9283 104.161 87.0368C104.1 87.0933 104.051 87.1618 104.017 87.2381C103.984 87.3143 103.967 87.3967 103.967 87.48C103.967 87.5633 103.984 87.6457 104.017 87.722C104.051 87.7983 104.1 87.8668 104.161 87.9233C104.435 88.1175 104.813 87.9631 105.102 87.7888C105.506 87.5342 105.891 87.2495 106.253 86.9372C105.876 86.8511 105.493 86.7961 105.107 86.7729Z" fill="#455A64"/>
<path d="M103.085 85.7918C102.957 85.7719 102.826 85.7793 102.7 85.8137C102.575 85.848 102.459 85.9084 102.358 85.991C102.311 86.0344 102.273 86.0871 102.247 86.1459C102.222 86.2046 102.208 86.268 102.208 86.3322C102.208 86.3963 102.222 86.4597 102.247 86.5185C102.273 86.5772 102.311 86.6299 102.358 86.6733C102.567 86.8227 102.856 86.7032 103.08 86.5687C103.39 86.3732 103.684 86.1551 103.962 85.9163C103.674 85.8497 103.381 85.8081 103.085 85.7918Z" fill="#455A64"/>
<path d="M106.815 84.3624C106.692 84.1591 106.527 83.9839 106.331 83.8484C106.136 83.7128 105.914 83.6199 105.68 83.5756C105.563 83.5611 105.445 83.5708 105.332 83.6042C105.22 83.6376 105.115 83.694 105.025 83.7698C104.936 83.8456 104.862 83.9391 104.81 84.0445C104.759 84.15 104.729 84.265 104.724 84.3824C104.764 84.8505 105.272 85.1194 105.72 85.2738C106.357 85.4872 107.01 85.6536 107.672 85.7718C107.428 85.2778 107.142 84.8062 106.815 84.3624Z" fill="#455A64"/>
<g opacity="0.3">
<path opacity="0.3" d="M164.021 75.6674C163.906 74.6713 163.602 73.506 162.671 73.1076C160.452 73.9484 158.153 74.5575 155.809 74.9253L155.749 75C156.157 75.5458 156.711 75.9659 157.347 76.2125C157.982 76.459 158.675 76.522 159.344 76.3944C159.781 76.2392 160.247 76.1798 160.709 76.2201C160.99 76.3258 161.243 76.4935 161.45 76.7108C161.657 76.9281 161.812 77.1894 161.904 77.4751C162.141 78.0858 162.514 78.6343 162.995 79.0787L164.225 77.49C164.384 76.8775 164.095 76.2899 164.021 75.6674Z" fill="black"/>
</g>
<g opacity="0.3">
<path opacity="0.3" d="M163.139 72.6245C169.388 70.623 174.592 66.2318 177.616 60.4085L163.139 72.6245Z" fill="black"/>
</g>
<path d="M143.03 96.6133L137.906 95.4729L134.245 96.3294C134.245 96.3294 133.976 96.927 134.868 97.1163L136.81 96.9818L134.962 97.9778C134.962 97.9778 135.087 98.675 135.958 98.5156C136.509 98.408 137.035 98.1968 137.507 97.8931L140.545 98.6999C140.545 98.6999 137.557 100.089 137.786 100.792C138.015 101.494 138.314 101.469 138.707 101.374C139.101 101.28 139.524 100.627 140.341 100.647C141.157 100.667 142.617 100.388 144.15 100.214C145.475 100.064 147.945 96.6083 147.945 96.6083L144.404 94.5715L143.03 96.6133Z" fill="#FFBE9D"/>
<path d="M140.161 96.9769C139.554 96.9483 138.954 96.8343 138.379 96.6383C138.174 96.5628 137.959 96.5175 137.741 96.5038C137.564 96.5304 137.394 96.5949 137.243 96.6931C136.979 96.8624 136.83 97.0018 136.8 96.9769C136.77 96.952 136.875 96.7678 137.139 96.5437C137.298 96.4058 137.49 96.3114 137.696 96.2698C137.823 96.2477 137.953 96.2562 138.075 96.2947L138.428 96.3843C139.031 96.4987 139.615 96.6982 140.161 96.9769Z" fill="#EB996E"/>
<path d="M228.497 211.392C228.497 211.462 177.536 211.522 114.684 211.522C51.8311 211.522 0.86084 211.462 0.86084 211.392C0.86084 211.323 51.8112 211.263 114.684 211.263C177.556 211.263 228.497 211.318 228.497 211.392Z" fill="#263238"/>
</g>
<defs>
<clipPath id="clip0">
<rect width="249" height="249" fill="white" transform="translate(0.86084 0.114014)"/>
</clipPath>
</defs>
</svg>
